<svg xmlns="http://www.w3.org/2000/svg" width="306" height="67" fill="none" viewBox="0 0 306 67">
    <g clip-path="url(#prefix__clip0)">
        <path fill="#E75760" d="M119.664 33.254c0 8.005-5.607 13.732-13.494 13.732-1.602 0-3.081-.308-4.437-.8-.862-.37-1.848.307-1.848 1.231v6.712c0 .74-.616 1.355-1.356 1.355h-6.1c-.74 0-1.356-.616-1.356-1.355V21.676c0-.739.616-1.354 1.356-1.354h3.944c.492 0 .924.246 1.17.677.37.677 1.233.924 1.91.493 1.911-1.294 4.191-2.033 6.779-2.033 7.825.062 13.432 5.727 13.432 13.795zm-8.934 0c0-3.387-2.465-5.912-5.792-5.912-3.328 0-5.793 2.525-5.793 5.912s2.465 5.911 5.793 5.911c3.327-.061 5.792-2.524 5.792-5.911zM123.177 33.254c0-8.006 6.038-13.733 14.48-13.733 8.38 0 14.481 5.727 14.481 13.733 0 7.944-6.101 13.732-14.481 13.732-8.442 0-14.48-5.788-14.48-13.732zm14.48 5.727c3.266 0 5.546-2.34 5.546-5.727 0-3.387-2.342-5.727-5.546-5.727s-5.545 2.34-5.545 5.727c0 3.387 2.279 5.727 5.545 5.727zM166.125 46.986c-6.223 0-10.29-2.894-11.215-7.451-.185-.985.555-1.848 1.479-1.848h5.546c.678 0 1.232.431 1.479 1.047.431 1.17 1.479 1.663 2.834 1.663 1.294 0 2.527-.677 2.527-1.97 0-1.479-1.972-1.91-4.437-2.34-4.005-.678-9.304-1.848-9.304-8.13 0-5.172 4.375-8.498 11.029-8.498 5.731 0 9.736 2.649 10.661 6.836.246.985-.493 1.909-1.479 1.909h-5.3c-.677 0-1.232-.431-1.417-1.047-.37-.924-1.294-1.416-2.526-1.416-1.417 0-2.403.677-2.403 1.909 0 1.478 1.971 1.786 4.436 2.217 4.067.739 9.49 1.54 9.49 8.128 0 5.42-4.56 8.991-11.4 8.991zM199.338 39.596v5.235c0 .677-.555 1.293-1.294 1.293h-4.807c-5.73 0-9.181-3.51-9.181-9.237V28.45c0-.677-.554-1.293-1.294-1.293h-2.156c-.678 0-1.294-.554-1.294-1.293v-.308c0-.308.123-.616.369-.862l10.845-11.516c.247-.246.555-.43.924-.43.678 0 1.294.553 1.294 1.292v5.05c0 .677.555 1.293 1.294 1.293h3.944c.678 0 1.294.554 1.294 1.293v4.311c0 .677-.555 1.293-1.294 1.293h-3.697c-.678 0-1.294.554-1.294 1.293v6.897c0 1.848 1.109 2.956 2.958 2.956h2.156c.617-.061 1.233.493 1.233 1.17zM243.457 29.928v14.656c0 .8-.678 1.478-1.479 1.478h-5.916c-.801 0-1.478-.677-1.478-1.478V31.037c0-2.71-.986-4.003-2.896-4.003-2.465 0-3.698 1.663-3.698 4.926v12.624c0 .8-.677 1.478-1.478 1.478h-5.669c-.801 0-1.479-.677-1.479-1.478V31.037c0-2.587-.986-4.003-2.835-4.003-2.403 0-3.697 1.724-3.697 4.926v12.624c0 .8-.678 1.478-1.479 1.478h-5.915c-.801 0-1.479-.677-1.479-1.478V21.8c0-.8.678-1.477 1.479-1.477h3.82c.555 0 1.109.369 1.356.862.431.862 1.54 1.108 2.28.554 1.725-1.355 3.82-2.155 6.1-2.155 2.526 0 4.806.923 6.408 2.586.555.616 1.479.616 2.095.061 1.787-1.662 4.19-2.648 6.84-2.648 5.484 0 9.12 4.311 9.12 10.346zM275.745 21.368v23.709c0 .554-.431 1.047-1.048 1.047h-5.176c-.431 0-.801-.246-.924-.616-.246-.554-.986-.8-1.479-.493-1.91 1.232-4.251 1.971-6.778 1.971-7.887 0-13.494-5.727-13.494-13.732 0-8.006 5.607-13.671 13.494-13.671 2.588 0 4.93.739 6.902 2.032.493.37 1.232.123 1.478-.431l.124-.247c.185-.37.554-.616.924-.616h4.929c.555 0 1.048.432 1.048 1.047zm-8.442 11.886c0-2.956-1.91-5.235-4.621-5.727-4.129-.74-7.703 3.078-6.778 7.143.554 2.648 2.773 4.434 5.607 4.434 3.327 0 5.792-2.525 5.792-5.85zM306.001 30.42v14.288c0 .8-.678 1.477-1.479 1.477h-5.977c-.801 0-1.479-.677-1.479-1.477V31.652c0-3.017-1.109-4.495-3.389-4.495-2.773 0-4.375 1.909-4.375 5.234v12.317c0 .8-.678 1.477-1.479 1.477h-5.977c-.801 0-1.479-.677-1.479-1.477V21.799c0-.8.678-1.477 1.479-1.477h3.82c.555 0 1.11.307 1.294.862.37.862 1.479 1.108 2.219.554 1.787-1.355 4.128-2.155 6.778-2.155 6.1 0 10.044 4.249 10.044 10.838z"/>
        <path fill="#040651" d="M57.614 57.886c0-1.601 1.232-2.894 2.773-3.017.123 0 .246-.123.246-.308v-5.543c0-.123-.123-.246-.246-.307-1.54-.124-2.773-1.417-2.773-3.018 0-1.601 1.232-2.894 2.773-3.017.123 0 .246-.123.246-.308v-5.543c0-.123-.123-.246-.246-.308-1.54-.123-2.773-1.416-2.773-3.017s1.232-2.894 2.773-3.017c.123 0 .246-.124.246-.308v-5.543c0-.123-.123-.246-.246-.308-1.54-.123-2.773-1.416-2.773-3.017s1.232-2.894 2.773-3.017c.123 0 .246-.124.246-.308v-5.543c0-.123-.123-.246-.246-.307-1.54-.124-2.773-1.417-2.773-3.018 0-1.601 1.232-2.894 2.773-3.017.123 0 .246-.124.246-.308V.246c0-.184-.123-.308-.308-.308h-4.93c-.184 0-.308.124-.308.308 0 1.54-1.232 2.772-2.773 2.772-1.54 0-2.772-1.232-2.772-2.772C49.603.123 49.48 0 49.295 0h-4.93c-.184 0-.307.123-.307.308 0 1.54-1.233 2.771-2.773 2.771S38.512 1.847 38.512.308c0-.185-.123-.308-.308-.308h-4.93c-.185 0-.308.123-.308.308 0 1.54-1.232 2.771-2.773 2.771-1.54 0-2.773-1.232-2.773-2.771 0-.185-.123-.308-.308-.308h-4.93c-.184 0-.307.123-.307.308 0 1.54-1.233 2.771-2.773 2.771S16.329 1.847 16.329.308c0-.185-.123-.308-.308-.308h-4.93c-.184 0-.308.123-.308.308 0 1.54-1.232 2.771-2.773 2.771-1.54 0-2.772-1.232-2.772-2.771.246-.185.123-.308 0-.308H.308C.123 0 0 .123 0 .308V5.85c0 .123.123.247.246.308 1.541.123 2.773 1.417 2.773 3.018 0 1.6-1.232 2.894-2.773 3.017-.123 0-.246.123-.246.246v5.543c0 .123.123.246.246.308 1.603.123 2.773 1.416 2.773 3.017S1.787 24.201.246 24.325c-.123.061-.246.184-.246.307v5.543c0 .123.123.246.246.308 1.541.123 2.773 1.416 2.773 3.017S1.787 36.394.246 36.517c-.123 0-.246.124-.246.308v5.543c0 .123.123.246.246.308 1.541.123 2.773 1.416 2.773 3.017S1.787 48.587.246 48.711c-.123 0-.246.123-.246.307v5.543c0 .123.123.246.246.246 1.603.185 2.773 1.478 2.773 3.08 0 1.6-1.232 2.893-2.773 3.017-.123 0-.246.123-.246.307v5.543c0 .184.123.308.308.308h4.93c.123 0 .246-.123.308-.247.123-1.416 1.294-2.525 2.773-2.525 1.478 0 2.588 1.109 2.772 2.525 0 .124.124.247.309.247h4.99c.124 0 .247-.123.309-.247.123-1.416 1.294-2.525 2.773-2.525 1.417 0 2.588 1.109 2.772 2.525 0 .124.124.247.309.247h4.99c.124 0 .247-.123.309-.247.123-1.416 1.294-2.525 2.773-2.525 1.478 0 2.588 1.109 2.773 2.525 0 .124.123.247.308.247h4.99c.124 0 .247-.123.309-.247.123-1.416 1.294-2.525 2.773-2.525 1.417 0 2.588 1.109 2.773 2.525 0 .124.123.247.308.247h4.99c.124 0 .247-.123.309-.247.123-1.416 1.294-2.525 2.773-2.525 1.417 0 2.588 1.109 2.773 2.525 0 .124.123.247.308.247h4.93c.184 0 .307-.123.307-.308V61.21c0-.123-.123-.246-.246-.307-2.218-.124-3.39-1.417-3.39-3.018z"/>
        <path fill="#F4F5FA" d="M30.625 26.357c0 .862.678 1.54 1.54 1.54.863 0 1.54-.678 1.54-1.54s-.677-1.54-1.54-1.54c-.862 0-1.54.678-1.54 1.54z"/>
        <path fill="#E75760" d="M32.288 9.299H13.002c-1.603 0-2.897 1.293-2.897 2.894v44.092c0 .739.617 1.355 1.356 1.355h6.162c1.787 0 3.266-1.355 3.45-3.14l.987-9.053c.37-3.08.677-6.097.986-9.176v-.061c0-.247.061-.431.061-.678.308-2.894.678-5.788.986-8.683.37-3.325 2.773-5.973 5.915-6.404 3.205-.431 5.916 1.108 7.333 4.064.185.431.431.8.74 1.232l1.602 2.217.061.061c.555.678 1.11 1.294 1.664 1.91.308.369.061.862-.431.862H38.45c-1.848 0-2.218.554-1.664 2.278 1.11 3.51 2.28 7.02 3.451 10.592.431 1.355 2.095 1.909 3.266 1.108 4.621-3.202 7.764-8.313 8.38-14.225C52.993 18.967 44.057 9.3 32.288 9.3z"/>
    </g>
    <defs>
        <clipPath id="prefix__clip0">
            <path fill="#fff" d="M0 0H306V67H0z"/>
        </clipPath>
    </defs>
</svg>
