<svg width="155" height="40" viewBox="0 0 155 40" fill="none" xmlns="http://www.w3.org/2000/svg">
<path d="M66.8783 5.35882C66.8783 3.8066 65.6859 2.60771 64.1381 2.60771C63.7767 2.60247 63.4179 2.67005 63.0829 2.80645C62.748 2.94285 62.4437 3.1453 62.1881 3.40182C61.9325 3.65833 61.7308 3.9637 61.5949 4.29985C61.4589 4.636 61.3916 4.99609 61.3968 5.35882C61.3916 5.72155 61.4589 6.08165 61.5949 6.41779C61.7308 6.75394 61.9325 7.05931 62.1881 7.31582C62.4437 7.57234 62.748 7.77479 63.0829 7.91119C63.4179 8.04759 63.7767 8.11517 64.1381 8.10993C65.6859 8.10993 66.8783 6.91104 66.8783 5.35882ZM59.797 5.35882C59.797 2.9466 61.6703 1.12549 64.1381 1.12549C66.607 1.12549 68.4792 2.9466 68.4792 5.35882C68.4792 7.77104 66.6059 9.59215 64.1381 9.59215C61.6692 9.59215 59.7959 7.77215 59.7959 5.35882H59.797ZM75.8395 3.86549C75.8395 3.10771 75.3579 2.58104 74.4368 2.58104H73.0229C72.9522 2.58104 72.8843 2.60926 72.8343 2.65947C72.7842 2.70969 72.7561 2.7778 72.7561 2.84882V4.86549C72.7561 5.01327 72.8757 5.13215 73.0229 5.13215H74.4368C75.3579 5.13215 75.8395 4.65438 75.8395 3.86549ZM77.3862 3.88104C77.3862 5.36438 76.3266 6.48771 74.6781 6.48771H73.0229C72.9523 6.488 72.8846 6.51631 72.8346 6.56646C72.7846 6.61662 72.7564 6.68456 72.7561 6.75549V9.2166C72.7563 9.25195 72.7494 9.28698 72.736 9.31967C72.7226 9.35236 72.7029 9.38206 72.678 9.40706C72.6531 9.43206 72.6235 9.45186 72.5909 9.46532C72.5583 9.47878 72.5234 9.48563 72.4882 9.48549H71.4275C71.3567 9.48519 71.2888 9.45673 71.2388 9.40634C71.1888 9.35595 71.1607 9.28772 71.1607 9.2166V1.50104C71.1607 1.35327 71.2792 1.23215 71.4275 1.23215H74.677C76.3266 1.23215 77.3862 2.42104 77.3862 3.88104ZM81.5656 2.92549V4.39215C81.5656 4.54104 81.6863 4.66104 81.8336 4.66104H84.2162C84.3645 4.66104 84.4841 4.77993 84.4841 4.92882V5.79993C84.4841 5.87125 84.4559 5.93964 84.4056 5.99007C84.3554 6.04049 84.2872 6.06882 84.2162 6.06882H81.8336C81.7984 6.06868 81.7636 6.07549 81.7311 6.08888C81.6986 6.10228 81.6691 6.12198 81.6442 6.14686C81.6193 6.17174 81.5995 6.20131 81.5861 6.23387C81.5726 6.26643 81.5656 6.30134 81.5656 6.3366V7.79215C81.5656 7.94104 81.6863 8.06104 81.8336 8.06104H84.6125C84.7598 8.06104 84.8804 8.18104 84.8804 8.32993V9.2166C84.8806 9.25195 84.8738 9.28698 84.8603 9.31967C84.8469 9.35236 84.8272 9.38206 84.8023 9.40706C84.7774 9.43206 84.7478 9.45186 84.7152 9.46532C84.6826 9.47878 84.6477 9.48563 84.6125 9.48549H80.2393C80.2041 9.48563 80.1692 9.47878 80.1366 9.46532C80.104 9.45186 80.0744 9.43206 80.0495 9.40706C80.0246 9.38206 80.0049 9.35236 79.9915 9.31967C79.978 9.28698 79.9712 9.25195 79.9714 9.2166V1.50104C79.9714 1.35327 80.0909 1.23215 80.2382 1.23215H84.6125C84.7598 1.23215 84.8804 1.35327 84.8804 1.50104V2.38771C84.8806 2.42306 84.8738 2.45809 84.8603 2.49078C84.8469 2.52347 84.8272 2.55317 84.8023 2.57817C84.7774 2.60317 84.7478 2.62297 84.7152 2.63643C84.6826 2.64989 84.6477 2.65675 84.6125 2.6566H81.8336C81.7625 2.6566 81.6944 2.68493 81.6441 2.73536C81.5939 2.78578 81.5656 2.85417 81.5656 2.92549ZM95.5267 1.50104V9.2166C95.5269 9.25186 95.5201 9.2868 95.5067 9.31941C95.4934 9.35203 95.4738 9.38168 95.449 9.40666C95.4242 9.43165 95.3947 9.45147 95.3623 9.465C95.3298 9.47853 95.295 9.48549 95.2599 9.48549H94.1461C94.1056 9.48567 94.0656 9.47655 94.0291 9.45883C93.9927 9.44112 93.9607 9.41527 93.9358 9.38327L89.8039 4.17549C89.7695 4.13184 89.7224 4.10004 89.6691 4.0845C89.6159 4.06897 89.5591 4.07047 89.5068 4.0888C89.4544 4.10713 89.409 4.14138 89.377 4.18679C89.3449 4.23219 89.3277 4.2865 89.3278 4.34215V9.2166C89.3278 9.28791 89.2996 9.35631 89.2494 9.40673C89.1991 9.45716 89.131 9.48549 89.0599 9.48549H88.0214C87.9503 9.48549 87.8822 9.45716 87.8319 9.40673C87.7817 9.35631 87.7535 9.28791 87.7535 9.2166V1.50104C87.7535 1.35327 87.873 1.23215 88.0214 1.23215H89.1241C89.2049 1.23215 89.2824 1.26993 89.3334 1.33327L93.4663 6.52215C93.6235 6.72216 93.9424 6.60882 93.9424 6.35549V1.49993C93.9424 1.35327 94.062 1.23327 94.2103 1.23327H95.2599C95.4072 1.23327 95.5267 1.35327 95.5267 1.49993V1.50104ZM68.4792 19.571C68.4792 21.9955 66.6115 23.8155 64.1392 23.8155C61.6703 23.8155 59.797 21.9955 59.797 19.5822C59.797 17.1699 61.6692 15.3488 64.1381 15.3488C65.5575 15.3488 66.782 15.9544 67.5592 16.9222C67.5841 16.9528 67.6021 16.9885 67.6118 17.0268C67.6216 17.0651 67.6228 17.105 67.6156 17.1439C67.6083 17.1827 67.5926 17.2195 67.5697 17.2517C67.5468 17.2838 67.5171 17.3105 67.4828 17.3299L66.565 17.8377C66.5122 17.8681 66.4507 17.8793 66.3906 17.8696C66.3306 17.8599 66.2756 17.8298 66.235 17.7844C65.9746 17.4815 65.6515 17.2392 65.2882 17.0746C64.9248 16.9099 64.5301 16.8268 64.1315 16.831C62.5959 16.831 61.3968 18.0077 61.3968 19.6199C61.3968 21.1299 62.4619 22.3333 64.1592 22.3333C65.3659 22.3333 66.2638 21.7266 66.6569 20.7655C66.6728 20.7246 66.6785 20.6804 66.6734 20.6368C66.6684 20.5932 66.6528 20.5515 66.628 20.5153C66.6032 20.4791 66.57 20.4496 66.5312 20.4293C66.4924 20.409 66.4493 20.3985 66.4055 20.3988H64.9032C64.8326 20.3985 64.765 20.3702 64.7152 20.32C64.6654 20.2698 64.6374 20.2019 64.6374 20.131V19.3455C64.6374 19.1977 64.7559 19.0777 64.9032 19.0777H68.2024C68.3453 19.0777 68.4604 19.1866 68.4704 19.3288C68.4759 19.4066 68.4792 19.4877 68.4792 19.571ZM77.5799 19.5822C77.5799 18.0299 76.3842 16.831 74.8386 16.831C74.4772 16.8258 74.1184 16.8934 73.7835 17.0298C73.4485 17.1662 73.1442 17.3686 72.8886 17.6252C72.633 17.8817 72.4313 18.187 72.2954 18.5232C72.1595 18.8593 72.0921 19.2194 72.0974 19.5822C72.0921 19.9449 72.1595 20.305 72.2954 20.6411C72.4313 20.9773 72.633 21.2826 72.8886 21.5392C73.1442 21.7957 73.4485 21.9981 73.7835 22.1345C74.1184 22.2709 74.4772 22.3385 74.8386 22.3333C76.3853 22.3333 77.5788 21.1355 77.5788 19.5822H77.5799ZM70.4964 19.5822C70.4964 17.1699 72.3708 15.3488 74.8386 15.3488C77.3065 15.3488 79.1798 17.1699 79.1798 19.5822C79.1798 21.9955 77.3065 23.8155 74.8386 23.8155C72.3697 23.8155 70.4964 21.9955 70.4964 19.5822ZM88.3137 15.8199L85.4019 23.5355C85.3825 23.5866 85.3481 23.6306 85.3032 23.6615C85.2583 23.6925 85.2051 23.709 85.1506 23.7088H83.8707C83.76 23.7088 83.6604 23.6388 83.6216 23.5355L80.7132 15.8199C80.698 15.7793 80.6928 15.7356 80.6981 15.6925C80.7034 15.6494 80.719 15.6083 80.7436 15.5726C80.7682 15.5369 80.801 15.5077 80.8393 15.4875C80.8775 15.4673 80.9201 15.4567 80.9634 15.4566H82.0738C82.1868 15.4566 82.2886 15.5277 82.3263 15.6344L84.2593 21.0722C84.2776 21.1246 84.3116 21.17 84.3568 21.2022C84.4019 21.2343 84.4559 21.2516 84.5112 21.2516C84.5665 21.2516 84.6205 21.2343 84.6656 21.2022C84.7108 21.17 84.7448 21.1246 84.7631 21.0722L86.7006 15.6344C86.7191 15.5822 86.7534 15.537 86.7986 15.5052C86.8438 15.4733 86.8978 15.4564 86.953 15.4566H88.0635C88.2506 15.4566 88.3801 15.6433 88.3137 15.8199ZM92.45 17.1488V18.6155C92.45 18.7633 92.5684 18.8844 92.7157 18.8844H95.0994C95.2466 18.8844 95.3673 19.0044 95.3673 19.1522V20.0233C95.3673 20.0946 95.3391 20.163 95.2888 20.2134C95.2386 20.2638 95.1704 20.2922 95.0994 20.2922H92.7168C92.6818 20.292 92.647 20.2988 92.6146 20.3121C92.5822 20.3254 92.5527 20.345 92.5278 20.3698C92.5029 20.3946 92.4831 20.424 92.4696 20.4564C92.4561 20.4889 92.449 20.5237 92.4489 20.5588V22.0155C92.4489 22.1644 92.5684 22.2844 92.7168 22.2844H95.4957C95.643 22.2844 95.7625 22.4044 95.7625 22.5533V23.4399C95.7627 23.4752 95.7559 23.5101 95.7425 23.5427C95.7292 23.5754 95.7096 23.605 95.6848 23.63C95.66 23.655 95.6305 23.6748 95.5981 23.6883C95.5656 23.7019 95.5308 23.7088 95.4957 23.7088H91.1203C91.0496 23.7082 90.982 23.6796 90.9323 23.6293C90.8825 23.5789 90.8546 23.5109 90.8546 23.4399V15.7244C90.8546 15.5766 90.973 15.4566 91.1203 15.4566H95.4957C95.643 15.4566 95.7625 15.5766 95.7625 15.7244V16.6122C95.7625 16.6832 95.7344 16.7513 95.6844 16.8015C95.6344 16.8517 95.5665 16.8799 95.4957 16.8799H92.7168C92.6816 16.8798 92.6467 16.8866 92.6141 16.9001C92.5815 16.9136 92.5519 16.9334 92.527 16.9584C92.5021 16.9834 92.4824 17.0131 92.469 17.0457C92.4555 17.0784 92.4487 17.1135 92.4489 17.1488H92.45ZM100.232 18.6699C100.232 18.8177 100.352 18.9366 100.499 18.9366H101.741C102.506 18.9366 102.919 18.5455 102.919 17.8844C102.919 17.2344 102.506 16.8099 101.741 16.8099H100.499C100.464 16.8098 100.429 16.8166 100.396 16.8301C100.364 16.8436 100.334 16.8634 100.309 16.8884C100.284 16.9134 100.264 16.9431 100.251 16.9757C100.238 17.0084 100.231 17.0435 100.231 17.0788V18.6699H100.232ZM101.412 20.221H100.499C100.464 20.2209 100.429 20.2277 100.396 20.2412C100.364 20.2547 100.334 20.2745 100.309 20.2995C100.284 20.3245 100.264 20.3542 100.251 20.3869C100.238 20.4195 100.231 20.4546 100.231 20.4899V23.4399C100.231 23.4752 100.224 23.5101 100.211 23.5427C100.198 23.5754 100.178 23.605 100.153 23.63C100.128 23.655 100.099 23.6748 100.067 23.6883C100.034 23.7019 99.9993 23.7088 99.9641 23.7088H98.9035C98.8326 23.7085 98.7648 23.6801 98.7148 23.6297C98.6648 23.5793 98.6367 23.5111 98.6367 23.4399V15.7244C98.6367 15.5766 98.7563 15.4566 98.9046 15.4566H101.85C103.54 15.4566 104.466 16.5522 104.466 17.901C104.466 18.8033 104.004 19.5277 103.292 19.9155C103.261 19.9327 103.233 19.956 103.211 19.9841C103.189 20.0122 103.173 20.0445 103.164 20.079C103.154 20.1136 103.152 20.1496 103.157 20.1851C103.161 20.2206 103.173 20.2547 103.191 20.2855L104.972 23.3033C104.996 23.344 105.009 23.3905 105.01 23.438C105.01 23.4855 104.998 23.5323 104.975 23.5736C104.951 23.6149 104.917 23.6492 104.876 23.6729C104.835 23.6967 104.789 23.7091 104.741 23.7088H103.634C103.587 23.7089 103.54 23.696 103.499 23.6716C103.457 23.6471 103.424 23.612 103.401 23.5699L101.646 20.361C101.623 20.3188 101.589 20.2836 101.548 20.2591C101.506 20.2347 101.459 20.2219 101.411 20.2222L101.412 20.221ZM115.386 15.7244V23.4399C115.386 23.5109 115.358 23.5789 115.308 23.6293C115.258 23.6796 115.19 23.7082 115.12 23.7088H114.005C113.965 23.709 113.925 23.7001 113.888 23.6826C113.852 23.665 113.82 23.6394 113.795 23.6077L109.664 18.3988C109.629 18.3558 109.582 18.3246 109.529 18.3095C109.476 18.2943 109.419 18.296 109.367 18.3142C109.315 18.3325 109.27 18.3664 109.238 18.4113C109.206 18.4563 109.188 18.5101 109.188 18.5655V23.4399C109.188 23.5112 109.16 23.5796 109.109 23.6301C109.059 23.6805 108.991 23.7088 108.92 23.7088H107.88C107.809 23.7085 107.741 23.6801 107.691 23.6297C107.641 23.5793 107.613 23.5111 107.613 23.4399V15.7244C107.613 15.5766 107.733 15.4566 107.88 15.4566H108.983C109.023 15.4563 109.063 15.4652 109.099 15.4825C109.135 15.4998 109.167 15.5252 109.192 15.5566L113.325 20.7466C113.483 20.9455 113.801 20.8333 113.801 20.5799V15.7244C113.801 15.5766 113.921 15.4566 114.069 15.4566H115.119C115.266 15.4566 115.386 15.5766 115.386 15.7255V15.7244ZM127.617 15.7255V23.4399C127.617 23.5112 127.589 23.5796 127.539 23.6301C127.489 23.6805 127.42 23.7088 127.349 23.7088H126.289C126.254 23.7087 126.219 23.7016 126.187 23.688C126.154 23.6744 126.125 23.6546 126.1 23.6296C126.076 23.6046 126.056 23.575 126.043 23.5425C126.03 23.5099 126.023 23.4751 126.023 23.4399V18.9644C126.023 18.671 125.618 18.591 125.507 18.8644L123.601 23.5422C123.58 23.5913 123.546 23.6334 123.502 23.663C123.458 23.6927 123.407 23.7086 123.354 23.7088H122.883C122.83 23.7089 122.778 23.693 122.733 23.6631C122.689 23.6332 122.655 23.5907 122.635 23.541L120.739 18.861C120.628 18.5877 120.224 18.6677 120.224 18.961V23.4399C120.224 23.5112 120.196 23.5796 120.145 23.6301C120.095 23.6805 120.027 23.7088 119.956 23.7088H118.896C118.825 23.7088 118.757 23.6805 118.707 23.6301C118.657 23.5796 118.628 23.5112 118.628 23.4399V15.7244C118.628 15.5766 118.748 15.4566 118.896 15.4566H120.612C120.721 15.4566 120.818 15.5222 120.86 15.6222L122.869 20.5044C122.889 20.5531 122.924 20.5947 122.967 20.624C123.011 20.6532 123.063 20.6688 123.116 20.6688C123.168 20.6688 123.22 20.6532 123.264 20.624C123.308 20.5947 123.342 20.5531 123.363 20.5044L125.391 15.621C125.411 15.5724 125.446 15.5309 125.49 15.5016C125.534 15.4724 125.585 15.4567 125.638 15.4566H127.349C127.498 15.4566 127.617 15.5766 127.617 15.7244V15.7255ZM132.461 17.1488V18.6155C132.461 18.7633 132.581 18.8844 132.728 18.8844H135.112C135.259 18.8844 135.378 19.0044 135.378 19.1522V20.0233C135.378 20.0944 135.35 20.1626 135.3 20.213C135.25 20.2634 135.182 20.2919 135.112 20.2922H132.728C132.657 20.2924 132.59 20.3206 132.54 20.3706C132.49 20.4205 132.462 20.4882 132.462 20.5588V22.0155C132.462 22.1644 132.581 22.2844 132.728 22.2844H135.507C135.655 22.2844 135.775 22.4044 135.775 22.5533V23.4399C135.775 23.5112 135.746 23.5796 135.696 23.6301C135.646 23.6805 135.578 23.7088 135.507 23.7088H131.134C131.062 23.7088 130.994 23.6805 130.944 23.6301C130.894 23.5796 130.866 23.5112 130.866 23.4399V15.7244C130.866 15.5766 130.985 15.4566 131.132 15.4566H135.507C135.655 15.4566 135.775 15.5766 135.775 15.7244V16.6122C135.774 16.6833 135.746 16.7514 135.696 16.8016C135.646 16.8518 135.578 16.8799 135.507 16.8799H132.728C132.693 16.8801 132.658 16.8871 132.626 16.9007C132.593 16.9143 132.564 16.9342 132.539 16.9591C132.515 16.9841 132.495 17.0137 132.482 17.0463C132.469 17.0788 132.462 17.1137 132.462 17.1488H132.461ZM146.421 15.7244V23.4399C146.421 23.4752 146.414 23.5101 146.401 23.5427C146.388 23.5754 146.368 23.605 146.343 23.63C146.318 23.655 146.289 23.6748 146.257 23.6883C146.224 23.7019 146.189 23.7088 146.154 23.7088H145.04C145 23.709 144.96 23.6999 144.924 23.6824C144.888 23.6649 144.856 23.6394 144.831 23.6077L140.698 18.3988C140.663 18.3558 140.616 18.3246 140.563 18.3095C140.51 18.2943 140.454 18.296 140.402 18.3142C140.35 18.3325 140.304 18.3664 140.272 18.4113C140.24 18.4563 140.223 18.5101 140.222 18.5655V23.4399C140.222 23.5112 140.194 23.5796 140.144 23.6301C140.093 23.6805 140.025 23.7088 139.954 23.7088H138.916C138.845 23.7088 138.776 23.6805 138.726 23.6301C138.676 23.5796 138.648 23.5112 138.648 23.4399V15.7244C138.648 15.5766 138.767 15.4566 138.916 15.4566H140.018C140.058 15.4565 140.098 15.4654 140.134 15.4827C140.17 15.5001 140.202 15.5253 140.227 15.5566L144.361 20.7466C144.518 20.9455 144.837 20.8333 144.837 20.5799V15.7244C144.837 15.5766 144.956 15.4566 145.105 15.4566H146.154C146.301 15.4566 146.421 15.5766 146.421 15.7255" fill="#100C55"/>
<mask id="mask0" mask-type="alpha" maskUnits="userSpaceOnUse" x="148" y="15" width="7" height="9">
<path d="M148.893 15.4565H154.716V23.7077H148.894L148.893 15.4565Z" fill="#100C55"/>
</mask>
<g mask="url(#mask0)">
<path d="M154.449 16.8799H152.869C152.798 16.8802 152.73 16.9086 152.68 16.959C152.63 17.0094 152.602 17.0776 152.602 17.1488V23.441C152.602 23.5121 152.574 23.5802 152.523 23.6304C152.473 23.6806 152.405 23.7088 152.334 23.7088H151.279C151.209 23.7085 151.141 23.6802 151.091 23.63C151.041 23.5799 151.013 23.5119 151.012 23.441V17.1488C151.013 17.1134 151.006 17.0784 150.992 17.0457C150.979 17.013 150.959 16.9833 150.934 16.9583C150.909 16.9333 150.88 16.9135 150.847 16.9C150.815 16.8866 150.78 16.8797 150.745 16.8799H149.16C149.09 16.8796 149.022 16.8514 148.973 16.8014C148.923 16.7515 148.895 16.6838 148.895 16.6132V15.7243C148.895 15.5765 149.013 15.4565 149.16 15.4565H154.45C154.599 15.4565 154.718 15.5765 154.718 15.7254V16.6121C154.718 16.6832 154.689 16.7513 154.639 16.8015C154.589 16.8517 154.521 16.8799 154.45 16.8799" fill="#100C55"/>
</g>
<path d="M65.0424 32.3122C65.0424 31.5544 64.5608 31.0278 63.6397 31.0278H62.227C62.1559 31.0278 62.0878 31.0561 62.0375 31.1065C61.9873 31.157 61.959 31.2254 61.959 31.2967V33.3122C61.959 33.46 62.0786 33.58 62.227 33.58H63.6397C64.5608 33.58 65.0424 33.1022 65.0424 32.3122ZM66.5902 32.3278C66.5902 33.8111 65.5296 34.9344 63.881 34.9344H62.227C62.1918 34.9343 62.157 34.9411 62.1245 34.9545C62.092 34.9679 62.0625 34.9876 62.0376 35.0125C62.0127 35.0374 61.9929 35.0669 61.9795 35.0995C61.966 35.1321 61.959 35.167 61.959 35.2022V37.6633C61.9592 37.6986 61.9524 37.7335 61.939 37.7661C61.9257 37.7988 61.9061 37.8284 61.8813 37.8534C61.8565 37.8784 61.827 37.8982 61.7946 37.9117C61.7621 37.9253 61.7273 37.9322 61.6922 37.9322H60.6316C60.5605 37.9322 60.4924 37.9039 60.4421 37.8535C60.3919 37.803 60.3636 37.7346 60.3636 37.6633V29.9478C60.3636 29.8 60.4832 29.68 60.6316 29.68H63.881C65.5307 29.68 66.5891 30.8667 66.5891 32.3289L66.5902 32.3278ZM70.7697 32.8922C70.7697 33.0411 70.8893 33.1611 71.0365 33.1611H72.2787C73.0449 33.1611 73.4567 32.7678 73.4567 32.1078C73.4567 31.4578 73.0449 31.0344 72.2787 31.0344H71.0365C70.9659 31.0344 70.8982 31.0625 70.8482 31.1125C70.7982 31.1625 70.77 31.2303 70.7697 31.3011V32.8922ZM71.9488 34.4444H71.0365C70.9656 34.4447 70.8978 34.4732 70.8478 34.5236C70.7978 34.574 70.7697 34.6422 70.7697 34.7133V37.6633C70.7697 37.7346 70.7414 37.803 70.6912 37.8535C70.641 37.9039 70.5728 37.9322 70.5017 37.9322H69.4411C69.406 37.9322 69.3712 37.9253 69.3387 37.9117C69.3063 37.8982 69.2768 37.8784 69.252 37.8534C69.2272 37.8284 69.2076 37.7988 69.1943 37.7661C69.1809 37.7335 69.1741 37.6986 69.1743 37.6633V29.9478C69.1743 29.8 69.2939 29.68 69.4411 29.68H72.3861C74.0778 29.68 75.0034 30.7756 75.0034 32.1244C75.0034 33.0267 74.5417 33.7511 73.8298 34.1389C73.7985 34.1561 73.771 34.1794 73.7489 34.2075C73.7269 34.2356 73.7106 34.2679 73.7012 34.3024C73.6918 34.337 73.6894 34.373 73.6942 34.4085C73.699 34.444 73.7109 34.4781 73.7291 34.5089L75.5082 37.5267C75.5326 37.5673 75.5457 37.6137 75.5463 37.6612C75.5468 37.7086 75.5349 37.7553 75.5115 37.7965C75.4882 37.8378 75.4544 37.8721 75.4136 37.8959C75.3727 37.9198 75.3263 37.9323 75.2791 37.9322H74.1719C74.1238 37.9324 74.0766 37.9194 74.0353 37.8948C73.9939 37.8701 73.96 37.8347 73.9372 37.7922L72.1835 34.5844C72.1603 34.5423 72.1263 34.5072 72.085 34.4828C72.0438 34.4584 71.9967 34.4455 71.9488 34.4456V34.4444ZM84.4462 33.8056C84.4462 32.2533 83.2527 31.0544 81.706 31.0544C81.3446 31.0492 80.9858 31.1168 80.6508 31.2532C80.3159 31.3896 80.0116 31.592 79.756 31.8486C79.5004 32.1051 79.2987 32.4104 79.1628 32.7466C79.0269 33.0827 78.9595 33.4428 78.9647 33.8056C78.9595 34.1683 79.0269 34.5284 79.1628 34.8645C79.2987 35.2007 79.5004 35.506 79.756 35.7626C80.0116 36.0191 80.3159 36.2215 80.6508 36.3579C80.9858 36.4943 81.3446 36.5619 81.706 36.5567C83.2527 36.5567 84.4462 35.3589 84.4462 33.8056ZM77.3638 33.8056C77.3638 31.3933 79.2382 29.5722 81.706 29.5722C84.1728 29.5722 86.0471 31.3933 86.0471 33.8056C86.0471 36.2189 84.1739 38.0389 81.706 38.0389C79.2371 38.0389 77.3638 36.2178 77.3638 33.8056ZM91.4744 36.5078C93.2192 36.5078 94.0651 35.5522 94.0651 33.8056C94.0651 32.06 93.2192 31.1033 91.4744 31.1033H90.5853C90.5501 31.1032 90.5152 31.11 90.4826 31.1235C90.45 31.137 90.4204 31.1568 90.3955 31.1818C90.3706 31.2068 90.3509 31.2365 90.3375 31.2691C90.3241 31.3018 90.3172 31.3369 90.3174 31.3722V36.2389C90.3174 36.3878 90.437 36.5078 90.5853 36.5078H91.4744ZM88.7286 29.9478C88.7286 29.8 88.8471 29.68 88.9944 29.68H91.5441C94.2743 29.68 95.7191 31.3078 95.7191 33.8067C95.7191 36.3044 94.2743 37.9322 91.5441 37.9322H88.9955C88.9602 37.9324 88.9253 37.9255 88.8928 37.9121C88.8602 37.8986 88.8306 37.8788 88.8057 37.8538C88.7808 37.8288 88.761 37.7991 88.7476 37.7664C88.7342 37.7337 88.7274 37.6987 88.7275 37.6633V29.9478H88.7286ZM98.2833 35.0744V29.9478C98.2833 29.8 98.4029 29.68 98.5501 29.68H99.6107C99.758 29.68 99.8787 29.8 99.8787 29.9478V34.8256C99.8787 36.1422 100.633 36.6211 101.624 36.6211C102.62 36.6211 103.373 36.1433 103.373 34.8267V29.9489C103.373 29.8 103.493 29.68 103.641 29.68H104.707C104.855 29.68 104.975 29.8 104.975 29.9478V35.0744C104.975 37.0456 103.529 38.04 101.624 38.04C99.7281 38.04 98.2833 37.0456 98.2833 35.0744ZM107.49 33.8056C107.49 31.3933 109.357 29.5722 111.83 29.5722C112.943 29.5722 114 29.9867 114.764 30.6611C114.793 30.6859 114.816 30.7164 114.832 30.7506C114.848 30.7849 114.856 30.8221 114.857 30.8599C114.858 30.8978 114.851 30.9353 114.836 30.9701C114.821 31.005 114.799 31.0364 114.772 31.0622L114.037 31.7533C113.989 31.7994 113.925 31.8255 113.858 31.8263C113.792 31.8271 113.727 31.8026 113.678 31.7578C113.171 31.3018 112.513 31.0512 111.831 31.0544C110.284 31.0544 109.089 32.2478 109.089 33.8056C109.089 35.3633 110.285 36.5567 111.831 36.5567C112.531 36.5567 113.193 36.2967 113.677 35.8533C113.726 35.8084 113.791 35.7839 113.858 35.7847C113.924 35.7855 113.988 35.8116 114.037 35.8578L114.772 36.5489C114.799 36.5748 114.821 36.6062 114.835 36.641C114.85 36.6757 114.857 36.7132 114.856 36.7509C114.855 36.7885 114.846 36.8256 114.83 36.8597C114.814 36.8938 114.791 36.9242 114.763 36.9489C113.948 37.6547 112.908 38.0421 111.831 38.04C109.357 38.04 107.489 36.2178 107.489 33.8067L107.49 33.8056ZM122.242 31.1033H120.663C120.628 31.1033 120.593 31.1103 120.561 31.1238C120.528 31.1373 120.498 31.1571 120.474 31.1821C120.449 31.2071 120.429 31.2367 120.416 31.2693C120.402 31.3019 120.395 31.3369 120.395 31.3722V37.6633C120.395 37.7346 120.367 37.803 120.317 37.8535C120.266 37.9039 120.198 37.9322 120.127 37.9322H119.072C119.037 37.9322 119.002 37.9253 118.97 37.9117C118.937 37.8982 118.908 37.8784 118.883 37.8534C118.858 37.8284 118.839 37.7988 118.825 37.7661C118.812 37.7335 118.805 37.6986 118.805 37.6633V31.3711C118.805 31.3359 118.798 31.3012 118.785 31.2687C118.771 31.2363 118.751 31.2069 118.726 31.1821C118.701 31.1573 118.672 31.1377 118.64 31.1244C118.607 31.1111 118.572 31.1043 118.537 31.1044H116.953C116.882 31.1044 116.814 31.0761 116.764 31.0257C116.713 30.9753 116.685 30.9069 116.685 30.8356V29.9478C116.685 29.8 116.805 29.68 116.953 29.68H122.242C122.39 29.68 122.51 29.8 122.51 29.9478V30.8356C122.51 30.8708 122.503 30.9057 122.489 30.9383C122.476 30.9708 122.456 31.0004 122.431 31.0253C122.406 31.0502 122.377 31.0699 122.344 31.0833C122.312 31.0967 122.277 31.1035 122.242 31.1033ZM124.444 36.5333L125.022 35.8078C125.045 35.7789 125.074 35.7551 125.106 35.738C125.139 35.7208 125.175 35.7107 125.211 35.7082C125.248 35.7057 125.285 35.7109 125.32 35.7234C125.354 35.736 125.386 35.7556 125.413 35.7811C125.966 36.3167 126.728 36.68 127.397 36.68C128.039 36.68 128.505 36.3467 128.505 35.7611C128.505 35.0256 127.771 34.7511 126.834 34.3378C125.758 33.8656 124.623 33.3267 124.623 31.8711C124.623 30.41 125.758 29.5722 127.161 29.5722C128.089 29.5722 128.962 29.92 129.679 30.4944C129.731 30.5381 129.765 30.6003 129.772 30.6682C129.78 30.7361 129.762 30.8044 129.721 30.8589L129.204 31.5644C129.182 31.5937 129.156 31.6183 129.125 31.6368C129.094 31.6554 129.06 31.6674 129.024 31.6723C128.989 31.6772 128.952 31.6748 128.918 31.6652C128.883 31.6557 128.851 31.6391 128.823 31.6167C128.27 31.1556 127.647 30.9311 127.123 30.9311C126.605 30.9311 126.193 31.1944 126.193 31.71C126.193 32.3822 126.9 32.6456 127.846 33.0544C128.928 33.5322 130.1 34.1222 130.1 35.6589C130.1 37.2389 128.858 38.0344 127.391 38.0344C126.315 38.0248 125.28 37.6228 124.477 36.9033C124.426 36.8575 124.394 36.7937 124.387 36.7249C124.381 36.6562 124.402 36.5877 124.444 36.5333ZM13.9943 35.2167C14.1232 34.9939 14.1624 34.7301 14.1037 34.4793C14.0451 34.2285 13.893 34.0097 13.6787 33.8678C9.04203 30.8189 5.97746 25.5611 5.97746 19.5822C5.97746 13.6044 9.04203 8.34667 13.6787 5.29667C13.893 5.15477 14.0451 4.93599 14.1037 4.68518C14.1624 4.43437 14.1232 4.17054 13.9943 3.94778L12.0147 0.507776C11.9455 0.388545 11.853 0.284622 11.7427 0.202283C11.6323 0.119943 11.5065 0.0608946 11.3729 0.0287029C11.2392 -0.00348884 11.1004 -0.00815611 10.9648 0.0149829C10.8293 0.0381219 10.6998 0.0885871 10.5843 0.163331C4.21821 4.26555 0 11.4278 0 19.5822C0 27.7378 4.21821 34.8989 10.5843 39.0011C10.6997 39.0761 10.8291 39.1267 10.9647 39.15C11.1002 39.1733 11.239 39.1688 11.3727 39.1367C11.5064 39.1046 11.6323 39.0456 11.7426 38.9633C11.853 38.881 11.9455 38.777 12.0147 38.6578L13.9943 35.2167ZM33.9627 0.507776L31.9831 3.94889C31.8548 4.17161 31.816 4.4351 31.8746 4.68557C31.9332 4.93604 32.0849 5.15461 32.2987 5.29667C36.9354 8.34555 40.0011 13.6033 40.0011 19.5833C40.0011 25.5611 36.9354 30.8189 32.2987 33.8678C32.0846 34.0099 31.9327 34.2286 31.8741 34.4794C31.8154 34.7301 31.8545 34.9938 31.9831 35.2167L33.9627 38.6578C34.032 38.777 34.1247 38.881 34.2351 38.9633C34.3455 39.0457 34.4714 39.1047 34.6052 39.1369C34.7389 39.1691 34.8778 39.1738 35.0134 39.1506C35.1491 39.1275 35.2786 39.077 35.3942 39.0022C41.7581 34.8989 45.9785 27.7367 45.9785 19.5822C45.9785 11.4267 41.7592 4.26666 35.3942 0.163331C35.2786 0.0884065 35.1491 0.0377946 35.0135 0.0145575C34.8778 -0.00867961 34.7389 -0.00405897 34.605 0.0281399C34.4712 0.0603388 34.3453 0.119447 34.2349 0.201888C34.1245 0.284329 34.0319 0.38839 33.9627 0.507776Z" fill="#100C55"/>
</svg>
