<svg xmlns="http://www.w3.org/2000/svg" width="155" height="40" fill="none" viewBox="0 0 155 40">
    <path fill="#fff" d="M66.878 5.618c0-1.552-1.193-2.751-2.74-2.751-.362-.006-.72.062-1.056.198-.334.137-.639.34-.894.596-.256.256-.458.562-.594.898-.136.336-.203.696-.198 1.059-.005.363.063.723.198 1.059.136.336.338.641.594.898.255.256.56.459.894.595.335.137.694.204 1.056.199 1.547 0 2.74-1.199 2.74-2.751zm-7.081 0c0-2.412 1.873-4.233 4.34-4.233 2.47 0 4.342 1.82 4.342 4.233 0 2.412-1.874 4.233-4.341 4.233-2.47 0-4.343-1.82-4.343-4.233h.002zm16.042-1.493c0-.758-.482-1.285-1.403-1.285h-1.414c-.07 0-.138.028-.188.079-.05.05-.078.118-.078.189v2.017c0 .147.12.266.266.266h1.414c.921 0 1.403-.478 1.403-1.266zm1.547.015c0 1.483-1.06 2.607-2.708 2.607h-1.656c-.07 0-.138.028-.188.079-.05.05-.078.118-.078.189v2.46c0 .036-.007.071-.02.104-.014.032-.034.062-.059.087-.024.025-.054.045-.087.058-.032.014-.067.02-.102.02h-1.06c-.072 0-.14-.028-.19-.079-.05-.05-.078-.118-.078-.19V1.76c0-.148.119-.269.267-.269h3.25c1.65 0 2.709 1.19 2.709 2.65zm4.18-.955V4.65c0 .15.12.27.267.27h2.383c.148 0 .268.118.268.267v.871c0 .071-.029.14-.079.19-.05.05-.118.079-.19.079h-2.382c-.035 0-.07.007-.102.02-.033.013-.062.033-.087.058-.025.025-.045.054-.058.087-.014.032-.02.067-.02.103V8.05c0 .15.12.27.267.27h2.779c.147 0 .268.12.268.268v.887c0 .035-.007.07-.02.103-.014.032-.033.062-.058.087-.025.025-.055.045-.087.058-.033.014-.068.02-.103.02h-4.373c-.035 0-.07-.006-.103-.02-.032-.013-.062-.033-.087-.058-.025-.025-.045-.055-.058-.087-.013-.033-.02-.068-.02-.103V1.76c0-.148.12-.269.267-.269h4.374c.147 0 .268.121.268.27v.886c0 .035-.007.07-.02.103-.014.033-.033.062-.058.087-.025.025-.055.045-.087.058-.033.014-.068.02-.103.02h-2.779c-.071 0-.14.029-.19.08-.05.05-.078.118-.078.19zm13.96-1.425v7.716c0 .035-.006.07-.02.102-.013.033-.033.063-.058.088-.024.025-.054.045-.086.058-.033.014-.067.02-.103.02h-1.113c-.04 0-.08-.008-.117-.026-.037-.018-.069-.044-.094-.076l-4.132-5.207c-.034-.044-.081-.076-.134-.091-.054-.016-.11-.014-.163.004-.052.018-.097.052-.13.098-.032.045-.049.1-.049.155v4.875c0 .07-.028.14-.078.19-.05.05-.118.079-.19.079h-1.038c-.071 0-.14-.029-.19-.08-.05-.05-.078-.118-.078-.19V1.76c0-.148.12-.269.268-.269h1.103c.08 0 .158.038.209.101l4.133 5.19c.157.2.476.086.476-.167V1.759c0-.147.12-.267.268-.267h1.05c.147 0 .266.12.266.267v.001zM68.48 19.83c0 2.425-1.868 4.245-4.34 4.245-2.47 0-4.342-1.82-4.342-4.234 0-2.412 1.872-4.233 4.34-4.233 1.42 0 2.644.605 3.422 1.573.025.03.043.066.052.105.01.038.011.078.004.117-.007.039-.023.076-.046.108s-.052.059-.087.078l-.918.508c-.052.03-.114.041-.174.032-.06-.01-.115-.04-.155-.086-.26-.302-.584-.545-.947-.71-.364-.164-.758-.247-1.157-.243-1.536 0-2.735 1.177-2.735 2.789 0 1.51 1.065 2.713 2.763 2.713 1.206 0 2.104-.606 2.497-1.567.016-.041.022-.086.017-.13-.005-.043-.02-.084-.046-.12-.024-.037-.057-.066-.096-.087-.04-.02-.082-.03-.126-.03h-1.502c-.07 0-.139-.029-.188-.079-.05-.05-.078-.118-.078-.189v-.785c0-.148.118-.268.266-.268h3.299c.143 0 .258.109.268.25.005.079.009.16.009.243zm9.1.011c0-1.552-1.195-2.75-2.74-2.75-.362-.006-.721.061-1.056.198-.335.136-.64.339-.895.595-.255.257-.457.562-.593.898-.136.336-.203.697-.198 1.06-.005.362.062.722.198 1.058.136.336.338.642.593.898.256.257.56.46.895.596.335.136.694.204 1.055.198 1.547 0 2.74-1.197 2.74-2.75h.001zm-7.083 0c0-2.412 1.874-4.233 4.342-4.233 2.468 0 4.341 1.821 4.341 4.233 0 2.413-1.873 4.233-4.34 4.233-2.47 0-4.343-1.82-4.343-4.233zm17.817-3.762l-2.912 7.715c-.019.052-.053.096-.098.127-.045.03-.098.047-.153.047h-1.28c-.11 0-.21-.07-.249-.174l-2.908-7.715c-.015-.04-.02-.084-.015-.128.005-.043.02-.084.045-.12.025-.035.058-.064.096-.085.038-.02.08-.03.124-.03h1.11c.113 0 .215.07.253.177l1.933 5.438c.018.053.052.098.097.13.045.032.1.05.155.05.055 0 .109-.018.154-.05s.08-.077.098-.13l1.937-5.438c.019-.052.053-.097.098-.129.045-.032.1-.049.154-.048h1.111c.187 0 .317.186.25.363zm4.136 1.329v1.466c0 .148.119.27.266.27H95.1c.147 0 .268.12.268.267v.871c0 .072-.028.14-.079.19-.05.05-.118.08-.19.08h-2.382c-.035-.001-.07.006-.102.02-.032.012-.062.032-.087.057-.025.025-.044.054-.058.086-.013.033-.02.068-.02.103v1.456c0 .15.119.27.267.27h2.78c.147 0 .266.12.266.268v.887c0 .035-.007.07-.02.103-.013.032-.033.062-.058.087-.025.025-.054.045-.086.058-.033.014-.068.02-.103.02H91.12c-.07 0-.139-.028-.188-.079-.05-.05-.078-.118-.078-.189v-7.716c0-.147.119-.267.266-.267h4.375c.147 0 .267.12.267.267v.888c0 .071-.028.14-.078.19-.05.05-.118.078-.189.078h-2.779c-.035 0-.07.007-.102.02-.033.014-.063.033-.088.058-.024.025-.044.055-.057.088-.014.032-.02.067-.02.103zm7.783 1.521c0 .148.119.267.266.267h1.243c.765 0 1.178-.392 1.178-1.053 0-.65-.413-1.074-1.178-1.074h-1.243c-.035 0-.07.007-.102.02-.033.014-.062.033-.087.058-.025.025-.045.055-.058.088-.014.032-.021.067-.021.103v1.591h.002zm1.18 1.551h-.914c-.035 0-.07.007-.102.02-.033.014-.062.034-.087.058-.025.026-.045.055-.058.088-.014.033-.021.068-.021.103v2.95c.001.035-.006.07-.02.103-.013.032-.032.062-.057.087-.025.025-.055.045-.087.058-.032.014-.067.02-.102.02h-1.061c-.07 0-.139-.028-.189-.078-.05-.05-.078-.119-.078-.19v-7.716c0-.147.12-.267.268-.267h2.945c1.691 0 2.616 1.095 2.616 2.444 0 .902-.461 1.627-1.173 2.014-.032.018-.059.041-.081.07-.022.027-.038.06-.048.094-.009.035-.012.07-.007.106.005.036.017.07.035.1l1.78 3.018c.025.041.038.088.038.135.001.048-.011.094-.035.136-.023.04-.057.075-.098.099-.041.024-.088.036-.135.036h-1.107c-.048 0-.095-.013-.136-.037-.041-.025-.075-.06-.098-.102l-1.755-3.209c-.023-.042-.057-.077-.098-.102-.041-.024-.088-.037-.136-.037h.001zm13.973-4.497V23.7c0 .07-.028.139-.078.19-.049.05-.117.078-.188.079h-1.115c-.04 0-.08-.009-.116-.026-.037-.018-.069-.044-.094-.075l-4.131-5.21c-.034-.042-.081-.073-.135-.088-.053-.016-.109-.014-.161.004-.052.018-.097.052-.129.097-.033.045-.05.1-.051.154V23.7c0 .071-.028.14-.078.19-.05.05-.119.079-.19.079h-1.039c-.071 0-.139-.029-.189-.08-.05-.05-.078-.118-.078-.189v-7.716c0-.147.119-.267.267-.267h1.102c.041 0 .08.008.117.026.036.017.068.042.093.074l4.133 5.19c.158.198.476.086.476-.167v-4.856c0-.147.119-.267.268-.267h1.049c.147 0 .267.12.267.269v-.002zm12.232.002v7.714c0 .071-.028.14-.079.19-.05.05-.118.079-.189.079h-1.061c-.035 0-.07-.007-.102-.021-.032-.014-.061-.033-.086-.058-.025-.025-.044-.055-.058-.087-.013-.033-.02-.068-.02-.103v-4.476c0-.293-.405-.373-.515-.1l-1.907 4.678c-.02.05-.054.091-.098.121-.044.03-.096.046-.149.046h-.47c-.054 0-.106-.016-.15-.046s-.078-.072-.098-.122l-1.897-4.68c-.111-.273-.515-.193-.515.1V23.7c0 .071-.028.14-.078.19-.05.05-.119.079-.19.079h-1.059c-.071 0-.139-.029-.19-.079-.05-.05-.078-.119-.078-.19v-7.716c0-.147.119-.267.268-.267h1.716c.108 0 .206.065.248.165l2.008 4.882c.021.05.055.09.099.12.044.03.095.045.148.045.053 0 .104-.016.148-.045.044-.03.079-.07.099-.12l2.028-4.883c.021-.049.055-.09.099-.12.044-.029.096-.044.148-.044h1.712c.148 0 .268.12.268.267v.002zm4.844 1.423v1.466c0 .148.119.27.266.27h2.384c.147 0 .267.12.267.267v.871c0 .071-.028.14-.078.19-.05.05-.118.079-.189.08h-2.384c-.07 0-.137.028-.187.078-.05.05-.078.117-.078.188v1.456c0 .15.118.27.265.27h2.779c.149 0 .268.12.268.268v.887c0 .071-.028.14-.078.19-.051.05-.119.079-.19.079h-4.373c-.071 0-.139-.029-.189-.079-.051-.05-.079-.119-.079-.19v-7.716c0-.147.12-.267.267-.267h4.374c.149 0 .268.12.268.267v.888c0 .071-.028.14-.079.19-.05.05-.118.078-.189.078h-2.779c-.035 0-.069.007-.102.02-.032.014-.061.034-.086.06-.025.024-.044.054-.057.086-.014.033-.021.068-.02.103h-.001zm13.959-1.425V23.7c.001.035-.006.07-.02.103-.013.032-.032.062-.057.087-.025.025-.055.045-.087.058-.032.014-.067.02-.102.02h-1.114c-.04.001-.08-.008-.116-.025-.037-.018-.068-.044-.093-.075l-4.133-5.21c-.035-.042-.082-.073-.135-.088-.053-.016-.11-.014-.162.004-.052.018-.097.052-.129.097-.032.045-.05.1-.05.154V23.7c0 .071-.029.14-.079.19-.05.05-.118.079-.189.079h-1.039c-.071 0-.139-.029-.189-.079-.051-.05-.079-.119-.079-.19v-7.716c0-.147.12-.267.268-.267h1.103c.04 0 .079.009.115.026.036.017.068.042.093.074l4.134 5.19c.157.198.476.086.476-.167v-4.856c0-.147.12-.267.268-.267h1.05c.147 0 .266.12.266.269"/>
    <mask id="prefix__a" width="7" height="9" x="148" y="15" maskUnits="userSpaceOnUse">
        <path fill="#fff" d="M148.893 15.716h5.824v8.25h-5.823l-.001-8.25z"/>
    </mask>
    <g mask="url(#prefix__a)">
        <path fill="#fff" d="M154.45 17.139h-1.58c-.071 0-.139.029-.189.08-.05.05-.078.118-.078.189V23.7c0 .071-.029.14-.079.19-.05.05-.118.078-.189.078h-1.055c-.071 0-.139-.029-.189-.079-.05-.05-.078-.118-.078-.189v-6.292c0-.036-.007-.07-.02-.103-.014-.033-.033-.063-.058-.088-.025-.025-.055-.044-.087-.058-.033-.013-.068-.02-.103-.02h-1.584c-.071 0-.138-.029-.188-.078-.05-.05-.078-.118-.078-.189v-.889c0-.147.118-.267.266-.267h5.29c.148 0 .268.12.268.269v.886c-.001.071-.029.14-.079.19-.05.05-.118.078-.189.078"/>
    </g>
    <path fill="#fff" d="M65.042 32.571c0-.757-.481-1.284-1.402-1.284h-1.413c-.071 0-.14.028-.19.079-.05.05-.078.118-.078.19v2.015c0 .148.12.268.268.268h1.413c.92 0 1.402-.478 1.402-1.268zm1.548.016c0 1.483-1.06 2.606-2.709 2.606h-1.654c-.035 0-.07.007-.102.02-.033.014-.063.034-.087.059-.025.024-.045.054-.058.087-.014.032-.021.067-.021.102v2.461c0 .036-.007.07-.02.103-.013.033-.033.062-.058.087-.025.025-.054.045-.086.059-.033.013-.068.02-.103.02h-1.06c-.072 0-.14-.028-.19-.079-.05-.05-.078-.118-.078-.19v-7.715c0-.148.12-.268.268-.268h3.249c1.65 0 2.708 1.187 2.708 2.649l.001-.001zm4.18.564c0 .15.12.27.267.27h1.242c.766 0 1.178-.394 1.178-1.054 0-.65-.412-1.073-1.178-1.073h-1.242c-.071 0-.139.027-.189.078-.05.05-.078.117-.078.188v1.591zm1.179 1.552h-.912c-.071 0-.14.03-.19.08-.05.05-.077.118-.077.19v2.95c0 .07-.029.14-.079.19-.05.05-.118.078-.19.078h-1.06c-.035 0-.07-.007-.102-.02-.033-.014-.062-.034-.087-.059-.025-.025-.044-.054-.058-.087-.013-.032-.02-.067-.02-.103v-7.715c0-.148.12-.268.267-.268h2.945c1.692 0 2.617 1.096 2.617 2.444 0 .903-.461 1.627-1.173 2.015-.031.017-.059.04-.081.069-.022.028-.038.06-.048.095-.01.034-.012.07-.007.105.005.036.017.07.035.1l1.78 3.019c.024.04.037.087.037.134 0 .048-.011.094-.035.136-.023.04-.057.075-.097.099-.041.024-.088.036-.135.036h-1.107c-.048 0-.095-.013-.137-.037-.041-.025-.075-.06-.098-.103l-1.754-3.208c-.023-.042-.057-.077-.098-.101-.041-.025-.088-.037-.136-.037v-.002zm12.497-.638c0-1.553-1.193-2.751-2.74-2.751-.361-.006-.72.062-1.055.198-.335.137-.64.34-.895.596-.256.256-.457.562-.593.898-.136.336-.203.696-.198 1.059-.005.362.062.722.198 1.059.136.336.337.641.593.898.256.256.56.459.895.595.335.136.694.204 1.055.199 1.547 0 2.74-1.198 2.74-2.751zm-7.082 0c0-2.413 1.874-4.234 4.342-4.234 2.467 0 4.341 1.821 4.341 4.234 0 2.413-1.873 4.233-4.341 4.233-2.469 0-4.342-1.821-4.342-4.233zm14.11 2.702c1.745 0 2.591-.956 2.591-2.702s-.846-2.703-2.59-2.703h-.89c-.035 0-.07.007-.102.02-.033.014-.063.034-.088.059-.024.025-.044.055-.057.087-.014.033-.02.068-.02.103v4.867c0 .149.119.269.267.269h.89zm-2.745-6.56c0-.148.118-.268.265-.268h2.55c2.73 0 4.175 1.628 4.175 4.127 0 2.497-1.445 4.125-4.175 4.125h-2.548c-.036 0-.07-.007-.103-.02-.033-.013-.062-.033-.087-.058-.025-.025-.045-.055-.058-.088-.014-.032-.02-.067-.02-.103v-7.715zm9.554 5.127v-5.127c0-.148.12-.268.267-.268h1.06c.148 0 .269.12.269.268v4.878c0 1.316.754 1.795 1.745 1.795.996 0 1.749-.478 1.749-1.794v-4.878c0-.149.12-.269.268-.269h1.066c.148 0 .268.12.268.268v5.127c0 1.97-1.446 2.965-3.351 2.965-1.896 0-3.34-.994-3.34-2.965zm9.207-1.27c0-2.412 1.867-4.233 4.34-4.233 1.113 0 2.17.415 2.934 1.09.029.024.052.054.068.089.016.034.024.071.025.109.001.038-.006.075-.021.11-.015.035-.037.066-.064.092l-.735.691c-.048.046-.112.072-.179.073-.066.001-.131-.023-.18-.068-.507-.456-1.165-.707-1.847-.704-1.547 0-2.742 1.194-2.742 2.752 0 1.557 1.196 2.75 2.742 2.75.7 0 1.362-.26 1.846-.703.049-.045.114-.07.181-.068.066 0 .13.027.179.073l.735.69c.027.027.049.058.063.093.015.035.022.072.021.11-.001.038-.01.075-.026.109s-.039.064-.067.089c-.815.706-1.855 1.093-2.932 1.091-2.474 0-4.342-1.822-4.342-4.233l.001-.001zm14.752-2.702h-1.579c-.035 0-.07.007-.102.02-.033.014-.063.034-.087.06-.025.024-.045.054-.058.086-.014.033-.021.068-.021.103v6.291c0 .072-.028.14-.078.19-.051.05-.119.08-.19.08h-1.055c-.035 0-.07-.008-.102-.021-.033-.014-.062-.034-.087-.059-.025-.025-.044-.054-.058-.087-.013-.032-.02-.067-.02-.103V31.63c0-.035-.007-.07-.02-.102-.014-.033-.034-.062-.059-.087-.025-.025-.054-.044-.086-.058-.033-.013-.068-.02-.103-.02h-1.584c-.071 0-.139-.028-.189-.078-.051-.05-.079-.12-.079-.19v-.888c0-.148.12-.268.268-.268h5.289c.148 0 .268.12.268.268v.888c0 .035-.007.07-.021.102-.013.033-.033.062-.058.087-.025.025-.054.045-.087.058-.032.014-.067.02-.102.02zm2.202 5.43l.578-.725c.023-.03.052-.053.084-.07.033-.017.069-.027.105-.03.037-.002.074.003.109.015.034.013.066.033.093.058.553.536 1.315.899 1.984.899.642 0 1.108-.333 1.108-.919 0-.735-.734-1.01-1.671-1.423-1.076-.472-2.211-1.011-2.211-2.467 0-1.461 1.135-2.299 2.538-2.299.928 0 1.801.348 2.518.922.052.044.086.106.093.174.008.068-.01.136-.051.19l-.517.706c-.022.03-.048.054-.079.073-.031.018-.065.03-.101.035-.035.005-.072.003-.106-.007-.035-.01-.067-.026-.095-.048-.553-.461-1.176-.686-1.7-.686-.518 0-.93.263-.93.779 0 .672.707.936 1.653 1.344 1.082.478 2.254 1.068 2.254 2.605 0 1.58-1.242 2.376-2.709 2.376-1.076-.01-2.111-.412-2.914-1.132-.051-.045-.083-.11-.09-.178-.006-.069.015-.137.057-.192zm-110.45-1.316c.13-.223.168-.487.11-.738-.059-.25-.211-.47-.425-.611-4.637-3.05-7.702-8.307-7.702-14.286 0-5.978 3.065-11.235 7.702-14.285.214-.142.366-.361.425-.612.058-.25.02-.514-.11-.737l-1.98-3.44c-.069-.12-.161-.223-.271-.306-.11-.082-.236-.141-.37-.173S11.1.25 10.965.274c-.136.023-.265.074-.38.148C4.217 4.525 0 11.687 0 19.842c0 8.155 4.218 15.316 10.584 19.418.116.075.245.126.38.15.136.022.275.018.409-.014.133-.032.26-.091.37-.174.11-.082.202-.186.272-.305l1.98-3.441zM33.963.766l-1.98 3.442c-.128.223-.167.486-.108.737.058.25.21.469.424.61C36.935 8.606 40 13.863 40 19.843c0 5.978-3.066 11.236-7.702 14.285-.214.142-.366.36-.425.611s-.02.515.11.738l1.979 3.44c.069.12.162.224.272.306.11.083.236.142.37.174s.273.037.408.014c.136-.023.266-.074.381-.149 6.364-4.103 10.584-11.265 10.584-19.42 0-8.155-4.219-15.315-10.584-19.419-.115-.075-.245-.125-.38-.148-.136-.024-.275-.019-.409.013-.134.032-.26.091-.37.174-.11.082-.203.186-.272.306z"/>
</svg>
