<svg xmlns="http://www.w3.org/2000/svg" width="200" height="200" fill="none" viewBox="0 0 200 200">
    <g opacity=".25">
        <path fill="#B2C5FB" d="M179.36 52.32c-5.52-11.64-14.4-22.24-26.52-27.48-8.76-3.76-14.32-8.4-25.88-12.36-13.36-4.52-18.8-.8-32.96-.84-8.92 0-29.92 7.4-38.16 10.72C44.8 26.84 37.04 36.4 29.88 45.6c-7.48 9.6-15 19.52-18.16 31.12-2.32 8.6-2.08 17.64-1.48 26.52 1.04 15.2 3.12 30.52 9.12 44.56 6 14.04 16.36 26.84 30.52 33.52 11.84 5.56 25.36 6.56 38.52 7.44 18.24 1.24 37.12 2.4 54.4-3.52 20.68-7.08 37.2-24.56 42.56-45 7.52-28.52 6.76-61.16-6-87.92z" opacity=".35"/>
    </g>
    <path fill="#99AEF2" d="M22.52 115.84H125.4v62.68c0 1.52-1.2 2.72-2.72 2.72H25.24c-1.52 0-2.72-1.2-2.72-2.72v-62.68z"/>
    <path fill="#1E31D7" d="M22.52 115.84l41.2-35.48c5.88-5.08 14.6-5.08 20.48 0l41.2 35.48H22.52zM125.4 115.84H22.52v12.4H125.4v-12.4zM32.56 76.08v-8.36c0-6.8-5.28-12.44-12.08-12.92-5.72.2-10.28 4.88-10.28 10.64v10.64h22.36z"/>
    <path fill="#FFAF00" d="M103.32 54.76c-.16 0-.36-.04-.52-.04H19.6c.32 0 .6.04.88.04.12 0 .24-.04.36-.04h82.48v.04z"/>
    <path fill="#000337" d="M32.56 67.72v8.36h82.64V67.2c0-6.64-5.24-12.12-11.92-12.4h-82.4c-.12 0-.24 0-.36.04 6.76.44 12.04 6.08 12.04 12.88z"/>
    <path fill="#F4F5FA" d="M32.56 156.76V67.72c0-7.16-5.8-12.96-12.96-12.96h83.2c6.88 0 12.44 5.6 12.4 12.44v89.56H32.56z"/>
    <path fill="#99AEF2" d="M22.52 115.84l53.24 17.52 49.64-17.52v50H22.52v-50z"/>
    <path fill="#1E31D7" d="M35.76 165.72c.08.08.12 0-.04-.2-.12-.08-.12-.08-.16 0 .08.08.16.12.2.2zm-3.52-2.24l.08-.12c-.12-.08-.12-.08-.16 0-.04.12-.04.12.08.12zm-.08 1.48c.08.04.16.08.24.08.04-.04-.08-.12-.08-.12s-.08-.08-.12 0l-.04.04zm-1.48 1.96l.12.08-.2-.12.08.04zm-2.4 6.28c.08.08.12 0 .24-.12s-.04-.2-.04-.2c-.08-.08-.12 0-.16.04-.2.08-.16.24-.04.28zM24.8 176h.16l.04-.04c-.12-.08-.12-.08-.16 0l-.04.04zm1.56 2.48l.04-.08c.04-.04-.08-.12-.16-.2l-.04.04c.04.12.08.2.16.24zm30.36-50.84c-.08-.08-.2-.12-.16-.2-.12-.24.08-.12.2.12.12.24.2.2-.04.08zm-5.6 8.24c.04-.04.04-.04.16 0s.16.2.12.24c-.04.04-.28-.08-.28-.24zm-.8 2.48l-.12-.08c-.08-.12-.12-.24 0-.2.08.04.12.12.16.2.04 0 .08.12-.04.08zm-1.8 2.24l.04-.04c.04-.04.16 0 .16 0s.08.08.08.12c-.08 0-.2-.04-.28-.08zm-.16.72l.04-.04c.04-.04.04-.04.16 0l-.04.04h-.16zm-.4.6l.04-.04c.04-.04.04-.04.12 0l-.04.04h-.12zm-.28.4c-.08-.12-.04-.2.08-.12.12.08.12.08.08.12-.04.04-.12.16-.16 0zm-.96.08l-.08-.12.04-.04c.08.08.2.12.16.2l-.12-.04zm-.36.8c-.12-.08-.08-.12-.08-.12.04-.04.04-.04.16 0 0 0 .08.08.08.12h-.16zm-2.6 5.48c-.08-.04-.12-.12-.16-.2l.04-.04c.12.08.2.12.16.2l-.04.04zM42.04 151c.08-.12.08-.12.16-.04.08.08.04.2 0 .24-.12-.04-.2-.16-.16-.2zm-2.72 4.28l-.08-.12.04-.04c.12.08.2.12.16.2l-.12-.04zm-1 .44c-.08-.04-.12-.12-.16-.2l.04-.04c.08.08.2.12.16.2l-.04.04zm-.16 1.32c.04-.04.04-.04.16 0 .08.04.12.12.16.2-.04.04-.2-.16-.32-.2zm-.8 1.6l-.08-.12.04-.04c.12.08.2.12.16.2l-.12-.04zm-2.8 3.76l-.08-.12.04-.04c.08.08.2.12.16.2l-.12-.04zm-.4.36c-.08-.08-.08-.12.2-.04.08.08.08.08.08.12-.08 0-.12-.04-.2-.08h-.08zm-.36 1.2c-.12 0-.12 0-.08-.12.04-.12.16 0 .16 0 .16.08 0 .08-.04.12h-.04zm-.76 1.12c-.08-.08-.08-.12-.08-.12s.08-.12.16-.04c0 0 .12.08.08.12-.04.04-.12.04-.12.04h-.04zm-1.08.72l.04-.04c.04-.04.04-.04.16 0l-.04.04h-.16zm-.16.68c-.12-.08-.2-.12-.16-.2-.08-.12.08-.12.24.08l-.08.12zm.2.8c-.04.04-.08-.12-.04-.2l.08.08c0 .08.08.2-.04.12zm-1 1.08c-.08-.04-.12-.12-.16-.2l.04-.04c.12.08.2.12.16.2l-.04.04zm-.88 0c-.04-.2-.04-.2.12 0l.12.24c0 .08-.04-.04-.2-.24h-.04zm-.28 1.96l-.12-.24c-.24-.32-.24-.32-.04-.2.12.04.2.2.24.32l-.08.12zm-.64-.16c-.12-.08-.08-.12-.04-.2l.12.08.08.12h-.16zm-1.32 3.32c-.08-.08-.12-.2-.08-.32.04-.04.16 0 .16.2l-.08.12zm-2.52 3.12c-.24-.08-.24-.08-.16-.2.04-.04.08-.12.2-.04l-.04.04c-.12-.08-.04.04.08.08l.2.12c0 .08-.12.08-.24 0h-.04zm-.6.64c-.12-.08-.08-.12-.04-.2.04-.08.04-.04.16 0 0 0 .08.12 0 .2h-.12zm-.36 1.12h.16c.32.2.4.08.08-.12s-.32-.2-.08-.12c.2.12.24.08.28 0 .04-.08.04-.04.12 0 .08.04.24.08.28 0 .04-.08.04-.04-.08-.12-.12-.08-.08-.12.2-.04.16 0 .16 0-.08-.12s-.12-.24.12-.2l.08-.12c.04-.04-.08-.12-.16-.2-.2-.12-.2-.12-.08-.12.08 0 .16.04.24.08.12.08.16 0 .2-.04.04-.04.12-.2 0-.24l.12.08c.04-.04.12 0 .04-.04 0 0 .04-.04.24-.12.2-.08.08-.36-.24-.32l.04-.04c.04-.04-.08-.12-.08-.12-.08-.08-.08-.12 0-.2l.2.12c.28.24.44.2.16-.04l.12.08c.12.08.16 0 .12-.2.04-.04-.12-.24-.24-.32-.12-.08-.08-.12-.08-.12s.04-.04.16 0c.2.12.28 0 .12-.2l.12.08c.12.08.24.08.32-.28.16-.24.28-.4.4-.36.12.04.04-.32-.08-.56.12.08.16 0 .24-.12.08-.12.12-.16.24-.12.16.2.16.2.04-.04-.16-.2.04-.32.28-.16.12.08.16 0 .24-.12-.08-.12 0-.24.08-.36s.12-.16-.08-.32-.16-.2-.08-.32.08-.12.16-.04c0 0 .16 0 .2-.04.04-.04.08-.12.16-.04.08 0 .16-.04.24-.12.08-.12.16-.24.28-.16.04-.04.04-.04-.08-.12-.12-.08-.16-.2.08-.36.08-.12.2-.28.08-.36.04-.04.04-.04.16 0 .2.12.28 0 .16-.24-.12-.08-.08-.12.08-.12 0 0 .04-.04 0-.2s-.08-.12.12-.2c.08.08.12 0 .16-.04-.04-.2.4-.84.56-.84-.08-.12-.08-.12-.04-.2.24.08.2-.04 0-.2l-.04.04c-.2-.12-.08-.32.24-.12.24.08.24.08.08-.12-.16-.2-.12-.24.12-.16.24.08.2.12.04-.04-.32-.4-.32-.64.08-.36.2.12.36.16.4.08.04-.08-.08-.12-.16-.2-.24-.08-.2-.12.08-.12.44 0 .52-.08.4-.4s.08-.56.16-.24c.12.24.12.24.08.08l.2-.32c.04-.04-.04-.2-.12-.24.24.08.44 0 .32-.24l.08-.12c.04-.04.04-.04-.04-.2s.08-.12.24-.12c.16 0 .28 0 .2-.04-.08-.04-.12-.24-.2-.4-.08-.16.08-.12.12 0 .12.08.12.08.28 0 .04-.04.12-.16 0-.24-.12-.08.12-.44.28-.4l.08-.12c.04-.04-.04-.2 0-.24.04-.04.04-.04 0-.2.04-.04.08-.12.16-.04-.16-.2-.16-.2.08-.12.24.08.2.12.04-.04-.08-.12-.08-.12.08-.12s.12 0 .04-.04c-.16-.2-.16-.44.04-.32 0 0 .04-.04-.04-.2-.16-.2-.16-.2.04-.04.24.08.28 0 .12-.2-.24-.28-.08-.12.08-.12s.52-.36.28-.4l.08-.12c.2-.04.24-.12.16-.24l-.08-.12c.12.08.24.08.28 0 .04-.08.04-.04-.08-.12-.12-.08-.12-.08-.08-.12.04-.04.16-.04.28 0l.04-.04c-.2-.12-.16-.2-.08-.12.08 0 .2-.04.24-.12-.12-.08.04-.04 0 0l.08.08c.16 0 .04-.04-.08-.12l.08-.12c.04-.04.08-.12-.08-.12s-.2-.12-.16-.2c-.08-.08.04-.04 0 0 .12.08.2.12.24.08.04-.04.12 0 .12 0 .16.2.24-.12.16-.24-.12-.24-.08-.32.12-.16s.08-.12-.2-.4l-.28-.24.32.2c.44.2.44.2.36-.12 0-.2 0-.2.08-.12.08.08.16 0 .28-.16.12-.16.16-.24.04-.32l.08-.12c.24.08.24-.12-.04-.2l.08-.12.08.08c.12.08.2-.04.48-.52.28-.48.4-.6.2-.72-.16-.2-.12-.24.08-.12.12.08.24.08.16 0 .04-.08.12-.12.24-.12.32-.04.28-.16.16-.24-.24-.08-.12-.08.04-.04s.28 0 .16-.04c-.12-.04.08-.56.28-.4l.08-.12c-.12-.08-.04-.2.04-.32s.12-.2.24-.12c.12.08.12.08.08-.12.04-.04-.12-.24-.08-.32-.12-.08-.16-.2-.12-.24l.12.08.2.12c.04-.04.08-.12-.04-.2.16 0 .2-.04.28-.16.08-.12.16-.24.08-.36.16.04.32-.08.36-.24 0-.08 0-.16-.04-.24-.08-.08-.08-.12.08-.12s.16 0 .08-.12.08-.12.24-.12c.24.08.28 0 .24-.12 0-.12 0-.24.08-.36-.04-.2 0-.24-.12-.24-.08-.04-.12-.12-.16-.2 0-.2.08-.12.04-.04.04.2.08.12.2.12.12 0 .2-.08.28-.16.04-.04.12-.16.16-.24.24-.12.28-.16.16-.24-.2-.12-.2-.12-.08-.08.24.08.68-.6.52-.76l.08.08c.12.08.16 0 .24-.12.04-.2.12-.36.2-.56.16-.24.28-.4.16-.48.04-.04.04-.04.16 0 .08.12.12.08.16 0 .04-.08-.08-.12-.16-.2-.08-.08-.08-.12.12-.2.2-.08.32-.28.32-.48.04-.04.08-.12.16-.04.08.08.32-.04.2-.32.04-.04.04-.04.12 0 .16 0 .24.08.08-.12 0-.2.12-.36.28-.4.04-.04.08-.12-.04-.2l-.12-.08c.24.08.24.08.08-.12-.08-.08-.08-.12.04-.04.16 0 .16-.04.16-.04.08-.24.2-.48.32-.72.32-.48.44-.64.32-.72-.08-.12-.08-.12.08-.12.08 0 .16-.04.24-.12.04-.04.08-.12.2-.04-.08-.12-.08-.12-.04-.2.08.08.12 0 .08-.12-.16-.2-.16-.2.04-.04.08.08.32-.04.16-.04-.12-.08-.04-.2-.08-.32.04-.04.08-.12.16-.04.08.08.24-.36.16-.48-.12-.08-.08-.12.04-.04.12.08.16 0 .16-.04-.08-.12.04-.04.16 0 .08.12.12.08.16-.04-.08-.12.08-.36.2-.56.16-.2.16-.48 0-.68l-.16-.2.2.12c.12.04.24.12.36.16.04-.04-.08-.12-.16-.2-.08-.08-.08-.12.12-.2.2-.08.24-.12.16-.24.04-.08.12-.12.24-.12.04-.04.04-.04-.08-.12-.12-.08-.08-.12.08-.12.24.08.36-.12.28-.16-.08-.04-.08-.12-.04-.2.04-.08.04-.16 0-.24l.08-.12c.04-.04.12.08.08.12h.12c.08-.12.12-.2.04-.32-.16-.2-.16-.2.04-.04.12.08.24.08.2-.04-.16-.2-.04-.2.08-.12.16.2.16.2.12-.2.08-.12.12-.44.24-.6.12-.16.24-.36.4-.36.2.12.24.08.12.08-.2-.12-.16-.2-.04-.36.16-.08.24-.24.16-.4 0 0 0-.04-.04-.04.04-.04-.08-.12 0 0l-.08.12c-.2-.12-.16-.2 0-.24.04-.04.12 0 .24.08s.24.08.28 0c.04-.08.08-.12-.08-.12s-.08-.08-.08-.12c.04-.08.04-.16 0-.24-.12-.08-.08-.12-.04-.2.08 0 .16-.04.24-.12l.08.08c.08.04.16.08.24.08.04-.04-.08-.12-.08-.12-.12-.08.84-1.48.96-1.68.2-.04.32-.24.16-.24-.12-.08.08-.36.32-.72s.48-.72.36-.8l.12-.2c.08-.12.04-.32.08-.36-.08-.12-.04-.2.04-.04s.2.12.24.08c.04-.04-.04-.2-.12-.24-.08-.04-.08-.12-.08-.12s.04-.04.16 0l.2.12.04-.04c-.12-.08-.08-.12-.08-.12s.04-.04.24.08c.2.12.24.08.08-.12l-.04-.2c.24.08.12-.2.04-.32.24.08.28 0 .12-.16-.08-.08-.04-.12.08-.12s.2-.04.24-.16c-.04-.12.2-.56.52-1 .32-.44.6-.88.48-.96.04-.04.04-.04.2-.04.08.08.16 0-.04-.2-.08-.12-.16-.2.04-.04.08.08.16-.04.36-.28.12-.16.28-.4.16-.48-.04-.2-.04-.2.04-.04.16.2.48-.04.36-.36.04-.04.08-.12.16-.04.08-.12.12-.24.08-.36.04-.04.2-.32.28-.4.04-.08.08-.2.04-.32l.04-.04c.12.08.32-.24.56-.64.24-.4.52-.76.64-.76 0 0 .04-.04-.04-.2-.16-.2-.12-.24 0-.24.12.04.24 0 .28-.08.04-.08.04-.2-.04-.28l.08.08c.24.08.28-.16.08-.36.16 0 .28 0 .24-.12.04-.04.04-.04.24.08.08.08.2.12.24.08.04-.04-.08-.12-.16-.2l.08-.12s.04-.04-.04-.12c-.08-.08-.08-.12-.04-.2.12.08.04-.04-.08-.08s-.2-.12-.16-.2l-.2-.12c-.2-.12-.32-.2-.48-.16-.24.16-.48.28-.28.4 0 0 .08.12.04.2-.04.08-.16.04-.16.04-.12-.08-.28.16-.44.48-.16.32-.36.52-.48.52s-.2.04-.2.04c.12.08-.12.44-.4.84-.28.4-.56.84-.44.92-.04.04-.08.12-.08.12-.12-.08-.2.04-.28.16 0 .12 0 .2-.04.32-.08-.08-.16 0-.24.12-.08.12-.12.16 0 .24-.16.24-.32.44-.56.6-.16 0-.08.12-.04.24.12.08.16.2.12.24l-.2-.12c-.08-.12-.08-.12-.16 0l-.08.12c.12.08-.08.36-.36.8-.36.52-.48.72-.36.8.12.08.08.12-.16.24-.56.16-.56.16-.48.28.04-.04.16 0 .24.08.2.12.16.2-.08.12-.24-.08-.72.84-.52 1 .08.08.08.08-.12-.08-.12-.08-.16 0-.32.24l-.12.2c.2.12-.12.44-.24.36-.12 0-.12 0-.24.12.08.32-.2.56-.32.48 0 0-.04.04-.08.12.04.12 0 .24-.08.32-.12.16-.16.24 0 .24.12.08.2.12.16.2l-.08-.08c-.12-.08-.24.12-.4.36-.2.32-.28.4-.4.4l.08.12c.08.12.04.2-.08.12-.12-.08-.32.24-.28.4l-.08.12c-.24-.08-.36.12-.2.32-.12-.08-.16 0-.2.04.04.2-.12.44-.24.36l-.04.04c.04.08.04.16-.04.24-.04.08-.04.16 0 .24.08.12.04.2.04.2s-.12-.08-.16-.2c-.04-.12-.16 0-.08.32s.08.32-.04.04c-.08-.12-.12-.24-.12-.08 0 0-.08.12.04.2l-.12.2c-.2.04-.24.12-.28.16.08.12.08.12-.08.12-.12-.08-.16 0 .08.12.08.12.04.2-.12.2-.2-.12-.24-.08-.16 0 .08.08.04.2.04.2-.12-.08-.48.48-.84 1-.04.04.04.2.12.24.2.12.08.08-.04.04-.36-.16-.44 0-.08.12.24.08.24.08-.04.04-.16 0-.16 0-.08.12s.08.12-.04.04c-.12-.08-.28 0-.16.04 0 0-.04.04-.2.04s-.08.12 0 .24c.08.32.04.36-.12.2-.16-.2-.28.16-.08.36.2.2.16.2.08.12-.08-.08-.16 0-.16 0-.04.04-.08.12-.16.04-.04.08-.04.16 0 .24.12.24-.08.36-.36.28l.04.2c.16.2.24.32.04.2l-.12-.08c.16.2-.08.36-.32.24-.08-.08-.08-.08-.12 0l.08.08c.12.08.2.12.16.2-.04.08-.08.12-.16.04-.08-.08-.28 0-.2.04 0 0-.04.04-.16.04l-.16.24c.08.12 0 .24-.12.2-.04.08-.04.16 0 .24-.08.12-.12.2-.24.12-.12-.08-.12-.08-.04.04.08.12.08.12.04.2l-.08.12c.08.08.08.08.08.12 0 .04-.28.16-.32.24-.12.2-.12.2.04.2.04-.04.12 0-.04.04-.04.04-.28.16-.36.36-.16.24-.16.24-.04.32.24.08.2.12-.04.04-.28 0-.32.04-.24.12.08.12.08.12.04.2-.08-.08-.12 0-.12.16-.04.04-.04.04-.12 0l-.08.12c.12.24-.2.56-.36.52 0 0-.04.04 0 .2.16.2.12.24-.08.12s-.2-.12-.04.04c.08.12-.12.44-.32.24l-.2-.12c.08.12.04.2.04.2.08.08.08.12-.04.32s-.12.44-.2.56c-.08.12-.2.28-.32.28-.08.08-.08.2-.04.32.08.12 0 .24-.12.16l-.04.04c.04.08.04.16 0 .24-.12-.08-.24-.08-.2.04.04.12.08.12 0 .24-.2.04-1.48 2-1.4 2.08l-.12.16-.12.2c-.2-.12-.32.24-.32.48.04.08.04.16 0 .24-.2-.12-.32.04-.32.24.16.2.12.24-.08.12s-.28 0-.04.32c.08.12.08.12-.08.12-.24-.08-.28 0-.2.04.16.2.12.24-.12.16-.28 0-.28 0-.12.2.08.08.12.2.04.32-.08.08-.16.08-.28.04-.04.04-.16.04-.08.12h-.12l-.08.12.12.08c-.24.24-.48.48-.68.76-.44.64-.52.76-.36.8.24.08.16.2-.08.12-.04.04-.24.12-.32.24-.08.12-.16.24-.28.16l-.04.04c.12.24-.12.6-.32.72-.08.12-.12.24-.08.36.04.2.04.2-.12.2-.12-.08-.44.24-.24.36h-.16c-.12 0-.08.12.04.2.2.12.16.2-.16.04-.2-.12-.24-.08-.16 0 .08.12.12.24 0 .24-.04.04-.08.12.12.24.12.08.08.12.04.2-.12-.08-.12-.08-.16-.2l-.08.12c-.08.08-.2.08-.32.04-.16 0-.2.04.08.12.28.08.2.12.12.24-.04.04-.08.12-.2.04-.12-.08-.08-.08-.16.04-.12.2.08.56.24.76.16.2.2.12-.04.04-.08-.08-.12 0-.16.04.12.08-.04.04 0 0-.12-.08-.08-.12-.04-.2l-.08-.08c-.24-.08-.28 0-.12.2.08.12.08.12-.08.12s-.28 0-.16.04c-.04.08-.12.12-.24.12-.08.12-.12.16 0 .24.12.08.08.12.04.2-.04.08-.08.12.04.2.12.04.16.2.08.28 0 .2 0 .2-.24.12-.08-.08-.12 0-.16.04 0 0-.04.04-.16.04s-.04.04.08.12l.2.12c-.04.04-.28 0-.4-.08-.24-.08-.24-.08-.04.04.08.08.16.2 0 .24-.08.12-.16.24-.28.16-.12 0-.08.12-.08.12.08.12.04.2-.2.28-.4.16-.4.16-.2.32.12.08.2.12-.04.04-.12 0-.08.12-.04.32.08.12.24.24.36.32.2.12.2.12.04.2-.04.04-.16.04-.28 0-.12-.04-.08-.12-.08-.12l.04-.04c-.08-.08-.2-.12-.28 0-.12 0-.16.04-.08.12-.12 0-.24.12-.32.24-.08.12-.2.32-.32.28-.08.12-.12.2 0 .24.2.12.16.2.08.12-.24-.08-.88.64-.68.84l-.08.12c-.16.04-.4.4-.36.52l-.12.16c-.2.04-.24.12-.16.24.08.12.16.2.08.12-.08-.08-.2.04-.32.28-.12.24-.16.24 0 .24-.04.32-.16.24-.28.16-.16-.2-.24-.08.04.2.16.2.08.32 0 .24-.08-.08-.08-.12-.04-.2l-.2-.12c-.04.04-.04.04 0 .2 0 0-.04.04.04.2.04.12.16.2.32.2.12 0 .08.08.08.12-.12.04-.28 0-.36-.12.04-.04-.08-.12-.16-.2-.08-.08-.08.36.08.56.08.08.08.08-.12-.08-.08-.08-.16.04-.28.16-.12.12-.12.2 0 .24.12.04.2.12.16.2.04-.04.12 0 .24.08-.12.04-.2.04-.32.04-.24-.04-.48.08-.64.28-.08.12-.2.32-.32.28-.08.12-.12.16 0 .24l.12.16c-.16 0-.24.12-.12.2.12.08-.08.12-.12.16-.28 0-.28 0 .08.12.12.04.24.04.32-.04l.12-.2v.24c-.04.12 0 .24.08.32 0 0 .08.08.08.12l-.2-.12c-.08-.12-.16-.2-.28-.24-.24-.08-.48.04-.28.16-.04.04-.04.04-.16.04-.12-.08-.16 0 0 .2s.12.24-.12.2c-.24-.04-.44.24-.32.28.2.12.08.32-.04.32s-.2.04-.12.2c-.08-.08-.24-.08-.2.04 0 0-.04.04.08.08l.12.24c.04-.04.12 0 .24.08s-.16.24-.56.16h-.28l.2.12c-.04.04-.08.12-.2.04-.12-.08-.08-.08-.12 0-.04.08-.04.04.08.12.2.12.2.12.08.12-.24-.08-.28 0-.12.16.16.16.2.12-.04.04-.08-.08-.24-.08-.28 0l.12.08c.2.12.16.2.04.2-.12-.08-.16 0-.12.2-.08.12-.12.16-.24.12-.2-.12-.2-.12-.04.04.08.12.08.12-.12.2-.16 0-.16 0-.08.12.2.12.32.2.36.16.04-.04.04-.04.16 0l-.08.12c-.08.08-.08.2-.04.32-.08.12.12.24.12.04zM116.92 163.4c.12-.08.08-.12-.2-.04-.12.08-.12.08-.08.12.12 0 .24 0 .28-.08zm-3.44 2.32l-.08-.12c-.12.08-.12.08-.08.12.08.12.08.12.16 0zm1.32.68c.08-.04.12-.12.16-.2-.04-.04-.16 0-.16 0s-.12.08-.08.12l.08.08zm1.2 2.16l.12-.08-.2.12.08-.04zm4.72 4.76c.12-.08.08-.12 0-.24-.04-.04-.2-.04-.2-.04-.08.08-.08.12-.04.2 0 .16.12.16.24.08zm1.12 4.32l.08-.12-.04-.04c-.12.08-.12.08-.08.12l.04.04zm2.92-.44l-.04-.04c-.04-.04-.16 0-.24.08l.04.04c.08 0 .16-.04.24-.08zm-34-48.48c-.12.08-.2.12-.24.08-.28 0-.08-.12.2-.12s.24-.08.04.04zm5.2 8.52c-.04-.04-.04-.04.08-.12.12-.08.24-.08.28 0 .04.08-.2.16-.36.12zm1.96 1.72l-.12.08c-.16 0-.28 0-.16-.04.08-.04.16-.08.24-.08 0-.04.12-.04.04.04zm1.32 2.56l-.04-.04c-.04-.04.08-.12.08-.12s.12-.08.16 0c-.08.04-.16.12-.2.16zm.6.48l-.04-.04c-.04-.04-.04-.04.08-.12l.04.04-.08.12zm.36.6l-.04-.04c-.04-.04-.04-.04.08-.12l.04.04-.08.12zm.28.4c-.16 0-.16-.04-.08-.12.08-.08.12-.08.16 0 .04.08.04.12-.08.12zm-.32.88H100l-.04-.04c.12-.08.2-.12.24-.08l-.04.12zm.56.68c-.08.08-.16 0-.16 0-.04-.04-.04-.04.08-.12 0 0 .12-.08.16 0l-.08.12zm3.92 4.64c-.08.04-.16.08-.24.08l-.04-.08c.12-.08.2-.12.24-.08l.04.08zm1.44 2.48c-.08-.12-.08-.12.04-.2.12-.08.2.04.2.12-.08.12-.24.12-.24.08zm2.8 4.24h-.16l-.04-.04c.08-.08.2-.12.24-.08l-.04.12zm0 1.12c-.08.04-.16.08-.24.08l-.04-.04c.12-.08.2-.12.24-.08l.04.04zm1.12.64c-.04-.04-.04-.04.08-.12.08-.04.16-.08.24-.08 0 .04-.24.12-.32.2zm1.16 1.4H111l-.04-.04c.08-.08.2-.12.24-.08l-.04.12zm2.28 4.04h-.16l-.04-.04c.12-.08.2-.12.24-.08l-.04.12zm.16.48c-.12.08-.16 0 .04-.2.12-.08.12-.08.16 0-.08.08-.12.16-.2.2zm.96.84c-.08.12-.08.12-.16 0-.04-.04.08-.12.08-.12.08-.08.04.08.08.12zm.72 1.16c-.12.08-.16 0-.16 0s-.08-.12.04-.2c0 0 .12-.08.16 0 .04.08-.04.2-.04.2zm.24 1.28l-.04-.08c-.04-.04-.04-.04.08-.12l.04.04-.08.16zm.56.4c-.12.08-.2.12-.24.08-.16 0-.08-.12.16-.2l.08.12zm.8.16c.04.08-.16 0-.2-.04l.08-.08c.08.08.24.08.12.12zm.56 1.32c-.08.04-.16.08-.24.08l-.04-.04c.08-.08.2-.12.24-.08l.04.04zm-.32.84c-.2-.04-.2-.04.08-.12h.28c0 .08-.16.08-.36.12zm1.64 1.04h-.28c-.4.08-.4.08-.2-.04.12-.08.28-.12.4-.08.04.08.08.16.08.12zm-.4.52c-.08.08-.16 0-.16-.04l.08-.08h.16l-.08.12zm2.52 2.56c-.12.04-.24.04-.32-.04-.04-.04.08-.12.24-.08 0 .08.04.16.08.12zm1.8 3.6c-.16.2-.16.2-.24.08-.04-.04-.08-.12.04-.2l.04.04c-.08.08.04.04.12-.08l.2-.12c0 .12-.04.24-.16.28zm.36.8c-.12.08-.16 0-.2-.04-.04-.04-.04-.04.08-.12 0 0 .16 0 .2.04l-.08.12zm.8.84l.08-.12c.32-.2.24-.32-.08-.12s-.32.2-.16 0 .16-.2.12-.24c-.04-.04-.04-.04.08-.12.12-.08.16-.2.12-.24-.04-.04-.04-.04-.16 0s-.16 0 .04-.2c.08-.12.08-.12-.16 0s-.28 0-.12-.2l-.08-.12c-.04-.04-.16 0-.24.08-.2.12-.2.12-.16 0 .04-.08.08-.16.16-.2.12-.08.08-.12.04-.2-.04-.08-.12-.2-.2-.12l.12-.08c-.04-.04.08-.12-.04-.04-.04-.08-.04-.16 0-.24.04-.2-.28-.24-.4.08v-.08c-.04-.04-.16 0-.16 0-.08.08-.16 0-.16-.04l.2-.12c.36-.16.36-.32.04-.2l.08-.04c.12-.08.08-.12-.12-.2-.04-.04-.28 0-.4.08s-.16 0-.16 0c-.04-.04-.04-.04.08-.12.2-.12.12-.24-.12-.2l.08-.08c.12-.08.16-.2-.12-.44-.16-.24-.28-.44-.16-.48.12-.04-.24-.16-.56-.16.12-.08.08-.12 0-.24-.12-.2-.12-.2 0-.24.24-.08.24-.08-.04-.04-.24.08-.24-.16-.04-.32.12-.08.08-.12 0-.24-.16 0-.2-.12-.28-.24-.08-.12-.12-.2-.32-.04s-.24.08-.32-.04c-.08-.12-.08-.12.04-.2 0 0 .08-.12.04-.2-.04-.08-.08-.12.04-.2.04-.08.04-.16 0-.24-.08-.12-.16-.24-.04-.32-.04-.04-.04-.04-.16 0s-.24.08-.28-.24c-.08-.12-.2-.32-.28-.24-.04-.04-.04-.04.08-.12.2-.12.12-.24-.16-.24-.12.08-.16 0-.08-.12 0 0-.04-.04-.2-.04s-.16 0-.12-.2c.12-.08.08-.12.04-.2-.2-.04-.6-.72-.52-.84-.16 0-.16 0-.16-.04.16-.2.04-.2-.2-.04l.04.04.04.04c-.2.12-.32-.04 0-.24.16-.2.16-.2-.08-.12-.24.08-.28 0-.12-.2.2-.12.2-.12-.04-.04-.48.16-.72.04-.28-.24.2-.12.28-.24.24-.32-.04-.08-.16 0-.24.08-.16.2-.2.12-.08-.12.2-.4.12-.52-.2-.56-.32-.04-.48-.28-.16-.24.32.04.28 0 .12-.08l-.2-.32c-.04-.04-.2-.04-.28 0 .16-.2.2-.4-.08-.36l-.08-.12c-.04-.04-.04-.04-.2-.04s-.08-.12 0-.24.12-.24.04-.2c-.08.04-.28 0-.44 0-.16 0-.08-.12.08-.12s.12-.08.12-.24c-.04-.04-.12-.2-.2-.12-.08.08-.32-.28-.28-.44l-.08-.12c-.04-.04-.2-.04-.2-.12 0 0-.04-.04-.2-.04-.04-.04-.08-.12.04-.2-.24.08-.24.08-.08-.12.16-.2.2-.12-.04-.04-.16 0-.16 0-.08-.12.08-.08.08-.12-.04-.04-.24.08-.44-.04-.24-.16 0 0-.04-.04-.2-.04-.24.08-.24.08-.04-.04.2-.12.12-.24-.12-.2 0 0-.16 0-.08-.12.04-.2-.08-.6-.28-.44l-.08-.12c.04-.2 0-.24-.16-.24h-.2c.08-.08.16-.2.12-.24-.04-.04-.04-.04-.16 0-.08.12-.12.08-.16 0-.04-.08.04-.2.12-.24l-.04-.04c-.2.12-.24.08-.16 0 .04-.08.04-.16 0-.24-.12.08-.04-.04 0 0l.12-.08c.08-.12-.04-.04-.16 0l-.08-.12c-.04-.04-.08-.12-.16 0s-.2.12-.24.08c-.12.08-.04-.04 0 0 .12-.08.2-.12.16-.2-.04-.08.08-.12.08-.12.24-.08 0-.24-.16-.24-.28 0-.32-.04-.12-.2s-.08-.12-.4 0l-.36.16.32-.2c.36-.32.36-.32.04-.36-.2-.04-.2-.04-.08-.12.12-.08.08-.12-.04-.32s-.16-.24-.24-.16v-.12c.16-.2 0-.24-.2-.04l-.08-.12.08-.08c.12-.08.04-.2-.28-.68-.36-.56-.4-.6-.6-.48-.24.08-.28 0-.08-.12.08-.08.16-.2.08-.12-.04-.08-.04-.16 0-.24.08-.32-.04-.32-.16-.24-.16.2-.12.08-.04-.04.08-.12.12-.24.04-.2-.08.04-.48-.28-.28-.44l-.08-.12c-.12.08-.2-.04-.24-.16-.04-.12-.12-.2 0-.24.16 0 .12-.08-.08-.12-.04-.04-.28 0-.32-.04-.12.08-.24.08-.28 0l.12-.08.2-.12c-.04-.08-.08-.12-.16-.04.08-.12.04-.2-.04-.32s-.16-.24-.28-.24c.08-.16.04-.36-.08-.44-.08-.04-.12-.04-.2-.04-.08.08-.16 0-.08-.12s.08-.12-.08-.12-.08-.12 0-.24c.16-.2.12-.24 0-.24-.12-.04-.24-.12-.28-.24-.2-.04-.2-.12-.28 0-.08.04-.16.08-.24.08-.2-.04-.08-.12-.04-.04.16.04.16 0 .2-.12.04-.12.04-.24-.04-.32l-.16-.24c0-.24-.04-.32-.16-.24l-.08.08c.16-.2-.24-.84-.48-.8-.08.08 0 0 .12-.08s.08-.12 0-.24c-.16-.12-.28-.28-.4-.4-.16-.24-.28-.44-.36-.36-.04-.08-.04-.08.08-.12.16 0 .08-.08.08-.12 0-.04-.16 0-.24.08-.08.08-.16 0-.12-.2 0-.2-.12-.4-.32-.48-.04-.08-.08-.12.04-.2.08-.12.08-.32-.2-.32-.04-.04-.04-.04.08-.12.12-.08.16-.2-.08-.12-.16-.08-.28-.24-.28-.44-.04-.04-.08-.12-.2-.04l-.12.08c.16-.2.16-.2-.08-.12-.08.08-.16 0-.04-.04s.04-.2.04-.2c-.2-.2-.36-.4-.52-.6-.32-.48-.4-.68-.52-.6-.12.08-.16 0-.08-.12.04-.08.04-.16 0-.24-.04-.04-.08-.12.04-.2-.16 0-.16 0-.16-.04.08-.08.08-.12-.08-.12-.24.08-.24.08-.04-.04.12-.08.08-.32.04-.2s-.2-.04-.32-.04c-.04-.04-.08-.12.04-.2.08-.12-.24-.36-.36-.36-.12.08-.16 0-.04-.04s.08-.12.04-.2c-.16 0-.04-.04.08-.12.12-.08.12-.08.04-.2-.16 0-.28-.24-.4-.4-.2-.32-.32-.28-.6-.28l-.24.08.2-.12c.08-.08.12-.16.16-.24-.04-.04-.16 0-.24.08-.08.08-.16 0-.12-.2.04-.2 0-.24-.16-.24-.04-.08-.04-.16 0-.24-.04-.04-.04-.04-.16 0s-.16 0-.08-.12c.16-.2.04-.36-.04-.32-.08.04-.16 0-.16-.04-.04-.08-.12-.12-.2-.12l-.08-.12c-.04-.04.12-.08.16 0l.08-.12c-.08-.12-.12-.2-.24-.16-.24.08-.24.08-.04-.08.12-.08.16-.2.04-.2-.24.08-.16-.04-.08-.12.24-.08.24-.08-.12-.2-.08-.12-.32-.28-.44-.48-.12-.2-.24-.36-.16-.48.2-.12.16-.2.12-.08-.2.12-.24.08-.36-.12 0-.16-.12-.28-.28-.28h-.04c-.04-.04-.16 0 0 0l.08.12c-.2.12-.24.08-.2-.12-.04-.04.08-.12.16-.2.08-.08.16-.2.12-.24-.04-.04-.08-.12-.16 0s-.12.08-.16 0c-.04-.08-.12-.12-.24-.12-.12.08-.16 0-.16-.04.04-.08.04-.16 0-.24-.08.08 0 0 .12-.08.08-.04.12-.12.16-.2-.04-.04-.16 0-.16 0-.12.08-1.04-1.4-1.12-1.56.04-.2-.08-.36-.16-.24-.12.08-.28-.24-.52-.6-.28-.44-.44-.72-.56-.68l-.4-.32c-.08-.12-.24-.16-.28-.24-.16 0-.16-.04-.04-.08s.2-.12.16-.2c-.04-.08-.16-.04-.28 0-.12.04-.16 0-.16 0-.04-.04-.04-.04.08-.12l.2-.12-.04-.04c-.08.08-.16 0-.16 0s-.04-.04.16-.2.16-.2-.08-.12l-.16-.04c.16-.2-.12-.2-.24-.16.16-.2.12-.24-.12-.2-.12.08-.16 0-.08-.12s.04-.2-.04-.32c-.16 0-.4-.4-.72-.92-.36-.56-.56-.92-.68-.84-.04-.04-.04-.04.04-.2.12-.08.08-.12-.16-.04-.16 0-.24.08-.04-.08.12-.08.04-.2-.12-.44-.12-.2-.28-.44-.36-.36-.16-.04-.16-.04-.04-.08.24-.08.16-.44-.16-.48-.04-.04-.08-.12.04-.2-.04-.04-.08-.12-.28-.24l-.28-.44c-.08-.08-.16-.16-.24-.16l-.04-.04c.12-.08-.08-.36-.36-.8-.28-.44-.48-.8-.44-.92 0 0-.04-.04-.16-.04-.24.08-.28 0-.2-.12.08-.08.12-.2.04-.32-.08-.08-.16-.12-.28-.08l.08-.08c.16-.2-.04-.32-.28-.24.08-.12.12-.24 0-.24-.04-.04-.04-.04.16-.2.12-.08.2-.12.16-.2-.04-.08-.16 0-.24.08l-.08-.12s-.04-.04-.16 0-.16 0-.16-.04c.08-.08-.04-.04-.12.08-.12.08-.2.12-.24.08l-.2.12c-.2.12-.32.2-.32.4.04.32.04.56.28.44 0 0 .16 0 .16.04s-.04.2-.04.2c-.12.08.04.32.24.6.2.28.36.56.28.68-.08.12-.04.2-.04.2.12-.08.32.32.6.72.28.4.52.84.64.8.04.04.08.12.08.12-.08.08-.04.2.04.32.12.04.2.08.24.16-.12.08-.08.12 0 .24s.12.2.2.12c.16.24.24.48.32.72-.08.12.08.12.24.12.08-.08.24-.08.28 0l-.2.12c-.16 0-.16 0-.08.12l.08.12c.08-.08.28.24.56.64.36.56.44.72.56.64.12-.08.16 0 .16.24-.08.56-.08.56.04.56-.04-.04.08-.12.16-.2.2-.12.24-.08.08.12-.16.2.48.96.72.92.12-.08.12-.08-.08.08-.12.08-.08.12.08.36l.12.2c.2-.12.32.32.24.36-.08.12-.08.12 0 .24.32.04.4.4.32.48 0 0 .04.04.08.12.16 0 .2.12.24.16.12.2.16.24.2.12.04-.12.2-.12.24-.08l-.08.08c-.12.08 0 .24.16.48s.28.44.2.56h.16c.16 0 .16.04.08.12-.08.12.08.36.28.44.04.08.08.12.08.12-.16.2-.04.36.2.32-.08.08-.08.12-.04.2.16.04.32.32.24.36l.04.04c.08 0 .16.04.2.12.04.08.12.12.2.12.16 0 .16.04.16.04.04.04-.08.08-.24.08-.16-.04-.08.12.24.16.32.04.32.04.04.04-.16 0-.28 0-.12.08 0 0 .08.12.16.04.04.08.08.12.12.2-.04.12 0 .2.04.32.16 0 .16 0 .08.12s-.08.12.16 0c.16 0 .16.04.12.2-.2.12-.16.2-.08.12.16 0 .16.04.16.04-.12.08.24.6.6 1.16.04.04.16.04.28 0 .2-.12.12-.08.04.04-.28.24-.2.4.08.12.16-.2.16-.2.04.04-.08.12-.08.12.08.12.08-.08.16 0 .04.04-.08.12-.12.24-.04.2 0 0 .04.04-.04.2s.08.12.2.12c.32.04.36.12.12.2-.24.08.04.32.28.24.24-.08.24-.08.16 0-.08.08-.08.12-.08.12.04.04.08.12-.04.2 0 0 .04.04.2.12.28 0 .28.24.12.44l.16.04c.24-.08.4-.08.16.04-.08.08-.2.12-.08.08.24-.08.28.24.08.36-.12.08-.12.08-.08.12l.08-.08c.12-.08.2-.12.24-.08.04.04.08.12-.04.2-.08.12-.12.24-.04.2 0 0 .04.04-.04.2l.16.24c.16 0 .2.12.12.2.04.08.12.12.2.12.08.12.12.2 0 .24-.12.04-.12.08.04.04.12-.08.16 0 .2.04l.08.12c.12-.08.12-.08.16 0 .04.08.04.32.08.36.12.2.12.2.2.04-.04-.04.08-.12.04.04.04.16.08.32.16.48.16.24.16.24.24.16.16-.2.2-.12.04.08s-.08.32 0 .24c.08-.08.16 0 .2.04-.12.08-.08.12.12.2.04.04.04.04-.08.12l.08.12c.28 0 .4.4.36.56 0 0 .04.04.2.04.24-.08.28 0 .08.12s-.2.12.04.04c.16 0 .32.32.08.36l-.2.12c.16 0 .16.04.16.04.12-.08.16 0 .24.16.08.16.32.32.4.4.08.08.2.32.12.44.04.08.16.16.24.2.16 0 .2.12.12.2l.04.04c.2.04.2.12.2.12-.08.08-.16.2-.04.2.12-.08.16 0 .2.12-.04.2 1.24 2.2 1.32 2.12l.12.2.12.2c-.2.12.08.36.32.48.08 0 .16.04.2.12-.2.12-.08.32.08.36.24-.08.28 0 .08.12s-.12.24.24.16c.16 0 .16 0 .08.12-.16.2-.12.24-.04.2.24-.08.28 0 .12.2-.16.2-.12.24.12.2.12-.04.24 0 .28.12.04.08 0 .2-.04.24.04.08-.04.2.08.12l-.08.12.08.12.08-.08c.12.32.28.64.44.92.4.68.48.8.56.64.16-.2.24-.08.08.12.04.08 0 .24.08.36s.16.24.04.32l.04.04c.28 0 .52.36.52.6.04.12.16.2.28.24.2.04.2.04.12.2-.12.08 0 .48.24.36l-.08.12c-.08.12.08.12.2.04.2-.12.24-.08-.04.2-.2.12-.16.2-.08.12.16 0 .28 0 .2.12.04.04.08.12.28 0 .08-.08.16 0 .16.04-.08.04-.16.08-.24.08-.04-.04 0 0 .08.12.04.12 0 .24-.08.32-.08.12-.04.2.16 0s.2-.12.28 0c.08.12.08.12-.04.2-.12.08-.12.08-.04.2.08.12.56.16.8.08s.2-.12.04.04c-.08.08-.08.12-.04.2.08-.08.04.04 0 0-.12.08-.16 0-.2-.04l-.12.08c-.16.2-.12.24.12.2.16 0 .16 0 .08.12s-.12.24-.04.2c.04.08.04.16 0 .24.08.12.12.2.2.12.08-.08.16 0 .16.04s.08.12.2.04c.08-.08.24-.08.32.04.2.04.2.04 0 .24-.08.08-.08.12-.04.2.04.08.04.04-.04.2s.04.04.16 0l.2-.12c.04.04-.12.24-.24.32-.16.2-.16.2.04.04.12-.08.24-.08.2.12.08.12.16.24.04.32-.08.12.08.12.08.12.16 0 .2.04.2.32 0 .44 0 .44.2.32.08-.08.2-.12.04.04-.08.12.08.12.24.16.16-.04.32-.12.44-.2.2-.12.2-.12.16.04.04.04-.04.2-.12.24-.08.04-.16 0-.16 0l-.04-.04c-.12.08-.2.12-.12.24-.08.12-.04.2.08.12-.08.12 0 .24.08.36s.2.32.12.44c.08.12.12.2.2.12.2-.12.24-.08.16 0-.16.2.24 1.04.48.96l.08.12c-.04.2.2.56.36.56l.12.2c-.04.2 0 .24.16.24s.24-.08.16 0c-.08.08-.04.2.12.44s.16.24.2.12c.24.16.16.24.04.32-.24.08-.16.2.2.04.24-.08.32.04.2.12-.12.08-.16 0-.16-.04l-.2.12c.04.04.04.04.2.04 0 0 .04.04.2.04.12 0 .24-.08.32-.2.08-.12.12-.08.16 0 0 .16-.12.24-.24.24-.04-.04-.16 0-.24.08-.08.08.28.24.52.16l-.12.08c-.08.08-.04.2.04.32s.12.2.2.12c.08-.08.2-.12.24-.08-.04-.04.08-.12.16-.2 0 .12-.04.2-.08.32-.16.2-.16.48 0 .68.08.12.2.32.12.44.08.12.12.2.2.12l.08.12c-.08.12 0 .24.12.2.16 0 .08.12.12.2-.12.24-.12.24.16 0 .08-.08.12-.2.08-.32l-.12-.2.2.12c.08.08.2.12.32.04 0 0 .08-.08.16 0l-.2.12c-.12 0-.24.08-.36.16-.16.2-.16.44.04.32.04.04.04.04-.04.2-.12.08-.08.12.2.04.28-.08.28 0 .12.2-.12.24.04.48.12.44.2-.12.32.04.24.16-.08.12-.04.2.12.2-.08.08-.16.2-.04.2 0 0 .04.04.08-.08h.28c-.04-.04.08-.12.16-.2.08-.08.16.24-.08.56l-.12.24.2-.12c.04.04.08.12-.04.2-.12.08-.08.08-.08.12 0 .04.04.08.16 0 .2-.12.2-.12.16 0-.16.2-.12.24.12.2.24-.04.2-.12.04.04-.12.08-.16.2-.12.24l.08-.08c.2-.12.24-.08.2.04-.12.08-.08.12.12.2.08.12.12.2 0 .24-.2.12-.2.12.04.04.16 0 .16 0 .12.2-.04.2-.08.12.08.12.2-.12.32-.2.28-.24-.04-.04-.04-.04.08-.12l.08.12c.04.04.08.12.24.16.16.04.84 0 .64-.08zM74.36 114.76c12.28 0 22.24-9.96 22.24-22.24 0-12.28-9.96-22.24-22.24-22.24-12.28 0-22.24 9.96-22.24 22.24 0 12.28 9.96 22.2 22.24 22.24z"/>
    <path fill="#F4F5FA" d="M82.12 89.12c1.834 0 3.32-1.486 3.32-3.32 0-1.834-1.486-3.32-3.32-3.32-1.834 0-3.32 1.486-3.32 3.32 0 1.834 1.487 3.32 3.32 3.32zM72.56 97.88c1.2.24 2.4.24 3.6 0 .56-.12 1.12-.28 1.68-.52.52-.24 1.04-.48 1.52-.8.48-.32.92-.68 1.32-1.08s.76-.84 1.08-1.32l3.68 2.48c-.48.72-1.04 1.4-1.64 2-.6.6-1.28 1.16-1.96 1.64-.72.48-1.48.88-2.28 1.24-.8.32-1.64.6-2.52.76-4.4.92-8.96-.48-12.12-3.64-.6-.6-1.16-1.28-1.64-1.96l3.68-2.48c.32.48.68.92 1.08 1.32s.84.76 1.32 1.08c.48.32 1 .6 1.52.8.56.2 1.12.36 1.68.48zM66.56 89.16c1.834 0 3.32-1.486 3.32-3.32 0-1.834-1.486-3.32-3.32-3.32-1.834 0-3.32 1.486-3.32 3.32 0 1.834 1.486 3.32 3.32 3.32z"/>
    <path fill="#E75760" d="M115.72 75.92h52.68c10.2 0 18.44-8.24 18.44-18.44V40.36c0-10.2-8.24-18.44-18.44-18.44h-58.16c-10.2 0-18.44 8.24-18.44 18.44v43.56c0 1.28 1.04 2.36 2.36 2.36.52 0 1.04-.16 1.44-.48l6.84-5.32c3.8-2.96 8.48-4.56 13.28-4.56z"/>
    <path fill="#FF8592" d="M115.72 76.28c.16-.04.08-.16-.36-.12l-.28.2.64-.08zM112.92 76.12c-.48.16-1 .4-.64.52.44-.24.56-.2 1.04-.44.4-.08.72 0 .64.04.16-.04.64 0 .84-.12-.28-.04-.6-.08-.92-.04-.36.04-.68.08-1 .2-.12-.04 0-.12.04-.16zM92.04 68.68l-.04.28c.04-.12.04-.2.04-.28zM92.16 43.48c0 .2.04.28.04.28-.04-.16-.04-.32-.04-.28zM92.4 39.24c0 .08 0 .16-.04.24.04-.08.04-.16.04-.24zM92.04 68.68l.04-.68c-.04-.04 0 .36-.04.68zM107.68 77.96c.12-.04.2-.12.32-.2l-.32.2c.04-.04.04-.04 0 0zM92.2 79.76V80c0 .04.04.12.08.16l-.08-.4zM94.72 85.76c-.16.04-.16.2-.24.28.12-.08.2-.12.32-.2l-.08-.08zM105.72 78.2l.2-.12-.2.12zM92.24 73.68c.04 0 .04-.04.04-.08 0 0-.04.04-.04.08zM125.6 76.6c0-.04-.08 0 0 0zM115.72 75.88h.12c0-.04.04-.04.04-.08l-.16.08zM94.64 32.04c-.12.2-.08.08 0 0zM162.56 22.52c-.8-.12 1.32-.16.08-.32.16.08-1.08.24-.08.32zM107.48 78l-.32.12c.16-.04.24-.08.32-.12zM108.52 22.64c-.04-.04-.12-.04-.2-.04 0 0 .04 0 .2.04zM96.96 28.2l.24-.2c-.08.08-.16.12-.24.2zM115.44 22.32h.48-.08c-.12.04-.24.04-.4 0zM122.76 22.32l-.12-.04h-.24l.36.04zM147.8 76.56l-.36-.12c.12.08-.96.12.36.12zM107.64 77.88c-.04.08-.12.12-.16.16l.2-.08c.04-.08.04-.08-.04-.08zM187.48 54.68v.28c.04-.08 0-.2 0-.28zM120.36 21.16c.2.04.44.08.64.12.04 0 .08-.04.12-.04l-.76-.08z"/>
    <path fill="#FF8592" d="M139.8 76.76c1.12 0 .52-.2.76-.32 1.32-.04.6.16 1.04.24.84-.04 1.44-.24 2.08-.24.04.04.16.04.04.08.88-.16 2.6 0 3.6-.2.04 0 .08.04.12.04-.16-.08-.2-.2-.16-.28.48 0 .92-.12 1.12 0-.16 0-.32.04-.48.08l.52-.04c.48.2-.72.08-.72.2 1-.12 1.96-.16 2.96-.16.16.2-1.8.04-.8.24l-1.2-.08c.92.28-.72 0 .12.28 1.6.04 1.76-.08 3.36-.04.36-.12-.12-.16.24-.24 2.24-.2 1.76.44 3.4.2.56-.28 1.16-.36 1.76-.24l-.4.2c1.52.04.88-.32 2.48-.16-.28.08-1.2.08-.96.08 1.04.16.72-.12 1.52-.12l.16.2c1.64-.04 3.44-.16 5.24-.2-.08.04-.4.12 0 .16.56-.04 1.16-.04 1.76-.04h1.84c1.2 0 2.4-.12 3.6-.36l.8-.36c.2-.04.4-.04.2.04.88-.2 0-.08.4-.28.48-.16.64-.16.36 0l1.24-.56c.44-.24.96-.52 1.44-.76.96-.56 1.92-1.16 2.6-1.6l-.24.24c1.08-.72.92-1.12 1.88-1.8l-.16.16.4-.36c.12-.12.24-.24.36-.4l.72-.76c.44-.52.84-1.12 1.28-1.64.36-.6.72-1.16 1.04-1.68.32-.52.6-1.08.84-1.52.08-.52.24-1 .44-1.48.24-.6.36-1.24.24-1.36.16-.44.32-.88.48-1.36.04-.16.12-.36.16-.68l.12-.52c.04-.2.04-.44.08-.72.04-.6-.12-.92-.16-1.64h.16l-.16-.96.2-.52-.04-.68c0 .28-.08.56-.12.52-.08-1.04.12-2.56.2-2.56l-.16-2.48c.08.24.12.52.12.8-.16-1.32.16-.24 0-1.44-.04.16-.08-.08-.12-.12.08-1 .12-2 .04-3l.12.2c.04-1.84-.04-3.88-.04-5.92-.04.72-.24.56-.28-.04l.16-.24c-.12-.4-.08.64-.2-.16 0-.8.2-.52.24-.08l-.12-.96c.04-.08.08.16.16.24-.04-.36-.08-.72-.04-1.08.04-.4-.04-.8-.2-1.2l.04-.08c-.24-1.6-.72-3.16-1.4-4.64-.16.04-.4-.6-.76-1l-.2-.44-.24-.44c-.16-.28-.32-.6-.48-.92-.16-.32-.36-.6-.6-.92-.2-.28-.44-.6-.68-.92-.8-.76-.32-.16-.72-.44.04-.08-.24-.4-.4-.64-.16-.24-.32-.36 0-.12-1.12-1.12-2.36-2.04-3.76-2.76.2.2.4.36.24.32-.36-.2-.8-.52-.68-.56l.08.04-.44-.24-.48-.2-.96-.48c-.64-.32-1.32-.6-2-.88-.68-.2-1.36-.48-2-.6-.6-.12-1.16-.16-1.76-.2h.12c-.72 0-1.44 0-2.16.04-.96-.04.56-.12-.12-.2-2.24.24-3.56-.04-5.4.12-1.44-.4-5.08.04-7.04-.24l.12.08c-.48.08-.6-.04-.96-.08.04.08.56.08.24.12-4.24.12-8.76-.12-13.12-.24-1.6-.04-.92.48-2.92.28l.56-.2c-3.2.2-6.56 0-9.72.16.16-.08.36-.08.52-.08-.68-.12-2.44 0-2.48.08-.48 0-.12-.08-.4-.16-.68-.08-1.68.16-2.04.04-.04 0 .2-.04.32-.04-.44.08-2 0-1.6.12-1.2-.08-2.24.08-3.2 0-.6.16-2-.08-2.2.16.08-.24-2.08-.2-2.8-.08.24-.08-.64-.08-.36-.16-.84 0-1.64.04-1.48.16-1.56-.28-3.16.24-4.04-.12-2.48.12-4.88.72-7.12 1.72 0-.12.6-.36 1.2-.6l.44-.16.36-.12c.2-.08.32-.16.28-.2-.28.08-.52.16-.76.24l-.68.28c-.44.2-.84.36-1.2.56-.36.2-.76.44-1.16.64-.4.2-.8.48-1.28.76s.24-.24.36-.4c-1.84 1.24-3.52 2.48-4.72 4.12.08-.12.12-.24.24-.36-.24.28-.64.64-.52.68.08-.12.12-.2.24-.32.28-.16.04.16-.16.56-.2.32-.36.64-.48.96.08-.36-.24 0-.52.36s-.48.68-.4.12c-.12.24-.24.52-.16.52-.2.32-.32.4-.2.04-.16.32-.28.52-.36.68-.08.16-.08.28-.12.36-.12.32-.24.64-.4.96-.04-.04.04-.28.04-.4-.08.32-.2.6-.28.96-.12.44-.28.84-.44 1.24 0-.08-.08.04.04-.28-.16.4-.28.8-.32 1.24-.08.4-.16.8-.2 1.2-.04.4-.08.8-.12 1.24-.04.2-.08.44-.08.64s-.04.48-.04.72c-.2-.6-.12.68-.32.76 0 .36.04.72.04 1.08l.08-.4c0 .92.16 1.72.08 2.52l-.08-.68.04 1.72.08-.96c.12.92.24-.08.2 1.12-.04-.24 0 .92-.12 1.4.08.52.12 1.08.08 1.6-.08.16-.24-.16-.28-.04.16.44.04 2.16.24 2.72-.04-.2-.16-.2-.16-.12l.12.36c-.04.44-.08.48-.16.44-.04 1.28.24-.4.16 1.12-.04-.12-.04-.2-.04-.32-.04 1.52.08 2.96.04 4.36-.2.4-.04-1.24-.24-.76.04 2.04.24 4.2.2 6.16l.04-.36c.28.28-.16 1.44 0 2.44-.04-.24-.16-.32-.12-.24-.04 1.36.08 2.76.16 4.76l-.08-.24c-.08.8-.04 2.08-.08 2.96.08.24.04.76.16.44-.44 2.64.24 5.04-.12 7.36 0-.28-.08-.68-.08-.44l.08 2c.12-.16.08-.24.16-.68.08.44.12.88.12 1.32-.08-.88-.2 0-.28.4.04-.08.08.08.12.04-.24 1.04.24.16.08 1.6l-.08-.08c.04.52.12 1.04.12 1.6-.08.12-.08-.04-.12-.2-.04-.16-.04-.4-.08-.4 0 .4.08.84.24 1.2.16.36.4.68.64 1-.32-.28-.56-.6-.72-1 .04.32.12.6.28.84.04.08.12.2.2.24.08.12.2.2.32.28l-.04-.04c.4.36.88.56 1.4.64-.12-.04-.28-.08-.4-.12.56 0 1.16-.12 1.68-.36.28-.12.52-.32.76-.52s.48-.44.72-.68c-.88 1-.08.24-.08.44.32-.16.76-.44.64-.32.44-.48.92-.56 1.52-1.28.08 0 .56-.4.52-.24.64-.56-.2.04-.2-.04.92-.92 2.52-1.68 3.84-3l1.28-1.12c.4-.36.84-.68 1.32-.96.48-.16-.28.36-.28.36.72-.32 1.28-.6 1.92-.96-.12.08.04.08.28.04.56-.24.32-.36 1.08-.56-.16.16-.32.28-.48.4.64-.28 1.28-.6 1.96-.84.2.04-.4.24-.6.4.76-.28 2.04-.64 2.24-.8-.16 0-.36.04-.52.04.28-.08.16.08-.04.16-.68.28-1 .2-1.04.16l.48-.16c-.6-.16-2.04.64-3 1.04l.32-.36c-.32.2-.64.4-.92.6-.24.04-.44 0 .04-.24-.76.24-.6.36-1.24.56-.08 0-.04 0 0-.04-.2.12-.44.28-.64.4.12-.12-.2-.08.24-.28-1.24.52-1.76 1.28-2.28 1.44l.08-.08c-1.44 1.16-.04.24-1.04 1.24l-1 .24-.04.24c-.16.12-.48.32-.44.24-.48.52.16 0-.12.32-.84.44-1.96 1.6-2.28 1.52-.2.32.76-.48.04.2-.4-.04-.88.72-1.6 1.16.12-.28.8-.72.04-.28-.2.32-.48.56-.84.72-.32.2-.64.4-1 .56.04.08-.32.28-.8.24-.28-.04-.56-.08-.8-.2-.24-.12-.48-.28-.68-.48-.2-.32-.36-.64-.44-1.04-.04-.16-.04-.32-.04-.48l.04-.56c0-.36.04-.72.04-1l.04.04c-.2-.2-.16-1.36-.2-2.2.12.04.16.2.2.64V80c-.08-.32-.12-.64-.12-.96l.16.2c0-1.04-.16-2.08-.08-3.44-.12-.08-.4 1.08-.48-.36.08-.04.2-.12.24.28-.04-.24-.04-.44-.04-.68l.12.56c.04-.6-.12-.32-.08-.8.12 0 .08-.36.16-.28v.6c0-.48.04-.96.16-1.44-.04.04-.16 0-.16-.4 0-1.04.12-.36.16-.96-.08-.24 0-.92-.16-.92 0-.16.04-.32.12-.48-.08-.56 0-2.52-.2-1.92v.16-.08c-.16-1.76.08-3.68.04-5.44h.04c-.04-1.04-.04-2.32-.16-3.08 0-.32.08-.72.16-.6-.08-.68-.08-1.36 0-2.04.08.8.08-.28.08.84.08-.8.08-1.6 0-2.4.12.36.16-.8.12-1.28l-.08.72v-1.52l.16.28c.2-2.12-.36-3.84 0-5.48-.12-.56-.08 1.16-.24.64.04-.96.28-2 .28-2.32.08-1.36-.24-1.24-.2-2.64-.08.16-.24.36-.28-.72.04-.96.28-1.2.32-.6 0 .24 0 .36-.04.32.04.32.04.72.12.36l-.08-.12c.08-.48.04-1.84.16-1.52-.04-.72-.12-.32-.12.24.04-.64.04-1.12.04-1.6v-.76c0-.28.04-.52.08-.84-.04.2-.12.4-.12.16.16-1.84-.08-.84.04-2.08.2-.68.16.28.32-.96.24-.72.2-.12.16.2.08-.52.2-1.04.4-1.52.16-.44.4-.8.48-1.12l-.16.56c.08-.36.2-.64.28-.88l-.24.28c.16-.32.24-.6.28-.56.08-.36-.32.16-.12-.52.28-.4.56-1.36.8-1.4-.72 1.28.2-.08-.32 1.08.12-.28.24-.56.4-.8.04-.04 0 .08-.04.16.4-.56.48-.72.48-.92.08-.36.2-.72.44-1-.04.2.36-.16.48-.36-.36.48-.32.12-.04-.36.32-.36.44-.56.6-.72l.36-.48-.4.4c.24-.4.48-.76.8-1.08.08 0-.36.48-.2.32.24-.36.52-.64.88-.84.36-.28.76-.56 1.16-.88.44-.24.16.12.52-.08.16-.16.36-.32.52-.44.16-.08.28-.16.44-.24.36-.16.72-.36 1.08-.64-.16.04-.28.08-.24 0 .16-.16.36-.28.56-.4-.28.16-.56.32-.84.52l-.88.56 1-.8c-.52.32-1.04.72-1.36.92.44-.44.44-.36.12-.32.8-.24 1.32-1 2.28-1.24l.12.32c.32-.12.64-.28.92-.4s.6-.24.92-.4l.48-.2c.16-.08.36-.12.52-.16.36-.12.76-.2 1.2-.32l-.6.08c.2-.12.44-.2.72-.24.32-.04.72-.08 1-.16-.04.12.32.08.6.12-.04-.08 1.36-.08 1.52-.28l.84.12c1.52.08 1.76-.32 3.2-.28-.44.12.24.2-.76.28.48 0 .92 0 .96-.04.28.08 1.36-.16 1.8-.04.28-.12.56-.16.84-.16.04 0 0 .04 0 .04s.88-.08.4-.2c1.52.32 4.24-.04 5.56.28 1.08-.04 2.36-.08 3.32-.08-.08.04 0 .04-.2.04 1.36.08.84-.32 2.36-.2.8.16-.8.08-.32.16.2.36 1.84-.04 2.88.16h-.24c.8.12 1.92-.12 3.2-.12 0 0-.04.04 0 .04 1.24-.16 2.52-.28 3.76-.28-.4.12-.56.08-.32.2.56 0-.16-.24.96-.28.36.08 1.16.12 1.24.28h-1.04c.52.2 1.36 0 1.88.04l-.08.08c1.6-.04 1.6-.24 3.32-.24l-.16-.08c.92-.2.8.12 1.72-.04l.28.2c.6-.04 2.16-.2 3.28-.24-.64.16-1.92.24-2.72.32.8.04 1.6 0 2.4-.12-.28.04-.52.04-.8.04.96-.2 1.96-.28 2.96-.24-.2.4 3.2.12 4.08.44 2.16-.16 4.28.08 6.8.04-.88-.32.72 0 .6-.32.28-.04.56-.04.84 0l1.8.2c.4.08-.56.08-.52.16 1.28.04.56.12 1.4.24-.16-.12.44-.16 1.2-.12l-1.04-.16c1.8-.16 1.56.24 3.36.12-.2.04-.36.04-.56.08.44 0 1.28 0 2.08.04.68.08 1.4.12 2.08.16.16.08.32.2-.04.12.52.16 1.08.24 1.6.44s1.12.32 1.64.52c.52.2 1.04.44 1.48.68.44.24.84.52 1.2.76h-.2c.36.16.72.36 1 .64-.04 0-.16-.04-.04.08.08.04.32.2.6.36.28.16.52.4.72.6l-.4-.24c.36.36.72.68 1.04.96.32.28.56.56.88.84.28.24.56.52.8.8.28.28.56.6.8.96-.2.12.64 1.56.88 2.32H184c.12.28.24.52.36.8s.2.52.32.76.2.48.32.72.16.48.24.72c.36 1 .6 2 .72 3.04-.04.44-.08.92-.04 1.36 0 .56 0 1.2-.04 1.88 0 1.32 0 2.8-.08 3.96.04-.36.2.04.2.48-.04.56.16 1.52-.04 1.44v-.2c-.2.4-.16 1.52-.16 2.4l.28.16c-.4 2.28.16 6-.24 7.28.04.52 0 1.2.04 1.72l-.16-.04-.32 1.84c-.08.28-.16.6-.24.92-.08.4-.2.76-.32 1.16l.04-.4c-.12.36-.2.76-.2 1.16 0 .16 0 .36-.04.52-.04.2-.12.4-.2.6l-.32.16c-.4.8-.88 1.6-1.4 2.32-.28.36-.56.72-.8 1.08-.24.36-.56.68-.8 1.08 0-.04 0-.12.16-.36l-.6.64c-.24.24-.52.48-.8.72l-.6.6c-.16.16-.2.24-.08.24-.08-.08-.44.2-.88.56-.24.2-.48.4-.72.56l-.68.52.04-.2c-.2.24-.44.44-.68.6-.32.2-.64.4-1 .56-.24.08-.28 0 .08-.12-.28.08-.52.2-.76.36-.28.16-.6.28-.92.36l.36-.24c-.44.12-.88.32-1.28.56-.36.12-.72.2-1.12.28-.28.04-.52.04-.8-.04-.36.2-.76.32-1.16.32-.08-.04.12-.08.2-.12-.64 0-1.28.04-1.92.12-.52.04-1.04.04-1.56 0-.04-.04-.08-.08-.2-.08H168.44c0-.12-1-.12-.2-.36-1.08.2-2.16.28-3.24.28-.04 0-.08-.04-.12-.04h.12c-.2 0-.44 0-.64.04-.32-.04-.52-.04-.84-.04-.12-.12-1.2-.08-1.72-.08.04.16-.64.12 0 .24-.08 0 .08-.04.44-.04h1.84c-.48.12-.92.12-1.4.04-.28.08-.56.2-.72.24-.72-.2-2.08-.32-2.24-.44-1.56.08-3.72.04-4.72.36-.24.04-.48 0-.68-.12.24 0 .48-.04.72-.08-.88.08-2.64.04-2.88.24-1.12-.08.64-.2-.92-.16l.2-.08c-3.04-.32-4.96.52-8.36.08.12 0 .28.04.4.08-3.84-.16-7.96.16-11.76-.12-.64-.04-1.24 0-1.88.16l-.24-.16-1.12.2c-1.6.16-2.76-.4-4.8-.12l.24.12c-.72-.04-2.32.08-2.2-.04-.16.08-.36.08-.52.04v-.16l-1.8.16c-1.4-.04.2-.32-1.8-.36-.76.04-2.16.24-1.84.32.32.08.76.04.8.16l-.68.04c-.12.24-.64.52 1.04.68l1.16-.16.4.12h-1c.44.08.88.04 1.32-.04.16.08.32.12.48.12l1.16-.24c.16.08-.52.2.24.24.56-.12-.52-.24.36-.28.56.12.4.2 1.04.12.08.08-.04.12-.32.12.6-.08 1.56-.04 1.84-.16.6.16 2-.04 1.92.2.52-.12 1.04-.16 1.56-.2-1 .28 2.04 0 1.76.32.72-.24 2.64-.12 3.92-.24-.12.04-.2.04-.32.04.48.04.96.08 1.4.16.08-.2 1.24-.24 1.84-.4.88.2-.56.24-.28.44-.04-.16 1.56-.16 1.24-.32.68.12.6.04.96.24.12-.28.64-.04 1.2-.2 1 .12.24.24 1.36.16.6.04-.36.12-.36.12zm25.84-.44h-.52.52zm2.16 0h-.96c-.08-.04 0-.12.24-.12-.12.04.4.08.72.12zm-4.6-1.08c.36-.04.44 0 .52.04h-.6l-.04.04c.04-.04.08-.04.12-.08z"/>
    <path fill="#FF8592" d="M162.6 75.44h-.16l.2.04.12-.04h-.16zM187.56 57.12h-.04l.04.16v-.16zM91.52 80.92c-.04.04-.04.12-.04.16 0-.04.04-.08.04-.16zM92.56 86.04c.2.2.44.32.72.44-.28-.08-.52-.24-.72-.44zM96.04 27.72c.04-.04.08-.08.08-.12.24-.28.08-.08-.08.12zM91.56 45.76c-.04-.2-.04-.4-.08-.6 0 .32 0 .56.08.6zM91.52 44.28c-.04.28-.04.6 0 .88v-.88zM111 76.92l.2-.04v-.04l-.2.08zM111.2 76.84l.2-.08c-.08.04-.12.04-.2.08zM111.8 76.68l-.44.12c.2-.04.32-.08.44-.12zM106.16 78.6l-.04.08c0-.04.04-.04.04-.08zM104.8 79.36c.32-.16.88-.36 1.32-.64l.04-.04c-.24.16-1.12.4-1.36.68zM99.04 82.76l1.08-.8c-.24.08-.52.24-.04-.16-1.44.92.36-.08-1.04.96zM95.72 85.24c.56-.48-.04-.08-.04-.12-.32.32-.4.4.04.12zM92.16 59.64l.12.08c0-.56-.04-.04-.12-.08zM91.44 53.88l-.08.56.12.24-.04-.8zM92.4 50.52l.04.24-.04-.92v.68zM121.48 22.48l-.16-.16c-.4 0-.48.2.16.16zM143.2 22.28c.4.12.8.12 1.24.04-.52 0-1-.04-1.24-.04zM186.2 51.36l-.04-.44.04.8v-.36z"/>
    <path fill="#F5F6FB" d="M123.68 48.48c.04 0 .16 0 .12-.04l-.2-.04.08.08zM124 48.2c-.12-.04-.28-.08-.4-.04.16.04.12.04.32.08.04.04-.04.08-.12.08.04 0-.04.08.08.08.12-.04.12-.12 0-.2h.12zM119.92 43.72c.04 0 .04-.04 0 0 .04-.04 0-.04 0 0zM119.48 43.52c.04 0 0-.04 0 0zM122.32 44.68l-.04-.08s.04.04.04.08zM123.52 47.76h.04c0-.04 0-.04-.04 0zM123.28 45.32l.08-.04-.08.04zM123.84 46.04s-.16.04-.2.08h.12l.08-.08zM122.84 44.84l.04-.04-.04.04zM114.68 49.52c.12-.12.2.08.32-.08-.04.08-.24-.04-.32.08zM123.56 47.72c-.04 0-.04-.04 0 0 0-.04-.04 0 0 0zM116.76 44.28l.04.04c0-.04 0-.04-.04-.04zM116.32 44.92c-.04 0-.04 0-.04.04l.04-.04c-.04 0-.04 0 0 0zM122.52 50.92c.04.04.08.04.12.08-.08-.08-.04-.16-.12-.08zM117.12 45.8l-.08.04s.04 0 .08-.04zM116.84 46.08c-.04 0-.08-.04-.12-.04l.04.04h.08z"/>
    <path fill="#F5F6FB" d="M122.72 50.28c-.04.08.16.12.24.2 0 .12-.16-.04-.24-.04 0 .08.12.24.08.28-.04 0-.04-.04-.08-.04.08.16-.12.16 0 .36l-.04-.04c.08.04.16.12.2.16-.04.04.04.16-.08.08.04 0 0-.04-.04-.08v.08c-.16-.08 0-.08-.12-.16 0 .12.04.28-.04.32-.16-.12.04-.16-.12-.2l.12-.04c-.28-.12.04-.04-.24-.2-.12.04-.04.16-.16.24.04.08.12.12.16.2-.04.28-.4-.24-.36.04.04.12.2.32.04.28l-.08-.2c-.12.04.12.28-.08.24-.04-.08.04-.12 0-.12-.16-.08 0 .12-.04.16l-.12-.16c-.08.08-.16.28-.28.4 0-.04 0-.12-.08-.16-.08.08-.16.12-.28.16-.12 0-.2 0-.32-.04v.16s-.04-.04-.04-.08c-.08-.04.04.08 0 .16s-.08-.08-.08-.12c-.08.16-.28.36-.44.24v-.04c-.12-.04-.08.32-.2.2v-.04c-.24-.04-.48.12-.68-.16-.04.24-.2-.12-.24.2-.12-.16-.08-.24-.24-.36-.04 0-.12.16-.16.2l.04-.16-.12.16v-.2l-.08.04s.04.08 0 .12c-.12.04-.16-.16-.16-.24l-.24.04c.04-.04.08-.08.12-.08-.16.12.04-.16-.12-.04 0 .04-.04.08-.04.12 0-.08-.12-.16-.2-.16l.08-.08c-.12-.08-.32-.08-.44-.2.04.08-.08.24-.16.24l.08-.16c-.08.08 0 .08-.12.16-.04-.04.08-.2.16-.2h-.08c.04-.04.04-.04.08-.12-.08.08 0-.24-.16-.08l.04-.04c-.12-.08-.2-.12-.32-.2-.12.12-.12.04-.24.12-.04-.12-.04-.28-.12-.36-.12 0-.12.08-.2.08.12-.08 0-.2.12-.2-.08-.08-.2-.16-.32-.24-.04.04-.04.08-.08.08s0-.12.08-.12c-.32-.08.12-.6-.2-.64l-.2-.12c0-.08.12 0 .16-.08-.28-.12-.04-.28-.24-.4.4-.2-.12-.4.16-.6h-.08c-.08-.04.04-.04.08-.08-.08 0-.08.04-.12.04-.16-.36.16-.72.32-1.04.04-.12-.44-.2-.2-.32l.16.08c-.04-.12-.04-.28.04-.4s.12-.24.12-.4c.04.04.08.04.04.08.16 0 .12-.16 0-.24.04-.04.08.04.16.04s-.08-.2.04-.16l.04.04c-.04-.08.12-.12-.04-.16.12-.04.04-.2.16-.2-.08-.16.16-.08 0-.24.16.16.24 0 .24-.12.04.08.08 0 .16.12.04-.04.08-.12-.04-.2.28.12.08-.36.36-.12.08-.2.2-.4.36-.56.12.2-.2.12-.04.36.08-.2.12-.4.32-.44.04 0 0 .12 0 .16.12-.16.32-.12.44-.28v.08c.04 0 .08 0 .04-.08l-.04.04c-.08-.12.04-.36.04-.44 0 .32.2.04.2.44.04-.04.04-.12 0-.16.04 0 .04.04.04.16.08-.08.04-.2.16-.2v.12c.04-.12.08-.24.16-.2v.08c.16-.04.24-.32.44-.2-.04.24.04.08.08.28l.08-.08-.04-.08c.08 0 .16-.12.24-.08l-.08.08.16-.04-.08-.08c.08-.08 0-.24.12-.2-.04 0 .08 0 .12.12.04-.04.08-.12.16-.04.08.08-.04.2-.04.28.08-.16.2 0 .28-.16-.04.04-.04.12-.04.16l.04-.12c.04.04.04.08 0 .16.12.04.04-.24.12-.12 0 0 0 .04-.04.04.12.08.28 0 .4.08-.04.2-.12 0-.12.2.16 0 .44-.08.6.04v-.04c.16-.24.04.2.2.12-.04 0-.08.12-.08.08.08.12.24.08.44.08l-.04.04c0 .08.12.16.16.2.08-.04.08 0 .12-.12-.04.24.08.28.2.28.12 0 .24.04.2.24h-.08l.16.08c.08-.08.04-.08.08-.16.04-.04.12-.04.2 0-.12 0-.16.12-.2.2.04-.04.08-.04.08-.08-.12.2.2-.12.16.08l-.04.04c.04 0 .16 0 .16.08-.12.08-.08 0-.2.08.04.04.32-.04.24.12-.04 0-.08-.04-.12-.04-.08.16-.04.12-.04.2v.16l.04-.04c.36-.12.16.12.44.12-.24 0-.12.04-.28.12-.04.04-.04.12-.08.12.16 0-.04.12.16.12-.04.04 0 .04-.12.08.08.04.08-.04.16-.08.2.04-.12.32.2.4.12.12.32.08.44.2-.08.08-.2 0-.2 0-.04.08-.04.12.04.2-.04 0-.08 0-.12.04 0 .04.2 0 .12.08h-.2c.04.04.16.12.2.16-.08.04-.16-.04-.2-.04.04.12.16.16.24.2l.04-.04c0 .04-.12.04-.16 0-.12-.04.04-.08.08-.12l.04.04c.32-.08-.08-.2-.08-.28h.24l-.2-.08c.04-.04.16-.08.2-.04.08-.08-.08-.04 0-.12h.04l-.08-.04c.04 0 .16-.04.12 0 .08-.16-.2-.16-.08-.28-.12-.16-.16.04-.4-.04l.36-.24-.16.04s0-.08.08-.08c-.12-.04-.08.04-.16.04.12-.16-.16-.2.08-.32-.12.04-.04.12-.16.08.24-.16-.08-.08 0-.2.16-.04.12.08.2-.08-.24.08-.04-.16-.12-.24-.16.08-.16-.08-.28-.16.08-.04-.04-.24-.04-.4h.04c-.16.12-.2 0-.28-.04.04-.08.12-.08.2-.08l-.04-.08c-.04.04-.12.04-.16 0l.12-.08c-.08-.08-.28-.04-.32-.2-.08.08-.2.36-.36.32.04-.04.12-.16.2-.16 0 0-.08 0-.08-.04l.12-.04c0-.08-.08.04-.12 0 .08-.08.04-.08.08-.12 0 0 0 .08.04.04-.04-.08-.04-.16 0-.24-.04.04-.08.12-.12.08-.04-.04.04-.12.04-.2-.08.04-.08-.08-.16.04-.04 0 0-.08.04-.12-.08 0-.24-.16-.28.04-.24 0-.28-.28-.44-.32l.04-.04c-.12 0-.24-.08-.36 0-.04 0-.04-.12 0-.16-.08 0-.12.04-.2-.08.12-.04 0-.08.12-.04-.08-.08-.08-.16-.24-.08.08-.12 0-.2-.08-.16l.04.12c-.04 0-.12-.04-.16-.08l.08-.16c-.16-.28-.48.24-.6-.12-.08.12.12.12.04.24-.08-.04-.16-.32-.2-.32-.12-.12-.16.24-.32.16 0 .08 0 .24-.08.28-.08-.04-.12-.28-.04-.32.08-.04.04 0 .04.04s.08-.04.04-.12l.08.08c-.04-.08-.2-.08-.16-.16-.08.04-.04.08 0 .12-.12-.08-.2 0-.36-.08 0 .04.04.12 0 .12-.2-.08-.08.12-.2.16-.08-.08 0-.24-.12-.16-.08-.08-.04-.16 0-.24-.12.12-.24-.04-.32-.08l.08-.08c-.04.04-.08.04-.12.04l.04.12c-.04 0-.08 0-.08-.08-.04.08.08.2 0 .32-.08-.04-.16.08-.2-.08.16.04-.04-.16.08-.2-.04.04-.08.04-.12 0v-.04c-.2-.12-.04.2-.2.24 0-.08-.08-.16-.12-.12.08 0 .08.16.04.24-.12-.04-.08.08-.16.08h.08c0 .08-.04.08-.08.16-.04-.08.04-.08 0-.08 0 .2-.24-.12-.28.04-.08-.04-.08-.16-.12-.2-.08.16-.2-.08-.28.08.08.08.08.08.04.24l.16-.16-.04.24c.04-.04.08-.12.12-.12 0 .12-.04.08.04.16-.16-.12-.12.16-.24.08l-.12-.28c-.2-.04-.16.28-.4.32h.08c.04.12-.08.08-.12.16-.04-.08-.12-.12-.16-.16.04.08-.12.08 0 .28l-.16-.04c-.16.04.04.36-.08.44-.04-.12-.16-.12-.12-.28-.04.04-.08.04-.04.12-.08-.04 0 .2-.12.16 0 .04.08.12.04.16l-.04-.04c.04.04 0 .12.12.16-.36-.12-.28.32-.56.24-.04.12-.08.24-.16.32l-.04-.04c-.16.08.2.24.04.32-.2 0-.04-.12-.12-.12-.32-.16-.08.2-.28.2v-.04c-.16.04.04.24-.04.36h-.04c.08.12.12.32.12.48-.12-.08-.04-.08-.2-.08 0 .08.2.08.2.16-.12.04-.2.04-.32.04 0-.04 0-.08.04-.12-.2 0-.04.12-.08.2l-.08-.04c0 .16.2.24.12.4h.08c.2.12-.12.04 0 .16h-.2c.08.12.16.24.2.36-.16-.08-.2-.24-.28-.32 0 .08 0 .24.08.28 0-.04-.08-.08-.04-.08.16.08.24.2.24.32-.4-.04-.12.32-.44.44.16.24-.04.48.04.76.32-.16.04.08.36 0 .04.04.04.08 0 .08l-.16.24c-.08.08-.08-.04-.16 0 0 .16-.12.08-.2.2.12-.04.16 0 .16.08l.12-.16c.2.12-.2.24 0 .4l-.12-.04c.08.08.12.36.44.36-.04.04-.08.08-.16.08.08.24.48.36.44.6l-.08.04c.04.04.16 0 .12.08-.04 0-.08.04-.08.04s.2 0 .2.08h-.12c.04.28.4.16.56.24-.12.12-.16.32-.08.44l-.04.04c.2.24.48.2.76.24-.04.32.4.4.56.64 0-.04.08-.16.16-.16.04.08.2-.08.12.12-.04.2.08.24.2.24l.12-.24c.04.24.2.28.36.28.16 0 .28-.04.32.16.08-.04.16-.04.24-.08l-.04.16c.16.08.32.08.48.08l-.04.12c.12 0 .2-.44.28-.44v.24c.2 0 .44.2.6-.04 0 .04 0 .08-.04.12.08 0 .4.12.32-.2.04.2.2 0 .32-.12v.16c.04-.2.04-.28.16-.36.04 0 .04.12 0 .08.12.04.04-.16.16-.12v.12c.12 0 .08-.04.08-.2s.2-.04.24.08c0-.08 0-.2.08-.2v.08c.2.04.16-.28.32-.16.04.04.04.08.04.08l-.24.08c.04.12.16.08.16.32.04-.12.08-.4.2-.4l.04.04c.04 0 .04-.04.04-.04h.08c.08.08.16 0 .2-.04-.08-.12 0-.16-.12-.2l-.04.04v.04l-.12.08c0-.08 0-.16.08-.12l-.08-.24c.16.16.36.16.44.24.08-.16.32-.28.2-.56 0-.04.08.04.12.04.04 0-.04.04 0 .08 0-.12.2-.2.08-.36.16 0 .08.16.16.04l.04.04c.24 0 .24-.2.24-.36 0-.16 0-.36.24-.36h-.08c.4-.24.28-.76.68-1.04.08-.08-.04-.12-.08-.24l.16.04-.16-.16c-.08-.2.48-.2.24-.44h-.12c.04-.08-.04-.24.08-.2 0 0-.12-.04-.04-.08h.08c-.04-.08-.08-.12-.12-.2.08-.12.32.04.36-.16-.04-.08-.24-.24-.28-.2-.04.04-.04.08-.16.08l-.04-.08c-.24-.04-.48-.04-.68.08l.16.12-.12.04v-.08c-.12.04 0 .08.04.12-.04 0-.08 0-.12.04l.24.12c-.08 0-.2-.08-.24 0 .12.04.24 0 .28.08-.12.04-.2 0-.12.08-.04 0-.08 0-.12-.04.08.08 0 .12.16.2-.16.04 0 .16-.24.12.04.04.16.12.16.16-.24-.16-.04.16-.36.04.24.12.04.24.12.4l-.04-.04s-.12.04-.16.04c.2.08.2.2.28.28-.2 0-.2-.16-.4-.2.16.08.08.2.24.24-.08 0-.16 0-.24-.04.24.12 0 .08.12.2-.16 0-.24-.12-.2 0-.08-.12-.12-.24-.12-.24zm-1.44 1.84c.04 0 .04 0 .08-.04.04.04.04.08.04.12 0 .04-.04-.04-.12-.08zm.92.72c-.04.04-.04 0-.08 0l.04-.04.04.04zM118.8 52.12l-.04.04.04-.04zM123.2 46.6l.04-.04-.04.04z"/>
    <path fill="#F5F6FB" d="M120.12 44.28c0 .04-.04.04-.08.08.04 0 .04.04.08-.08zM119.96 44.36c0 .04.04.04.08 0-.04 0-.04-.04-.08 0zM123.64 48.12l-.04-.04s0 .04.04.04zM123.52 47.44c0 .04-.08.12-.04.16h.04c-.12 0 .08-.12 0-.16zM123.92 46.64v.16c.04-.04.12-.12.16-.04.12-.28-.08.04-.16-.12zM123.84 46.2c.04.04.08-.04.12-.04-.12-.04-.12-.04-.12.04zM121.56 44.12l.08-.12c-.08 0-.04.04-.08.12zM120.8 44.56v.08l.04-.12-.04.04zM120.72 43.56l.04-.04-.12.04h.08zM115.76 45.28l.16.08s-.16-.16-.16-.08zM114.92 47.48c-.08 0-.16.08-.08.12 0-.08.08-.12.08-.12zM117.84 53.24l-.04.04h.08l-.04-.04zM140.8 48.48c.04 0 .16 0 .12-.04l-.16-.04.04.08zM141.12 48.2c-.12-.04-.28-.08-.4-.04.16.04.12.04.32.08.04.04-.04.08-.12.08.04 0-.04.08.08.08.12-.04.12-.12 0-.2h.12zM137.04 43.72s.04-.04 0 0c0-.04 0-.04 0 0zM139.44 44.68l-.04-.08c-.04 0 0 .04.04.08zM140.64 47.76h.04c0-.04 0-.04-.04 0zM140.4 45.32l.08-.04-.08.04zM140.92 46.04s-.16.04-.2.08h.12c.04 0 .08-.04.08-.08zM139.96 44.84l.04-.04c-.04 0-.04.04-.04.04zM131.8 49.52c.12-.12.2.08.32-.08-.08.08-.28-.04-.32.08zM133.88 44.28l.04.04c0-.04-.04-.04-.04-.04zM133.4 44.92c-.04 0-.04 0-.04.04l.04-.04c-.04 0-.04 0 0 0zM139.6 50.92c.04.04.08.04.12.08-.08-.08-.04-.16-.12-.08zM134.2 45.8l-.08.04c.04 0 .08 0 .08-.04zM133.96 46.08c-.04 0-.08-.04-.12-.04l.04.04h.08z"/>
    <path fill="#F5F6FB" d="M139.8 50.28c-.04.08.16.12.24.2 0 .12-.16-.04-.24-.04 0 .08.12.24.08.28-.04 0-.04-.04-.08-.04.08.16-.12.16 0 .36l-.04-.04c.08.04.16.12.2.16-.04.04.04.16-.08.08.04 0 0-.04-.04-.08v.08c-.16-.08 0-.08-.12-.16 0 .12.04.28-.04.32-.16-.12.08-.16-.12-.2l.12-.04c-.28-.12.04-.04-.24-.2-.12.04-.04.16-.16.24.04.08.12.12.16.2-.04.28-.4-.24-.36.04.04.12.2.32.04.28l-.08-.2c-.12.04.12.28-.08.24-.04-.08.04-.12 0-.12-.16-.08 0 .12-.04.16l-.12-.16c-.08.08-.16.28-.28.4 0-.04 0-.12-.08-.16-.08.08-.16.12-.28.16-.12 0-.2 0-.32-.04v.16s-.04-.04-.04-.08c-.08-.04.04.08 0 .16s-.08-.08-.08-.12c-.08.16-.28.36-.44.24v-.04c-.12-.04-.08.32-.2.2v-.04c-.24-.04-.48.12-.68-.16-.04.24-.2-.12-.24.2-.12-.16-.08-.24-.24-.36-.04 0-.12.16-.16.2l.04-.16-.12.16v-.2l-.08.04s.04.08 0 .12c-.12.04-.16-.16-.16-.24l-.24.04c.04-.04.08-.08.12-.08-.16.12.04-.16-.12-.04 0 .04-.04.08-.04.12 0-.08-.12-.16-.2-.16l.08-.08c-.12-.08-.32-.08-.44-.2.04.08-.08.24-.16.24l.08-.16c-.08.08 0 .08-.12.16-.04-.04.08-.2.16-.2h-.08c.04-.04.04-.04.08-.12-.08.08 0-.24-.16-.08l.04-.04c-.12-.08-.2-.12-.32-.2-.12.12-.12.04-.24.12-.04-.12-.04-.28-.12-.36-.12 0-.12.08-.2.08.08-.08 0-.2.12-.2-.08-.08-.2-.16-.32-.24-.04.04-.04.08-.08.08s0-.12.08-.12c-.32-.08.12-.6-.2-.64l-.2-.12c0-.08.12 0 .16-.08-.28-.12-.04-.28-.24-.4.36-.2-.12-.4.16-.6h-.08c-.08-.04.04-.04.08-.08-.08 0-.08.04-.12.04-.16-.36.16-.72.32-1.04.04-.12-.44-.2-.2-.32l.16.08c-.04-.12-.04-.28.04-.4s.12-.24.12-.4c.04.04.08.04.04.08.16 0 .12-.16 0-.24.04-.04.08.04.16.04s-.08-.2.04-.16l.04.04c-.04-.08.12-.12-.04-.16.12-.04.04-.2.2-.2-.08-.16.16-.08 0-.24.16.16.24 0 .24-.12.04.08.08 0 .16.12.04-.04.08-.12-.04-.2.28.12.08-.36.36-.12.08-.2.2-.4.36-.56.12.2-.2.12-.04.36.08-.2.12-.4.32-.44.04 0 0 .12 0 .16.12-.16.32-.12.44-.28v.08c.04 0 .08 0 .04-.08l-.04.04c-.08-.12.04-.36.04-.44.04.32.2.04.2.44.04-.04.04-.12 0-.16.04 0 .04.04.04.16.08-.08.04-.2.16-.2v.12c.04-.12.08-.24.16-.2v.08c.16-.04.24-.32.44-.2-.04.24.08.08.08.28l.08-.08-.04-.08c.08 0 .16-.12.24-.08l-.08.08.16-.04-.08-.08c.08-.08 0-.24.12-.2-.04 0 .08 0 .12.12.04-.04.08-.12.16-.04.08.08-.04.2-.04.28.08-.16.2 0 .28-.16-.04.04-.04.12-.04.16l.04-.12c.04.04.04.08 0 .16.12.04.04-.24.12-.12 0 0 0 .04-.04.04.12.08.28 0 .4.08-.04.2-.12 0-.12.2.16 0 .44-.08.56.04v-.04c.16-.24.04.2.2.12-.04 0-.08.12-.08.08.08.12.24.08.44.08l-.04.04c0 .08.12.16.16.2.04-.04.08 0 .12-.12-.04.24.08.28.2.28.12 0 .24.04.2.24h-.08l.16.08c.08-.08.04-.08.08-.16.04-.04.12-.04.2 0-.12 0-.16.12-.2.2.04-.04.08-.04.08-.08-.12.2.2-.12.16.08l-.04.04c.04 0 .16 0 .16.08-.12.08-.08 0-.2.08.04.04.32-.04.24.12-.04 0-.08-.04-.12-.04-.08.16-.04.12-.04.2v.16l.04-.04c.36-.12.16.12.44.12-.24 0-.12.04-.28.12-.04.04-.04.12-.08.12.16 0-.04.12.16.12-.04.04.04.04-.12.08.08.04.08-.04.16-.08.2.04-.12.32.2.4.12.12.32.08.44.2-.08.08-.2 0-.2 0-.04.08-.04.12.04.2-.04 0-.08 0-.16.04.04.04.2 0 .12.08h-.2c.04.04.16.12.2.16-.08.04-.16-.04-.2-.04.04.12.16.16.24.2l.04-.04c0 .04-.12.04-.16 0-.12-.04.04-.08.08-.12l.04.04c.32-.08-.08-.2-.08-.28h.24l-.2-.08c.04-.04.16-.08.2-.04.08-.08-.08-.04 0-.12h.04l-.08-.04c.04 0 .16-.04.12 0 .08-.16-.2-.16-.08-.28-.12-.16-.16.04-.4-.04l.36-.24-.16.04s0-.08.08-.08c-.12-.04-.08.04-.16.04.12-.16-.16-.2.08-.32-.12.04-.04.12-.16.08.24-.16-.08-.08 0-.2.16-.04.12.08.2-.08-.24.08-.04-.16-.12-.24-.16.08-.16-.08-.28-.16.08-.04-.04-.24-.04-.4h.04c-.16.12-.2 0-.28-.04.08-.08.16-.08.2-.08l-.04-.08c-.04.04-.12.04-.16 0l.12-.08c-.08-.08-.28-.04-.32-.2-.08.08-.2.36-.36.32.04-.04.12-.16.2-.16 0 0-.08 0-.08-.04l.12-.04c0-.08-.08.04-.12 0 .08-.08.04-.08.08-.12 0 0 0 .08.04.04-.04-.08-.04-.16 0-.24-.04.04-.08.12-.12.08-.04-.04.04-.12.04-.2-.08.04-.08-.08-.16.04-.04 0 0-.08.04-.12-.08 0-.24-.16-.28.04-.24 0-.28-.28-.44-.32l.04-.04c-.12 0-.24-.08-.36 0-.04 0-.04-.12 0-.16-.08 0-.12.04-.2-.08.12-.04 0-.08.12-.04-.08-.08-.08-.16-.24-.08.08-.12 0-.2-.08-.16l.04.12c-.04 0-.12-.04-.16-.08l.08-.16c-.16-.28-.48.24-.6-.12-.08.12.12.12.04.24-.08-.04-.16-.32-.2-.32-.12-.12-.16.24-.32.16 0 .08 0 .24-.08.28-.08-.04-.12-.28-.04-.32.08-.04.04 0 .04.04s.08-.04.04-.12v.08c-.04-.08-.2-.08-.16-.16-.08.04-.04.08 0 .12-.12-.08-.2 0-.36-.08.04.04.04.12.04.12-.2-.08-.08.12-.2.16-.08-.08 0-.24-.12-.16-.08-.08-.04-.16 0-.24-.12.12-.24-.04-.32-.08l.04-.08c-.04.04-.08.04-.12.04l.04.12c-.04 0-.08 0-.08-.08-.04.08.08.2 0 .32-.08-.04-.16.08-.2-.08.16.04-.04-.16.08-.2-.04.04-.08.04-.12 0v-.04c-.2-.12-.04.2-.2.24 0-.08-.08-.16-.12-.12.08 0 .08.16.04.24-.12-.04-.08.08-.16.08h.08c0 .08-.04.08-.08.16-.04-.08.04-.08 0-.08 0 .2-.24-.12-.28.04-.08-.04-.08-.16-.12-.2-.08.16-.2-.08-.28.08.08.08.08.08.04.24l.16-.16-.04.24c.04-.04.08-.12.12-.12-.04.12-.04.08.04.16-.16-.12-.12.16-.24.08l-.16-.28c-.2-.04-.16.28-.4.32h.08c.04.12-.08.08-.12.16-.04-.08-.12-.12-.16-.16.04.08-.12.08 0 .28l-.16-.04c-.16.04.04.36-.08.44-.04-.12-.16-.12-.12-.28-.04.04-.08.04-.04.12-.08-.04 0 .2-.12.16 0 .04.08.12.04.16l-.04-.04c.04.04 0 .12.12.16-.36-.12-.28.32-.56.24-.04.12-.08.24-.16.32l-.04-.04c-.16.08.2.24.04.32-.2 0-.04-.12-.12-.12-.32-.16-.08.2-.28.2v-.04c-.16.04.04.24-.04.36h-.04c.08.12.12.32.12.48-.12-.08-.04-.08-.2-.08 0 .08.2.08.2.16-.12.04-.2.04-.32.04 0-.04 0-.08.04-.12-.2 0-.04.12-.08.2l-.08-.04c0 .16.2.24.12.4h.08c.2.12-.12.04 0 .16h-.2c.08.12.16.24.2.36-.16-.08-.2-.24-.28-.32 0 .08 0 .24.08.28 0-.04-.08-.08-.04-.08.16.08.24.2.2.32-.4-.04-.12.32-.44.44.16.24-.04.48.04.76.32-.16.04.08.36 0 .04.04.04.08 0 .08l-.16.24c-.08.08-.08-.04-.16 0 0 .16-.12.08-.2.2.12-.04.16 0 .16.08l.12-.16c.2.12-.2.24 0 .4l-.12-.04c.08.08.12.36.44.36-.04.04-.08.08-.12.08.08.24.48.36.44.6l-.08.04c.04.04.16 0 .12.08-.04 0-.08.04-.08.04s.2 0 .2.08h-.12c.04.28.4.16.56.24-.12.12-.16.32-.04.44l-.04.04c.2.24.48.2.76.24-.04.32.4.4.56.64 0-.04.08-.16.16-.16.04.08.2-.08.12.12-.04.2.08.24.2.24l.12-.24c.04.24.2.28.36.28.16 0 .28-.04.32.16.08-.04.16-.04.24-.08l-.04.16c.16.08.32.08.48.08l-.04.12c.12 0 .2-.44.28-.44l.04.24c.2 0 .44.2.6-.04 0 .04 0 .08-.04.12.08 0 .4.12.32-.2.04.2.2 0 .32-.12v.16c.04-.2.04-.28.16-.36.04 0 .04.12 0 .08.12.04.04-.16.16-.12v.12c.12 0 .08-.04.08-.2s.2-.04.24.08c0-.08 0-.2.08-.2v.08c.2.04.16-.28.32-.16 0 .04.04.04.04.08l-.24.08c.04.12.16.08.16.32.04-.12.08-.4.2-.4l.04.04c.04 0 .04-.04.04-.04h.08c.08.08.16 0 .2-.04-.08-.12 0-.16-.12-.2l-.04.04v.04l-.12.08c0-.08 0-.16.08-.12-.04-.08-.04-.2-.08-.24.16.16.36.16.44.24.08-.16.32-.28.2-.56 0-.04.08.04.12.04.04 0-.04.04 0 .08 0-.12.2-.2.08-.36.16 0 .08.16.16.04l.04.04c.24 0 .24-.2.24-.36 0-.16 0-.36.24-.36h-.08c.4-.24.28-.76.68-1.04.08-.08-.04-.12-.08-.24l.16.04-.16-.16c-.08-.2.48-.2.24-.44h-.12c.04-.08-.04-.24.08-.2 0 0-.12-.04-.04-.08h.08c-.04-.08-.08-.12-.12-.2.08-.12.32.04.36-.16-.04-.08-.24-.24-.28-.2-.04.04-.04.08-.16.08l-.04-.08c-.24-.04-.48-.04-.68.08l.16.12-.12.04v-.08c-.12.04 0 .08.04.12-.04 0-.08 0-.12.04l.24.12c-.08 0-.2-.08-.24 0 .08.04.24 0 .28.08-.12.04-.2 0-.12.08-.04 0-.08 0-.12-.04.08.08 0 .12.16.2-.16.04 0 .16-.24.12.04.04.16.12.16.16-.24-.16-.04.16-.36.04.24.12.04.24.12.4l-.04-.04s-.12.04-.16.04c.2.08.2.2.28.28-.2 0-.2-.16-.4-.2.16.08.08.2.24.24-.08 0-.16 0-.24-.04.24.12 0 .08.12.2-.16 0-.24-.12-.2 0 0-.12-.04-.24-.04-.24zm-1.4 1.84c.04 0 .04 0 .08-.04.04.04.04.08.04.12 0 .04-.08-.04-.12-.08zm.88.72c-.04.04-.04 0-.08 0l.04-.04c.04 0 .04.04.04.04z"/>
    <path fill="#F5F6FB" d="M140.16 46.24v.08c.04 0 .04-.04 0-.08zM140.28 46.6l.04-.04-.04.04zM137.2 44.28c0 .04-.04.04-.08.08.04 0 .08.04.08-.08z"/>
    <path fill="#F5F6FB" d="M137.08 44.36c0 .04.04.04.08 0-.04 0-.08-.04-.08 0zM140.76 48.12l-.04-.04s-.04.04.04.04zM140.6 47.44c0 .04-.08.12-.04.16h.04c-.08 0 .12-.12 0-.16zM141.04 46.64v.16c.04-.04.12-.12.16-.04.08-.28-.12.04-.16-.12zM140.92 46.2c.04.04.08-.04.12-.04-.08-.04-.08-.04-.12.04zM138.68 44.12l.08-.12c-.08 0-.04.04-.08.12zM137.92 44.56v.08l.04-.12-.04.04zM137.84 43.56v-.04l-.08.04h.08zM132.88 45.28l.16.08c-.04 0-.16-.16-.16-.08zM132 47.48c-.08 0-.16.08-.08.12.04-.08.12-.12.08-.12zM134.96 53.24l-.08.04h.12l-.04-.04zM157.92 48.48c.04 0 .16 0 .12-.04l-.2-.04.08.08zM158.2 48.2c-.12-.04-.28-.08-.4-.04.16.04.12.04.32.08.04.04-.04.08-.12.08.04 0-.04.08.08.08.12-.04.16-.12 0-.2h.12zM153.68 43.52c.04 0 0-.04 0 0zM156.56 44.68l-.04-.08c-.04 0 0 .04.04.08zM157.48 45.32l.08-.04-.08.04zM158.04 46.04s-.12.04-.2.08h.12l.08-.08zM157.04 44.84l.04-.04s0 .04-.04.04zM148.88 49.52c.12-.12.2.08.32-.08-.04.08-.24-.04-.32.08zM150.96 44.28l.04.04c0-.04 0-.04-.04-.04zM150.52 44.92c-.04 0-.04 0-.04.04 0-.04 0-.04.04-.04zM156.72 50.92c.04.04.08.04.12.08-.08-.08-.04-.16-.12-.08zM151.32 45.8l-.08.04s.04 0 .08-.04zM151.04 46.08c-.04 0-.08-.04-.12-.04v.04h.12z"/>
    <path fill="#F5F6FB" d="M156.92 50.28c-.04.08.16.12.24.2 0 .12-.16-.04-.24-.04 0 .08.12.24.08.28-.04.04-.04 0-.08-.04.08.16-.12.16 0 .36l-.04-.04c.08.04.16.12.2.16-.04.04.04.16-.08.08.04 0 0-.04-.04-.08v.08c-.16-.08 0-.08-.12-.16 0 .12.04.28-.04.32-.16-.12.08-.16-.12-.2l.12-.04c-.28-.12.04-.04-.2-.2-.12.04-.04.16-.16.24.04.08.12.12.16.2-.04.28-.4-.24-.36.04.04.12.2.32.04.28l-.08-.2c-.12.04.12.28-.08.24-.04-.08.04-.12 0-.12-.16-.08 0 .12-.04.16l-.12-.16c-.08.08-.16.28-.28.4 0-.04 0-.12-.08-.16-.08.08-.16.12-.28.16-.12 0-.2 0-.32-.04v.16s-.04-.04-.04-.08c-.08-.04.04.08 0 .16s-.08-.08-.08-.12c-.08.16-.28.36-.44.24v-.04c-.12-.04-.08.32-.2.2v-.04c-.24-.04-.48.12-.64-.16-.04.24-.2-.12-.28.2-.12-.16-.08-.24-.2-.36-.04 0-.12.16-.2.2l.04-.16-.12.16v-.2l-.08.04s.04.08 0 .12c-.12.04-.2-.16-.16-.24l-.24.04c.04-.04.08-.08.12-.08-.16.12.04-.16-.12-.04 0 .04-.04.08-.04.12 0-.08-.12-.16-.2-.16l.08-.08c-.12-.08-.32-.08-.44-.2 0 .08-.08.24-.16.24l.08-.16c-.08.08 0 .08-.12.16-.04-.04.08-.2.12-.2h-.08c.04-.04.04-.04.08-.12-.08.08 0-.24-.16-.08l.04-.04c-.12-.08-.2-.12-.32-.2-.12.12-.12.04-.24.12-.04-.12-.04-.28-.12-.36-.12 0-.12.08-.2.08.08-.08 0-.2.12-.2-.08-.08-.2-.16-.32-.24-.04.04-.04.08-.08.08s0-.12.08-.12c-.32-.08.12-.6-.2-.64l-.2-.12c0-.08.12 0 .16-.08-.28-.12-.04-.28-.24-.4.36-.2-.12-.4.16-.6h-.08c-.08-.04.04-.04.08-.08-.08 0-.08.04-.12.04-.16-.36.16-.72.32-1.04.04-.12-.44-.2-.2-.32l.16.08c-.04-.12-.04-.28.04-.4s.12-.24.12-.4c.04.04.08.04.08.08.12 0 .12-.16 0-.24.04-.04.08.04.16.04s-.08-.2.04-.16l.04.04c-.04-.08.12-.12-.04-.16.12-.04.04-.2.2-.2-.08-.16.16-.08 0-.24.16.16.24 0 .24-.12.04.08.08 0 .16.12.04-.04.08-.12-.04-.2.28.12.08-.36.36-.12.08-.2.2-.4.36-.56.12.2-.2.12-.04.36.08-.2.12-.4.32-.44.04 0 0 .12 0 .16.12-.16.32-.12.44-.28v.08c.04 0 .08 0 .04-.08v.04c-.08-.12.04-.36.04-.44.04.32.2.04.2.44.04-.04.04-.12 0-.16.04 0 .04.04.04.16.08-.08.04-.2.16-.2v.12c.04-.12.08-.24.16-.2v.08c.16-.04.24-.32.44-.2-.04.24.08.08.08.28l.08-.08-.04-.08c.08 0 .16-.12.24-.08l-.08.08.16-.04-.08-.08c.08-.08 0-.24.12-.2-.04 0 .08 0 .12.12.04-.04.12-.12.16-.04.04.08-.04.2-.04.28.08-.16.2 0 .28-.16-.04.04-.04.12-.04.16l.04-.12c.04.04.04.08 0 .16.12.04.04-.24.12-.12 0 0 0 .04-.04.04.12.08.28 0 .4.08-.04.2-.12 0-.12.2.16 0 .44-.08.56.04v-.04c.16-.24.04.2.2.12-.04 0-.08.12-.08.08.08.12.24.08.44.08l-.04.04c0 .08.12.16.16.2.04-.04.08 0 .12-.12-.04.24.08.28.2.28.12 0 .24.04.2.24h-.08l.16.08c.08-.08.04-.08.08-.16.04-.04.12-.04.2 0-.12 0-.16.12-.2.2.04-.04.08-.04.08-.08-.12.2.2-.12.16.08l-.04.04c.04 0 .16 0 .16.08-.12.08-.08 0-.2.08.04.04.32-.04.24.12-.04 0-.08-.04-.12-.04-.08.16-.04.12-.04.2v.16l.04-.04c.36-.12.16.12.44.12-.24 0-.12.04-.28.12-.04.04-.04.12-.08.12.16 0-.04.12.16.12-.04.04.04.04-.12.08.08.04.08-.04.16-.08.2.04-.12.32.2.4.12.12.32.08.44.2-.08.08-.2 0-.2 0-.04.08-.04.12.04.2-.04 0-.08 0-.16.04.04.04.2 0 .12.08h-.2c.04.04.16.12.24.16-.08.04-.16-.04-.2-.04.04.12.16.16.24.2l.04-.04c0 .04-.12.04-.16 0-.12-.04.04-.08.08-.12l.04.04c.28-.08-.08-.2-.08-.28h.24l-.2-.08c.04-.04.16-.08.2-.04.08-.08-.08-.04 0-.12h.04l-.08-.04c.04 0 .16-.04.12 0 .08-.16-.2-.16-.08-.28-.12-.16-.16.04-.4-.04l.36-.24-.16.04s0-.08.04-.08c-.12-.04-.04.04-.16.04.12-.16-.16-.2.08-.32-.12.04-.04.12-.16.08.24-.16-.08-.08 0-.2.16-.04.12.08.2-.08-.24.08-.04-.16-.12-.24-.16.08-.16-.08-.28-.16.08-.04-.04-.24-.04-.4h.04c-.16.12-.2 0-.28-.04.08-.08.12-.08.2-.08l-.04-.08c-.04.04-.12.04-.16 0l.12-.08c-.08-.08-.28-.04-.32-.2-.08.08-.2.36-.36.32.04-.04.12-.16.2-.16 0 0-.08 0-.08-.04l.12-.04c0-.08-.08.04-.12 0 .08-.08.04-.08.08-.12 0 0 0 .08.04.04-.04-.08-.04-.16 0-.24-.04.04-.08.12-.12.08-.04-.04.04-.12.04-.2-.08.04-.08-.08-.16.04-.04 0 0-.08.04-.12-.08 0-.24-.16-.28.04-.24 0-.28-.28-.44-.32l.04-.04c-.12 0-.24-.08-.36 0-.04 0-.04-.12 0-.16-.08 0-.12.04-.2-.08.12-.04 0-.08.12-.04-.08-.08-.08-.16-.24-.08.08-.12 0-.2-.08-.16l.04.12c-.04 0-.12-.04-.16-.08l.08-.16c-.16-.28-.48.24-.6-.12-.08.12.12.12.04.24-.08-.04-.16-.32-.2-.32-.12-.12-.16.24-.32.16 0 .08 0 .24-.08.28-.08-.04-.12-.28-.04-.32.08-.04.04 0 .04.04s.08-.04.04-.12v.08c-.04-.08-.2-.08-.16-.16-.08.04-.04.08 0 .12-.12-.08-.2 0-.36-.08.04.04.04.12.04.12-.2-.08-.08.12-.2.16-.08-.08 0-.24-.12-.16-.08-.08-.04-.16 0-.24-.12.12-.24-.04-.32-.08l.08-.08c-.04.04-.08.04-.12.04l.04.12c-.04 0-.08 0-.08-.08-.04.08.08.2 0 .32-.08-.04-.16.08-.2-.08.16.04-.04-.16.08-.2-.04.04-.08.04-.12 0v-.04c-.2-.12-.04.2-.2.24 0-.08-.08-.16-.12-.12.08 0 .08.16.04.24-.12-.04-.08.08-.16.08h.08c0 .08-.04.08-.08.16-.04-.08.04-.08 0-.08 0 .2-.24-.12-.28.04-.08-.04-.08-.16-.12-.2-.08.16-.2-.08-.28.08.08.08.08.08.04.24l.16-.16-.04.24c.04-.04.08-.12.12-.12-.04.12-.04.08.04.16-.16-.12-.12.16-.24.08l-.16-.28c-.2-.04-.16.28-.4.32h.08c.04.12-.08.08-.12.16-.04-.08-.12-.12-.16-.16.04.08-.12.08 0 .28l-.16-.04c-.16.04.04.36-.08.44-.04-.12-.16-.12-.12-.28-.04.04-.08.04-.04.12-.08-.04 0 .2-.12.16 0 .04.08.12.04.16l-.04-.04c.04.04 0 .12.12.16-.36-.12-.28.32-.56.24-.04.12-.08.24-.16.32l-.04-.04c-.16.08.2.24.04.32-.2 0-.04-.12-.12-.12-.32-.16-.08.2-.28.2v-.04c-.16.04.04.24-.04.36h-.04c.08.12.12.32.12.48-.12-.08-.04-.08-.2-.08 0 .08.2.08.2.16-.12.04-.2.04-.32.04 0-.04 0-.08.04-.12-.2 0-.04.12-.08.2l-.08-.04c0 .16.2.24.12.4h.08c.2.12-.12.04 0 .16h-.2c.08.12.16.24.2.36-.16-.08-.2-.24-.28-.32 0 .08 0 .24.08.28 0-.04-.08-.08-.04-.08.16.08.24.2.2.32-.4-.04-.12.32-.44.44.16.24-.04.48.04.76.32-.16 0 .08.36 0 .04.04.04.08 0 .08l-.16.24c-.08.08-.08-.04-.16 0 0 .16-.12.08-.2.2.12-.04.16 0 .16.08l.12-.16c.2.12-.2.24 0 .4l-.12-.04c.08.08.12.36.44.36-.04.04-.08.08-.16.08.08.24.48.36.44.6l-.08.04c.04.04.16 0 .12.08-.04 0-.08.04-.08.04s.2 0 .2.08h-.24c.04.28.4.16.56.24-.12.12-.16.32-.04.44l-.04.04c.2.24.48.2.76.24-.04.32.4.4.56.64 0-.04.08-.16.16-.16.04.08.2-.08.12.12-.04.2.08.24.2.24l.12-.24c.04.24.2.28.36.28.16 0 .28-.04.32.16.08-.04.16-.04.2-.08l-.04.16c.16.08.32.08.48.08l-.04.12c.12 0 .2-.44.28-.44l.04.24c.2 0 .44.2.6-.04 0 .04 0 .08-.04.12.08 0 .4.12.32-.2.04.2.2 0 .32-.12v.16c.04-.2.04-.28.16-.36.04 0 .04.12 0 .08.12.04.04-.16.16-.12v.12c.08 0 .08-.04.08-.2s.2-.04.24.08c0-.08 0-.2.08-.2v.08c.2.04.16-.28.32-.16 0 .04.04.04.04.08l-.24.08c.04.12.16.08.16.32.04-.12.08-.4.2-.4l.04.04c.04 0 .04-.04.04-.04h.08c.08.08.16 0 .2-.04-.08-.12 0-.16-.12-.2l-.04.04c-.04.04 0 0 0 .04l-.12.08c0-.08 0-.16.08-.12l-.08-.24c.16.16.36.16.44.24.08-.16.32-.28.2-.56 0-.04.08.04.12.04.04 0-.04.04 0 .08.04-.12.2-.2.08-.36.16 0 .08.16.16.04l.04.04c.24 0 .24-.2.24-.36 0-.16 0-.36.24-.36h-.08c.4-.24.28-.76.68-1.04.08-.08-.04-.12-.08-.24l.16.04-.16-.16c-.08-.2.48-.2.24-.44h-.12c.04-.08-.04-.24.08-.2 0 0-.12-.04-.04-.08h.08c-.04-.08-.08-.12-.12-.2.08-.12.32.04.36-.16-.04-.08-.24-.24-.28-.2-.04.04-.08.08-.16.08l-.04-.08c-.24-.04-.48-.04-.68.08l.16.12-.12.04v-.08c-.12.04 0 .08.04.12-.04 0-.08 0-.12.04l.24.12c-.08 0-.2-.08-.24 0 .12.04.24 0 .28.08-.12.04-.2 0-.12.08-.04 0-.08 0-.12-.04.08.08 0 .12.16.2-.16.04 0 .16-.24.12.04.04.16.12.16.16-.24-.16-.04.16-.36.04.24.12.04.24.12.4l-.04-.04s-.12.04-.16.04c.2.08.2.2.28.28-.2 0-.2-.16-.4-.2.16.08.08.2.24.24-.08 0-.16 0-.24-.04.24.12 0 .08.12.2-.16 0-.24-.12-.2 0 .08-.12.04-.24.04-.24zm-1.4 1.84c.04 0 .04 0 .08-.04.04.04.04.08.04.12 0 .04-.08-.04-.12-.08zm.88.72c0 .04-.04 0-.08 0l.04-.04c.04 0 .04.04.04.04zM153 52.12l-.04.04.04-.04zM157.4 46.6l.04-.04-.04.04z"/>
    <path fill="#F5F6FB" d="M152.72 44.8c-.04.04-.04 0 0 0zM154.32 44.28c0 .04-.04.04-.04.08 0 0 .04.04.04-.08zM154.16 44.36c0 .04.04.04.08 0 0 0-.04-.04-.08 0zM157.84 48.12l-.04-.04s0 .04.04.04zM157.72 47.44c0 .04-.08.12-.04.16h.04c-.12 0 .08-.12 0-.16zM158.16 46.64v.16c.04-.04.12-.12.16-.04.08-.28-.12.04-.16-.12zM158.04 46.2c.04.04.08-.04.12-.04-.08-.04-.12-.04-.12.04zM155.76 44.12l.04-.12c-.04 0 0 .04-.04.12zM155 44.56v.08l.04-.12-.04.04zM154.92 43.56l.04-.04-.12.04h.08zM149.96 45.28l.16.08s-.16-.16-.16-.08zM149.12 47.48c-.08 0-.16.08-.08.12 0-.08.08-.12.08-.12zM152.08 53.24l-.08.04h.08v-.04z"/>
</svg>
