<svg xmlns="http://www.w3.org/2000/svg" width="200" height="200" fill="none" viewBox="0 0 200 200">
    <g opacity=".25">
        <path fill="#B2C5FB" d="M20.56 146.72c5.52 11.6 14.4 22.24 26.52 27.48 8.76 3.76 14.32 8.4 25.88 12.36 13.36 4.52 18.8.8 32.96.84 8.92 0 29.92-7.4 38.16-10.72 11-4.44 18.8-14 25.96-23.2 7.44-9.6 15-19.52 18.16-31.08 2.36-8.6 2.08-17.64 1.48-26.52-1.04-15.2-3.12-30.52-9.12-44.56-6-14.04-16.36-26.92-30.52-33.6-11.84-5.56-25.36-6.52-38.52-7.44-18.24-1.24-37.12-2.4-54.4 3.52-20.68 7.08-37.2 24.56-42.6 45-7.48 28.48-6.68 61.12 6.04 87.92z" opacity=".35"/>
    </g>
    <path fill="#99AEF2" d="M32.92 180.96c.12.12.2.04 0-.28-.12-.12-.12-.12-.2-.08.04.16.12.28.2.36zm-4.52-4.44l.08-.08c-.12-.12-.12-.12-.16-.08-.04.04-.12.08.08.16zm-.08 1.52c.08.12.16.2.28.28.04-.04-.08-.2-.08-.2s-.12-.16-.16-.12l-.04.04zm-1.68.44c.04.2.08.36.04.2 0 0-.04-.2-.08-.36l.04.16zm-6-.6c-.12.12-.08.2.04.32.04.04.24 0 .24 0 .12-.12.08-.2.04-.24 0-.28-.2-.2-.32-.08zm-2.76-5.08l.04.2.08.04c.08-.16.08-.16 0-.2l-.12-.04zm-2.6 3.44h.04c.04 0 .08-.16.12-.36h-.08c0 .16-.04.24-.08.36zm56.2 3c0-.2.04-.36.08-.36.12-.36.12 0-.04.36s-.08.36-.04 0zm-8.64-6.44c.08.04.08.04.04.2s-.2.32-.32.32 0-.4.28-.52zm-3.48.8l-.04-.2c.08-.2.16-.4.16-.2 0 .12 0 .24-.04.36 0 .04-.08.24-.08.04zm-3.6 1.12l.08-.04c.08-.04.2.08.2.08s.12.16.04.2c-.12-.04-.24-.12-.32-.24zm-.44.88l.08-.04c.08-.04.08-.04.2.08l-.08.04-.2-.08zm-.6.6l.04-.04c.04-.04.04-.04.2.08l-.04.04-.2-.08zm-.4.4c-.08-.2-.04-.24.12-.12s.16.12.08.2c-.12.12-.12.12-.2-.08zm-1.28-.28l-.08-.2.04-.04c.16.12.28.24.24.32l-.2-.08zm-.48.8c-.12-.12-.08-.16-.08-.16s.04-.04.2.08c0 0 .12.12.08.2l-.2-.12zM48 180.04l.12-.36h.08c-.04.2-.04.36-.12.36H48zm-2.4-1.36c.12.08.12.08 0 .24-.12.16-.24.04-.28 0 .04-.2.2-.28.28-.24zm-4.2-3.96l.16-.08.08.04c-.12.16-.24.32-.28.24l.04-.2zm-.64-1.48c.08-.12.16-.2.24-.28l.12.04c-.08.16-.16.32-.28.28l-.08-.04zm-1.8.4c.08.04.08.04.04.2-.04.12-.08.24-.16.36-.12-.04.04-.4.12-.56zm-2.28.2l.08-.2h.08c0 .2.04.36-.08.4l-.08-.2zm-5.16 2.36l-.08-.2.08-.04c.12.12.28.24.2.32l-.2-.08zm-.52.28c-.12-.12-.08-.2.24 0 .12.12.12.12.08.2-.12-.04-.24-.12-.32-.2zm-.52 1.36c-.2-.08-.2-.08-.08-.2.12-.12.2.08.2.08.12.16-.08.08-.12.12zm-1.08 1c-.12-.16-.08-.2-.08-.2s.12-.08.24.04c0 0 .12.16.08.2-.04.04-.24-.04-.24-.04zm-1.36 0l.04-.04c.04-.04.04-.04.12.12l-.04.04-.12-.12zm-.36.56c-.08-.16-.12-.36-.08-.36 0-.2.12-.04.2.32l-.12.04zm-.28 1.04c-.08 0 .04-.2.12-.2l.04.2c-.08-.04-.12.16-.16 0zm-1.52-.24c0-.12.04-.24.08-.36H26c0 .2 0 .36-.08.36h-.04zm-.4-1.16c.12-.16.12-.16.04.2-.08.2-.16.36-.16.36-.08 0 0-.2.12-.56zm-1.92.84l.28-.28c.32-.48.32-.48.2-.12-.04.2-.16.36-.32.48l-.16-.08zm.24-.92c.08-.16.12-.12.2-.12l-.08.16-.12.16v-.2zm-3.36-1.56c.12-.12.28-.12.44-.08.04.04-.08.2-.32.2l-.12-.12zm-3.36-3.48c.04-.4.04-.4.24-.32.08.04.2.08.12.24l-.08-.04c.08-.16-.08-.04-.08.16l-.16.36c-.12-.04-.12-.24-.04-.4zm-1.04-.56c.04-.2.12-.16.24-.12.12.04.08.04.04.2 0 0-.12.16-.24.12l-.04-.2zm-1.52.2l.08.2c0 .56.16.56.16 0s.04-.56.12-.2c-.04.36.08.4.16.4s.08 0 .08.2.04.4.12.4c.08 0 .08 0 .12-.2-.08-.2.12-.2.12.2.04.2.04.2.12-.16.08-.36.24-.32.24.04l.16.04c.08 0 .12-.16.16-.36.08-.36.08-.36.12-.16.04.12.04.24 0 .4-.04.2.04.2.12.2.08 0 .24.08.28-.08l-.08.16c.08.04 0 .2.08.04 0 0 .08.04.16.28.08.24.44 0 .4-.44l.08.04c.08.04.16-.12.16-.12.08-.16.16-.12.24-.08l-.2.32c-.32.44-.28.68.04.24l-.08.16c-.08.16-.04.2.2.12.08.04.36-.24.44-.4.08-.16.16-.08.16-.08.08.04.08.04-.04.2-.2.32-.08.4.2.16l-.12.16c-.12.16-.16.36.28.44.24.24.4.4.28.52s.36.08.72-.04c-.12.12-.08.2.04.32s.16.2.04.32c-.32.2-.32.2.04.04.32-.2.36.12.08.36-.12.12-.08.2 0 .32.2-.08.28.04.4.16.16.2.16.2.44-.08s.32-.2.44-.08c.12.12.12.12-.04.24 0 0-.08.2-.04.24.04.04.12.12-.04.24-.04.08-.04.2.04.32.12.12.24.24.08.36.08.04.08.04.2-.08.12-.12.32-.2.4.16.12.12.32.24.4.12.08.04.08.04-.04.2-.24.28-.08.4.24.2.12-.16.16-.12.12.08 0 0 .08.04.24-.08.16-.12.16-.12.2.12-.08.16-.04.2.04.24.2-.04 1 .24 1 .48.12-.16.12-.16.2-.16-.04.4.12.2.2-.16h-.16c.12-.36.32-.32.16.24 0 .4 0 .4.16.04.16-.36.2-.32.24.04-.08.36-.08.36.08 0 .28-.72.48-.88.4-.16-.04.36.04.56.12.56.08 0 .08-.2.12-.36-.04-.4 0-.36.16 0 .2.6.4.6.64.2.28-.4.52-.4.32 0-.12.4-.12.4 0 .2.12 0 .28 0 .4-.04.08 0 .12-.2.08-.4.12.36.36.48.44.12l.16-.04c.08 0 .08 0 .08-.2s.16-.04.28.08c.12.12.28.28.24.12-.04-.2-.04-.4 0-.6 0-.2.16-.04.16.16.08.16.08.2.32.28.08-.04.2-.12.12-.28-.08-.16.32-.4.48-.28l.12-.08c.08-.04 0-.24.08-.28 0 0 .08-.04 0-.24.08-.04.12-.08.24.04-.16-.32-.2-.32.12-.12.24.28.24.28.08-.04-.08-.2-.08-.2.12-.12.12.16.2.08.08-.04-.2-.32-.16-.6.12-.36 0 0 .04-.04 0-.24-.2-.32-.2-.32.04-.04.24.28.36.16.16-.16 0 0-.08-.2.12-.12.2.08.72-.2.4-.4l.12-.12c.24 0 .32-.04.24-.24l-.08-.2c.12.12.32.2.4.12.08-.08.04-.04-.08-.2s-.12-.12-.08-.2c.04-.08.24 0 .4.12l.04-.04c-.28-.24-.24-.32-.08-.2.16.12.24 0 .32-.04-.12-.12.04-.04 0 0l.12.12c.2.08.04-.04-.08-.2l.12-.12c.08-.04.12-.12-.08-.2-.2-.08-.28-.24-.2-.32-.12-.12.08-.04 0 0 .12.12.28.28.32.2.04-.08.2.08.2.08.2.32.32-.04.24-.24-.12-.4-.08-.44.2-.16s.12-.12-.16-.6l-.28-.48.36.44c.56.52.52.52.52.08.04-.24.04-.24.12-.08.08.16.16.08.4-.04.24-.12.28-.16.2-.32l.16-.08c.24.28.32.04.08-.24.04-.04.12-.04.16-.08l.08.16c.08.16.24.12.88-.12.72-.16.8-.16.76-.56.04-.4.12-.4.16-.04.04.2.12.36.12.2.12 0 .24.08.28.16.28.36.32.16.32 0-.12-.36 0-.2.08 0s.16.36.16.16c.08-.2.6-.32.56.04h.16c.04-.2.2-.16.36-.16.16 0 .24.04.2.24-.12.16-.04.2.16.04.08 0 .24-.32.32-.32.04-.2.16-.36.28-.32l-.04.2c-.04.2-.08.36-.08.36.08 0 .16.04.2-.16.04.2.08.24.24.32.16.08.32.12.48 0-.04.2.08.4.24.44.12.04.24 0 .36-.08.08-.16.16-.12.16.08s-.04.2.16.08c.2-.12.12.12.08.32-.16.36-.08.4.08.32.16-.04.32 0 .44.12.24-.04.32.04.36-.16.08-.08.2-.16.32-.2.24 0 .12.12.08.04-.24 0-.2.08-.24.28-.04.12 0 .28.12.36.08.04.16.16.24.24.04.32.08.36.24.24l.12-.12c-.2.32.36 1 .72.8l-.12.12c-.12.12-.08.2 0 .32.04.04.4.2.56.36.16.16.4.4.52.28.04.04.04.04-.08.2s-.12.12-.08.2c.04.08.2-.08.32-.2.12-.12.2-.08.16.16 0 .24.16.4.4.4h.04c.08.04.12.08 0 .24-.12.16-.04.44.32.24.08.04.08.04-.04.2-.04.2-.12.36.12.08.16-.08.4 0 .44.2 0 .04.04.08.04.08.08.04.12.08.24-.08s.16-.32.08-.16c-.08.36-.08.36.12.04.08-.16.16-.16.08.04 0 .2.08.24.08.24.08.04.48 0 .84.08.2.08.4.12.64.08.12 0 .2-.04.2-.16.08-.2.08-.2.16 0s.12.2.2.2c.08 0 .16 0 .16.2.08-.2.08-.2.16-.2 0 .2.08.2.16 0 .08-.4.04-.4.08 0 0 .2.28.36.16.16 0-.2.16-.2.2-.4.08 0 .16 0 .16.2.12.2.44-.08.48-.28-.04-.2.04-.2.08 0s.12.16.2.16c.04-.2.08 0 .12.16-.04.2.04.2.2.12 0-.2.32-.32.52-.4.36-.16.32-.4.28-.76l-.12-.36.2.32c.12.16.24.32.36.44.08-.04-.04-.2-.12-.36-.08-.16-.04-.2.2-.12.24.08.28 0 .24-.2.08-.04.12-.08.32 0 .04-.04.04-.04-.04-.2s-.08-.2.12-.12c.32.24.48.08.36-.08s-.08-.2 0-.24c.08-.04.12-.08.04-.28l.12-.12c.04-.04.12.12.08.2l.2.08c.12-.12.16-.16.08-.36-.2-.32-.2-.32.04-.04.12.12.32.2.24 0-.24-.32-.04-.24.12-.12.24.32.24.32.16-.16.12-.12.2-.48.36-.64.24-.24.32-.36.52-.28.28.24.32.2.12.12-.28-.24-.2-.32-.04-.48.32-.04.28-.28.24-.48.08-.04-.08-.2 0 0-.08.04-.12.12-.12.12-.28-.28-.2-.32.04-.32.08-.04.2.08.32.2.12.12.32.2.36.16.04-.04.12-.12-.08-.2-.12-.16-.12-.16-.08-.2.04-.04.12-.12.08-.32-.12-.16-.04-.2 0-.24.12.04.24.04.32 0l.12.16c.08.08.16.2.28.24.08-.04-.04-.2-.04-.2s.04-.16.2-.28c.16-.12.36-.24.6-.4.36-.2.76-.36 1.16-.44.2.16.44.08.32-.08-.04-.2.4-.28.92-.28.6-.04 1.04.04 1.04-.16l.28.04c.16 0 .36-.16.48-.12.12-.16.2-.16.08 0-.04.2-.08.36 0 .4.16.04.2-.16.24-.32.04-.16.12-.16.12-.16.08.04.08.04.04.2l-.08.36h.08c.04-.2.12-.16.12-.16.08 0 .08 0 0 .4s-.04.36.16.04l.2-.12c-.04.4.24.08.4-.04-.08.4 0 .4.24.12.08-.16.16-.12.16.08s.04.24.2.36c.08-.04.28 0 .48.12.24.16.52.36.72.56.56.52.88.88 1.04.76.04.08.04.08 0 .24-.04.16-.08.2.24 0 .2-.08.32-.2.04.04-.12.12-.04.24.2.48.16.2.36.44.52.32.24 0 .24 0 .04.04-.32.2-.2.64.24.56.04.04.12.12-.04.24.04.04.12.12.4.16.04.08.28.28.4.36.12.08.24.08.36.08.04.04.12.08.04.04-.12.12.16.4.6.68.44.28.84.44.84.64 0 0 .08.04.2-.12.2-.32.24-.28.28-.12-.04.36.28.44.4.12l-.04.2c0 .4.28.28.4-.08.04.2.08.4.2.2.08 0 .08 0 .04.36 0 .2-.04.36.04.4.08.04.08-.2.12-.36h.16s.08 0 .08-.2.08-.2.16-.16c0 .2.08 0 0-.2 0-.2 0-.36.08-.36v-.36c.04-.24 0-.52-.12-.76-.24-.2-.36-.4-.4-.04 0 0-.08.2-.12.16-.04-.04-.08-.2-.08-.2.04-.2-.16-.24-.4-.32-.24-.08-.4-.16-.36-.36.04-.2 0-.2 0-.2-.08.16-.32.04-.6-.16-.28-.2-.6-.52-.72-.4l-.08-.08c.12-.12.04-.2-.04-.32-.12.04-.24 0-.32-.08.12-.12.08-.2 0-.28-.08-.08-.16-.16-.28-.04-.2-.24-.36-.48-.44-.8.08-.2-.12-.12-.32-.08-.16.12-.32.2-.4.12l.28-.24c.2-.08.2-.08.08-.2l-.12-.12c-.16.12-.44-.2-.92-.68-.64-.6-.96-.8-1.04-.68-.08.12-.2.08-.32-.24-.24-.84-.28-.84-.48-.72.08.04 0 .2-.08.4-.2.32-.28.28-.2-.12.24-.36-1.52-.92-1.72-.52l.04-.2c.04-.2-.04-.2-.52-.32L62 172c-.08.36-.68.12-.64-.08-.08-.2-.08-.2-.32-.2-.16.16-.36.2-.56.16-.16 0-.32-.08-.32-.2h-.24c-.08.16-.28.24-.44.2-.32.04-.44.04-.32.2.04.2.04.36-.04.4l-.04-.2c-.04-.2-.36-.12-.8-.04-.56.12-.76.24-.92.08l-.04.2c-.04.2-.16.24-.2.08-.2-.12-.64.04-.72.32l-.2.12c-.28-.28-.6-.08-.48.28-.12-.16-.2-.08-.28-.04-.08.28-.4.52-.52.4l-.08.08c.04.12 0 .28-.12.36-.12.08-.16.2-.08.36.04.2-.04.28-.04.28-.08.08-.12-.12-.16-.32.04-.28-.2-.08-.16.4.04.48.08.44-.08.08-.08-.2-.12-.4-.12-.12-.08.08-.08.2 0 .28l-.2.2c-.28 0-.32.08-.4.12.08.2.08.2-.12.12-.12-.12-.2-.08.08.2.08.2.04.24-.16.2-.28-.24-.32-.2-.2-.08.08.2.04.24.04.24-.08-.04-.24.04-.44.2l-.32.32-.32.32c-.04.04.04.24.16.36.28.28.12.12-.04.04-.44-.36-.52-.28-.08.08.32.24.32.24-.04.04-.16-.08-.16-.08-.08.08s.08.2-.04.04-.36-.2-.24-.04c0 0-.04.04-.2-.04s-.08.04 0 .24c.08.4.04.44-.12.08s-.28 0-.12.32c.16.32.16.36.04.2-.12-.16-.16-.12-.16-.12s-.08.04-.2-.12c0 0-.04.04-.04.24.08.4-.16.28-.36-.04v.2c.08.36.08.56-.04.2l-.08-.16c.04.2 0 .24-.08.24-.12-.08-.2-.2-.2-.36-.04-.2-.04-.2-.08-.16l.04.2c.04.2.08.36.04.36s-.12 0-.16-.16c-.04-.16-.16-.36-.12-.16 0 0-.04 0-.12-.16h-.2c-.04.2-.12.2-.16 0 0 0-.08 0-.12.2-.12 0-.16 0-.16-.16s0-.2-.04 0-.04.2-.12.16h-.12c0 .2 0 .2-.08.2s-.2-.2-.24-.2c-.16 0-.16 0-.12.2.04 0 .04.2-.04 0-.04 0-.16-.24-.28-.28-.12-.04-.2-.04-.24.12-.08.36-.12.36-.04 0 .08-.36 0-.4-.08-.24-.08.16-.12.16-.16.12.08-.16.04-.2-.12-.04-.04 0-.04 0 .04-.2-.04 0-.04-.04-.08-.04-.24.28-.44-.04-.36-.24 0 0-.04-.04-.2.08-.28.28-.32.24-.08-.08s.24-.32-.04-.04c-.16.12-.4-.08-.08-.32.12-.16.24-.28.24-.28-.16.08-.2.04-.2.04-.12.16-.16.08-.32-.04s-.4-.12-.48-.24c-.08-.12-.24-.24-.16-.44-.04-.04-.08-.12-.32-.12-.2.08-.28-.04-.16-.16l-.04-.04c-.24 0-.28-.04-.28-.04.12-.12.24-.32.04-.24-.12.12-.2.08-.32-.08 0-.12-.44-.72-1.04-1.32-.16-.16-.32-.28-.44-.4s-.32-.24-.48-.32c-.28-.2-.48-.28-.52-.24l-.28-.16-.28-.16c.08-.16 0-.28-.16-.36-.2-.04-.4-.08-.64-.04-.12.08-.24.12-.36.04.12-.36-.2-.48-.48-.36-.2.32-.32.32-.2-.04s-.16-.4-.48.08c-.12.16-.12.16-.2-.04-.04-.4-.16-.4-.2-.2-.16.36-.24.36-.32-.04-.16-.4-.2-.4-.32-.04-.12.36-.52.32-.64-.04-.12 0-.2-.2-.2 0l-.12-.2H37v.2c-.52-.12-1.04-.12-1.56 0-.4.08-.8.2-1.16.36-.16.08-.2.16-.08.2.24.32.04.4-.2.08-.12.04-.4-.04-.6.08-.2.12-.4.24-.48.08l-.12.04c-.08.44-.44.8-.88.84-.16.08-.28.28-.28.48-.04.28 0 .28-.24.2-.08-.08-.24-.04-.36.04-.12.04-.16.16-.12.28 0 .04.04.04.04.08l-.2-.08c-.2-.08-.12.12 0 .24.28.24.2.32-.28 0-.28-.24-.32-.2-.2-.04.08.2.16.4-.04.32-.04.04-.12.12.16.36.12.12.08.2.04.24-.12-.08-.2-.2-.24-.32l-.12.12c-.16.08-.32.04-.44-.08-.2-.08-.24 0 .08.2s.28.24.16.36c-.12.12-.12.12-.24 0s-.12-.12-.24 0c-.16.16.12.68.32 1 .2.32.28.24-.04.04-.12-.12-.2-.08-.24-.04.12.12-.04.04 0 0-.12-.12-.08-.2-.04-.24l-.12-.12c-.32-.2-.36-.16-.16.16.08.2.08.2-.08.08-.16-.12-.36-.2-.24-.04 0 0-.08.08-.28 0-.08.08-.12.12 0 .24s.08.2.04.24c-.04.04-.08.08.04.2.12.12.2.32.08.4 0 .24 0 .24-.24-.04-.12-.16-.16-.12-.2-.08-.04.04-.04.04-.2-.12s-.04.04.04.2l.2.32c-.04.04-.28-.28-.4-.44-.24-.32-.24-.32-.04.04.08.16.12.36-.04.24-.08.04-.2.08-.28-.08-.08-.16-.08.04-.08.04.04.2-.04.2-.24.08-.36-.32-.32-.32-.24.04.04.2.08.36-.04 0-.08-.16-.08 0-.16.24 0 .24 0 .52.08.76.04.36.08.4-.08.2-.08 0-.16-.2-.16-.36 0-.16.04-.2.04-.2h.08c-.04-.2-.04-.36-.16-.36-.08-.2-.12-.2-.12 0-.04-.12-.16-.2-.28-.16-.12.04-.28-.04-.32-.16v-.04c-.12 0-.16 0-.16.16-.04.36-.08.36-.08.2 0-.16-.2-.32-.32-.4-.12-.08-.24-.08-.36 0-.04.04-.04.04-.04.08-.04 0-.08 0-.08-.04-.04-.24-.28-.32-.4-.16-.04 0-.08-.04-.12-.08 0-.2-.04-.24-.16-.12s-.24.28-.12.12c.12-.16 0-.2-.16-.32s-.16-.12-.24.04c-.28 0-.2-.16-.08-.28.28-.24.2-.32-.2.04-.28.24-.4.16-.28 0s.16-.08.2-.04l.24-.28c-.04-.04-.04-.04-.2.04 0 0-.04-.04-.2.04s-.32.24-.4.4c-.08.2-.12.12-.2.08.04-.2.16-.36.32-.44.04.04.16-.08.32-.24.08-.08 0-.08-.16-.04-.2 0-.36.08-.52.16l.12-.12c.12-.12.04-.24-.04-.32-.08-.08-.16-.16-.28-.04-.12.12-.28.24-.32.2.04.04-.08.2-.24.32.04-.16.08-.28.12-.44.16-.36.2-.6 0-.84-.12-.12-.28-.32-.2-.52-.12-.12-.16-.2-.32-.08l-.12-.12c.08-.2-.04-.32-.2-.2-.2.08-.12-.12-.2-.2.12-.4.12-.4-.2.08-.12.12-.16.32-.08.44l.2.2-.32-.08c-.16-.08-.32-.04-.44.08 0 0-.12.12-.2.08l.28-.28c.16-.08.32-.2.44-.32.2-.32.12-.68-.16-.4-.08-.08-.08-.08 0-.28.12-.16.04-.2-.28 0s-.4.16-.2-.2c.08-.4-.28-.68-.4-.52-.24.32-.44.12-.44-.08s-.08-.28-.28-.16c.08-.16.08-.4-.08-.28 0 0-.08-.04-.08.16l-.36.2c.08.04 0 .2-.08.4s-.32-.2-.28-.8l-.04-.44c-.08.16-.16.36-.16.36-.08-.04-.2-.08-.12-.24.08-.16.08-.16-.04-.2 0 0-.12-.04-.16.12-.12.36-.12.36-.16.12 0-.4-.08-.44-.32-.08-.12.36-.12.36-.12-.04.04-.2 0-.4-.12-.4l-.04.2c-.08.36-.2.32-.24.12.04-.2-.08-.2-.32-.08-.2-.04-.32-.04-.28-.24.04-.36.04-.36-.12 0-.12.16-.12.16-.32-.04-.08-.2-.08-.2-.2 0-.04.36-.04.56.08.56s.08 0 .08.2H15c-.16 0-.32.04-.4.16-.28.08-.28.44-.08.28z"/>
    <path fill="#99AEF2" d="M71.36 181.24c-.04 0-.12-.04-.12-.08-.08-.08-.08-.24-.04-.48v-.16c-.04 0-.08-.04-.12-.08-.08.08-.16.16-.28.12-.12 0-.2-.08-.2-.2h-.16c-.12-.04-.24-.16-.24-.28-.2.24-.36.2-.4.16-.04-.04-.08-.08-.08-.12 0-.04-.24-.2-.4-.28-.16-.08-.24-.16-.4-.24-.64-.4-.68-.6-.68-.68-.12 0-.24-.04-.32-.12l-.16-.16-.2-.2c-.16 0-.32-.08-.44-.2-.04-.04-.04-.12 0-.2-.16 0-.32-.12-.4-.28-.04-.12-.04-.24.04-.32-.16-.08-.28-.2-.4-.36-.12-.12-.2-.24-.28-.4-.12.04-.24.04-.28-.04-.04-.08-.08-.16.04-.28-.24-.12-.48-.32-.68-.52l-.32-.28c-.24-.2-.48-.36-.72-.56-.08-.08-.2-.12-.32-.12-.04.04-.12.04-.16 0-.16-.04-.24-.2-.28-.36-.12.12-.2.2-.32.12l-.12-.12c-.08.08-.2.08-.28.04-.04 0-.08-.04-.08-.08-.08.16-.2.32-.36.24-.16-.08-.08-.28-.04-.44v-.04h-.08c-.04 0-.08-.04-.08-.08v-.04c-.08.04-.16.04-.24.04-.16-.04-.16-.2-.16-.4h-.04c-.12.08-.24.08-.36.08h-.16c-.12.12-.36.12-.6.12-.16 0-.32 0-.52.04-.24 0-.52.04-.76.12.04.08.04.2-.04.24-.16.12-.36.12-.48 0-.36.12-.72.24-1.04.4-.24.16-.44.28-.56.4l-.12.12c.08.16.08.28-.04.36-.04.04-.12.04-.16 0-.12-.08-.24-.16-.32-.28l-.04-.04h-.16c.04.12.04.28-.08.4.08.04.16.12.16.2 0 .08-.04.16-.12.24-.16.12-.4 0-.56-.12 0 .08 0 .2-.04.28-.08.08-.16.16-.28.2l-.08.08c.04.04.04.08.08.08l.08.04c.08.04.16.08.16.16s-.04.12-.08.16c-.04 0-.08.04-.24-.04 0 0-.04 0-.04-.04l-.08-.04-.04-.04c-.08 0-.12.04-.32.24-.08.12-.16.24-.2.36l-.12.24c.04.36.04.44-.08.48-.12.04-.12 0-.2-.08 0 .04-.04.04-.04.04-.08.04-.16.04-.2 0-.04.12-.08.2-.16.24-.04.04-.12.04-.16.04l-.16-.04c-.04.08-.08.12-.12.16l.04.04c.08.08.08.24 0 .36-.08.08-.24.12-.36.08 0 .08-.04.12-.08.16-.04.04-.12.04-.16 0l-.08-.04c0 .08-.04.12-.08.16-.08.08-.2.08-.32.04.08.08.12.2.08.32 0 .04-.04.08-.08.12-.08.04-.12.04-.2-.04 0 0-.08-.08-.12-.16 0 .24-.16.48-.4.56-.16.08-.44.16-.44.28 0 .04-.04.12-.08.12-.12.04-.24.04-.32 0-.08-.08-.08-.16-.08-.24-.08 0-.12 0-.2-.04-.08.12-.2.2-.36.24-.12.04-.24-.04-.32-.12l-.04.04c-.04.04-.04.04-.04.08.04.08.04.16-.04.2-.04.04-.12.08-.2.04-.08-.04-.12-.08-.16-.16-.04.04-.08.04-.16.04h-.04v.04c0 .08-.08.16-.16.16s-.16-.08-.16-.16v-.16-.08c-.12 0-.24-.04-.28-.16-.08.08-.16.08-.28.08-.24 0-.48-.04-.68-.12-.2-.04-.36-.04-.56-.04-.12 0-.2 0-.32-.04l-.12-.12c-.08.08-.12.12-.2.08h-.04c-.08 0-.16 0-.24-.04-.04-.04-.08-.04-.08-.08 0-.08-.04-.12-.12-.16h-.16c-.12.12-.24.2-.32.12-.08-.08-.08-.2-.04-.28v-.04c-.08 0-.12 0-.16-.04-.12-.12-.16-.32-.08-.44v.04c-.12 0-.2-.04-.28-.12-.12-.12-.2-.24-.2-.4-.12.12-.2.2-.32.2-.04 0-.12-.04-.12-.04-.08-.04-.12-.16-.08-.24 0-.04.04-.08.08-.12-.12-.08-.24-.2-.32-.32l-.36-.24c-.08-.04-.12-.08-.2-.12-.08-.08-.2-.24-.12-.4-.12-.04-.24-.12-.32-.2-.12-.12-.16-.24-.24-.4h-.16c-.12-.04-.16-.2-.2-.36l-.16-.16c-.08-.08-.16-.2-.16-.32-.04 0-.12.04-.16.04h-.12c-.04 0-.08 0-.12-.04-.08-.08-.16-.08-.28-.08-.08.08-.2.08-.32 0-.12-.12-.04-.32.04-.52v-.04c-.04.04-.12.04-.2 0-.04-.04-.08-.12-.08-.16-.12.08-.32.08-.44 0s-.24-.2-.28-.32c-.12 0-.28 0-.4-.08-.08-.04-.16-.08-.24-.16-.08.04-.12.04-.2 0-.04 0-.08-.04-.08-.08v-.08.04c-.08.08-.12.16-.2.2-.08.04-.24.16-.36.04-.08-.08-.08-.2 0-.28h-.24c0 .08-.08.16-.16.16h-.16c-.08 0-.16-.08-.12-.16 0-.08 0-.08-.04-.08-.08 0-.16.04-.24.08 0 .12-.04.16-.12.2-.08.04-.16 0-.2-.08-.04.04-.04.04-.08.04-.16.04-.32-.08-.44-.24 0-.04-.04-.04-.04-.08-.04 0-.04.04-.08.04s-.12 0-.16-.08c-.08.2-.32.24-.84.36h-.04c-.24.12-.56.2-.84.24 0 .04-.04.12-.08.16-.08.08-.2.08-.28 0v.04c-.04.12-.12.2-.32.28h-.04c-.12.08-.28.2-.4.12 0 .2 0 .28-.12.36-.08.04-.16.04-.24-.04.12.28.04.32 0 .36-.08.04-.16.04-.24-.04.04.16 0 .4-.16.44-.08.04-.2.04-.28-.04 0 .04-.04.12-.08.16.08.12.16.2.08.28-.08.08-.24.08-.28.04 0 0-.04 0-.04-.04l-.04-.04c-.04 0-.04.04-.08.04 0 .04 0 .08-.04.12l-.04.04c-.04.04-.08.04-.16.04v.04c0 .08-.04.12-.08.16-.04.08-.16.08-.24.08 0 .04 0 .12-.04.16-.04.08-.16.12-.24.12.04.08.04.12 0 .2-.08.2-.32.32-.52.32.08.12.12.24.04.36-.08.08-.16.08-.24.04 0 .04-.04.12-.08.16-.04.04-.08.04-.16.04 0 .04.04.08.08.12.08.04.12.16.08.24 0 .04-.08.08-.12.12h-.04c.08.12.08.2 0 .24-.04.04-.16.04-.2 0-.08.04-.16.04-.2 0l-.04-.04c0 .04-.04.12-.08.16v.04c0 .08-.04.2-.12.24l-.12.08c-.04.04-.12.04-.16 0h-.12c-.04 0-.12.04-.16.08.04.08.04.16.04.2-.04.12-.12.2-.24.24-.04.04-.08.04-.12 0-.12-.04-.2-.08-.28-.16v.16c.08.16 0 .24-.04.24-.12.08-.28-.04-.4-.2l-.04-.04c0 .12-.08.2-.2.2h-.08c-.08.2-.16.24-.24.24-.08 0-.16 0-.2-.08-.04.08-.08.12-.16.12-.08.04-.16.04-.28.04h-.08c-.08.12-.16.16-.28.12-.12-.04-.08-.12-.04-.36-.08.16-.24.36-.44.32-.2-.04-.28-.16-.36-.32 0 .08-.04.12-.08.16-.04.04-.08.04-.16.04-.04 0-.12-.04-.16-.08-.12-.2-.12-.44-.08-.64v-.08c-.04.08-.08.2-.12.28-.12.32-.16.4-.28.36-.12-.04-.12-.08-.12-.2-.08.12-.12.16-.2.12-.08 0-.12-.08-.12-.12h-.08c-.04 0-.08-.04-.12-.08-.04.04-.12.08-.16.04-.08 0-.12-.08-.12-.16v-.08c-.24-.16-.52-.28-.8-.32h-.12c-.12-.04-.2-.2-.16-.32-.2.08-.28.04-.32 0l-.04-.04c-.28.12-.4.08-.44 0-.04-.08-.08-.2.04-.4-.12-.04-.2-.12-.28-.2 0 0-.04-.04-.04-.08-.04-.12-.08-.16-.08-.16-.04 0-.08.04-.08.08-.12.12-.24.24-.4.08-.04-.04-.04-.08-.04-.12 0-.04 0-.08.04-.12 0-.04-.04-.12-.08-.16-.12-.12-.16-.28-.08-.44-.12.04-.28.04-.36-.04-.08-.08-.12-.16-.12-.24-.08 0-.16-.08-.24-.16-.08-.08-.16-.16-.24-.12-.04.04-.12 0-.16-.04-.12-.12-.24-.28 0-.52l.12-.12h-.04c-.32.12-.4.12-.44 0-.04-.12 0-.16.28-.32l-.08-.08c-.08-.04-.12-.12-.12-.2-.24.04-.56.12-.68-.04-.04-.08-.04-.16.04-.24 0-.04-.16-.2-.28-.28-.16-.04-.32-.16-.4-.32v-.16c-.04 0-.04-.04-.08-.04-.04-.04-.08-.08-.08-.16-.08.08-.2.16-.32.2-.12.04-.28.08-.36-.04-.04 0-.08 0-.12-.04-.04-.04-.08-.08-.08-.16-.04.04-.08.04-.16.08-.12.04-.28-.04-.32-.2 0-.04 0-.04-.04-.08h-.04c-.08 0-.12-.08-.12-.16-.04 0-.12-.04-.16-.04-.08-.04-.16-.08-.2-.16-.04.04-.12.08-.2.04l-.16-.04c-.04 0-.04-.04-.08-.04-.04.24-.08.28-.2.28-.12 0-.16-.08-.16-.2h-.12c-.08 0-.12-.04-.16-.08-.08-.12-.12-.32-.12-.48v.04l-.08-.04c-.04.16-.12.24-.24.24s-.2-.16-.2-.56v-.04h-.04c-.08-.04-.12-.08-.12-.16-.04-.2.04-.36.2-.52.12-.12.28-.2.4-.2-.04-.2-.08-.4-.04-.6 0-.04 0-.04.04-.08.08-.12.12-.2.24-.2s.16.08.2.2l.04.04c.12-.28.16-.36.28-.32.12.04.12.16.08.44v.04h.12c.12-.08.28-.08.4-.04.04 0 .04.04.04.04l.04-.16c.04-.08.12-.12.2-.12.08.04.16.08.2.16.04.04.04.08.04.12.08-.08.16-.08.24-.08.08 0 .12.08.12.12l.08-.08c.04-.04.12-.04.2 0 .08 0 .12.08.16.16.04-.04.08-.04.12-.04.04 0 .12.04.12.08h.12l.12.04c.08.04.12.08.16.12.04.08 0 .16-.08.28-.04.08-.12.12-.2.08l-.08-.04v.28c.04-.08.12-.08.2-.04l.2-.12c0-.08.04-.16.12-.2.04 0 .08-.04.12-.04.08-.04.2-.04.28.04.04.04.08.12.08.2.04 0 .04 0 .08.04.12.08.16.2.12.32 0 .04 0 .08.04.08 0 0 .08 0 .12-.08.08-.12.2-.12.32-.08.24.16.4.44.32.72l-.04.04c.16-.12.4-.24.52-.08.04.08.04.16 0 .24.04 0 .12 0 .16.04l.08.08c.12-.16.16-.16.24-.12.08.04.08.16 0 .4v.04c.08-.04.16-.04.24 0 .08.08.12.2.12.28h.08c.12 0 .2.08.28.2.04.04.04.12.04.16-.04.08.08.24.16.36.2.24.24.6.08.88l.12-.12c.12-.12.28-.16.44-.04l.08.08c.08.08.12.16.16.28l.16-.04c.12 0 .28-.04.32.08v.04c.08-.08.2-.04.28.04.04 0 .12 0 .16.04.08.08.04.2-.08.32.08.04.12.08.2.12l.08.08.08.08c.08-.04.16-.08.24-.04.08.04.12.12.12.2.08-.04.16-.04.24 0 .08.04.16.08.24.16.04-.04.08-.04.12-.04.12-.04.24 0 .36.08l.04.04c.08.04.12.08.2.16 0-.04.04-.04.08-.08.08-.04.16-.08.24-.04.08 0 .12.04.12.12 0 .04.04.12.16.08.08 0 .2 0 .28.04h.04c.04 0 .12 0 .16.04v-.16c0-.08.04-.12.12-.16.04 0 .12 0 .16.04-.04-.08 0-.16.08-.2.12-.08.2 0 .4.16l.04.04c0-.08.04-.16.12-.2.08-.04.16 0 .24.12 0 .04.04.04.04.08h.04v-.04l-.04-.08c-.12-.24-.16-.32-.04-.4.12-.08.16-.04.24.08.12-.04.2.04.24.08.04.04.04.04.08.04h.04c0-.04.04-.04.04-.04l.04-.04c.04 0 .04-.04.08-.04-.04-.04-.04-.12-.04-.16 0-.04.04-.12.08-.12v-.04c-.24-.24-.08-.4.04-.48.04-.04.12-.04.16 0 .04-.08.12-.08.24-.04-.04-.08-.04-.16.04-.24.12-.12.24-.04.4.04-.12-.2-.12-.4 0-.6.2-.2.28-.16.44 0l.04.04-.12.12c-.16-.08-.36-.2-.28-.36.08-.16.16-.12.32-.04.04 0 .04 0 .04.04.08.04.16.08.24.04l.08-.08c-.04-.04-.04-.08-.04-.12 0-.08.04-.16.08-.2l.04-.04v-.08c-.08-.04-.08-.12-.08-.2 0-.04.04-.12.12-.12.08 0 .12 0 .28.12 0-.04 0-.08.04-.12.04-.08.12-.12.24-.08.04-.08.08-.2.16-.24.16-.12.36-.12.52-.08v-.04c0-.24.12-.44.32-.6.04 0 .04-.04.08-.04.36-.04.68-.32.76-.72 0-.04.04-.08.08-.12l.08-.04c.08-.04.16 0 .2.04.04 0 .2-.08.28-.12.16-.08.32-.12.48-.08h.16v-.04c0-.12.12-.2.24-.24h.04c.36-.16.76-.32 1.16-.36.48-.12.96-.12 1.44-.04 0-.04 0-.08.04-.12.04-.04.08-.04.12-.04h.24c.04 0 .12.04.12.08v.04c.04 0 .12.04.16.04l.04.04c.08 0 .12.04.12.12.04.12.12.2.2.2.08 0 .12-.04.16-.16.08-.24.12-.36.28-.36.16 0 .2.12.32.4 0 .04 0 .04.04.08v-.04c.04-.2.16-.24.2-.24.16 0 .24.2.24.4.28-.4.48-.4.56-.32.12.08.16.2.16.32.16-.08.4-.08.56.04.08.08.16.2.12.32.04 0 .08-.04.12-.04.04 0 .04-.04.08-.04.24-.04.48 0 .68.04.12.04.24.12.32.28v.16l.4.24c.2.04.4.12.56.28.12.08.32.2.48.32.16.12.24.2.4.36l.08.08c.44.4.8.84 1.08 1.36l.04.04.04-.04.04-.04c.2-.04.28.04.28.08.04.08.04.16 0 .24H45c.04 0 .08 0 .12.04l.04.04c.04.04.04.08.04.12.16-.04.36.04.44.16.04.04.04.12 0 .16-.04.08 0 .16.12.28l.24.12.24.12.08.08c.04-.04.08-.04.12-.04h.04c.04 0 .04-.04.08-.04.08-.04.16-.04.2.04.04.04.04.12 0 .2l-.2.24c.12-.12.16-.12.28-.04.04.04.08.12.04.16.04 0 .04 0 .08.04s.08.12.04.16c0 .04 0 .08.04.12 0 0 .04 0 .08-.04s.16-.04.2 0l.04.04c.04 0 .08.04.08.08.04-.08.12-.12.2-.08.08.04.12.08.12.2.04 0 .12 0 .16.04.08.04.16.08.24.16.08-.04.16-.08.24-.04.08 0 .12.04.16.08l.04-.04c.04-.04.08-.04.12-.04h.04v-.04c.04-.16.08-.28.2-.24.12.04.12.08.12.2.04-.04.08-.08.16-.08h.08c.04 0 .04-.04.08-.04h.16c.08-.04.16 0 .2.08h.04c0-.04 0-.04.04-.08l.08-.08c.16-.04.2.08.28.28 0-.04.04-.04.08-.08h.04v-.04c0-.08.04-.12.12-.12.08 0 .12 0 .16.08.04.04.04.08.08.12 0-.2.04-.32.12-.36h.12c-.04-.16 0-.32.12-.4h.12c-.04-.08 0-.16.04-.2.08-.04.2-.04.28 0 .04-.04.12-.04.2 0-.12-.12-.16-.24-.08-.32.04-.08.16-.08.2-.04 0-.04 0-.12.04-.16l.32-.32.32-.32c.12-.12.24-.2.36-.24-.08-.04-.12-.12-.08-.2 0-.04.04-.08.12-.12.08 0 .12 0 .2.04-.04-.04-.08-.12-.04-.2.04-.08.12-.16.2-.12h.04s0-.04.04-.04c.12-.12.28-.2.44-.16l.08-.08c0-.04 0-.08-.04-.12 0-.08.04-.12.04-.2 0-.08.04-.2.16-.24h.08c0-.12.08-.24.16-.32.04-.04.12-.04.2 0 .04-.04.08-.12.12-.16.04-.04.08-.08.08-.2 0-.04 0-.12.04-.16l.08-.08c.08-.04.16-.04.2.04.12-.08.24-.2.28-.32 0-.04.04-.08.04-.08.04-.04.12-.08.2-.08.04-.12.08-.2.16-.24.16-.08.36-.08.48.04l.04-.04c.12-.2.28-.32.48-.4.16-.04.28-.04.44.04l.04-.2c0-.04.04-.08.08-.12.04 0 .12 0 .16.04.08.04.16.04.44-.04.12-.04.24-.04.4-.08.24-.08.48-.12.72-.08v-.12c.04-.12.2-.16.48-.16.12 0 .24-.04.32-.12.04-.04.08-.08.12-.08h.24c.04 0 .08 0 .12.04.04.04.04.08.04.12.08.04.12.04.2.04.16.04.32 0 .44-.12.04-.04.08-.04.12-.04.28.04.32.04.44.32v.08c.08.08.2.08.32.08.04 0 .04-.04.04-.04 0-.04.04-.08.08-.08.04-.04.08-.04.12 0l.32.08c.36.08.52.12.6.24 0 .04.04.08.04.12h.12c.48 0 1.32.28 1.52.6 0 .04.04.04.04.08-.04-.04-.04-.08-.04-.12 0-.04.04-.12.08-.12.08-.08.2-.08.28-.04.16.04.24.2.4.88.04.08.08.16.08.2.04-.04.12-.08.16-.08.16 0 .44.12 1.08.76l.24.24c.16.16.32.32.48.44.04-.04.12-.04.16 0l.12.12c.08.04.12.12.12.2.08-.04.16 0 .24.08.04.08.08.16.04.24.04.2.16.4.32.56.04 0 .08-.04.12 0 .08 0 .2.08.24.16.08.08.16.2.12.32h.08c.04 0 .08 0 .12.04.08.08.16.2.16.32.2.08.36.16.52.32l.16.12c.12.08.24.16.4.2.04-.08.12-.08.16-.08.16.04.12.28.08.36-.04.08 0 .08.28.16.2 0 .36.12.48.24.04-.08.08-.12.12-.12.16-.04.24.08.4.2l.08.08.04.04c.12.28.16.56.12.84v.36c0 .04 0 .08-.04.12v.24c.04.12.04.28-.04.4-.04.04-.08.04-.12.04 0 .08-.04.16-.08.24-.04.04-.08.04-.16.04 0 .12-.04.24-.12.32-.08-.32-.12-.32-.16-.32zm-45.88-1.12c.16 0 .2.2.28.4.12.32.2.36.2.36s.04 0 .16-.2c.16-.24.4-.44.56-.36.12.08.12.2.04.44H26.96c.04-.08.04-.16 0-.24l-.04-.28v-.04c0-.08.04-.12.12-.16.08 0 .16.04.16.12v.24-.04c.04-.08.12-.24.24-.24.08 0 .16.04.16.12v.04l.12-.12c.12-.04.24.04.32.16v-.12-.2c0-.08.04-.16.08-.24.04-.04.12-.04.16 0 .12.08.16.2.16.32.04.08.08.12.16.16l.04-.04c-.08-.12-.04-.28.08-.4.16-.12.32-.2.52-.16l.04-.04v-.04c0-.08.04-.16.08-.24v-.12c0-.04 0-.12.04-.16-.08 0-.12-.04-.16-.08l-.04-.04c-.08-.08-.12-.16-.12-.28 0-.04.04-.08.08-.12.04-.04.24-.16.44.08.08.08.12.16.12.24l.04-.04c.04-.04.04-.04.08-.04-.08-.16-.08-.32.04-.4.04 0 .04-.04.08-.04-.12-.2-.16-.28-.08-.36.08-.08.16-.04.32.08v-.08c-.08-.04-.16-.08-.16-.16s.04-.16.12-.24c.08-.08.24-.08.4.08.04.04.08.12.08.16.08 0 .12-.04.16-.08h-.04c-.04-.04-.08-.08-.08-.12 0-.04 0-.08.04-.12l.12-.12c.04-.04.08-.04.12-.04h.24v-.04l-.08-.2c-.04-.08 0-.16.04-.2.04-.04.08-.04.12-.04v-.08c-.16-.04-.28-.12-.4-.24-.16-.16-.12-.24-.08-.32.12-.16.32-.04.52.08.12.12.2.16.2.24h.04v-.04c0-.04.04-.12.12-.12.08 0 .16 0 .24.08h.04v-.04c.04-.04.08-.08.16-.08h.04l-.04-.04c-.16-.16-.28-.24-.28-.4-.04-.08-.04-.16 0-.2.08-.08.2-.08.24 0 .04.04.04.08.04.12l.12.12h.08c.12 0 .2.04.28.12v-.08c-.08-.2-.12-.44.04-.52.04 0 .08-.04.12-.04-.04-.04-.08-.12-.12-.2l-.28-.48c-.04-.08-.04-.16.04-.2.08-.04.16-.04.2.04l.4.48.2.16v-.08c0-.2.04-.32.16-.32s.2.08.24.16c0 0 0 .04.04.04 0 0 .04-.04.12-.08l.04-.04c.04-.04.12-.08.16-.08v-.04-.12c0-.04.04-.08.08-.08l.16-.08h.04v-.04l-.04-.08v-.08c0-.04.04-.12.08-.12.04-.04.12-.04.16 0l.04-.04c.08-.04.16 0 .2.08l.08.16c.24-.04.44-.08.64-.2h.08c.64-.16.64-.16.6-.36-.04-.2.04-.48.24-.48.2 0 .24.24.24.4v.04h.04v-.12l.08-.2c.04-.04.08-.08.12-.08h.08c.08 0 .16.04.16.12v.2c.12 0 .16.12.28.28v.04c.12-.12.28-.16.48-.12.08 0 .2.08.24.16.04-.04.08-.04.12-.08h.28c.08 0 .2.04.28.08-.04-.08 0-.2.08-.44.04-.08.08-.16.08-.24 0-.04.04-.08.08-.08h.12c.24.04.2.2.16.36.08-.04.16-.08.24-.08.04 0 .08.04.08.08v.04h.04c.08 0 .12.08.12.16v.04l-.08.24c0 .08.04.12.16.16.12.04.2.08.28.04l.04-.08c.04-.08.12-.12.2-.08.04.04.08.08.08.16v.04l-.04.12c0 .08.04.2.12.24.08.04.16 0 .24-.04.04-.12.16-.16.28-.12.08.04.12.08.12.24.08-.04.12 0 .16.04.12.08.08.32.04.48 0 .04-.04.08-.04.12.16-.04.32 0 .48.12h.16v-.04s0-.04.04-.04c.12-.12.24-.2.36-.24h.04c.16 0 .28.04.32.12.04.08 0 .16-.08.2-.04.04-.12.04-.16 0h-.04v.04c0 .04 0 .08-.04.12-.04.04 0 .16.08.2.08.04.12.12.2.2l.04.04c.04.04.04.04.04.08v.12l.16-.16c.08-.04.12-.08.2 0 .08.08.08.12 0 .2l-.08.08c-.04.04.04.24.16.4.12.16.28.2.36.16.08-.04.16-.04.2 0 .04.04.04.16 0 .2l-.04.04-.12.12-.04.04s.04.04.08.04l.12.04c.16.08.32.16.44.32.08.12.2.2.32.28.04-.04.08-.04.12-.04.04 0 .08 0 .08.04.04.04.04.04.04.08.04-.04.12-.04.2 0 .16.08.12.28.12.36 0 .08.04.16.08.2.04.04.08.04.12.04v-.08c.04-.16.16-.28.32-.36.08-.04.16 0 .2.04.2.16.16.28 0 .44-.04.08-.12.12-.24.12h-.04c.04.08 0 .2-.08.28v.08c.04 0 .08-.04.12-.04.04-.04.12-.04.16 0 .08.04.12.16.08.24.12 0 .2 0 .28.08.08.04.16.12.2.2l.12-.2c.04-.08.12-.12.2-.08l.04.04c.04-.04.12-.04.16 0 .08.04.16.08.08.32v.08h.2c.2 0 .4.04.6.04.2.08.4.08.6.08h.08v-.04c.08-.12.12-.24.24-.2.12.04.16.12.2.24.04.12.04.12.08.12s.12 0 .16.04c.04-.04.08-.04.12-.04h.04c.04-.24.04-.32.2-.28.16.04.16.08.16.32.04-.04.04-.08.08-.12 0-.08.08-.12.12-.12.16-.04.28.08.32.24v.04c.08-.04.16-.12.2-.2-.04-.2.04-.28.12-.28.08 0 .16 0 .24.2.04 0 .04-.04.08-.04.12 0 .2.12.24.32.16-.16.36-.28.56-.32.24-.08.24-.2.16-.6l-.12-.32c-.04-.08 0-.16.08-.2.08-.04.16 0 .2.04l.16.24c.08-.12.28-.04.36-.04h.08c0-.04 0-.12.04-.16.04-.04.08-.08.16-.08-.04-.08-.04-.16 0-.2.08-.08.2-.08.36 0 .04.04.08.04.12.08-.04-.04-.04-.08-.04-.16s.04-.16.12-.2l.04-.04c0-.04 0-.08-.04-.08-.04-.04 0-.12.04-.16l.12-.12c.04-.04.12-.04.16-.04.08.04.16.12.16.2v-.04c-.16-.24-.24-.32-.12-.4.12-.08.16-.04.32.08 0-.04.04-.08.04-.12.08-.08.2-.04.32.04 0-.04 0-.08.04-.08.04-.08.08-.16.12-.2.04-.16.16-.32.24-.44.12-.16.28-.28.44-.36.04-.12.08-.24.2-.32.04-.04.04-.04.08-.04s.08 0 .12-.04c-.04 0-.08 0-.12-.04-.12-.12-.28-.28-.2-.44.04-.08.08-.12.16-.12v-.04c0-.04 0-.12.04-.12l.08-.04c.16-.16.28-.04.4.08.04.04.04.08.04.12 0 .04-.04.08-.04.12h-.2l.12.12v-.04c0-.08.04-.12.08-.16.04-.04.04-.04.04-.12-.04-.08-.08-.16-.08-.24 0-.08.08-.16.16-.2h.04c-.12-.08-.24-.16-.32-.28-.04-.04-.04-.08-.04-.12 0-.04.04-.08.04-.12l.08-.04c.12-.08.28-.04.4.12.08.08.08.16.08.28 0 .04-.04.12-.08.16h-.04.04c0-.04.04-.08.04-.08.08-.04.16-.04.2.04l.16.2c.04-.08.12-.16.24-.24.16-.12.36-.24.64-.4.4-.2.8-.36 1.24-.48.04 0 .08 0 .08.04.04.04.08.04.08.04 0-.08 0-.12.04-.2.16-.2.72-.24 1-.24.2 0 .36-.04.52-.04.12 0 .28 0 .4-.04 0-.04 0-.08.04-.08.04-.04.08-.04.08 0h.28c.08 0 .16-.04.2-.08.04-.04.12-.04.16-.08.04-.08.12-.12.24-.12.04 0 .12.04.12.08v.04c0-.04.04-.04.08-.04.04-.04.12-.04.16-.04.08 0 .12.04.16.08.04.08.04.16 0 .28v.04h.08c.08 0 .12.04.16.08.04.08.04.12 0 .28l.12-.04c.04-.04.12-.04.16 0 .04.04.04.04.04.08l.08-.08.04-.04.08-.24c.04-.08.12-.12.2-.08.04.04.08.08.08.12v.04l-.04.08c.04-.04.12-.08.2-.04.08 0 .16.08.16.36 0 .08 0 .12.08.16.2 0 .4.04.56.16.28.16.52.36.76.56.12.12.24.2.32.32.16.16.32.32.52.44.04 0 .04-.04.08 0 .04 0 .08 0 .12.04.04.04.08.12.08.2.04 0 .08-.04.12-.04.08-.04.2-.04.24.04.08.12 0 .16-.16.36 0 .04.12.2.2.28.08.08.24.28.32.28.04-.04.04-.04.08-.04.2 0 .32 0 .36.12.04.12-.08.16-.24.24-.08.04-.08.12-.08.2.04.08.12.08.24.08.04 0 .12 0 .12.04.08.08.12.2.08.32.08.04.12.04.2.04.04 0 .08.04.08.04.04.04.12.12.24.2l.16.16c.08.04.16.04.2.04.04 0 .08 0 .12.04l.04.04h.04c.04.04.08.08.04.16 0 .04 0 .04-.04.08.16.16.36.32.56.44.12.08.28.16.4.24.16.08.32.2.48.32.08-.16.2-.32.36-.28.16.04.16.2.16.28 0 .12 0 .2.04.2s.04-.04.08-.12v.08c0-.08.08-.16.16-.12.08 0 .16.08.12.16v.04l-.04.24c.04-.04.08-.12.08-.2v-.08c0-.08.08-.12.16-.12s.12.08.12.16v.12h.04c.04 0 .12.04.16.08.04.04.04.12.04.32h.08v-.04c0-.08.04-.2.08-.24 0 0 .04-.04.08-.04v-.04c0-.16 0-.32.08-.44v-.28c0-.16 0-.36-.04-.52l-.12.36c-.08.32-.08.4-.24.36-.16-.04-.12-.12-.12-.44 0-.08 0-.16.04-.2h-.04c-.12 0-.2-.12-.24-.32v-.04c0-.04 0-.08-.28-.12-.16-.04-.52-.16-.48-.48-.2-.04-.4-.16-.52-.28-.08-.04-.12-.08-.16-.16-.12-.12-.24-.2-.36-.24-.04.04-.12.04-.16 0l-.08-.08c-.04-.04-.04-.16 0-.2l.04-.04-.04-.04c-.12 0-.28-.04-.36-.12-.04-.04-.04-.16 0-.2l.04-.04-.04-.04-.04-.04h-.04c-.04.04-.08.04-.12.04-.04 0-.08 0-.12-.04-.24-.24-.4-.52-.48-.84l-.08.04c-.12.08-.24.16-.4.16-.08 0-.12-.04-.16-.08-.04-.04-.04-.16 0-.2l.28-.24h.04c-.2.04-.4-.2-.76-.52l-.24-.24c-.56-.56-.76-.64-.84-.68-.04.08-.16.12-.24.12-.16 0-.24-.16-.32-.44-.04-.12-.12-.4-.16-.56-.04.08-.08.16-.12.2-.08.12-.2.36-.4.28-.2-.08-.12-.28-.08-.48v-.04c-.28-.24-.64-.36-1.04-.4-.28-.04-.4 0-.44.04.04 0 .12.04.12.08.04.08.04.16-.04.28-.08.24-.28.44-.48.4-.08-.04-.16-.08-.16-.2 0-.2.08-.36.2-.48v-.12l.04-.12.04-.16c-.12-.08-.24-.12-.4-.12l-.2-.04c-.08.12-.24.16-.4.16-.2-.04-.48-.16-.48-.36 0-.04-.04-.08-.04-.08h-.08c-.2.16-.44.2-.64.16-.16 0-.28-.08-.4-.2h-.04c-.12.12-.32.2-.48.2h-.16v.04c.04.2.08.52-.16.56-.04 0-.08 0-.12-.04-.04-.04-.04-.04-.04-.08l-.04-.2c-.2 0-.4.04-.64.08-.16.04-.28.04-.36.08-.16.04-.32.08-.48.08v.04c-.04.24-.16.32-.24.32-.12 0-.2-.04-.24-.16h-.16c-.12.04-.24.12-.32.28 0 .04-.04.08-.08.08l-.2.12c-.04.04-.12.04-.16-.04-.08-.08-.16-.08-.2-.08-.04 0-.04.08-.04.2l.08.08c0 .04.04.04.04.08 0 .08-.08.16-.16.16-.04 0-.08-.04-.12-.08l-.08-.12-.04-.04c-.08.24-.24.4-.48.48h-.12c0 .12-.08.24-.16.32-.04.04-.08.08-.04.2.08.28-.04.4-.08.4-.04.04-.12.08-.2.04-.04 0-.08-.04-.12-.08.08.4.08.44-.08.48-.16.04-.16 0-.2-.16l-.16.16c-.04.04-.08.04-.12.04-.08 0-.16 0-.2.04.04.08.04.16-.04.2l-.04.04c.08.12.04.28-.08.36-.08.04-.16.04-.28 0v.08c.12.12.16.2.2.28 0 .04-.04.08-.04.16-.04.04-.12.08-.16.04l-.2-.08c-.04 0-.08-.04-.08-.08l-.04-.12-.12.08-.28.28-.32.32c.04.08.08.12.12.2.2.2.24.24.16.36l-.04.04c0 .04 0 .08-.04.12-.04.08-.12.08-.28 0 0 .04-.08.08-.12.12-.08 0-.16 0-.24-.12h-.04l-.04-.04h-.16c.04.24.08.44-.08.48h-.16c.12.24.12.32 0 .36-.12.04-.2-.04-.28-.16l-.04-.04h-.04c.04.16 0 .32-.12.36-.08.04-.12.04-.2 0 .04.2 0 .28-.08.32-.08.04-.16-.04-.2-.12H50c-.04.04-.08.04-.12.08-.2.04-.28-.12-.32-.24l-.04-.08c-.08-.04-.12-.08-.16-.16-.04.08-.12.16-.2.16h-.08c-.04.04-.08.08-.12.08-.08 0-.12 0-.2-.04-.04 0-.08.04-.12.04 0 .04-.04.08-.08.12-.04.04-.08.04-.16.04s-.16-.04-.2-.12c0 .08-.04.16-.12.16-.08.04-.16-.04-.24-.16l-.08-.08c-.04-.04-.08-.12-.12-.12h-.04v.04c-.04.28-.08.32-.16.36-.04 0-.12 0-.16-.04-.08-.04-.08-.12-.04-.36h-.12c-.04 0-.04-.04-.04-.04H47c-.04-.04-.08-.04-.12-.12-.08 0-.16 0-.24-.04-.08-.04-.12-.12-.16-.2-.12.12-.24.24-.36.12-.08-.08-.08-.16-.04-.24-.04 0-.08-.04-.12-.08-.08-.12-.08-.28.04-.4-.08-.04-.12-.08-.16-.12-.04-.04-.08-.04-.16-.04-.12-.04-.24-.12-.36-.2-.12-.12-.2-.28-.2-.48H45c-.12.04-.28 0-.36-.08-.04-.04-.04-.08-.04-.16-.08 0-.16-.04-.24-.08-.04-.04-.04-.08-.04-.12-.08-.04-.2-.08-.24-.2-.04-.04-.04-.08-.04-.12-.28-.44-.6-.84-1-1.16l-.08-.08c-.12-.12-.24-.24-.36-.32-.12-.08-.32-.24-.44-.32-.12-.08-.24-.16-.4-.2h-.12l-.56-.32c-.08-.04-.08-.12-.04-.2v-.08.04c-.08.2-.24.44-.44.36l-.08-.04c-.04 0-.08-.04-.08-.08v-.12c.04-.12.12-.2.2-.28h-.16c-.16.12-.32.12-.48.04-.08-.04-.12-.12-.08-.2 0-.04.04-.12 0-.16-.08-.04-.16-.04-.2 0-.12.16-.24.32-.4.24-.16-.08-.12-.32-.08-.44v-.04c-.08.08-.16.16-.2.24-.12.12-.16.2-.28.2-.12 0-.12-.12-.2-.24v-.04c-.04.08-.16.16-.24.16-.16-.04-.24-.24-.24-.4v-.04.04c-.04.2-.24.36-.48.36-.2 0-.36-.16-.44-.32h-.04c-.08.04-.12 0-.16-.04l-.04-.08c0 .08-.04.12-.12.16h-.2c-.44-.08-.88-.08-1.32.04-.36.08-.76.2-1.08.36l-.04.04c.2.28.12.4.04.44-.08.04-.24.08-.48-.12h-.12c-.12 0-.24 0-.36.04-.16.08-.36.2-.52.16-.12.44-.52.76-.96.84-.12.08-.16.2-.16.36 0 .2-.04.28-.12.36-.08.08-.16.04-.28 0-.04 0-.04-.04-.08-.04-.08 0-.12.04-.16.08-.04 0-.04.04-.04.08 0 0 0 .04.04.04.04.04.04.12 0 .2-.04.04-.08.08-.16.08.12.12.2.24.12.36-.08.12-.24.08-.52-.12 0 .04 0 .12-.04.16 0 0-.04.04-.08.04l.12.12c.08.04.12.16.12.24 0 .08-.04.16-.12.24-.04.04-.16.04-.2 0l-.16-.16c-.04.04-.08.04-.16.04.04.04.08.12.08.2 0 .08-.04.16-.12.2-.04.04-.2.2-.44 0l-.04-.16c-.04.04.04.36.32.8.2.2.28.28.2.4-.08.12-.16.08-.44-.12-.04.04-.08.04-.12.04-.08 0-.16-.04-.2-.12v-.04c-.08.08-.2.04-.32-.04l-.04-.04-.04-.04c-.04.04-.12.04-.2.04.04.08.08.16.08.24 0 .04-.04.12-.08.16v.04c.12.12.16.28.16.44 0 .04-.04.08-.04.12 0 .12 0 .2-.12.24-.12.04-.2-.04-.4-.2l.08.08v.12c0 .04-.04.08-.08.08h-.04c.04.04.08.12.12.2.04.08 0 .16-.04.2l-.04.04c-.04.04-.12.04-.16-.04l-.12-.12c-.04-.04-.04-.08-.04-.12 0-.04.04-.08.08-.12l.04-.04c.04 0 .04-.04.08-.04-.04-.04-.12-.08-.16-.12-.04.04-.12.04-.2 0-.08.04-.12.04-.2 0h-.04c0 .04-.04.04-.08.08-.12.08-.28 0-.36-.04.04.16.04.24-.08.28-.04.04-.12 0-.16-.04 0 .2.04.44.08.64.04.32.08.4-.08.48-.16.08-.2 0-.28-.12-.16-.12-.24-.28-.24-.48-.04-.08 0-.2.04-.28l.04-.04c-.04 0-.04.04-.08.04-.08 0-.16-.04-.16-.12v-.12c-.04-.08-.04-.08-.12-.04-.12.04-.24 0-.36-.08 0 .08 0 .16-.04.24.08.04.08.16 0 .44l-.16.4c-.04.04-.08.08-.16.08.08.04.12.2.08.4l.2-.36zm1.84.48l.04.04-.04-.04zm-3.56-.56c.08.04.12.08.2.12l.04.04c.04-.04.04-.04.08-.04v-.08c.12-.36.28-.36.36-.32.08.04.16.12.16.28.04-.04.08-.04.16-.04.04 0 .08.04.12.08.16-.32.28-.4.36-.36l-.04-.04c-.08-.08-.04-.16.04-.36.04-.08.04-.2.08-.32 0 0 0-.04.04-.04 0-.04.04-.04.04-.04-.04-.08-.08-.16-.04-.24 0-.08-.12-.16-.24-.28l-.04-.04c-.04-.04-.08-.04-.12-.04l-.04.04c-.04.08-.08.08-.16.08-.04 0-.08 0-.12-.04-.04 0-.08-.08-.08-.12 0-.04-.04-.08-.08-.12h-.04c-.04.04-.12.08-.16.04-.04-.04-.12-.04-.16-.08l-.04-.04-.08.08c-.04.08-.16.08-.24.04-.12-.08-.04-.2 0-.28v.08s-.04 0-.04-.04l-.04-.04v.04c-.04.08-.16.08-.2.04h-.04c-.12 0-.2-.04-.28-.12-.2.12-.32.08-.36 0l-.04-.04-.04.04c-.04.08-.08.2-.2.2-.08 0-.16 0-.2-.08-.04-.04-.04-.08-.04-.12.04-.16.12-.36.24-.44l-.04.04-.04.04-.04.04c-.12.08-.12.08-.2 0-.08-.08-.04-.16 0-.2l.08-.04.04-.04.12-.12c0-.04-.04-.08-.08-.12l-.04-.04-.04.04c-.08.08-.2.16-.28.24-.08.12-.16.2-.24.28-.04.04-.12.04-.16 0-.04-.04-.08-.08-.08-.16l.12-.48c.16-.36.16-.52.04-.68-.16-.16-.24-.36-.24-.56h-.04c-.04.04-.16.04-.2 0l-.12-.12c-.04-.04-.04-.12-.04-.16-.08.04-.16.04-.24 0-.04-.04-.08-.08-.12-.16-.04.08-.08.16-.04.24l.16.2c.04.04.04.16 0 .2-.04.04-.08.04-.12.04l-.32-.08c-.04 0-.04-.04-.08-.04-.08 0-.16.04-.24.08-.16.16-.32.16-.4.08-.04-.04-.04-.08-.04-.12 0-.04 0-.08.04-.12l.28-.28.04-.04c.16-.08.28-.16.4-.28.04-.04.08-.12.08-.2-.04.04-.08.04-.08.04-.04 0-.08 0-.12-.04-.08-.04-.12-.16-.08-.24-.16.12-.32.2-.48.12-.16-.08-.04-.32.04-.48 0-.12 0-.2-.08-.28 0-.04-.04-.04-.08-.08-.08.16-.28.24-.48.16-.16-.08-.24-.24-.24-.4v-.04l-.04.08c-.04.08-.12.08-.2.04-.04-.04-.08-.08-.08-.12v-.04l-.16.08c0 .16-.08.28-.16.4-.04.08-.16.12-.24.12-.24-.08-.32-.52-.32-.92h-.12c-.08-.04-.2-.08-.24-.2-.04.12-.08.16-.2.16-.12 0-.16-.12-.16-.28v-.04-.08l-.04.04c-.08.24-.12.36-.24.32-.12-.04-.12-.08-.12-.32-.04.04-.08.08-.16.08-.12 0-.2-.08-.24-.24v-.04c0-.04-.04.04-.08.04h-.2c-.12 0-.2-.08-.28-.16-.04.04-.08.04-.12.04-.08 0-.16-.04-.28-.16v.28c.04 0 .08.04.12.08.08.08.04.16.04.28 0 .08-.08.16-.16.12H14.92c.08.04.12.12.16.4v.28c.08 0 .12 0 .16.04.04.04.04.12.04.24.04-.04.12-.04.16 0 .04 0 .04.04.08.04.08-.16.16-.16.24-.16.08 0 .2.04.24.28 0-.04.04-.12.04-.16.08-.32.12-.4.24-.4s.16.12.2.24c.04.16 0 .32-.04.44v.04h.04c.04 0 .04.04.08.04v-.04l.04-.08c.04-.08.08-.08.12-.08.04 0 .12 0 .12.04.04.04.04.08.04.16v.08c.08.08.12.2.16.28l.08-.08c.04-.08.04-.12.04-.2-.04-.04-.08-.12-.04-.16v-.04c-.16-.08-.16-.36-.08-.6.04-.24.04-.36.16-.44.08-.04.2-.04.28.04.08.04.16.08.2.2.04.08 0 .2-.04.28-.04.08-.08.08-.16.08v.04l-.16.36h-.12.04v-.04c.04-.08.12-.16.2-.2.08-.04.2 0 .24.04.08.04.08.12.04.2l-.16.32h.04c.04.04.08.12.04.2v.04l-.08.12h.04c.16-.08.28-.16.4-.28.04-.08.12-.16.24-.16.04 0 .12 0 .16.04.16.12.12.24.04.36.04 0 .12 0 .12.04.04.04.04.16 0 .2l-.12.16c-.04.04-.04.08-.04.08s.04.08.24.12c.04 0 .04 0 .08.04.2.2.36.36.4.52v.04c.16 0 .32-.04.48-.08l.08-.08c.04-.04.16-.04.2 0 .04.04.04.08.04.12 0 .04 0 .08-.04.12l-.08.08-.04.04s.04.04.08.04c.08.12.16.16.16.28.08 0 .12.04.16.08.12.16.04.4-.2.6l-.04.04c.2 0 .36.08.48.24l.04.08.08-.08c-.04 0-.08-.04-.08-.04l-.12-.12c-.04-.04-.04-.16 0-.2.12-.12.28-.16.44-.16.08 0 .16.04.2.08.04.04.04.08.04.16.08.04.16.08.2.16.12.12.12.28.04.4l-.04.04c0 .04 0 .04-.04.08.12.12.08.28 0 .36l-.04.04v.12c.04.08.12.12.16.2.08-.08.2-.08.28-.08.16.04.24.16.28.32.08.08.16.12.16.12.04-.08.16-.08.2-.04.08.04.12.12.08.2-.04.08-.08.12-.12.2h.04c.12-.16.2-.12.28-.12l.12.12c.12-.08.2-.12.28-.08.08.04.12.16.12.28v.12c.12 0 .24.04.36.08 0-.04 0-.08.04-.12l.28-.28.08-.12c.2-.28.24-.32.36-.28.12.04.08.16 0 .36l-.04.08c.04.16-.12.32-.32.44zm-3.04-2l.12.04c-.04-.04-.04-.04-.04-.08l-.08.04zm18-3.76c0 .04.04.04.04.08l.04-.04c-.04 0-.08-.04-.08-.04zm-1.84-.12l.04.04s0-.04-.04-.04zm-19.76-.24h-.16.16zm.8-.32c0 .04.04.12.04.16 0-.04.04-.04.04-.08-.04 0-.08-.04-.08-.08zm-3.36-.16c.04 0 .08.04.08.04 0-.08 0-.16.04-.24l-.04.04c-.04.04-.08.08-.08.16zM33 181.2c-.08 0-.16-.04-.2-.12-.12-.12-.2-.24-.24-.4 0-.04 0-.12.04-.16.16-.16.28-.04.4.08.12.24.24.44.08.56 0 0-.04.04-.08.04zm-7.12-.84h-.04c-.08 0-.12-.08-.12-.16 0-.16.04-.28.08-.44.04-.04.08-.08.12-.08H26c.04 0 .08 0 .12.04.04.04.04.08.04.12 0 .24 0 .52-.2.52h-.08zm22.2-.16h-.12c-.08-.04-.12-.08-.12-.16.04-.12.08-.28.12-.4.04-.04.08-.08.16-.08h.08c.04 0 .08.04.12.04.04.04.04.08.04.12-.08.24-.12.48-.28.48zm-20.4-.68h-.08c-.04 0-.08-.04-.08-.08-.08-.2-.12-.36-.08-.48 0-.08.08-.16.16-.16s.24-.04.36.52c0 .08-.04.16-.08.16l-.12.04c-.04.04-.08 0-.08 0zm-3.96-.2h-.08c-.04-.04-.08-.08-.08-.16l.04-.2v-.04c.08-.2.2-.24.36-.2.04 0 .08.04.08.08v.12l-.08.16s0 .04-.04.04l-.12.16s-.04 0-.08.04zm29-1.96h-.04l-.2-.08s-.04 0-.04-.04c-.08-.08-.12-.16-.12-.24 0-.04 0-.08.04-.12.16-.16.28-.04.4.08.08.08.12.16.16.24 0 .04-.04.08-.04.12-.08.04-.12.04-.16.04zm1.64-.44c-.12 0-.16-.12-.24-.24-.08-.2-.04-.32.04-.36.08-.04.16-.08.32.08s.16.16.16.24c0 .08-.04.12-.08.16 0 .04-.08.12-.2.12zm-26-.24h-.08c-.12-.08-.2-.12-.24-.2 0-.08.04-.16.12-.2.16-.16.28-.04.4.08.04.04.04.08.04.12 0 .04 0 .08-.04.12l-.08.08h-.12zm-13.04-.24h-.08c-.08 0-.12-.08-.12-.16.04-.12.08-.28.16-.4.04-.04.12-.08.16-.08h.08c.08 0 .12.08.12.16-.04.24-.08.4-.2.44-.04.04-.08.04-.12.04zm16.4 0h-.04l-.2-.08c-.04 0-.08-.04-.08-.08l-.08-.2c-.04-.04 0-.12.04-.16l.08-.04c.04-.04.16-.04.2 0 .16.16.28.28.28.4 0 .04-.04.12-.08.16h-.12zm23.2 0h-.04l-.2-.08c-.04 0-.08-.04-.08-.12 0-.04 0-.12.04-.16l.04-.04c.16-.16.28-.04.4.08.04.04.04.08.04.12 0 .04 0 .08-.04.12l-.04.04c-.04.04-.08.04-.12.04zm-13.52-1.32c-.04 0-.08 0-.12-.04-.04-.04-.08-.08-.04-.16l.04-.2c0-.04.04-.08.08-.12l.16-.08c.04-.04.12-.04.16 0l.08.04c.08.04.08.16.04.2-.12.16-.24.32-.4.36zm18-1.28c-.08 0-.16-.08-.16-.2l-.04-.2v-.08c.08-.2.16-.4.28-.36.08 0 .16.04.16.2s0 .32-.04.44c-.08.16-.16.2-.2.2zm-43.28-.08h-.04c-.04 0-.08-.04-.12-.12l-.04-.2v-.08c0-.08.08-.16.12-.24.08-.04.2-.04.28 0 .08 0 .12.04.16.12.04.08.04.16 0 .28 0 .04 0 .04-.04.08-.08.08-.2.12-.32.16z"/>
    <path fill="#1E31D7" d="M170.2 22.8c-.12-.12-.2-.08 0 .28.12.12.12.12.2.08-.04-.16-.12-.28-.2-.36zm4.52 4.44l-.08.08c.12.12.12.12.2.08.08-.04.08-.04-.12-.16zm.08-1.48c-.08-.12-.16-.2-.28-.28-.04.04.08.2.08.2s.12.16.16.12l.04-.04zm1.68-.48c-.04-.2-.04-.36-.04-.2 0 0 .04.2.04.36v-.16zm6 .6c.16-.12.08-.2 0-.32-.04-.08-.24 0-.24 0-.12.12-.08.2-.04.24-.04.28.16.2.28.08zm2.76 5.08l-.04-.2-.08-.04c-.08.16-.08.16 0 .2l.12.04zm2.6-3.44h-.04c-.04 0-.08.16-.12.36h.04l.12-.36zm-56.2-3c0 .2-.04.36-.08.36-.16.36-.12 0 .04-.36s.08-.36.04 0zm8.64 6.48c-.08-.04-.08-.04-.04-.2s.2-.32.32-.32 0 .4-.28.52zm3.48-.8l.04.2c-.08.2-.16.36-.16.2 0-.12 0-.24.04-.36 0-.04.04-.24.08-.04zm3.6-1.16l-.08.04c-.08.04-.2-.08-.2-.08s-.12-.16-.04-.2c.12.08.24.16.32.24zm.44-.84l-.08.08c-.08.04-.08.04-.2-.08l.08-.04.2.04zm.6-.6l-.04.08c-.04.08-.04.08-.2-.08l.04-.08.2.08zm.4-.4c.08.2.04.24-.12.12s-.16-.12-.08-.2c.08-.08.12-.16.2.08zm1.28.28l.08.16-.04.04c-.12-.12-.28-.24-.24-.32l.2.12zm.48-.8c.12.12.08.16.08.16s-.04.04-.2-.08c0 0-.12-.12-.08-.16l.2.08zm4.56-2.92l-.12.36h-.08c.04-.2.04-.36.12-.36h.08zm2.4 1.36c-.12-.08-.12-.08 0-.24.12-.16.24-.04.28 0-.04.16-.2.28-.28.24zm4.2 3.96l-.2.08-.08-.04c.12-.16.2-.32.28-.24v.2zm.64 1.44c-.08.12-.16.2-.24.28H162c.08-.16.16-.32.28-.28h.08zm1.8-.36c-.08-.04-.08-.04-.04-.2.04-.12.08-.24.16-.36.08.04-.08.36-.12.56zm2.24-.2l-.08.2h-.08c0-.2-.04-.36.04-.4l.12.2zm5.2-2.36l.08.2-.04.08c-.12-.12-.28-.28-.2-.32l.16.04zm.56-.28c.12.12.08.2-.24 0-.12-.12-.12-.12-.08-.2.08.04.2.08.32.2zm.48-1.4c.2.08.2.08.08.2-.12.12-.2-.08-.2-.08-.12-.12.08-.08.12-.12zm1.08-.96c.12.16.08.2.08.2s-.12.08-.24-.04c0 0-.12-.16-.08-.2.04-.04.2.04.24.04zm1.36 0l-.04.04c-.04.04-.04.04-.16-.12l.04-.04.16.12zm.36-.56c.08.16.12.36.08.36 0 .2-.12.04-.2-.32l.12-.04zm.28-1.04c.08 0-.04.2-.12.2l-.04-.2c.08 0 .12-.2.16 0zm1.56.24c0 .12-.04.24-.08.36h-.08c0-.2 0-.36.08-.36h.08zm.4 1.16c-.12.16-.12.16-.04-.2.08-.2.16-.36.16-.36.04 0-.04.16-.12.56zm1.88-.84l-.28.28c-.36.48-.32.48-.2.12.04-.2.16-.36.36-.48l.12.08zm-.2.92c-.08.16-.12.12-.2.12l.08-.16.16-.16-.04.2zm3.32 1.56c-.12.12-.28.12-.44.08-.04-.08.08-.2.32-.2l.12.12zm3.36 3.52c-.04.4-.04.4-.24.32-.08-.04-.2-.08-.12-.24l.08.04c-.08.16.08.04.08-.16l.16-.36c.08 0 .12.2.04.4zm1.04.48c-.04.2-.16.16-.24.12-.08-.04-.08-.04-.04-.2 0 0 .16-.16.24-.12l.04.2zm1.52-.16l-.08-.2c0-.56-.16-.56-.16 0s-.04.56-.12.16c.04-.36-.04-.4-.16-.4s-.08 0-.08-.2-.04-.36-.12-.4c-.08-.04-.08 0-.12.16.04.2-.12.2-.12-.2-.04-.2-.04-.2-.12.16-.08.36-.24.32-.24-.08l-.16-.04c-.08 0-.12.16-.16.36-.08.36-.08.36-.12.16-.04-.12 0-.28 0-.4.04-.16-.04-.2-.12-.24-.08-.04-.24-.08-.28.08-.04.16 0 0 .08-.16-.08-.04 0-.2-.08-.04 0 0-.08-.04-.16-.28-.08-.24-.44 0-.4.44l-.08-.04c-.08-.04-.16.12-.16.12-.08.16-.16.12-.24.08l.16-.32c.32-.44.28-.68-.04-.24l.08-.16c.08-.16.04-.2-.2-.12-.08-.04-.36.24-.44.4-.08.16-.16.12-.16.12-.08-.04-.08-.04.04-.2.2-.32.08-.4-.2-.16l.12-.16c.12-.16.16-.36-.28-.48-.24-.24-.4-.4-.28-.52s-.36-.08-.76.04c.12-.12.08-.2-.04-.32-.16-.16-.16-.16-.04-.32.32-.2.32-.2-.04-.08-.32.2-.36-.12-.08-.36.16-.12.08-.2 0-.32-.2.08-.32-.04-.4-.16-.08-.12-.16-.16-.44.08s-.32.2-.44.08c-.12-.12-.12-.12.04-.24 0 0 .08-.2.04-.24-.04-.04-.12-.12.04-.24.04-.08.04-.2-.04-.32-.12-.12-.24-.24-.08-.36-.04-.04-.04-.04-.2.08s-.32.2-.4-.12c-.12-.12-.32-.28-.4-.12-.04-.04-.04-.04.04-.2.24-.28.08-.4-.24-.2-.12.16-.16.12-.12-.08 0 0-.08-.04-.24.08-.16.12-.16.12-.2-.12.08-.16.04-.2-.04-.24-.2.04-1-.24-1-.48-.12.16-.12.16-.2.12.04-.4-.12-.2-.2.16h.16c-.12.36-.32.32-.16-.24 0-.4 0-.4-.16-.04-.16.36-.2.32-.24-.04.08-.36.04-.36-.08 0-.28.72-.48.88-.4.16.04-.36-.04-.56-.12-.56-.08 0-.08.2-.12.36.04.4 0 .36-.16 0-.2-.6-.4-.6-.64-.2-.28.4-.52.4-.32 0 .12-.4.12-.4 0-.2-.12 0-.28 0-.4.04-.08 0-.12.2-.08.4-.16-.36-.36-.48-.44-.12l-.16.04c-.08 0-.08 0-.08.2s-.16.04-.28-.08c-.12-.12-.28-.28-.2-.12.04.2.04.4 0 .6 0 .2-.16.04-.16-.16-.08-.16-.08-.2-.32-.28-.08.04-.2.12-.12.28.08.16-.32.4-.48.28l-.12.08c-.08.04 0 .24-.08.28-.08.04-.08.04 0 .24-.04.04-.12.08-.24-.04.2.32.2.32-.12.12s-.24-.28-.04.04c.08.2.08.2-.12.12-.2-.08-.2-.08-.04.04.2.32.16.6-.12.36 0 0-.04.04 0 .24.2.32.2.32-.04.04-.24-.28-.4-.16-.16.16 0 0 .08.2-.12.12-.2-.08-.72.2-.4.4l-.12.12c-.24 0-.32.04-.2.24l.08.2c-.16-.12-.32-.2-.4-.12-.08.08-.04.08.08.2.12.12.12.12.08.2-.04.08-.24 0-.4-.12l-.04.08c.28.24.2.32.08.2-.12-.12-.24 0-.32.04.12.12-.04.04 0 0l-.12-.12c-.2-.08-.04.08.08.2l-.12.12c-.04.08-.12.12.08.2.2.08.28.28.2.32.12.12-.04.08 0 0-.12-.12-.28-.28-.32-.2-.04.08-.2-.08-.2-.08-.2-.32-.32.04-.24.24.12.4.04.44-.2.16-.24-.28-.12.12.16.6l.28.48-.36-.44c-.56-.52-.52-.52-.52-.08-.04.24-.04.24-.16.08-.12-.16-.16-.08-.4.04-.24.12-.28.16-.2.32l-.16.08c-.24-.28-.32-.04-.08.24-.04.04-.12.04-.16.08l-.08-.16c-.08-.16-.24-.12-.88.12-.72.16-.8.16-.76.56-.04.4-.12.4-.16.04-.04-.2-.12-.36-.12-.16-.12 0-.24-.08-.28-.16-.28-.36-.32-.16-.32 0 .12.36 0 .2-.08 0s-.16-.36-.16-.16c-.08.2-.6.32-.56-.04h-.16c0 .2-.2.16-.36.16-.16 0-.24-.04-.2-.24.12-.16.04-.2-.16-.04-.08 0-.24.32-.32.32-.04.2-.2.32-.28.32l.04-.16.12-.36c-.08-.04-.16-.04-.2.12-.04-.2-.08-.24-.24-.32-.16-.08-.32-.12-.44 0 .04-.2-.08-.4-.24-.44-.12-.04-.24 0-.36.08-.08.16-.16.12-.16-.08s.04-.2-.16-.08c-.2.12-.12-.12-.08-.32.16-.36.08-.4-.08-.32-.16.04-.32 0-.44-.12-.24.04-.32-.04-.36.16-.08.08-.2.16-.32.24-.24.04-.12-.12-.04-.08.24 0 .2-.08.24-.28.04-.12 0-.28-.12-.36-.08-.04-.16-.16-.24-.24-.04-.32-.08-.36-.24-.24l-.12.12c.2-.32-.36-.96-.72-.8l.16-.12c.16-.12.08-.2 0-.32s-.4-.16-.56-.36c-.16-.2-.4-.4-.52-.28-.04-.04-.04-.04.08-.2s.12-.12.08-.2c-.04-.08-.2.08-.32.2-.12.12-.2.08-.16-.16 0-.24-.16-.4-.4-.4h-.04c-.04-.04-.12-.08 0-.24.12-.16.04-.44-.32-.24-.08-.04-.08-.04.04-.2s.12-.36-.12-.08c-.2.08-.4 0-.48-.2 0-.04 0-.04-.04-.08-.08-.04-.16-.08-.24.08l-.08.16c.08-.36.08-.36-.16-.08-.08.16-.16.16-.08-.04 0-.2-.08-.24-.08-.24-.08-.04-.48 0-.84-.08-.2-.08-.4-.12-.64-.08-.12 0-.2.04-.2.16-.08.2-.08.2-.16 0s-.16-.2-.2-.2c-.04 0-.16 0-.16-.2-.08.2-.08.2-.16.2 0-.2-.08-.2-.16 0-.04.4-.04.4-.08 0 0-.2-.24-.36-.16-.16 0 .2-.16.2-.2.4-.08 0-.16 0-.16-.2-.12-.2-.44.08-.48.28.04.2-.04.2-.08 0s-.12-.16-.2-.16c-.04.2-.08 0-.12-.16.04-.2-.04-.2-.2-.12 0 .2-.32.32-.52.4-.36.16-.32.4-.28.76l.12.36-.2-.32c-.12-.16-.24-.32-.36-.44-.08.04.04.2.12.36.08.16.04.2-.2.12-.24-.08-.28 0-.24.2-.08.04-.12.08-.32 0-.04.04-.04.04.04.2s.08.2-.12.12c-.32-.24-.48-.08-.36.08s.08.2 0 .24c-.08.04-.12.08-.04.28l-.12.12c-.04.04-.12-.12-.08-.2l-.2-.08c-.12.12-.16.16-.08.36.2.32.2.32-.04.04-.12-.12-.32-.2-.24 0 .2.32.04.24-.12.12-.2-.32-.2-.32-.16.16-.12.12-.2.48-.36.64-.16.16-.32.36-.52.28-.28-.24-.32-.2-.12-.12.28.24.2.32.04.48-.32.04-.28.28-.2.48-.08.04.08.2 0 0 .08-.04.12-.12.12-.12.28.28.2.32-.04.32-.08.04-.2-.08-.32-.2-.12-.12-.32-.24-.36-.16-.04.08-.12.12.08.2.12.12.12.12.08.2-.04.08-.12.12-.08.32.12.16.04.2 0 .24-.12-.04-.24-.04-.32 0l-.12-.16c-.08-.08-.16-.2-.28-.24-.08.04.04.2.04.2s-.04.16-.2.28c-.2.16-.4.28-.6.4-.36.2-.76.36-1.16.44-.2-.16-.44-.08-.32.08.04.2-.4.28-.92.28-.6.08-1.04-.04-1.04.16h-.28c-.16 0-.4.16-.48.12-.12.16-.2.12-.08 0 .04-.2.08-.36 0-.4-.16-.04-.2.12-.24.32-.04.2-.12.16-.12.16-.08-.04-.08-.04-.04-.2l.08-.36-.08-.04c-.04.16-.12.16-.12.16-.08-.04-.08-.04 0-.4.08-.36.04-.36-.16-.04l-.2.12c.04-.4-.24-.08-.4.04.08-.4 0-.4-.24-.12-.08.16-.16.12-.16-.08s-.04-.24-.2-.36c-.08.04-.28 0-.48-.12-.24-.16-.52-.36-.72-.56-.56-.52-.88-.88-1.04-.76-.04-.08-.04-.08 0-.24.04-.16.08-.2-.24 0-.2.08-.32.2-.04-.08.12-.12.04-.24-.2-.48-.24-.24-.36-.44-.52-.32-.24 0-.24 0-.04-.08.32-.2.2-.64-.24-.52-.04-.04-.12-.12.04-.24-.04-.04-.12-.12-.4-.16-.04-.08-.28-.28-.4-.36-.12-.08-.24-.08-.36-.08-.04-.04-.12-.08-.04-.04.12-.12-.16-.4-.6-.68-.44-.28-.84-.44-.84-.64 0 0-.08-.04-.2.12-.2.32-.24.28-.24.12.04-.36-.28-.44-.4-.12l.04-.2c0-.4-.28-.28-.4.08-.04-.2-.08-.4-.2-.2-.08 0-.08 0-.04-.36 0-.2.04-.36-.04-.4-.08-.04-.08.2-.12.36h-.16s-.08 0-.08.2-.08.16-.16.16c0-.2-.08 0 0 .2 0 .2 0 .36-.08.36v.36c-.04.24 0 .52.12.76.2.2.36.4.4.04 0 0 .08-.2.12-.16.04.04.08.2.08.2-.04.2.16.24.4.28.24.04.4.16.36.36-.04.2 0 .2 0 .2.08-.16.32-.04.6.16.28.2.6.52.72.4l.08.08c-.12.12-.04.2.04.32.12-.04.24 0 .32.08-.12.12-.08.16 0 .28.08.12.16.16.28.04.2.24.36.52.44.8-.08.2.12.12.32.08.2-.04.32-.2.4-.12l-.28.24c-.2.08-.2.08-.08.2l.12.12c.16-.12.44.2.92.68.64.64.96.8 1.04.68.08-.12.2-.08.32.24.24.84.28.84.48.72-.12-.04 0-.24.08-.4.2-.32.28-.28.2.12-.24.36 1.52.92 1.72.52l-.04.16c-.04.16.04.2.52.32l.32.08c.08-.36.68-.12.64.08.08.2.08.2.32.2.16-.16.36-.2.56-.16.16 0 .32.08.32.2h.24c.08-.16.24-.24.44-.2.32-.04.44-.04.32-.2-.04-.2-.04-.36.04-.4l.04.2c.04.2.36.12.8.04.56-.12.76-.24.92-.08l.04-.2c.04-.2.16-.24.2-.08.2.12.6-.04.72-.32l.2-.12c.28.28.6.08.48-.28.12.16.2.08.28.04.08-.28.4-.52.52-.4l.08-.08c-.04-.12 0-.28.12-.32.12-.08.16-.2.08-.32-.04-.2 0-.28 0-.28.08-.08.12.12.2.32-.04.28.2.08.16-.4-.04-.48-.08-.44.08-.08.08.2.12.4.12.12.08-.08.08-.2 0-.24l.2-.2c.28 0 .32-.08.4-.12-.08-.2-.08-.2.12-.12.12.12.2.08-.08-.2-.08-.2-.04-.24.16-.2.28.24.32.2.2.08-.08-.2-.04-.24-.04-.24.08.08.24-.04.44-.2l.32-.32.32-.32c.04-.04-.04-.24-.16-.36-.28-.28-.12-.12.04-.04.44.36.52.28.08-.08-.32-.24-.32-.24.04-.04.16.08.16.08.08-.08s-.08-.16.04-.04.36.2.2.04c0 0 .04-.04.2.08s.08-.08 0-.24c-.08-.4-.04-.44.12-.08s.28 0 .12-.32c-.16-.32-.16-.32-.04-.2s.16.12.16.12.08-.04.2.12c0 0 .04-.04.04-.24-.08-.4.16-.28.36.04l.04-.2c-.08-.36-.08-.56.04-.2.08.16.12.36.08.16-.04-.2 0-.24.08-.24.12.08.2.2.2.36.04.16.04.16.08.16l-.04-.2c-.04-.2-.08-.36-.04-.36s.12 0 .16.16c.04.16.16.36.12.16 0 0 .04 0 .12.16h.2c.04-.2.16-.2.16 0 0 0 .08 0 .16-.2.12 0 .16 0 .16.16s0 .2.04 0 .04-.2.12-.16h.12c0-.2 0-.2.08-.2s.2.2.24.2c.16 0 .16 0 .12-.2-.04 0-.04-.2.04 0 .04 0 .16.24.28.28.12.04.2.04.24-.12.04-.36.12-.36.04 0-.08.36 0 .4.08.24.08-.16.12-.16.16-.12-.08.16-.04.2.12.04.04 0 .04 0-.04.2.04 0 .04.04.08.04.24-.28.44.04.36.24 0 0 .04.04.2-.08.24-.28.32-.24.08.08s-.24.32.04.04c.16-.12.4.08.08.32-.12.12-.24.28-.24.28.16-.08.2-.08.2-.08.12-.12.16-.08.32.04s.4.12.48.24c.08.12.24.24.16.44.04.08.08.12.36.12.2-.08.28.04.16.16l.04.08c.24 0 .28.04.28.04-.16.12-.24.32-.04.24.16-.12.2-.08.32.08 0 .12.44.72 1.04 1.32.16.16.32.28.44.4s.32.24.48.32c.28.2.48.28.52.24l.28.16.28.16c-.08.16 0 .28.2.36.2.04.4.08.6.04.12-.08.24-.12.36-.04-.12.36.2.48.48.36.2-.32.32-.32.2.04s.16.4.48-.08c.16-.16.12-.16.2.04.04.4.16.4.2.24.16-.36.24-.36.32.04.16.4.2.4.32.04.12-.36.52-.32.64.04.12 0 .2.16.2 0l.12.16h.2v-.2c.52.08 1.04.08 1.56-.04.4-.08.8-.2 1.16-.36.2-.08.2-.16.08-.2-.24-.32-.04-.4.2-.08.12-.04.4.04.6-.08.2-.12.4-.24.48-.08l.08-.08c.08-.44.44-.8.88-.84.16-.12.28-.28.24-.48.04-.28 0-.28.2-.2.08.08.24.04.36-.04s.2-.2.04-.36l.2.08c.2.08.12-.12 0-.28-.28-.28-.2-.32.28 0 .28.28.32.2.2.08-.08-.2-.16-.4.04-.32.04-.08.12-.12-.16-.36-.16-.12-.08-.2-.04-.24.12.08.2.2.2.32l.12-.12c.16-.08.32-.04.44.08.2.08.24 0-.08-.16-.28-.24-.28-.24-.16-.36.12-.12.12-.12.24 0s.12.12.24 0c.16-.16-.12-.68-.32-1-.2-.32-.28-.28.04-.04.12.12.2.08.24.04-.12-.12.04-.04 0 0 .12.12.08.16.04.24l.12.12c.32.2.36.16.16-.16-.08-.16-.08-.2.08-.08.16.12.36.2.24.04 0 0 .08-.08.28 0 .08-.08.12-.12 0-.28-.12-.16-.08-.2-.04-.24.04-.04.08-.08-.04-.2-.12-.12-.2-.32-.08-.4 0-.24 0-.24.24.04.12.16.16.12.2.08.04-.04.04-.04.2.12.16.12.04-.04-.04-.2l-.2-.32c.04-.04.28.28.4.44.24.32.24.32.04-.04-.08-.16-.12-.36.04-.24.08-.04.2-.08.28.08.08.16.08-.04.08-.04-.04-.2.04-.2.24-.08.36.32.32.32.24-.04-.04-.2-.08-.36.04 0 .08.16.08 0 .16-.24 0-.24 0-.52-.08-.76-.04-.36-.04-.4.08-.2.08 0 .16.2.16.36 0 .16-.04.2-.04.2h-.04c.04.2.04.36.16.36.08.2.12.2.12 0 .04.12.16.2.28.16.12-.04.28.04.32.16.12 0 .16 0 .16-.16.04-.36.08-.36.08-.2 0 .16.2.32.36.4.12.08.24.08.36 0 .04-.04.04-.04.04-.08h.08c.04.24.24.32.4.16.04 0 .08.04.12.08 0 .24.04.24.16.12s.24-.28.12-.12c-.08.16 0 .2.16.32s.16.12.24-.04c.28 0 .2.12.04.28-.28.24-.2.32.2-.08.28-.24.4-.16.28 0s-.16.08-.2.04l-.24.28c.04.04.04.04.2-.04 0 0 .04.04.2-.04s.32-.24.4-.4c.08-.2.12-.12.2-.08-.04.2-.16.36-.36.44-.04-.04-.16.08-.32.24-.08.08 0 .08.16.08.2 0 .36-.08.52-.16l-.12.12c-.12.12-.04.24.04.32.08.08.16.16.28.04.12-.12.28-.24.32-.2-.04-.04.08-.2.24-.32-.04.16-.08.28-.12.44-.16.36-.2.6 0 .84.12.12.28.32.2.52.12.12.16.2.32.08l.12.12c-.08.2.04.32.2.2.2-.08.12.12.2.2-.16.4-.16.4.2-.08.12-.12.16-.32.08-.48l-.2-.2.32.08c.16.08.32.04.44-.08 0 0 .12-.12.2-.08l-.28.28c-.16.08-.32.2-.44.32-.2.32-.12.68.16.4.08.08.08.08 0 .28-.12.12-.04.2.28 0s.4-.16.2.2c-.08.4.28.68.36.52.24-.32.44-.12.44.08s.08.28.28.16c-.08.16-.08.36.08.28 0 0 .08.08.08-.16l.36-.2c-.08-.04 0-.2.08-.4s.32.2.28.8l.04.44c.08-.16.16-.36.16-.36.08.04.2.08.12.24-.08.16-.08.16.04.2 0 0 .12.04.16-.12.12-.36.12-.36.16-.12 0 .4.08.44.32.08.12-.36.12-.36.12.04-.04.16 0 .4.12.4l.04-.2c.08-.36.2-.32.24-.12-.04.16.08.2.32.08.2.04.32.04.28.24-.04.36-.04.36.12 0 .12-.16.12-.16.32.04.08.2.08.2.2 0 .04-.36.04-.56-.04-.56s-.08 0-.08-.2h.2c.16 0 .32-.04.4-.16.36.04.36-.32.16-.16z"/>
    <path fill="#1E31D7" d="M143 32.24c-.04 0-.08 0-.08-.04-.04-.04-.04-.08-.04-.12-.08-.04-.12-.04-.2-.04-.16-.04-.32 0-.44.12-.04.04-.08.04-.12.04-.28-.04-.32-.04-.44-.32v-.08c-.08-.08-.2-.12-.32-.08-.04 0-.04.04-.04.04 0 .04-.04.08-.08.08h-.12l-.32-.08c-.36-.08-.52-.12-.6-.28 0-.04-.04-.08-.04-.12H140c-.48 0-1.32-.28-1.48-.56 0-.04-.04-.04-.04-.08.04.04.04.08.04.08 0 .04-.04.12-.08.12-.08.08-.2.08-.28.04-.16-.04-.2-.24-.4-.88-.04-.08-.08-.16-.08-.2-.04.04-.12.08-.16.08-.16 0-.44-.12-1.08-.76l-.24-.24c-.16-.16-.32-.32-.48-.44-.04.04-.12.04-.16 0l-.12-.12c-.08-.04-.12-.12-.12-.2-.08.04-.16 0-.24-.08-.04-.08-.08-.16-.04-.24-.04-.2-.16-.4-.32-.56h-.12c-.08 0-.2-.08-.24-.16-.08-.08-.16-.2-.12-.32h-.08c-.04 0-.12 0-.12-.04-.08-.08-.16-.2-.16-.32-.2-.08-.36-.16-.52-.32l-.16-.12c-.08-.08-.32-.24-.4-.2-.04.08-.12.08-.16.08-.16-.04-.12-.28-.08-.36.04-.08 0-.08-.28-.16-.2 0-.36-.12-.48-.24-.04.08-.08.12-.12.12-.16.04-.24-.08-.4-.2l-.08-.08-.04-.04c-.12-.28-.16-.56-.12-.84v-.36c0-.04 0-.08.04-.12v-.2c0-.04-.04-.32.04-.4.04-.04.08-.04.12-.04 0-.08.04-.16.08-.24.04-.04.08-.04.16-.04 0-.12.04-.24.12-.32.04-.04.08-.04.16-.04.04 0 .12.04.12.08.08.08.08.28.04.48v.16c.04 0 .08.04.12.08.08-.08.16-.16.28-.12.12 0 .2.08.2.2h.16c.12.04.24.16.24.28.2-.24.36-.2.4-.16.04.04.08.08.08.12 0 .04.24.2.4.28.16.08.24.16.4.24.64.4.68.64.68.68.12 0 .24.04.32.12l.16.16.2.2c.16 0 .32.08.44.2.04.04.04.12 0 .2.16 0 .32.12.4.28.04.12.04.24-.04.32.16.08.28.2.4.36.12.12.2.24.28.4.12-.04.2-.04.28.04.08.08.08.16-.04.28.24.12.48.32.68.52l.32.28c.24.2.48.36.72.52.08.08.2.12.32.12.04-.04.12-.04.16 0 .16.04.24.2.28.36.12-.12.2-.16.32-.12l.12.12c.08-.08.2-.08.28-.04.04 0 .08.04.08.08.08-.16.2-.32.36-.24.16.08.08.28.04.44v.04l.08.04c.04 0 .08.04.08.08v.04c.08-.04.16-.04.24-.04.16.04.2.2.16.4h.04c.12-.08.24-.08.36-.08h.16c.12-.12.36-.12.6-.12.16 0 .36 0 .52-.04.24 0 .52-.04.76-.12-.04-.08-.04-.2.04-.24.16-.12.36-.12.48 0 .36-.12.72-.24 1.04-.4.24-.16.44-.28.6-.4l.12-.12c-.08-.16-.08-.28.04-.36.04-.04.12-.04.16 0 .12.08.24.16.32.28l.04.04h.16c-.04-.12-.04-.28.08-.4-.08-.04-.16-.12-.2-.2 0-.08.04-.16.12-.24.16-.12.4 0 .56.12 0-.08 0-.2.04-.28.08-.08.16-.16.28-.16l.08-.08-.08-.08-.08-.04c-.08-.04-.16-.08-.16-.16s.04-.12.08-.16c.04 0 .08-.04.24.04 0 0 .04 0 .04.04l.08.08.04.04c.08 0 .12-.04.32-.24.08-.12.16-.24.2-.36l.12-.24c-.04-.36-.04-.44.08-.48.12-.04.12 0 .2.08 0-.04.04-.04.04-.04.08-.04.16-.04.2 0 .04-.12.08-.2.16-.24.04-.04.08-.04.16-.04l.16.04c.04-.08.08-.12.12-.16v-.04c-.12-.08-.12-.24 0-.36.08-.08.24-.12.36-.08v-.04c0-.08.04-.12.08-.16.04-.04.12-.04.16 0l.08.04c0-.08.04-.12.08-.16.08-.08.2-.08.32-.04-.08-.08-.12-.2-.08-.32 0-.04.04-.08.08-.12.08-.04.12-.04.2.04l.08.12c0-.24.16-.48.4-.56.16-.08.44-.16.44-.28 0-.04.04-.12.12-.12.12-.04.24-.04.32 0 .08.08.08.16.08.24.08 0 .12 0 .2.04.08-.12.2-.2.36-.24.12-.04.24.04.32.12l.04-.04c.04-.04.04-.04.04-.08-.04-.08-.04-.2.04-.24.04-.04.12-.04.16 0 .08.04.12.08.16.16.04-.04.08-.04.16-.04h.04v-.04c0-.08.08-.16.16-.16s.16.08.16.16v.2c.12 0 .24.04.28.16.08-.08.16-.08.24-.08.24 0 .48.04.68.12.2.04.36.04.56.04.12 0 .2 0 .32.04l.12.12c.08-.08.12-.12.2-.08h.04c.08-.04.16 0 .24.04.04.04.08.04.08.08 0 .08.04.12.08.16h.16c.12-.12.2-.2.32-.12.12.08.08.2.04.28v.04c.04 0 .12 0 .16.04.12.12.16.32.08.48v.04c.12 0 .2.04.28.12.12.12.2.24.2.4.12-.12.2-.2.32-.2.04 0 .08.04.16.08s.12.16.08.24c0 .04-.04.08-.08.12.12.08.24.2.32.32l.36.24c.08.04.16.08.2.12.12.08.16.24.12.4.12.04.24.12.32.24.12.12.16.24.24.36h.16c.12.04.16.2.2.36.04.08.12.12.16.16.08.08.16.2.2.32.04 0 .12-.04.16-.04h.12c.04 0 .08 0 .12.04.08.08.16.08.28.08.08-.08.2-.08.32 0 .12.12.04.32-.04.52v.04c.08-.04.2-.04.24.04.04.04.04.08.04.12.16-.08.32-.08.44 0s.2.2.24.32c.12 0 .28 0 .4.08.08.04.16.08.24.16.08-.04.12-.04.2 0 .04 0 .08.04.08.08v.08-.04c.08-.08.12-.16.2-.2.08-.04.24-.16.36-.04s.04.24 0 .28h.28c0-.08.08-.16.16-.16h.16c.08 0 .16.08.12.16 0 .08 0 .08.04.08.08 0 .16 0 .24-.08 0-.12.04-.16.12-.2.08-.04.16 0 .2.08l.08-.08c.16-.08.32.08.44.24 0 .04.04.04.04.08.04 0 .04-.04.08-.04s.12 0 .16.08c.08-.2.32-.28.84-.36h.04c.24-.12.56-.2.84-.24 0-.04.04-.12.08-.16.08-.08.2-.08.28 0v-.04c.04-.12.16-.2.32-.28h.04c.12-.08.28-.16.4-.12 0-.2 0-.28.12-.36.08-.04.16 0 .2.04-.12-.28-.04-.32 0-.36.08-.04.16-.04.24.04-.04-.16 0-.36.16-.48.08-.04.2 0 .28.08 0-.04.04-.12.08-.12-.08-.12-.16-.2-.08-.28.08-.08.2-.08.28-.04 0 0 .04 0 .04.04l.04.04c.04 0 .04-.04.08-.04 0-.04 0-.08.04-.12l.04-.04c.04-.04.08-.08.16-.04v-.04c0-.08.04-.12.08-.16.08-.04.16-.08.24-.08 0-.04 0-.12.04-.16.04-.08.16-.12.24-.12-.04-.08-.04-.12 0-.2.12-.2.32-.32.56-.32-.08-.12-.12-.24 0-.36.08-.08.16-.08.24-.04 0-.04.04-.12.08-.16.04-.04.08-.04.16-.04 0-.04-.04-.08-.08-.12-.08-.08-.08-.16-.08-.24 0-.04.08-.08.12-.12h.04c-.08-.12-.08-.2 0-.24.08-.04.12-.04.2 0 .04-.04.16-.04.2 0l.04.08c0-.04.04-.12.08-.12v-.04c0-.08.04-.2.12-.28l.12-.08c.04-.04.12-.04.16 0h.12c.04 0 .12-.04.16-.08-.04-.08-.04-.16-.04-.2.04-.12.12-.2.24-.24.04-.04.08-.04.12 0 .12.04.2.08.28.16v-.16c-.04-.16 0-.24.04-.24.12-.08.24.04.4.2l.04.04c0-.12.08-.2.2-.2h.08c.04-.2.16-.24.24-.28.08 0 .16 0 .2.08.04-.08.08-.12.16-.12.08-.04.16-.04.28-.04h.08c.08-.12.16-.16.24-.12.08.04.08.12.04.36.08-.12.2-.36.44-.32.16 0 .28.16.36.32 0-.08.04-.12.08-.16.04-.04.08-.04.16-.04.04 0 .12.04.16.08.12.2.12.44.08.64v.08c.04-.08.08-.16.12-.28.12-.32.16-.4.28-.36.12.04.12.08.12.2.08-.12.12-.16.2-.12.08 0 .12.08.12.12h.08c.04 0 .08.04.12.08.04-.04.12-.08.16-.08.08 0 .12.08.12.12v.08c.24.2.52.28.8.32h.12c.12.04.2.2.16.32.2-.12.28-.04.32-.04l.04.04c.28-.12.4-.08.44 0 .04.08.08.2-.04.4.12.04.2.12.28.2 0 0 .04.04.04.08.04.12.08.16.08.16.04 0 .08-.04.08-.08.12-.12.24-.24.4-.08.04.04.04.08.04.12 0 .04 0 .08-.04.12 0 .04.04.12.08.12.12.12.16.28.08.44.12-.04.28-.04.36.04.08.08.12.16.16.24.08 0 .16.08.24.16.08.08.16.16.24.12.04-.04.12 0 .16.04.12.12.24.28 0 .52l-.12.12h.04c.32-.12.4-.12.44 0 .04.12 0 .16-.28.32l.08.08c.04.04.12.12.16.2.24-.04.56-.12.68.04.04.08.04.16-.04.24 0 .04.16.2.24.28.16.04.32.16.4.32v.16c.04 0 .04.04.08.04.04.04.08.08.08.16.08-.08.2-.16.32-.16.12-.04.28-.08.36.04.08 0 .2.08.2.16v.04c.04-.04.08-.04.16-.08.12-.04.28.04.32.2 0 .04 0 .04.04.08h.04c.08 0 .12.08.12.16.04 0 .12.04.16.04.08.04.16.08.2.16.04-.04.12-.08.2-.04l.16.04c.04 0 .08.04.08.04.04-.24.08-.28.2-.28.12 0 .16.08.16.16h.12c.08 0 .12.04.16.08.08.12.12.32.12.48v.04c.04 0 .04 0 .04.04.04-.16.12-.24.24-.24s.2.16.2.56v.04h.04c.08.04.12.08.16.16.04.2-.04.36-.2.52-.12.12-.28.2-.4.2.04.2.08.4.04.6 0 .04 0 .04-.04.08-.08.12-.16.2-.24.2-.08 0-.16-.08-.2-.2l-.04-.04c-.12.28-.16.36-.32.32-.16-.04-.12-.12-.08-.44v-.04h-.12c-.12.08-.28.08-.4.04-.04 0-.04-.04-.04-.04l-.04.12c0 .08-.08.12-.16.12-.08-.04-.16-.08-.2-.16-.04-.04-.04-.08-.04-.12-.04.08-.16.08-.24.08 0-.08-.04-.12-.12-.12-.04 0-.08.04-.12.08-.04.04-.12.04-.2 0-.08 0-.12-.08-.16-.16-.04.04-.08.04-.12.04-.04 0-.12-.04-.12-.12-.04.04-.08.04-.12 0l-.12-.04c-.08-.04-.12-.08-.16-.12-.04-.08 0-.16.08-.28.04-.08.12-.12.2-.08l.08.04v-.32.08c-.04.08-.12.08-.2.04l-.24.12c0 .12-.08.24-.2.24-.08.04-.2.04-.24-.04-.04-.04-.08-.12-.08-.2-.04 0-.04 0-.08-.04-.12-.08-.16-.2-.12-.32 0-.04 0-.08-.04-.08 0 0-.08 0-.12.08-.08.12-.2.12-.32.08-.24-.16-.4-.44-.32-.72l.04-.04c-.2.12-.4.24-.52.08-.04-.08-.04-.16 0-.24-.04 0-.12 0-.16-.04l-.08-.08c-.12.16-.16.16-.24.12-.08-.04-.08-.16 0-.4v-.04c-.08.04-.16.04-.24 0-.08-.08-.12-.2-.12-.28h-.08c-.12 0-.2-.08-.28-.2-.04-.04-.04-.12-.04-.16.04-.08-.08-.24-.16-.36-.2-.24-.24-.6-.08-.88l-.12.12c-.12.12-.28.16-.44.04l-.08-.08c-.08-.08-.12-.16-.16-.28l-.16.04c-.12 0-.28.04-.32-.08v-.04c-.08.08-.2.04-.28-.04-.04 0-.12 0-.16-.04-.08-.08-.04-.2.04-.32-.08-.04-.12-.08-.2-.12l-.08-.08-.08-.08c-.08.04-.16.08-.24.04-.08-.04-.12-.12-.12-.2-.08.04-.16.04-.24 0-.08-.04-.16-.08-.24-.16-.04.04-.08.04-.12.08-.12.04-.24 0-.36-.08l-.04-.04c-.08-.04-.12-.08-.2-.16 0 .04-.04.04-.04.08-.08.04-.16.08-.24.04-.08 0-.12-.04-.12-.12 0-.04-.04-.08-.16-.08-.08 0-.2 0-.28-.04h-.16c-.04 0-.12 0-.16-.04v.16c0 .08-.04.12-.12.16-.04 0-.12 0-.16-.08.04.08 0 .16-.08.2-.12.08-.2 0-.4-.16l-.04-.04c0 .08-.04.16-.12.16-.08.04-.16 0-.24-.12 0-.04-.04-.04-.04-.08h-.04v-.04l.04.08c.12.24.16.32.04.4-.12.08-.16.04-.24-.08-.12.08-.2-.04-.24-.08l-.08-.08h-.04c0 .04-.04.04-.04.04l-.04.04c-.04 0-.04.04-.08.04.04.04.04.12.04.16 0 .04-.04.12-.08.12v.04c.2.24.04.4-.04.48-.04.04-.12.04-.16 0-.04.08-.12.08-.24.04.04.08.04.16-.04.24-.12.12-.24.04-.4-.04.12.2.12.4 0 .6-.2.2-.28.16-.44 0l-.04-.04.16.16c.16.08.36.2.28.36-.08.16-.16.12-.32.08 0 0-.04 0-.04-.04-.08-.04-.16-.08-.24-.04l-.08.08c.04.04.04.08.04.12 0 .08-.04.16-.08.2l-.04.04.04.08v.04c.08.04.08.12.08.24 0 .04-.04.12-.12.12-.04 0-.12 0-.28-.12 0 .04 0 .08-.04.12-.04.08-.12.12-.24.08-.04.08-.08.2-.16.24-.16.12-.36.16-.52.08v.08c0 .24-.12.44-.32.6-.04 0-.04.04-.08.04-.36.04-.68.32-.76.72 0 .04-.04.08-.08.12l-.08.04c-.08.04-.16.04-.2-.04-.04 0-.2.08-.28.12-.16.08-.32.12-.48.08h-.16v.04c0 .12-.12.2-.24.24l-.04.04c-.36.16-.76.32-1.16.36-.48.12-.96.12-1.44.04 0 .04 0 .08-.04.12-.04.04-.08.04-.12.04h-.2c-.04 0-.12-.04-.12-.08v-.04c-.04 0-.12-.04-.16-.04l-.04-.04c-.08 0-.12-.04-.12-.12-.04-.12-.12-.2-.2-.2-.08 0-.12.04-.16.16-.08.24-.12.36-.28.36-.16 0-.2-.12-.32-.4v-.08.04c-.04.2-.16.24-.2.24-.16 0-.24-.2-.24-.4-.28.4-.48.4-.56.32-.12-.08-.16-.2-.16-.32-.16.08-.4.08-.56-.04-.08-.08-.16-.2-.12-.32-.04 0-.08.04-.12.04-.04 0-.04.04-.08.04-.24.04-.48 0-.68-.04-.12-.04-.24-.12-.32-.28v-.16l-.4-.24c-.2-.04-.4-.12-.56-.28-.12-.08-.28-.2-.48-.32-.2-.12-.24-.24-.4-.32l-.08-.08c-.44-.4-.8-.84-1.08-1.36l-.04-.04-.04.04-.04.04c-.2.04-.24-.04-.28-.08-.04-.08-.04-.16 0-.24h-.04c-.04 0-.08 0-.12-.04l-.04-.08c-.04-.04-.04-.08-.04-.12-.28 0-.4-.08-.44-.16-.04-.04-.04-.12 0-.16.04-.08 0-.16-.12-.28l-.24-.12-.24-.12-.08-.08v.04c-.04.04-.08.04-.12.04h-.04c-.04 0-.04.04-.08.04-.08.04-.16.04-.2-.04-.04-.04-.04-.12 0-.2l.2-.24c-.12.12-.2.12-.28.08-.04-.04-.08-.12-.04-.16-.04 0-.04 0-.08-.04s-.08-.12-.04-.16v-.08c0-.04-.04-.04-.04-.04s-.04 0-.08.08c-.04.04-.16.04-.2 0l-.04-.04c-.04 0-.08-.04-.08-.08-.04.08-.12.12-.2.08-.08-.04-.12-.08-.12-.2-.04 0-.12 0-.16-.04-.08-.04-.16-.08-.2-.16-.08.04-.16.08-.24.04-.08 0-.12-.04-.16-.12 0 0 0 .04-.04.04-.04.04-.08.04-.12.04h-.12v.04c-.04.16-.08.28-.2.24-.12-.04-.12-.08-.12-.2-.04.04-.08.08-.16.08h-.32c-.08.04-.16 0-.2-.08h-.04c0 .04 0 .04-.04.08s-.08.08-.12.08c-.16.04-.2-.08-.24-.28 0 .04-.04.04-.08.04h-.04v.08c0 .08-.04.12-.12.12-.08 0-.12 0-.16-.08-.04-.04-.04-.08-.08-.12 0 .2-.04.32-.12.36h-.12c.04.16 0 .32-.12.4H152c.04.08 0 .16-.04.2-.08.04-.2.04-.28 0-.04.04-.12.04-.2 0 .12.12.16.24.08.32-.04.08-.16.08-.2.04 0 .04 0 .12-.04.16l-.32.32-.32.32c-.12.12-.24.2-.36.24.08.04.08.12.08.24 0 .04-.04.08-.12.12-.08 0-.12 0-.2-.04.04.04.08.12.04.16-.04.08-.12.16-.2.12h-.04s0 .04-.04.04c-.12.12-.28.2-.44.16l-.08.08v.12c0 .08 0 .12-.04.2 0 .08-.04.2-.16.24h-.08c0 .12-.08.24-.16.32-.08.04-.12.04-.2 0-.04.04-.08.12-.12.16-.04.04-.08.08-.08.2 0 .04 0 .12-.04.12l-.08.08c-.08.04-.16.04-.2-.04-.12.08-.24.2-.28.32 0 .04-.04.08-.04.08-.04.04-.12.08-.2.08-.04.12-.08.2-.16.28-.16.08-.36.08-.48-.04l-.08.04c-.08.2-.28.32-.48.4-.16.04-.28.04-.44-.04l-.04.2c0 .04-.04.08-.08.12-.04 0-.12 0-.16-.04-.04-.04-.16-.04-.4.04-.12.04-.24.04-.4.08-.24.08-.48.12-.72.08v.12c-.04.12-.2.16-.48.16-.12 0-.24.04-.32.12-.04.04-.08.08-.12.08H143zm-.44-.52h.16c.16 0 .28.08.4.2h.04c.12-.12.32-.2.48-.2h.16v-.04c-.04-.24-.08-.52.16-.56.04 0 .08 0 .12.04.04.04.04.04.04.08l.04.2c.2 0 .4-.04.6-.08l.4-.08c.16-.04.32-.08.48-.08v-.04c.04-.24.16-.32.24-.32.12 0 .2.04.24.16h.16c.12-.04.24-.12.32-.28 0-.04.04-.08.08-.08l.2-.12c.04-.04.12-.04.2.04.08.08.16.08.2.08.04 0 .04-.08.04-.2l-.08-.08c0-.04-.04-.04-.04-.08s.04-.08.08-.12c.08-.04.16-.04.2.04l.08.12.04.04c.08-.24.24-.4.48-.48h.12c0-.12.08-.24.16-.32.04-.04.08-.08.04-.2-.08-.28.04-.4.08-.4.04-.04.12-.08.2-.04.04 0 .08.04.12.08-.08-.4-.08-.44.08-.48.16-.04.16 0 .2.16l.16-.16c.04-.04.08-.04.12-.04.08 0 .16 0 .2-.04-.04-.08-.04-.16.04-.2l.04-.04c-.04-.08-.04-.2.04-.32.08-.08.2-.08.32-.04 0-.04 0-.04.04-.08-.12-.12-.2-.2-.2-.28 0-.04.04-.08.04-.12.04-.04.12-.08.16-.04l.2.08c.04 0 .08.04.08.08l.04.12.12-.08c.08-.08.2-.16.28-.28l.32-.32c-.04-.08-.08-.12-.12-.2-.2-.2-.24-.24-.16-.36 0 0 0-.04.04-.04 0-.04 0-.08.04-.12.04-.08.12-.08.28-.04 0-.04.08-.08.12-.12.08 0 .16 0 .24.12l.04.04h.16c-.04-.24-.08-.44.08-.48.04-.04.12-.04.16 0-.12-.28-.12-.32 0-.36.12-.04.2.04.28.16l.04.04h.04c-.04-.16 0-.32.12-.36.08-.04.12-.04.2 0-.04-.2 0-.28.08-.32.08-.04.16.04.2.12h.16c.04-.04.08-.04.12-.08.2-.04.28.12.32.24l.04.08c.08.04.12.08.16.16.04-.08.12-.16.2-.16h.08c.04-.04.08-.08.12-.08.08 0 .12 0 .2.04.04 0 .08-.04.12-.04 0-.04.04-.08.08-.12.04-.04.08-.04.16-.04s.16.04.2.12c0-.08.04-.16.12-.16.08-.04.16.04.2.12l.08.08c.04.04.08.12.12.12h.04v-.04c.04-.28.08-.32.16-.36.04 0 .12 0 .16.04.04.04.08.12.04.36h.12c.04 0 .04.04.04.04h.08c.04 0 .08.04.12.12.08 0 .16 0 .24.04.08.04.12.12.16.2.12-.12.24-.24.4-.12.08.04.08.16.04.24.16.08.2.24.16.4 0 .04-.04.08-.08.08.08.04.12.08.16.12.04.04.08.04.16.08.12.04.24.12.36.2.12.12.2.28.2.48h.16c.12-.04.28 0 .36.08.04.04.04.08.04.12.08 0 .2.04.24.08.04.04.04.08.04.12.08.04.2.08.24.16.04.04.04.08.04.12.28.44.6.84 1 1.16l.08.08c.12.12.24.24.36.32.12.08.32.24.44.32.12.08.24.16.4.24h.12l.56.32c.08.04.08.12.04.2v.08-.04c.08-.2.24-.48.44-.36l.08.04c.04 0 .08.04.08.08v.12c-.04.12-.12.2-.2.28h.16c.16-.12.32-.12.48-.04.08.04.12.12.08.2 0 .04-.04.12 0 .16.08.04.16.04.2 0 .12-.16.24-.32.4-.24.16.08.12.32.08.48v.04c.08-.08.16-.16.2-.24.12-.12.16-.2.28-.16.12.04.16.12.2.24v.04c.08-.08.16-.16.24-.16.08 0 .2.24.24.4v.04-.04c.04-.2.24-.36.48-.36.2 0 .36.16.44.32l.04-.04c.08 0 .12 0 .16.04l.04.08c0-.08.04-.16.12-.16h.2c.44.08.88.08 1.32-.04.36-.08.76-.2 1.08-.36l.04-.04c-.2-.28-.12-.4-.04-.44.08-.04.24-.08.44.12h.12c.12 0 .24 0 .36-.04.16-.08.36-.2.56-.16.12-.44.48-.76.96-.84.12-.08.16-.2.16-.36 0-.2.04-.28.12-.36.08-.08.2-.04.28 0 .04 0 .04.04.08.04.08 0 .12-.04.16-.08.04 0 .04-.04.04-.08 0 0 0-.04-.04-.04-.04-.04-.04-.12-.04-.2.04-.04.08-.08.16-.08-.12-.12-.2-.24-.12-.36.08-.12.24-.08.52.12 0-.04 0-.12.04-.16 0 0 .04-.04.08-.04l-.12-.12c-.08-.08-.12-.16-.12-.24 0-.08.04-.16.12-.24.04-.04.16-.04.2 0l.16.16c.04-.04.08-.04.16-.04-.04-.04-.08-.12-.08-.2 0-.08.04-.16.12-.2.04-.04.2-.24.44 0l-.08.2c.04-.04-.04-.36-.32-.8-.2-.2-.28-.28-.2-.4.08-.12.16-.08.44.12.04-.04.08-.08.12-.08.08 0 .16.04.2.12v.04c.08-.08.2-.04.32.04l.04.04s.04 0 .04.04c.04-.04.12-.04.2-.04-.04-.08-.08-.16-.08-.24 0-.04.04-.12.08-.16v-.04c-.12-.12-.16-.28-.16-.44 0-.04.04-.08.04-.12 0-.12 0-.2.12-.24.12-.04.2.04.4.2l-.04-.08v-.12c0-.04.04-.08.08-.08h.04c-.04-.04-.08-.12-.12-.2-.04-.08 0-.16.04-.2l.04-.04c.04-.04.12-.04.16.04l.16.12c.04.04.04.08.04.12 0 .04-.04.08-.08.12l-.04.04c-.04 0-.04.04-.08.04.04.04.12.08.16.12.04-.04.12-.04.2 0 .08-.04.12-.04.2 0h.04c0-.04.04-.04.04-.08.12-.08.28 0 .36.08-.04-.16-.04-.24.08-.28.04-.04.12 0 .16.04 0-.2-.04-.44-.08-.64-.04-.32-.08-.4.04-.48.12-.08.2 0 .28.12.16.12.24.28.24.48.04.12 0 .2-.04.28l-.04.04c.04-.04.04-.04.08-.04.08 0 .16.04.16.12v.12c.04.08.04.08.12.04.12-.04.24 0 .36.08 0-.08.04-.16.04-.24-.08-.04-.04-.16 0-.44l.16-.4c.04-.04.08-.08.16-.08-.08-.08-.12-.2-.12-.4-.16.04-.24-.2-.32-.4-.12-.32-.2-.36-.2-.36s-.04 0-.16.2c-.16.24-.4.48-.6.36-.12-.08-.12-.2-.04-.44H176.08c-.04.08-.04.16 0 .24l.04.28v.04c0 .08-.04.12-.12.16-.08 0-.16-.04-.16-.12l-.04-.2v.04c-.04.08-.12.24-.24.24-.08 0-.16-.04-.16-.12v-.04l-.12.12c-.12.04-.24-.04-.36-.16v.32c0 .24-.16.24-.16.24-.16 0-.24-.16-.28-.36-.08 0-.12.04-.2.08l-.04.04c.08.12.04.28-.08.4s-.32.2-.52.16l-.04.04v.04c0 .08-.04.16-.08.24v.12c0 .04 0 .12-.04.16.08 0 .12.04.16.08l.04.04c.08.08.12.16.12.28 0 .04-.04.08-.08.12-.04.04-.2.16-.44-.08-.08-.08-.12-.16-.12-.24l-.04.04c-.04.04-.04.04-.08.04.04.16.04.32-.04.4-.04 0-.04.04-.08.04.12.2.16.28.04.36-.12.08-.16.04-.32-.08v.08c.08.04.16.08.16.16s-.04.16-.12.24c-.08.08-.24.08-.4-.08-.04-.04-.08-.12-.08-.16-.04 0-.12.04-.16.08h.04c.04.04.08.08.08.12 0 .04 0 .08-.04.12l-.12.12c-.04.04-.08.04-.12.04h-.08v.04l.08.2c.04.08 0 .12-.04.16-.04.04-.08.04-.12.04V27c.12.04.28.12.4.24.16.16.12.24.08.32-.12.16-.32.04-.52-.08-.12-.12-.2-.16-.2-.24h.12v.04c0 .04-.04.08-.12.12-.08 0-.16 0-.24-.08h-.04v.04c-.04.04-.08.08-.16.08H171l.04.04c.16.16.28.28.28.4.04.08.04.16 0 .2-.08.08-.2.08-.24 0-.04-.04-.04-.08-.04-.12l-.12-.12h-.08c-.12 0-.2-.04-.24-.12v.08c.08.2.12.44-.04.52-.04 0-.08.04-.12.04l.12.2.28.48c.04.08 0 .16-.04.2-.08.04-.16.04-.2-.04l-.4-.48-.2-.16v.08c0 .2-.04.32-.16.32s-.2-.08-.24-.16c0 0 0-.04-.04-.04 0 0-.04.04-.12.08l-.04.04c-.04.04-.12.08-.16.08v.16c0 .04-.04.08-.08.08l-.16.08h-.04v.04l.04.08v.08c0 .04-.04.12-.08.12-.04.04-.12.04-.16 0l-.04.04c-.08.04-.16 0-.2-.08l-.08-.16c-.24.04-.44.08-.64.2h-.08c-.64.16-.64.16-.6.36.04.2-.04.48-.2.48s-.24-.28-.24-.4V30h-.04v.12l-.08.2c-.04.04-.08.08-.12.08h-.08c-.08 0-.16-.04-.16-.12v-.2c-.12 0-.16-.12-.24-.28v-.2c-.12.12-.28.16-.44.12-.08 0-.16-.08-.24-.16-.12.08-.28.12-.4.08-.12 0-.2-.04-.28-.12.04.08 0 .24-.04.44-.04.08-.04.12-.04.2 0 .04-.04.08-.08.08h-.12c-.2-.04-.2-.2-.16-.36l-.04.04c-.04.04-.12.04-.2.04-.04 0-.08-.04-.08-.08v-.08h-.04c-.08 0-.12-.08-.12-.12v-.04l.08-.24c0-.08-.04-.08-.16-.16s-.2-.08-.28-.04l-.04.08c-.04.08-.12.12-.2.08-.04-.04-.08-.08-.08-.12v-.08l.04-.12c0-.08-.04-.2-.12-.24-.08-.04-.16 0-.24.04-.08.16-.2.16-.28.12-.08-.04-.16-.08-.16-.24-.08.04-.12 0-.2-.04-.12-.08-.08-.32-.04-.48 0-.04.04-.08.04-.12-.16.04-.32 0-.44-.12h-.16V28c0 .04 0 .04-.04.04-.12.12-.24.2-.36.28H161c-.16 0-.28-.04-.32-.12-.04-.08 0-.16.08-.2.04-.04.12-.04.2 0h.04v-.04c0-.04 0-.08.04-.12.04-.04 0-.16-.08-.2-.08-.04-.12-.12-.2-.2l-.04-.04c-.04-.04-.04-.04-.04-.08v-.12l-.2.16c-.08.04-.16.08-.2 0-.04-.08-.08-.12 0-.2l.08-.08c.04-.04-.04-.24-.16-.4-.12-.16-.28-.2-.36-.16-.08.04-.16.04-.2 0-.04-.04-.08-.16 0-.2l.04-.04.16-.12.04-.04s-.04-.04-.08-.04l-.12-.04c-.16-.08-.32-.16-.44-.32-.08-.12-.2-.2-.32-.28-.04.04-.08.04-.12.04-.04 0-.08 0-.08-.04-.04-.04-.04-.04-.04-.08-.04.04-.12.04-.2 0-.16-.08-.12-.28-.12-.36 0-.08-.04-.16-.08-.2-.04-.04-.08-.04-.12-.04v.08c-.04.16-.16.28-.32.36-.08.04-.16 0-.2-.04-.2-.16-.16-.28 0-.44.04-.08.12-.12.2-.12h.04c-.04-.08 0-.2.08-.28v-.08c-.04 0-.08.04-.12.04-.04.04-.12.04-.16 0-.08-.04-.12-.16-.08-.24-.12 0-.2 0-.32-.08-.08-.04-.16-.12-.2-.2l-.28.24c-.04.08-.12.16-.2.08l-.04-.04c-.04.04-.12.04-.16 0-.04-.04-.16-.08-.08-.32v-.08h-.2c-.2 0-.4-.04-.6-.08-.2-.08-.4-.08-.6-.08h-.08v.04c-.08.12-.12.24-.24.2-.12-.04-.16-.12-.2-.24-.04-.12-.04-.12-.08-.12s-.12 0-.16-.04c-.04.04-.08.04-.12.04H154c-.04.24-.04.32-.2.28-.16-.04-.16-.08-.16-.32-.04.04-.08.08-.08.12 0 .08-.08.12-.12.12-.16.04-.28-.08-.32-.24-.08.04-.16.12-.2.2.04.2-.04.28-.12.28-.08 0-.2 0-.24-.2h-.08c-.16 0-.2-.12-.24-.32-.16.16-.36.28-.56.32-.24.08-.24.2-.2.6l.12.32c.04.08 0 .16-.08.2-.08.04-.16 0-.2-.04l-.16-.24c-.08.12-.28.04-.36.04 0 .04 0 .12-.04.16-.04.04-.08.04-.16.08.04.08.04.16 0 .2-.08.08-.2.08-.36 0l-.12-.08c.04.04.04.08.04.16s-.04.16-.12.2l-.04.04c0 .04 0 .08.04.08.04.04 0 .12-.04.16l-.12.12c-.04.04-.12.04-.16.04-.08-.04-.16-.12-.16-.2v-.04.08c.16.24.24.32.12.4-.12.08-.16.04-.32-.08 0 .04-.04.08-.04.12-.08.08-.2.04-.32-.04 0 .04 0 .08-.04.08l-.12.24c-.04.16-.16.32-.24.44-.12.16-.28.28-.44.36-.04.12-.08.24-.2.32-.04.04-.04.04-.08.04s-.08.04-.12.04c.04 0 .08 0 .12.04.12.12.28.28.2.44-.04.08-.08.12-.16.12v.04c0 .04 0 .12-.04.12l-.08.08c-.16.16-.28.04-.4-.08-.04-.04-.04-.08-.04-.12 0-.04.04-.08.04-.12l-.12-.12v.04c0 .08-.04.12-.08.16-.04.04-.04.04-.04.12.04.08.08.16.08.24 0 .08-.08.16-.16.2h-.04c.12.08.24.16.32.28.04.04.04.08.04.12 0 .04-.04.08-.04.08l-.08.04c-.12.08-.28.04-.4-.12-.08-.08-.08-.16-.08-.28 0-.04.04-.12.08-.12h-.04c0 .04-.04.04-.04.08-.04.04-.16.04-.2 0l-.04-.04-.12-.16c-.04.08-.12.16-.2.24-.16.12-.36.24-.64.4-.4.2-.8.36-1.24.48-.04 0-.08 0-.08-.04-.04-.04-.08-.04-.08-.04 0 .08 0 .12-.04.2-.16.2-.72.24-1 .24-.16 0-.36.04-.52.04-.12 0-.28 0-.4.04 0 .04 0 .08-.04.08H141.84c-.08 0-.16.04-.2.08-.04.04-.12.04-.2.08-.04.08-.12.12-.24.12-.04 0-.12-.04-.12-.08v-.04c0 .04-.04.04-.08.08s-.12.04-.16.04c-.08 0-.12-.04-.16-.08-.04-.08-.04-.16 0-.28v-.04h-.04c-.08 0-.12-.04-.16-.08-.04-.08-.04-.12 0-.28l-.12.08c-.04.04-.12.04-.16 0-.04-.04-.04-.04-.04-.08l-.08.08-.04.04-.08.24c-.04.08-.12.12-.2.08-.04-.04-.08-.08-.08-.12v-.08l.04-.08c-.04.04-.12.08-.2.04-.08 0-.16-.08-.16-.32 0-.08 0-.12-.08-.16-.2 0-.4-.04-.56-.12-.24-.2-.52-.4-.72-.6l-.32-.32c-.16-.16-.36-.32-.56-.44h-.08c-.04 0-.08 0-.12-.04-.04-.04-.08-.12-.08-.2-.04 0-.08.04-.12.08-.04 0-.16.08-.24-.04-.08-.12 0-.16.2-.36 0-.04-.12-.16-.2-.28-.08-.12-.24-.28-.32-.28-.04.04-.04.04-.08.04-.2 0-.32 0-.36-.12-.04-.12.08-.16.24-.24.08-.04.08-.12.08-.16-.04-.08-.12-.08-.24-.08-.04 0-.12 0-.12-.04-.08-.08-.12-.2-.08-.32-.08-.04-.12-.04-.2-.04-.04 0-.08-.04-.08-.04l-.2-.2-.16-.16c-.08-.04-.16-.04-.2-.04-.04 0-.08 0-.12-.04l-.08-.08c-.04-.04-.04-.08-.04-.12 0-.04.04-.04.04-.08-.16-.16-.36-.32-.56-.44-.16-.08-.28-.16-.4-.24-.16-.08-.32-.2-.44-.32-.08.16-.2.32-.36.28-.16-.04-.16-.2-.16-.28 0-.12 0-.2-.04-.2s-.04.04-.08.12V24c0 .08-.08.12-.2.12-.08 0-.12-.08-.12-.16l.04-.28c-.04.04-.08.12-.08.2v.08c0 .08-.08.12-.16.12s-.12-.08-.12-.16v-.04-.08h-.04c-.04 0-.12-.04-.16-.08-.04-.08-.04-.12-.04-.32h-.04c0 .08-.04.2-.08.28-.04 0-.04.04-.08.04v.04c0 .16 0 .32-.08.44v.28c0 .16 0 .36.04.52l.12-.36c.08-.32.08-.4.24-.36.16.04.12.12.12.44 0 .08 0 .16-.04.2h.04c.12 0 .2.12.24.32v.04c0 .04 0 .08.28.12.16.04.52.16.48.48.2.04.4.16.52.28.08.04.12.08.2.12.12.12.24.2.36.24.04-.04.12-.04.16 0l.08.08c.04.04.04.16 0 .2l-.04.04.04.04c.12 0 .28.04.36.12.04.04.04.16 0 .2l-.04.04.04.04c0 .04.04.04.04.04.04-.04.08-.04.12-.04 0 0 0 .04.04.04.24.24.4.52.48.84l.08-.04c.12-.08.24-.16.4-.16.08 0 .12.04.16.08.04.04.04.16 0 .2l-.28.24c.2-.04.4.2.76.52l.24.24c.56.56.76.64.84.68.04-.08.16-.12.24-.12.16 0 .24.16.32.44.04.12.12.4.16.56.04-.08.08-.16.12-.2.08-.12.2-.36.4-.28.2.08.12.28.08.48v.04c.28.24.64.36 1 .4.28.04.4 0 .4-.04-.04 0-.12-.04-.12-.08-.04-.08-.04-.16 0-.28.08-.24.28-.48.48-.4.08.04.16.08.16.2 0 .2-.08.36-.2.48v.12l-.04.12c0 .04-.04.12-.04.16.12.08.24.12.4.12l.2.04c.08-.12.24-.16.4-.16.2.04.48.16.48.36 0 .04.04.08.04.08h.08c.2-.2.36-.24.56-.24zm45.2-.52c.08 0 .16.08.24.16v-.28c-.04 0-.08-.04-.12-.08-.04-.08-.04-.16-.04-.28 0-.08.08-.16.16-.12H188.24c-.08-.04-.12-.12-.16-.4-.04-.28 0-.28 0-.28-.08 0-.12 0-.16-.04-.04-.08-.04-.12-.04-.24-.04.04-.12.04-.16 0-.04 0-.04-.04-.08-.04-.08.16-.16.16-.24.16-.08 0-.2-.04-.24-.28 0 .04-.04.12-.04.16-.08.32-.12.4-.24.4s-.16-.12-.2-.28c-.04-.16 0-.32.04-.44v-.04h-.04c-.04 0-.04-.04-.08-.04l-.04.08c-.04.12-.08.12-.2.08-.08-.04-.12-.12-.08-.2l.04-.04v-.04c-.08-.08-.12-.2-.16-.28l-.04.04c-.04.08-.08.16-.08.24.04.04.08.12.04.16v.04c.16.08.16.36.08.56-.04.28-.04.36-.16.44-.08.04-.2.04-.28-.04-.16-.04-.28-.2-.24-.36 0-.04.04-.08.04-.08.04-.04.08-.08.16-.08v-.04l.16-.36v-.04h-.04v.04c-.04.08-.12.16-.2.2-.08.04-.2 0-.24-.04-.08-.04-.08-.12-.04-.2l.16-.32h-.04c-.04-.04-.08-.12-.04-.2l.08-.12h-.04c-.12.08-.24.2-.32.32-.04.08-.12.16-.24.16-.04 0-.12 0-.16-.04-.12-.04-.12-.2-.08-.28l.04-.04c-.04 0-.12 0-.12-.04-.04-.04-.04-.16 0-.2l.12-.16c.04-.08.04-.08.04-.12 0-.04-.04-.08-.24-.12-.04 0-.04 0-.08-.04-.2-.2-.36-.36-.4-.52-.16 0-.32.04-.48.08l-.08.08c-.04.04-.16.04-.2 0-.04-.04-.04-.08-.04-.12 0-.04 0-.08.04-.12l.08-.08.04-.04-.08-.08c-.08-.12-.16-.16-.16-.28-.08 0-.12-.04-.16-.08-.12-.16-.04-.4.2-.6 0 0 .04 0 .04-.04-.2 0-.36-.08-.48-.24l-.04-.08-.08.08c.04 0 .08.04.08.04l.12.12c.04.04.04.16 0 .2-.12.12-.28.16-.44.16-.08 0-.16-.04-.2-.08-.04-.04-.04-.08-.04-.16-.08-.04-.16-.08-.2-.16-.12-.12-.12-.28-.04-.4l.04-.04c0-.04 0-.04.04-.08-.12-.12-.12-.28 0-.36l.04-.04v-.12c-.04-.08-.12-.12-.16-.2-.08.08-.2.08-.28.08-.16-.04-.24-.16-.28-.32-.08-.08-.16-.12-.16-.12-.04.08-.16.08-.2.04-.04-.04-.08-.08-.08-.16s.04-.12.12-.28h-.04c-.12.12-.2.12-.28.12l-.12-.12c-.12.08-.2.12-.28.08-.08-.04-.12-.16-.16-.28v-.12c-.12 0-.24-.04-.36-.08 0 .04 0 .12-.04.12l-.28.28-.08.12c-.2.28-.24.32-.36.28-.12-.04-.08-.16 0-.36l.04-.08c.04-.24.2-.4.4-.56-.08-.04-.12-.08-.2-.12l-.04-.04c-.04.04-.04.04-.08.04v.08c-.12.36-.28.36-.36.32-.08-.04-.16-.12-.16-.28-.04.04-.08.04-.16.04-.04 0-.08-.04-.12-.08-.16.32-.24.4-.36.36l.04.04c.04.08.04.16-.04.36-.04.08-.04.2-.08.32 0 0 0 .04-.04.04 0 .04-.04.04-.04.08.04.08.08.16.04.24 0 .08.12.16.24.28l.04.04c.04.04.08.04.12.04 0 0 .04-.04.04-.08.04-.08.08-.08.16-.08.04 0 .08 0 .12.04.04 0 .08.08.08.12 0 .04.04.08.08.12h.04c.04-.04.12-.08.16-.04.04 0 .12.04.16.08l.04.04.08-.08c.04-.08.16-.08.24-.04.12.08.04.2 0 .28v.04s.04 0 .04.04l.04.04v-.04c.04-.08.16-.08.2-.04h.04c.12 0 .2.04.28.12.2-.12.32-.08.36 0 .04 0 .04.04.08.04 0 0 0-.04.04-.04.04-.08.08-.2.2-.2.08 0 .16 0 .2.08.04.04.04.08.04.12 0 .2-.12.36-.24.48l.04-.04.04-.04.04-.04c.12-.08.12-.08.2 0 .08.08.04.16 0 .2l-.08.08h-.04l-.12.12c0 .04.04.08.04.12l.04.04.04-.04c.08-.08.2-.16.32-.24.08-.12.16-.2.24-.28.04-.04.12-.04.16-.04.04.04.08.08.08.16l-.12.48c-.16.36-.16.52-.04.68.16.16.24.36.24.56h.04c.04-.04.16-.04.2 0l.12.12c.04.04.04.12.04.16.08-.04.16-.04.24 0 .04.04.08.08.08.12.04-.08.08-.16.04-.24l-.16-.16c-.04-.04-.04-.16 0-.2.04-.04.08-.04.12-.04l.32.08c.04 0 .04.04.08.04.08 0 .16-.04.24-.08.16-.16.32-.16.4-.08.04.04.04.08.04.12 0 .04 0 .08-.04.12l-.28.28-.04.04c-.16.08-.28.16-.4.28-.04.04-.08.12-.08.2.04-.04.08-.04.08-.04.04 0 .08 0 .12.04.08.04.12.16.08.24.16-.12.36-.2.48-.12.12.08.04.32-.04.48 0 .12 0 .2.08.28 0 .04.04.04.08.08.08-.16.28-.24.44-.16.16.08.24.24.24.4v.04l.04-.08c.04-.08.12-.08.2-.04.04.04.08.08.08.12v.04l.16-.08c0-.16.08-.28.16-.4.04-.08.16-.12.24-.12.24.08.32.52.32.92h.12c.08.04.2.12.24.2.04-.12.08-.16.2-.16.12 0 .16.12.16.28v.12-.04c.08-.28.12-.36.24-.32.12.04.16.08.16.32.04-.04.08-.08.16-.08.12 0 .2.08.24.24v.04l.08-.04h.16c.12 0 .2.08.28.16.12.04.16 0 .24.04zm.68-.88c0 .08 0 .16-.04.24l.04-.04c.04-.04.08-.08.08-.12 0-.04-.04-.04-.08-.08zm-3.88.12c.04 0 .04 0 0 0zm.6-.32c.04 0 .04.04.04.08 0-.08-.04-.12-.04-.16 0 0-.04.04 0 .08zm.88-.24h.16-.16zm-19.84-.28v.04-.04zm-1.88-.12c.04 0 .04.04.04.04.04-.04 0-.04-.04-.04zm17.96-3.76c0 .04.04.04.04.08l.04-.04.04-.04s-.04 0-.04-.04l-.08.04zm-6.52-2.6l.04.04-.04-.04s0 .04 0 0zm-32.12 7.68c-.08 0-.16-.04-.2-.2 0-.16 0-.32.04-.44.04-.16.16-.2.2-.2.04 0 .16.08.16.2l.04.2v.08c-.04.16-.08.36-.24.36zm43.32-.08h-.12c-.08 0-.12-.04-.16-.12-.04-.08-.04-.16 0-.28 0-.04 0-.04.04-.08.04-.08.2-.2.4-.16.04 0 .08.04.12.12l.04.2v.08c0 .08-.08.16-.16.24h-.16zm-25.4-1.4c-.04 0-.08 0-.08-.04l-.08-.04c-.08-.04-.08-.16-.04-.2.12-.16.2-.32.36-.32.04 0 .12 0 .16.04.04.04.08.08.04.16l-.04.2c0 .04-.04.08-.08.12l-.2.08h-.04zm26.12-1.28l-.08-.04c-.08 0-.12-.08-.12-.16.04-.24.08-.4.2-.44h.16c.08 0 .12.08.12.16-.04.12-.08.28-.16.4 0 .04-.04.08-.12.08zM171.6 28c-.04 0-.08 0-.12-.04-.16-.16-.28-.28-.28-.4 0-.04.04-.12.04-.16.04-.04.12-.04.16-.04l.2.08c.04 0 .08.04.08.08l.08.2c.04.04 0 .12-.04.16l-.08.08c.04 0 0 .04-.04.04zm-23.32-.16c-.08 0-.16-.08-.24-.16-.04-.04-.04-.08-.04-.12 0-.04 0-.08.04-.12l.04-.08c.04-.04.12-.04.16-.04l.2.08c.04 0 .08.04.08.12 0 .04 0 .12-.04.12l-.04.08c-.04.08-.08.12-.16.12zm26.52-.2c-.08 0-.16-.08-.24-.16-.04-.04-.04-.08-.04-.12 0-.04 0-.08.04-.12l.08-.08c.04-.04.12-.04.16-.04.12.08.2.12.24.2 0 .08-.04.16-.12.2 0 .08-.08.08-.12.12zm-26-.12c-.08 0-.16-.04-.2-.12-.12-.08-.16-.16-.16-.24 0-.08.04-.12.08-.16.08-.08.12-.16.24-.12.12.04.16.12.2.24.08.2.04.32-.04.36-.04 0-.08 0-.12.04zm1.8-.48c-.08 0-.2-.08-.24-.16-.08-.08-.12-.16-.16-.24 0-.04.04-.12.04-.12.04-.04.12-.04.16-.04l.2.08.04.04c.08.08.12.16.12.24 0 .04-.04.08-.04.12 0 .04-.04.04-.12.08zm28.6-1.92h-.08c-.04 0-.08-.04-.08-.08v-.12l.08-.16s0-.04.04-.04l.12-.16c.04-.04.12-.08.16-.04.04.04.08.08.08.16l-.04.2v.04c-.08.12-.16.2-.28.2zm-3.72-.12c-.08 0-.2-.04-.32-.52 0-.08.04-.16.08-.16l.12-.04h.12c.04 0 .08.04.08.08.08.2.16.36.08.48 0 .08-.04.16-.16.16zM155 24.24h-.08c-.04 0-.08-.04-.12-.04-.04-.04-.04-.08-.04-.12.04-.24.08-.52.28-.48h.08c.08.04.12.08.12.16-.04.12-.08.28-.16.4.04.04-.04.08-.08.08zm22.08-.16c-.08 0-.16-.08-.16-.16 0-.24 0-.52.2-.52h.12c.08 0 .12.08.12.16 0 .16-.04.28-.08.44 0 .04-.08.08-.12.08h-.08zm-6.76-.76c-.08 0-.2-.08-.24-.16-.16-.24-.24-.44-.08-.56.04-.04.16-.08.32.08.12.12.2.24.24.4 0 .04 0 .12-.04.16-.08.08-.12.08-.2.08z"/>
    <path fill="#99AEF2" d="M177.2 49.08c1.811 0 3.28-1.468 3.28-3.28 0-1.811-1.469-3.28-3.28-3.28-1.812 0-3.28 1.468-3.28 3.28 0 1.812 1.468 3.28 3.28 3.28z"/>
    <path fill="#99AEF2" d="M180.28 45.8c.04 0 .08 0 .08-.04l-.08.04z"/>
    <path fill="#99AEF2" d="M180.48 45.6c-.08-.04-.16-.08-.24-.04.08.04.04.04.16.08 0 .04-.04.04-.08.04.04 0 0 .04.04.08s.08-.08 0-.12c.08-.04.08-.04.12-.04zM179.2 43l-.04-.04.04.04zM180.24 44.04s-.08.04-.12.04h.08l.04-.04zM173.64 46.56c.04-.08.12.08.2-.04-.04.04-.16-.04-.2.04zM174.4 43.64h.04v-.04l-.04.04zM179.44 47.68c.04 0 .04.04.08.04-.04-.04-.04-.08-.08-.04zM175.24 43.72l-.08.04c.04-.04.04-.04.08-.04z"/>
    <path fill="#99AEF2" d="M179.64 47.2c-.04.04.08.08.12.12 0 .08-.08 0-.16 0 0 .08.04.16.04.16s-.04 0-.04-.04c.04.08-.08.12-.04.24h-.04c.04.04.08.04.12.08 0 .04 0 .08-.04.04v-.04.04c-.08-.04 0-.04-.04-.12 0 .08 0 .2-.08.2-.08-.08.04-.12-.04-.12l.08-.04c-.16-.08.04-.04-.12-.08-.08.04-.04.12-.12.16 0 .04.08.04.08.12-.04.16-.24-.12-.24.08.04.08.08.16 0 .16l-.04-.12c-.08.04.04.16-.08.16 0-.04.04-.08.04-.08-.12-.04 0 .08-.04.12l-.08-.08c-.08.08-.12.2-.24.28 0-.04 0-.08-.04-.08-.04.04-.12.08-.2.12h-.24l-.04.12-.04-.04c-.08 0 0 .04 0 .08s-.04-.04-.04-.08c-.08.08-.24.24-.36.16v-.04c-.08-.04-.08.2-.16.12-.2-.04-.4.08-.52-.08-.04.12-.16-.08-.2.12-.08-.12-.04-.12-.2-.2-.04 0-.08.08-.12.12v-.08l-.08.08v-.12h-.04v.08c-.08.04-.16-.12-.12-.16l-.16.04c0-.04.04-.04.08-.04-.12.08 0-.08-.08-.04 0 0-.04.04-.04.08-.04-.08-.08-.12-.16-.12l.04-.04c-.08-.04-.24-.08-.36-.16.04.04-.04.12-.08.12l.04-.08c-.04.04 0 .04-.08.08-.04-.04.04-.12.08-.12h-.08c0-.04.04-.04.04-.08-.04.04-.04-.12-.12-.08v-.04c-.12-.08-.16-.08-.24-.16-.04.08-.08 0-.16.04-.04-.08-.04-.2-.12-.24-.08-.04-.08.04-.12.04.04-.04 0-.12.08-.12-.08-.08-.16-.16-.24-.2 0 .04 0 .04-.04.08s0-.08.04-.08c-.2-.08 0-.44-.16-.48l-.12-.08c0-.08.08 0 .08-.04-.16-.08-.04-.24-.16-.32.2-.12-.08-.32.08-.48h-.04c-.04-.04.04-.04.04-.08s-.04.04-.08 0c-.04-.28.04-.56.2-.8.04-.08-.24-.12-.08-.2l.08.08c0-.12 0-.2.04-.32.04-.08.08-.2.08-.28l.04.04c.08 0 .08-.12.04-.16 0-.04.04 0 .08 0s-.04-.16.04-.12v.04c0 .04.08-.08 0-.12.08-.04.04-.16.12-.16-.04-.08.12-.08.04-.16.08.08.16-.04.16-.08 0 .04.04 0 .08.04.04-.04.04-.08 0-.12.16.04.08-.24.24-.12.08-.16.2-.28.32-.36.04.12-.16.08-.08.2.08-.12.12-.24.24-.28.04 0 0 .08 0 .08.12-.12.24-.08.36-.2V43s.04 0 .04-.04V43c-.08-.08.04-.2.04-.24 0 .16.12 0 .12.24v-.08c.04 0 .04.04.04.08.08-.04.04-.12.12-.12v.08c.04-.08.08-.12.12-.12v.04c.12-.04.2-.16.32-.12-.04.12.04.04.04.16l.08-.04-.04-.04c.08 0 .12-.08.16-.04l-.04.04h.12l-.08-.04c.08-.04 0-.16.08-.12 0 0 .08 0 .08.08.04-.04.08-.08.12-.04.04.04-.04.12-.04.16.04-.08.16 0 .2-.08 0 .04-.04.04-.04.08l.04-.08c.04.04.04.04 0 .08.08.04 0-.16.08-.08l-.04.04c.08.04.2 0 .28.08 0 .12-.08 0-.08.08.12.04.32-.04.44.08v-.04c.08-.12.04.12.16.08l-.04.04c.08.08.16.08.32.08l-.04.04c.04.08.12.08.16.16.04-.04.04 0 .08-.04 0 .28.36.12.32.4h-.04l.12.08c.04-.04 0-.04.04-.08s.08-.04.12 0c-.08 0-.08.08-.08.12l.04-.04c-.04.12.12-.08.12.04l-.04.04c.04 0 .08 0 .12.04-.04.08-.04 0-.12.04.04.04.2 0 .16.08-.04 0-.04-.04-.08-.04-.04.08-.04.08 0 .12v.08-.04c.2-.04.12.08.28.12-.16-.04-.08.04-.16.04 0 .04 0 .08-.04.08.08 0-.04.08.08.08-.04 0 0 .04-.04.08.04.04.04-.04.08-.04.12.04-.04.24.12.32.08.08.2.08.24.16-.04.04-.12 0-.12 0-.04.04 0 .12.04.16-.04 0-.04 0-.08.04s.12 0 .08.08c-.04 0-.08 0-.12-.04l.12.12c-.04.04-.08 0-.12-.04.04.04.08.12.16.16l.04-.04h-.08s0-.08.04-.08l.04.04c.16-.08-.04-.16-.04-.24h.12l-.12-.04c.04-.04.08-.04.12 0 .04-.08-.04-.04 0-.08s0 0 .04 0l-.04-.04c.04 0 .08-.04.08 0 .04-.12-.12-.12-.04-.2-.08-.12-.08 0-.24-.04l.2-.12h-.08s0-.04.04-.04c-.08-.04-.04.04-.08 0 .04-.08-.12-.16 0-.24-.08 0 0 .08-.08.04.12-.08-.04-.08 0-.16.08 0 .08.04.12-.04-.12.04-.04-.12-.08-.16-.08.04-.08-.08-.2-.12.04 0-.04-.16-.08-.28-.08.04-.12-.04-.2-.08.04-.04.08-.04.12-.04l-.04-.04h-.08l.08-.04c-.04-.04-.16-.04-.2-.16-.04.04-.08.2-.2.16.04-.04.08-.08.12-.08h-.04l.08-.04c0-.04-.04.04-.08 0s0-.04.04-.08 0 .04.04.04c-.04-.04-.04-.08 0-.12 0 .04-.04.08-.08.04s.04-.08 0-.12c-.04 0-.04-.04-.12 0v-.08c-.04 0-.16-.12-.2 0-.16 0-.2-.2-.32-.24v-.04c-.08 0-.16-.08-.24-.04-.04-.04-.04-.08 0-.12-.08 0-.08 0-.16-.04.08-.04 0-.04.08 0-.08-.04-.08-.08-.16-.04.04-.08-.04-.12-.08-.08l.04.08c-.04 0-.08 0-.12-.04l.04-.08c-.12-.16-.36.12-.4-.12-.04.08.08.08.04.12-.08-.04-.12-.16-.16-.16-.08-.08-.12.12-.2.08.04.08 0 .12-.08.16-.04-.04-.08-.08-.04-.16 0 0 0-.04.04-.04 0 0 .04 0 .04.04.04 0 .04-.04.04-.08v.04c-.04-.04-.16-.04-.12-.08-.04.04-.04.04 0 .08-.08-.04-.16 0-.24-.04 0 0 .04.08 0 .08-.16-.04-.04.08-.16.08-.04-.04 0-.12-.08-.08-.08-.04-.04-.08 0-.12-.08.08-.2-.04-.24-.04l.04-.04c-.04 0-.04.04-.08.04l.04.08c-.04 0-.04 0-.04-.04-.04.04.04.12 0 .2-.04-.04-.12.04-.12-.04.12 0-.04-.08.08-.12h-.08l3.12 4.92zm-3.24-5.08c-.12-.04-.04.12-.16.16 0-.04-.04-.08-.08-.08.04 0 .04.08 0 .12-.08-.04-.08.04-.12.04h.04c0 .04-.04.04-.08.08 0-.04.04-.04 0-.04-.04.12-.16-.04-.2.04-.04 0-.04-.08-.08-.12-.04.08-.12-.04-.2.08.04.04.04.04 0 .12l.12-.12-.04.12c.04-.04.08-.08.12-.08-.04.08-.04.04 0 .08-.08-.08-.08.12-.2.08l-.08-.16c-.16-.04-.16.16-.28.2h.04c0 .08-.08.04-.08.12-.04-.04-.08-.04-.12-.08.04.04-.08.08-.04.16l-.08-.04c-.12.04 0 .2-.08.28 0-.08-.08-.08-.04-.16-.04.04-.08.04-.04.08-.04 0-.04.12-.08.12 0 .04.04.08 0 .08 0 0 0 .08.04.08-.2-.04-.2.24-.4.2l-.12.24s-.04 0 0-.04c-.08.04.12.16 0 .2-.12.04 0-.08-.08-.08-.16-.08-.04.12-.2.16v-.04c-.08.04 0 .16-.04.24h-.04c.04.12.04.2.04.32-.08-.04-.04-.04-.12-.08 0 .04.12.04.12.12-.04.04-.12.04-.2.04 0-.04 0-.04.04-.08-.12 0-.04.08-.04.12h-.04c0 .12.08.16.04.28h.04c.08.08-.08.04 0 .12h-.12c.04.08.08.16.08.28-.08-.04-.12-.16-.16-.24 0 .04 0 .16.04.2 0 0-.04-.04 0-.08.08.04.12.16.12.24-.24-.04-.08.24-.24.32.08.16 0 .32.04.52.16-.08 0 .04.2 0 0 .04.04.08 0 .08l-.08.16c-.04.04-.04-.04-.08 0 0 .08-.08.08-.08.12.04-.04.08 0 .08.08l.04-.12c.12.12-.12.16.04.28l-.08-.04c.04.08.08.28.28.28 0 0-.04.04-.08.04.04.16.32.28.32.44h-.04c.04 0 .08 0 .08.08s-.04 0-.04.04.12.04.12.08h-.08c.04.16.24.12.36.2-.08.08-.04.24 0 .28.16.16.32.16.52.24 0 .2.28.28.4.4 0-.04.04-.08.08-.08s.16-.04.08.08c0 .12.08.12.16.16l.08-.16c.04.12.16.16.28.16.12 0 .2 0 .24.12.04-.04.12 0 .16-.04v.08c.12.04.24.08.32.08l-.04.08c.08 0 .12-.24.2-.24v.12c.16 0 .32.12.44 0 0 .04 0 .04-.04.08.08 0 .28.04.24-.12 0 .12.16 0 .2-.08v.08c.04-.12.04-.16.12-.2.08-.04.04.08 0 .04.08.04.04-.08.12-.08v.08c.08 0 .04-.04.08-.12.04-.08.12-.04.16.04 0-.04 0-.12.04-.12v.08c.16 0 .12-.16.24-.12l.04.04c-.04.04-.12.04-.16.08.04.08.12.04.08.16.04-.08.08-.24.16-.24 0 0 .04 0 .04-.04h.08c.04.04.08 0 .12-.04-.04-.08 0-.08-.08-.12l-.04.04c-.04.04 0 0 0 0-.04 0-.04.04-.08.04 0-.04 0-.12.08-.08l-.04-.16c.12.08.24.08.28.12.08-.12.24-.2.16-.36 0-.04.04 0 .08 0s-.04.04 0 .08c.04-.08.16-.16.08-.24.08-.04.04.12.12 0v.04c.16-.04.16-.16.16-.28 0-.12 0-.24.2-.28h-.04c.24-.2.24-.56.48-.76.04-.08 0-.08-.04-.16h.08l-.08-.12c-.04-.12.28-.16.16-.32h-.04c0-.04 0-.16.04-.16l-.04-.04h.04c0-.04-.04-.08-.08-.16.04-.08.2.04.2-.12 0-.08-.12-.16-.16-.16 0 .04-.04.08-.08.08v-.04c-.16 0-.28-.04-.4.08l.08.08h-.08v-.08c-.08.04 0 .04.04.08-.04 0-.04 0-.08.04l.12.08c-.04 0-.12-.04-.16 0 .04.04.12-.04.16.04-.08.04-.12 0-.08.08-.04 0-.04 0-.08-.04.04.04 0 .12.08.12-.08.04 0 .12-.12.08.04 0 .08.08.08.12-.16-.08-.04.12-.2.08.12.08 0 .16.04.28 0 0-.04-.04 0-.04s-.08.04-.12.04c.12.04.08.12.16.2-.12 0-.12-.08-.2-.12.08.04.04.12.12.16h-.16c.12.08 0 .04.08.12-.08.04-.12-.04-.12.04 0 .12-.04.04-.04.04l-2.92-4.96zm2.08 6.44l.04-.04c0 .04.04.04 0 .08s0 0-.04-.04zm.56.36c0 .04-.04 0-.04 0h.04z"/>
    <path fill="#99AEF2" d="M179.8 44.12v.08c.04-.04.04-.08 0-.08zM177.56 42.64l-.04.04c.04 0 .04 0 .04-.04zM180.16 45c0 .04-.04.08 0 .12h.04c-.08 0 0-.08-.04-.12zM180.36 44.44v.08c.04-.04.04-.08.08-.04.08-.12-.04.08-.08-.04zM180.28 44.12c.04.04.04-.04.04-.04-.04 0-.04 0-.04.04zM178.64 42.6l.04-.08c-.08 0-.04.04-.04.08zM178.08 42.84v.04l.04-.08-.04.04zM174.4 43.52l.08.04c0-.04-.04-.12-.08-.04zM173.76 45.04c-.04 0-.08.04-.04.08 0 0 .04-.04.04-.08z"/>
    <path fill="#F4F5FA" d="M138.56 62.24H44.08c-1.64.08-3-1.2-3.04-2.84-.08-1.64 1.2-3 2.84-3.04h94.68c1.64-.08 3 1.2 3.04 2.84.08 1.64-1.2 3-2.84 3.04-.08.04-.12.04-.2 0zM146.8 77.2H43.72c-1.44 0-2.64-1.32-2.64-2.96s1.2-2.96 2.64-2.96H146.8c1.44 0 2.64 1.32 2.64 2.96s-1.2 2.96-2.64 2.96zM121.72 92.16H44.08c-1.64.08-3-1.2-3.04-2.84-.08-1.64 1.2-3 2.84-3.04h77.84c1.64-.08 3 1.2 3.04 2.84.08 1.64-1.2 3-2.84 3.04h-.2zM138.56 131.12H44.08c-1.64-.08-3 1.2-3.04 2.84-.08 1.64 1.2 3 2.84 3.04h94.68c1.64.08 3-1.2 3.04-2.84.08-1.64-1.2-3-2.84-3.04h-.2zM159.52 116.16H44.08c-1.64 0-2.96 1.32-2.96 2.96s1.32 2.96 2.96 2.96h115.48c1.64 0 2.96-1.32 2.96-2.96s-1.36-2.96-3-2.96zM135.56 101.2h-91c-1.92 0-3.48 1.32-3.48 2.96s1.56 2.96 3.48 2.96h91c1.92 0 3.44-1.32 3.44-2.96s-1.52-2.96-3.44-2.96z"/>
</svg>
