<svg xmlns="http://www.w3.org/2000/svg" width="388" height="85" fill="none" viewBox="0 0 388 85">
    <g clip-path="url(#prefix__clip0)">
        <path fill="#F4F5FA" d="M151.719 42.188c0 10.156-7.11 17.421-17.11 17.421-2.031 0-3.906-.39-5.625-1.015-1.093-.469-2.343.39-2.343 1.562v8.516c0 .937-.782 1.719-1.719 1.719h-7.735c-.937 0-1.718-.782-1.718-1.72V27.5c0-.938.781-1.719 1.718-1.719h5c.625 0 1.172.313 1.485.86.469.859 1.562 1.172 2.422.625 2.422-1.641 5.312-2.578 8.593-2.578 9.922.078 17.032 7.265 17.032 17.5zm-11.328 0c0-4.297-3.125-7.5-7.344-7.5s-7.344 3.203-7.344 7.5c0 4.296 3.125 7.5 7.344 7.5 4.219-.079 7.344-3.204 7.344-7.5zM156.172 42.188c0-10.157 7.656-17.422 18.359-17.422 10.625 0 18.36 7.265 18.36 17.422 0 10.078-7.735 17.421-18.36 17.421-10.703 0-18.359-7.343-18.359-17.422zm18.359 7.265c4.141 0 7.031-2.969 7.031-7.266 0-4.296-2.968-7.265-7.031-7.265-4.062 0-7.031 2.969-7.031 7.266 0 4.296 2.891 7.265 7.031 7.265zM210.625 59.61c-7.891 0-13.047-3.672-14.219-9.454-.234-1.25.703-2.343 1.875-2.343h7.032c.859 0 1.562.546 1.875 1.328.546 1.484 1.875 2.109 3.593 2.109 1.641 0 3.203-.86 3.203-2.5 0-1.875-2.5-2.422-5.625-2.969-5.078-.86-11.796-2.343-11.796-10.312 0-6.563 5.546-10.782 13.984-10.782 7.266 0 12.344 3.36 13.516 8.672.312 1.25-.625 2.422-1.875 2.422h-6.719c-.86 0-1.563-.547-1.797-1.328-.469-1.172-1.641-1.797-3.203-1.797-1.797 0-3.047.86-3.047 2.422 0 1.875 2.5 2.266 5.625 2.813 5.156.937 12.031 1.953 12.031 10.312 0 6.875-5.781 11.406-14.453 11.406zM252.734 50.234v6.641c0 .86-.703 1.64-1.64 1.64H245c-7.266 0-11.641-4.453-11.641-11.718V36.094c0-.86-.703-1.64-1.64-1.64h-2.735c-.859 0-1.64-.704-1.64-1.642v-.39c0-.39.156-.781.469-1.094l13.75-14.61c.312-.312.703-.546 1.171-.546.86 0 1.641.703 1.641 1.64v6.407c0 .86.703 1.64 1.641 1.64h5c.859 0 1.64.703 1.64 1.641v5.469c0 .86-.703 1.64-1.64 1.64h-4.688c-.859 0-1.64.703-1.64 1.641V45c0 2.344 1.406 3.75 3.75 3.75h2.734c.781-.078 1.562.625 1.562 1.484zM308.672 37.969v18.593c0 1.016-.859 1.876-1.875 1.876h-7.5c-1.016 0-1.875-.86-1.875-1.876V39.376c0-3.438-1.25-5.078-3.672-5.078-3.125 0-4.688 2.11-4.688 6.25v16.016c0 1.015-.859 1.874-1.874 1.874H280c-1.016 0-1.875-.859-1.875-1.874V39.374c0-3.281-1.25-5.078-3.594-5.078-3.047 0-4.687 2.187-4.687 6.25v16.016c0 1.015-.86 1.874-1.875 1.874h-7.5c-1.016 0-1.875-.859-1.875-1.874V27.655c0-1.015.859-1.875 1.875-1.875h4.844c.703 0 1.406.469 1.718 1.094.547 1.094 1.953 1.406 2.891.703 2.187-1.719 4.844-2.734 7.734-2.734 3.203 0 6.094 1.172 8.125 3.281.703.781 1.875.781 2.657.078 2.265-2.11 5.312-3.36 8.671-3.36 6.953 0 11.563 5.47 11.563 13.126zM349.609 27.11v30.078c0 .703-.547 1.328-1.328 1.328h-6.562c-.547 0-1.016-.313-1.172-.782-.313-.703-1.25-1.015-1.875-.625-2.422 1.563-5.391 2.5-8.594 2.5-10 0-17.109-7.265-17.109-17.422 0-10.156 7.109-17.343 17.109-17.343 3.281 0 6.25.937 8.75 2.578.625.469 1.563.156 1.875-.547l.156-.313c.235-.468.703-.78 1.172-.78h6.25c.703 0 1.328.546 1.328 1.327zm-10.703 15.078c0-3.75-2.422-6.641-5.859-7.266-5.235-.938-9.766 3.906-8.594 9.062.703 3.36 3.516 5.625 7.109 5.625 4.219 0 7.344-3.203 7.344-7.422zM387.969 38.594v18.125c0 1.015-.86 1.875-1.875 1.875h-7.578c-1.016 0-1.875-.86-1.875-1.875V40.156c0-3.828-1.407-5.703-4.297-5.703-3.516 0-5.547 2.422-5.547 6.64V56.72c0 1.015-.859 1.875-1.875 1.875h-7.578c-1.016 0-1.875-.86-1.875-1.875V27.656c0-1.015.859-1.875 1.875-1.875h4.844c.703 0 1.406.39 1.64 1.094.469 1.094 1.875 1.406 2.813.703 2.265-1.719 5.234-2.734 8.593-2.734 7.735 0 12.735 5.39 12.735 13.75z"/>
        <path fill="#E75760" d="M73.047 73.438c0-2.032 1.562-3.672 3.516-3.829.156 0 .312-.156.312-.39v-7.031c0-.157-.156-.313-.313-.391-1.953-.156-3.515-1.797-3.515-3.828 0-2.032 1.562-3.672 3.516-3.828.156 0 .312-.157.312-.391v-7.031c0-.157-.156-.313-.313-.39-1.953-.157-3.515-1.798-3.515-3.829s1.562-3.672 3.516-3.828c.156 0 .312-.156.312-.39V31.25c0-.156-.156-.313-.313-.39-1.953-.157-3.515-1.797-3.515-3.829 0-2.031 1.562-3.672 3.516-3.828.156 0 .312-.156.312-.39V15.78c0-.156-.156-.312-.313-.39-1.953-.157-3.515-1.797-3.515-3.829 0-2.03 1.562-3.671 3.516-3.828.156 0 .312-.156.312-.39V.312c0-.234-.156-.39-.39-.39h-6.25c-.235 0-.391.156-.391.39 0 1.954-1.563 3.516-3.516 3.516S62.812 2.266 62.812.313C62.892.155 62.734 0 62.5 0h-6.25c-.234 0-.39.156-.39.39 0 1.954-1.563 3.516-3.516 3.516S48.828 2.344 48.828.391c0-.235-.156-.391-.39-.391h-6.25c-.235 0-.391.156-.391.39 0 1.954-1.563 3.516-3.516 3.516S34.766 2.344 34.766.391c0-.235-.157-.391-.391-.391h-6.25c-.234 0-.39.156-.39.39 0 1.954-1.563 3.516-3.516 3.516S20.703 2.344 20.703.391c0-.235-.156-.391-.39-.391h-6.25c-.235 0-.391.156-.391.39 0 1.954-1.563 3.516-3.516 3.516S6.641 2.344 6.641.391C6.953.156 6.797 0 6.64 0H.39C.156 0 0 .156 0 .39v7.032c0 .156.156.312.313.39 1.953.157 3.515 1.797 3.515 3.829 0 2.03-1.562 3.671-3.515 3.828-.157 0-.313.156-.313.312v7.031c0 .157.156.313.313.391 2.03.156 3.515 1.797 3.515 3.828 0 2.032-1.562 3.672-3.515 3.828-.157.078-.313.235-.313.391v7.031c0 .157.156.313.313.39 1.953.157 3.515 1.798 3.515 3.829S2.266 46.172.313 46.328c-.157 0-.313.156-.313.39v7.032c0 .156.156.313.313.39 1.953.157 3.515 1.797 3.515 3.829 0 2.031-1.562 3.672-3.515 3.828-.157 0-.313.156-.313.39v7.032c0 .156.156.312.313.312 2.03.235 3.515 1.875 3.515 3.906 0 2.032-1.562 3.672-3.515 3.829-.157 0-.313.156-.313.39v7.031c0 .235.156.391.39.391h6.25c.157 0 .313-.156.391-.312.157-1.797 1.64-3.204 3.516-3.204 1.875 0 3.281 1.407 3.515 3.204 0 .156.157.312.391.312h6.328c.157 0 .313-.156.39-.312.157-1.797 1.642-3.204 3.517-3.204 1.796 0 3.28 1.407 3.515 3.204 0 .156.156.312.39.312h6.329c.156 0 .312-.156.39-.312.157-1.797 1.641-3.204 3.516-3.204s3.281 1.407 3.516 3.204c0 .156.156.312.39.312h6.328c.157 0 .313-.156.391-.312.156-1.797 1.64-3.204 3.516-3.204 1.797 0 3.281 1.407 3.515 3.204 0 .156.157.312.391.312h6.328c.156 0 .313-.156.39-.312.157-1.797 1.641-3.204 3.516-3.204 1.797 0 3.282 1.407 3.516 3.204 0 .156.156.312.39.312h6.25c.235 0 .391-.156.391-.39v-7.032c0-.156-.156-.312-.312-.39-2.813-.157-4.297-1.797-4.297-3.829z"/>
        <path fill="#040651" d="M38.828 33.438c0 1.093.86 1.953 1.953 1.953 1.094 0 1.953-.86 1.953-1.953 0-1.094-.859-1.954-1.953-1.954-1.093 0-1.953.86-1.953 1.953z"/>
        <path fill="#F4F5FA" d="M40.938 11.797H16.483c-2.03 0-3.672 1.64-3.672 3.672v55.937c0 .938.782 1.719 1.72 1.719h7.812c2.265 0 4.14-1.719 4.375-3.984l1.25-11.485c.468-3.906.86-7.734 1.25-11.64v-.078c0-.313.078-.547.078-.86.39-3.672.86-7.344 1.25-11.016.469-4.218 3.515-7.578 7.5-8.124 4.062-.547 7.5 1.406 9.297 5.156.234.547.547 1.015.937 1.562l2.032 2.813.078.078c.703.86 1.406 1.64 2.109 2.422.39.468.078 1.093-.547 1.093H48.75c-2.344 0-2.813.704-2.11 2.891 1.407 4.453 2.891 8.906 4.376 13.438.547 1.718 2.656 2.422 4.14 1.406C61.016 52.734 65 46.25 65.781 38.75c1.406-14.688-9.922-26.953-24.844-26.953z"/>
    </g>
    <defs>
        <clipPath id="prefix__clip0">
            <path fill="#fff" d="M0 0H387.969V85H0z"/>
        </clipPath>
    </defs>
</svg>
