<svg xmlns="http://www.w3.org/2000/svg" width="33" height="36" fill="none" viewBox="0 0 33 36">
    <g clip-path="url(#prefix__clip0)">
        <path fill="#040651" d="M31.083 31.093c0-.858.663-1.557 1.498-1.636.08-.013.146-.08.146-.158v-2.982c0-.079-.066-.145-.146-.158-.848-.066-1.498-.778-1.498-1.636 0-.857.663-1.556 1.498-1.636.08-.013.146-.079.146-.158v-2.941c0-.08-.066-.146-.146-.159-.848-.066-1.498-.778-1.498-1.636 0-.857.663-1.556 1.498-1.635.08-.014.146-.08.146-.159v-2.981c0-.08-.066-.145-.146-.158-.848-.066-1.498-.779-1.498-1.636 0-.857.663-1.557 1.498-1.636.08-.013.146-.079.146-.158V6.688c0-.079-.066-.145-.146-.158-.848-.066-1.498-.778-1.498-1.636 0-.857.663-1.557 1.498-1.636.08-.013.146-.079.146-.158V.158c0-.079-.066-.158-.159-.158h-2.665c-.093 0-.16.066-.16.158 0 .818-.662 1.478-1.485 1.478-.822 0-1.485-.66-1.485-1.478 0-.079-.066-.158-.159-.158H23.95c-.08 0-.16.066-.16.158 0 .818-.662 1.478-1.485 1.478-.822 0-1.485-.66-1.485-1.478C20.82.08 20.753 0 20.66 0h-2.665c-.093 0-.16.066-.16.158 0 .818-.663 1.478-1.485 1.478-.822 0-1.485-.66-1.485-1.478 0-.092-.066-.158-.159-.158h-2.652c-.093 0-.16.066-.16.158 0 .818-.662 1.478-1.484 1.478-.823 0-1.486-.66-1.486-1.478C8.924.08 8.858 0 8.765 0H6.113c-.093 0-.159.066-.159.158 0 .818-.663 1.478-1.485 1.478-.822 0-1.485-.66-1.485-1.478 0-.092-.067-.158-.16-.158H.16C.066 0 0 .066 0 .158v2.968c0 .08.066.146.146.159.849.066 1.498.778 1.498 1.635 0 .858-.663 1.544-1.498 1.623-.08 0-.146.066-.146.145V9.67c0 .08.066.146.146.159.849.066 1.498.778 1.498 1.636 0 .857-.663 1.556-1.498 1.635-.08 0-.146.066-.146.145v2.982c0 .079.066.145.146.158.849.066 1.498.778 1.498 1.636 0 .857-.663 1.556-1.498 1.636-.08-.014-.146.052-.146.132v2.98c0 .08.066.146.146.16.849.065 1.498.777 1.498 1.635 0 .857-.663 1.556-1.498 1.636-.08-.014-.146.052-.146.131v2.982c0 .079.066.145.146.158.849.066 1.498.778 1.498 1.636 0 .857-.663 1.556-1.498 1.636-.08.013-.146.079-.146.158v2.968c0 .08.066.158.16.158h2.678c.08 0 .146-.066.159-.132.066-.752.703-1.345 1.485-1.345.782 0 1.406.593 1.485 1.346.014.079.08.131.16.131h2.678c.08 0 .146-.066.16-.132.066-.752.702-1.345 1.484-1.345.77 0 1.406.593 1.486 1.346.013.079.08.131.159.131h2.678c.08 0 .146-.066.16-.132.066-.752.702-1.345 1.485-1.345.769 0 1.405.593 1.485 1.346.013.079.08.131.159.131h2.626c.08 0 .145-.066.159-.132.066-.752.703-1.345 1.485-1.345.769 0 1.406.593 1.485 1.346.013.079.08.131.16.131h2.678c.08 0 .146-.066.159-.132.066-.752.703-1.345 1.485-1.345.77 0 1.406.593 1.485 1.346.014.079.08.131.16.131h2.678c.08 0 .16-.066.16-.158V32.9c0-.08-.067-.145-.147-.158-.888-.093-1.551-.792-1.551-1.65z"/>
        <path fill="#F4F5FA" d="M16.523 14.168c0 .462.37.83.835.83.464 0 .835-.368.835-.83 0-.462-.371-.831-.835-.831-.464 0-.835.369-.835.83z"/>
        <path fill="#E75760" d="M17.437 5.013H7.001c-.862 0-1.564.686-1.564 1.556v23.706c0 .396.331.725.729.725h3.328c.968 0 1.777-.725 1.883-1.675l.53-4.868c.186-1.662.359-3.298.544-4.92v-.013l.04-.357c.173-1.556.358-3.1.517-4.656.186-1.794 1.499-3.219 3.21-3.443 1.71-.238 3.195.593 3.951 2.176.106.225.239.449.398.647l.875 1.174c.013.013.027.026.027.04.305.356.596.699.888 1.042.16.184.027.475-.212.461h-1.366c-.994.014-1.207.29-.888 1.24.61 1.9 1.233 3.786 1.856 5.673.239.725 1.114 1.029 1.75.593 2.494-1.701 4.204-4.459 4.51-7.625.596-6.318-4.205-11.476-10.57-11.476z"/>
    </g>
    <defs>
        <clipPath id="prefix__clip0">
            <path fill="#fff" d="M0 0H32.727V36H0z"/>
        </clipPath>
    </defs>
</svg>
