<svg xmlns="http://www.w3.org/2000/svg" width="138" height="30" fill="none" viewBox="0 0 138 30">
    <g clip-path="url(#prefix__clip0)">
        <path fill="#A2ABB4" d="M53.91 14.89c0 3.584-2.526 6.149-6.08 6.149-.721 0-1.387-.138-1.998-.359-.389-.165-.833.138-.833.552v3.005c0 .331-.278.607-.61.607H41.64c-.333 0-.61-.276-.61-.607V9.706c0-.331.277-.607.61-.607h1.777c.222 0 .416.11.527.304.167.303.555.413.86.22.861-.579 1.888-.91 3.054-.91 3.526.028 6.052 2.565 6.052 6.177zm-4.025 0c0-1.517-1.11-2.647-2.61-2.647-1.499 0-2.61 1.13-2.61 2.647 0 1.516 1.111 2.647 2.61 2.647 1.5-.028 2.61-1.13 2.61-2.647zM55.492 14.89c0-3.585 2.72-6.15 6.524-6.15 3.775 0 6.524 2.565 6.524 6.15 0 3.557-2.749 6.149-6.524 6.149-3.803 0-6.524-2.592-6.524-6.15zm6.524 2.564c1.471 0 2.498-1.048 2.498-2.564 0-1.517-1.055-2.565-2.498-2.565-1.444 0-2.499 1.048-2.499 2.565 0 1.516 1.027 2.564 2.499 2.564zM74.842 21.039c-2.804 0-4.636-1.296-5.053-3.337-.083-.441.25-.827.666-.827h2.499c.305 0 .555.193.666.469.194.524.666.744 1.277.744.583 0 1.138-.303 1.138-.882 0-.662-.888-.855-1.998-1.048-1.805-.303-4.192-.827-4.192-3.64 0-2.316 1.97-3.805 4.969-3.805 2.582 0 4.386 1.186 4.802 3.06.111.442-.222.856-.666.856h-2.387c-.306 0-.556-.193-.639-.47-.166-.413-.583-.633-1.138-.633-.638 0-1.083.303-1.083.854 0 .662.889.8 2 .993 1.831.331 4.274.69 4.274 3.64 0 2.426-2.054 4.026-5.135 4.026zM89.804 17.73v2.344c0 .303-.25.579-.583.579h-2.165c-2.582 0-4.136-1.572-4.136-4.136v-3.778c0-.303-.25-.579-.583-.579h-.972c-.305 0-.583-.248-.583-.58v-.137c0-.138.056-.276.167-.386l4.886-5.156c.11-.11.25-.193.416-.193.305 0 .583.248.583.579v2.26c0 .304.25.58.583.58h1.777c.305 0 .582.248.582.579v1.93c0 .303-.25.58-.582.58h-1.666c-.305 0-.583.247-.583.578v3.088c0 .828.5 1.324 1.333 1.324h.971c.278-.028.555.22.555.524zM109.68 13.4v6.563c0 .359-.305.662-.666.662h-2.665c-.361 0-.666-.303-.666-.662v-6.066c0-1.213-.445-1.792-1.305-1.792-1.111 0-1.666.744-1.666 2.206v5.652c0 .359-.305.662-.666.662h-2.554c-.36 0-.666-.303-.666-.662v-6.066c0-1.158-.444-1.792-1.277-1.792-1.083 0-1.666.772-1.666 2.206v5.652c0 .359-.305.662-.666.662h-2.665c-.36 0-.666-.303-.666-.662V9.761c0-.358.305-.662.666-.662h1.721c.25 0 .5.166.61.386.195.386.695.497 1.028.249.777-.607 1.721-.966 2.748-.966 1.138 0 2.166.414 2.887 1.159.25.275.667.275.944.027.805-.744 1.888-1.186 3.081-1.186 2.471 0 4.109 1.93 4.109 4.633zM124.227 9.568v10.616c0 .248-.195.469-.472.469h-2.332c-.195 0-.361-.11-.417-.276-.111-.248-.444-.359-.666-.22-.86.55-1.915.882-3.053.882-3.554 0-6.08-2.565-6.08-6.15 0-3.584 2.526-6.12 6.08-6.12 1.165 0 2.22.33 3.109.91.222.165.555.055.666-.194l.055-.11c.084-.165.25-.276.417-.276h2.221c.249 0 .472.193.472.47zm-3.804 5.322c0-1.324-.86-2.344-2.082-2.565-1.86-.33-3.47 1.38-3.053 3.199.25 1.186 1.249 1.985 2.526 1.985 1.499 0 2.609-1.13 2.609-2.62zM137.857 13.621v6.397c0 .359-.306.662-.666.662h-2.693c-.361 0-.666-.303-.666-.662v-5.845c0-1.351-.5-2.013-1.527-2.013-1.249 0-1.971.855-1.971 2.344v5.514c0 .359-.306.662-.666.662h-2.693c-.361 0-.666-.303-.666-.662V9.761c0-.358.305-.662.666-.662h1.721c.25 0 .5.138.583.386.166.386.666.497.999.249.805-.607 1.86-.966 3.054-.966 2.748 0 4.525 1.903 4.525 4.853zM25.956 25.919c0-.717.555-1.297 1.249-1.352.056 0 .111-.055.111-.137v-2.482c0-.055-.055-.11-.111-.138-.694-.055-1.25-.634-1.25-1.351s.556-1.296 1.25-1.351c.056 0 .111-.055.111-.138v-2.482c0-.055-.055-.11-.111-.137-.694-.056-1.25-.635-1.25-1.352 0-.716.556-1.296 1.25-1.35.056 0 .111-.056.111-.139V11.03c0-.055-.055-.11-.111-.138-.694-.055-1.25-.634-1.25-1.351s.556-1.296 1.25-1.351c.056 0 .111-.055.111-.138V5.569c0-.055-.055-.11-.111-.138-.694-.055-1.25-.634-1.25-1.35 0-.718.556-1.297 1.25-1.352.056 0 .111-.055.111-.138V.11c0-.083-.055-.138-.139-.138h-2.22c-.084 0-.14.055-.14.138 0 .689-.555 1.24-1.249 1.24-.694 0-1.249-.551-1.249-1.24.028-.055-.028-.11-.11-.11h-2.222c-.083 0-.138.055-.138.137 0 .69-.556 1.241-1.25 1.241S17.35.827 17.35.138c0-.083-.055-.139-.139-.139h-2.22c-.084 0-.14.056-.14.138 0 .69-.555 1.241-1.249 1.241-.694 0-1.249-.551-1.249-1.24 0-.083-.055-.139-.139-.139h-2.22c-.084 0-.14.056-.14.138 0 .69-.554 1.241-1.248 1.241S7.356.827 7.356.138c0-.083-.055-.139-.138-.139H4.997c-.083 0-.139.056-.139.138 0 .69-.555 1.241-1.25 1.241-.693 0-1.248-.551-1.248-1.24.11-.083.055-.139 0-.139H.139C.056 0 0 .055 0 .137V2.62c0 .055.056.11.111.138.694.055 1.25.634 1.25 1.35 0 .718-.556 1.297-1.25 1.352-.055 0-.111.055-.111.11v2.482c0 .055.056.11.111.138.722.055 1.25.634 1.25 1.35 0 .718-.556 1.297-1.25 1.352-.055.027-.111.083-.111.138v2.481c0 .056.056.11.111.138.694.055 1.25.635 1.25 1.351 0 .717-.556 1.296-1.25 1.351-.055 0-.111.056-.111.138v2.482c0 .055.056.11.111.138.694.055 1.25.634 1.25 1.35 0 .718-.556 1.297-1.25 1.352-.055 0-.111.055-.111.138v2.482c0 .055.056.11.111.11.722.082 1.25.662 1.25 1.379 0 .716-.556 1.296-1.25 1.35-.055 0-.111.056-.111.139v2.481c0 .083.056.138.139.138h2.22c.056 0 .112-.055.14-.11.055-.635.582-1.13 1.249-1.13.666 0 1.166.495 1.249 1.13 0 .055.055.11.139.11h2.248c.056 0 .111-.055.139-.11.056-.635.583-1.13 1.25-1.13.638 0 1.165.495 1.248 1.13 0 .055.056.11.14.11h2.248c.055 0 .11-.055.139-.11.055-.635.583-1.13 1.249-1.13.666 0 1.166.495 1.249 1.13 0 .055.056.11.139.11h2.248c.056 0 .111-.055.14-.11.055-.635.582-1.13 1.248-1.13.639 0 1.166.495 1.25 1.13 0 .055.055.11.138.11h2.249c.056 0 .111-.055.139-.11.055-.635.583-1.13 1.249-1.13.639 0 1.166.495 1.25 1.13 0 .055.055.11.138.11h2.22c.084 0 .14-.055.14-.138v-2.482c0-.055-.056-.11-.111-.137-1-.055-1.527-.635-1.527-1.351z"/>
        <path fill="#F2F2F2" d="M13.797 11.802c0 .386.305.689.694.689.389 0 .694-.303.694-.69 0-.386-.306-.689-.694-.689-.389 0-.694.303-.694.69z"/>
        <path fill="#C1C7CD" d="M14.546 4.164H5.857c-.721 0-1.304.579-1.304 1.296v19.742c0 .331.277.607.61.607H7.94c.806 0 1.472-.607 1.555-1.406l.444-4.054c.167-1.378.306-2.73.444-4.108v-.028c0-.11.028-.193.028-.303.139-1.296.306-2.592.444-3.888.167-1.489 1.25-2.674 2.665-2.867 1.444-.194 2.665.496 3.304 1.82.083.192.194.358.333.55l.722.993.027.028c.25.303.5.58.75.855.139.165.028.386-.194.386h-1.139c-.832 0-.999.248-.75 1.02.5 1.572 1.028 3.144 1.556 4.743.194.606.943.854 1.47.496 2.083-1.434 3.498-3.722 3.776-6.37.5-5.183-3.525-9.512-8.828-9.512z"/>
    </g>
    <defs>
        <clipPath id="prefix__clip0">
            <path fill="#fff" d="M0 0H137.857V30H0z"/>
        </clipPath>
    </defs>
</svg>
