<svg xmlns="http://www.w3.org/2000/svg" width="150" height="166" fill="none" viewBox="0 0 150 166">
    <g clip-path="url(#prefix__clip0)">
        <path fill="#040651" d="M142.464 143.254c0-3.951 3.038-7.172 6.867-7.537.365-.061.669-.364.669-.729v-13.736c0-.365-.304-.669-.669-.729-3.889-.304-6.867-3.586-6.867-7.537 0-3.95 3.038-7.172 6.867-7.536.365-.061.669-.365.669-.73V91.167c0-.365-.304-.669-.669-.73-3.889-.303-6.867-3.585-6.867-7.536 0-3.95 3.038-7.172 6.867-7.536.365-.061.669-.365.669-.73V60.9c0-.364-.304-.668-.669-.729-3.889-.304-6.867-3.586-6.867-7.536 0-3.95 3.038-7.172 6.867-7.537.365-.06.669-.364.669-.73V30.815c0-.364-.304-.668-.669-.729-3.889-.304-6.867-3.586-6.867-7.536 0-3.95 3.038-7.172 6.867-7.537.365-.06.669-.364.669-.73V.73c0-.364-.304-.729-.729-.729h-12.217c-.425 0-.729.304-.729.73 0 3.768-3.039 6.806-6.807 6.806-3.768 0-6.807-3.038-6.807-6.807 0-.364-.304-.729-.73-.729h-12.216c-.365 0-.729.304-.729.73 0 3.768-3.039 6.806-6.807 6.806-3.769 0-6.808-3.038-6.808-6.807 0-.364-.303-.729-.729-.729H82.476c-.426 0-.73.304-.73.73 0 3.768-3.038 6.806-6.807 6.806-3.768 0-6.807-3.038-6.807-6.807 0-.425-.304-.729-.73-.729H55.248c-.425 0-.73.304-.73.73 0 3.768-3.038 6.806-6.806 6.806-3.768 0-6.807-3.038-6.807-6.807 0-.364-.304-.729-.73-.729H28.02c-.426 0-.73.304-.73.73 0 3.768-3.039 6.806-6.807 6.806-3.768 0-6.807-3.038-6.807-6.807 0-.425-.304-.729-.73-.729H.73C.304 0 0 .304 0 .73v13.674c0 .365.304.669.669.73 3.89.304 6.867 3.586 6.867 7.536 0 3.95-3.038 7.111-6.867 7.476-.365 0-.669.304-.669.668V44.55c0 .365.304.669.669.73 3.89.303 6.867 3.585 6.867 7.536 0 3.95-3.038 7.172-6.867 7.536-.365 0-.669.304-.669.67v13.735c0 .365.304.668.669.73 3.89.303 6.867 3.585 6.867 7.536 0 3.95-3.038 7.172-6.867 7.536-.365-.06-.669.243-.669.608v13.736c0 .364.304.668.669.729 3.89.304 6.867 3.586 6.867 7.537 0 3.95-3.038 7.171-6.867 7.536-.365-.061-.669.243-.669.608v13.736c0 .364.304.668.669.729 3.89.304 6.867 3.586 6.867 7.536 0 3.951-3.038 7.172-6.867 7.537-.365.061-.669.365-.669.729v13.675c0 .365.304.73.73.73h12.277c.364 0 .668-.304.729-.608.304-3.465 3.221-6.2 6.807-6.2 3.586 0 6.442 2.735 6.807 6.2.06.365.365.608.73.608h12.277c.364 0 .668-.304.729-.608.304-3.465 3.221-6.2 6.807-6.2 3.525 0 6.443 2.735 6.807 6.2.06.365.365.608.73.608h12.277c.364 0 .668-.304.729-.608.304-3.465 3.221-6.2 6.807-6.2 3.525 0 6.443 2.735 6.807 6.2.061.365.365.608.73.608h12.034c.364 0 .668-.304.729-.608.304-3.465 3.221-6.2 6.807-6.2 3.525 0 6.443 2.735 6.807 6.2.061.365.365.608.73.608h12.277c.364 0 .668-.304.729-.608.304-3.465 3.221-6.2 6.807-6.2 3.525 0 6.443 2.735 6.807 6.2.061.365.365.608.73.608h12.277c.364 0 .729-.304.729-.73V151.58c0-.364-.304-.668-.668-.729-4.073-.426-7.111-3.647-7.111-7.597z"/>
        <path fill="#F4F5FA" d="M75.73 65.275c0 2.128 1.701 3.83 3.828 3.83 2.128 0 3.83-1.702 3.83-3.83 0-2.127-1.702-3.829-3.83-3.829-2.127 0-3.829 1.702-3.829 3.83z"/>
        <path fill="#E75760" d="M79.923 23.096H32.091c-3.95 0-7.172 3.16-7.172 7.171v109.218c0 1.824 1.52 3.343 3.343 3.343h15.255c4.437 0 8.144-3.343 8.63-7.719l2.432-22.427c.85-7.658 1.64-15.194 2.492-22.67v-.06l.182-1.642c.79-7.171 1.64-14.282 2.37-21.454.851-8.266 6.868-14.83 14.708-15.863 7.84-1.094 14.648 2.735 18.112 10.028.487 1.033 1.094 2.066 1.824 2.978l4.01 5.41c.062.06.123.121.123.182 1.397 1.64 2.734 3.221 4.072 4.801.729.851.121 2.188-.973 2.127h-6.26c-4.558.061-5.53 1.338-4.072 5.714 2.796 8.752 5.652 17.443 8.509 26.134 1.094 3.343 5.105 4.741 8.023 2.735 11.426-7.84 19.266-20.543 20.664-35.13 2.735-29.112-19.267-52.876-48.44-52.876z"/>
    </g>
    <defs>
        <clipPath id="prefix__clip0">
            <path fill="#fff" d="M0 0H150V165.863H0z"/>
        </clipPath>
    </defs>
</svg>
