<svg xmlns="http://www.w3.org/2000/svg" width="170" height="44" fill="none" viewBox="0 0 170 44">
    <path fill="#fff" fill-rule="evenodd" d="M73.35 6.23c0-1.722-1.308-3.05-3.005-3.05-1.691 0-3.007 1.328-3.007 3.05 0 1.721 1.316 3.05 3.007 3.05 1.697 0 3.006-1.33 3.006-3.05zm-7.767 0c0-2.676 2.055-4.695 4.762-4.695 2.707 0 4.761 2.02 4.761 4.695 0 2.675-2.054 4.693-4.761 4.693-2.707 0-4.762-2.018-4.762-4.693zM83.18 4.574c0-.84-.529-1.424-1.539-1.424h-1.55c-.038 0-.077.008-.112.022-.036.015-.068.037-.095.065-.028.027-.05.06-.064.096-.015.036-.023.075-.023.114v2.235c0 .164.132.297.294.297h1.55c1.01 0 1.539-.53 1.539-1.405zm1.696.017c0 1.644-1.162 2.89-2.97 2.89H80.09c-.078 0-.152.031-.207.087-.055.056-.087.131-.087.21v2.729c0 .039-.007.078-.022.114-.014.036-.036.069-.063.096-.028.028-.06.05-.096.065-.035.015-.073.023-.112.023H78.34c-.078 0-.152-.032-.208-.088-.055-.056-.086-.131-.086-.21V1.952c0-.164.131-.298.294-.298h3.564c1.809 0 2.971 1.317 2.971 2.937zm4.585-1.06v1.627c0 .164.13.297.293.297h2.613c.162 0 .294.133.294.298v.965c0 .079-.031.155-.086.21-.055.056-.13.088-.208.088h-2.613c-.038 0-.077.008-.112.023-.036.015-.068.037-.096.064-.027.028-.048.06-.063.097-.015.036-.022.075-.022.114v1.614c0 .164.13.298.293.298h3.048c.162 0 .293.133.293.297v.984c0 .039-.007.078-.022.114-.015.036-.036.069-.064.096-.027.028-.06.05-.095.065s-.073.023-.112.023h-4.798c-.038 0-.076-.008-.112-.023-.035-.015-.068-.037-.095-.065-.027-.027-.049-.06-.063-.096-.015-.037-.023-.075-.023-.114V1.952c0-.164.132-.298.293-.298h4.798c.162 0 .293.134.293.298v.984c0 .039-.007.077-.022.114-.015.036-.036.069-.064.096-.027.028-.06.05-.095.065s-.073.022-.112.022h-3.048c-.078 0-.152.031-.207.087-.056.056-.087.132-.087.211zm15.311-1.58v8.556c0 .039-.007.078-.022.114-.015.036-.036.069-.063.096-.028.028-.06.05-.096.065-.035.015-.073.023-.112.023h-1.221c-.044 0-.088-.01-.128-.03-.04-.02-.075-.048-.102-.083l-4.533-5.774c-.173-.22-.522-.097-.522.185v5.404c0 .079-.03.155-.086.21-.055.056-.13.088-.207.088h-1.14c-.078 0-.152-.032-.207-.088-.055-.056-.086-.131-.086-.21V1.952c0-.164.131-.298.293-.298h1.21c.089 0 .173.042.23.112l4.532 5.754c.173.22.523.096.523-.185V1.952c0-.164.13-.298.293-.298h1.151c.162 0 .293.134.293.298zM75.107 21.99c0 2.687-2.05 4.705-4.762 4.705-2.707 0-4.762-2.018-4.762-4.694 0-2.675 2.055-4.694 4.762-4.694 1.557 0 2.899.672 3.753 1.745.027.034.047.074.058.116.01.043.012.087.004.13-.008.043-.026.084-.051.12-.025.035-.058.065-.096.086l-1.006.563c-.058.034-.126.046-.191.036-.066-.011-.126-.044-.17-.095-.546-.647-1.365-1.057-2.308-1.057-1.684 0-3 1.305-3 3.092 0 1.674 1.169 3.008 3.03 3.008 1.324 0 2.308-.672 2.739-1.738.078-.194-.069-.406-.275-.406h-1.648c-.038 0-.076-.008-.112-.023-.036-.015-.068-.037-.095-.064-.027-.028-.049-.06-.064-.097-.014-.036-.022-.074-.022-.114v-.87c0-.164.131-.298.293-.298h3.62c.155 0 .281.122.292.28.007.085.01.175.01.269zm9.98.011c0-1.721-1.31-3.05-3.006-3.05-1.692 0-3.007 1.329-3.007 3.05 0 1.722 1.315 3.051 3.007 3.051 1.696 0 3.006-1.329 3.006-3.05zm-7.769 0c0-2.675 2.056-4.694 4.763-4.694 2.706 0 4.761 2.02 4.761 4.694 0 2.676-2.055 4.695-4.761 4.695-2.707 0-4.762-2.02-4.762-4.695zm19.542-4.172l-3.195 8.555c-.02.057-.059.105-.108.14-.049.034-.107.053-.166.053h-1.404c-.06 0-.117-.02-.166-.053-.049-.035-.087-.083-.108-.14l-3.19-8.555c-.016-.045-.022-.093-.016-.141.006-.048.023-.094.05-.133.027-.04.063-.072.105-.095.042-.022.089-.034.136-.034h1.218c.124 0 .235.08.277.198l2.12 6.03c.093.263.46.263.552 0l2.126-6.03c.02-.058.058-.108.108-.143.049-.036.108-.055.169-.055h1.218c.205 0 .347.208.274.403zm4.536 1.474v1.626c0 .165.131.298.293.298h2.613c.162 0 .294.133.294.298v.965c0 .039-.008.078-.023.114-.014.036-.036.069-.063.097-.027.027-.06.05-.095.064-.036.015-.074.023-.113.023h-2.613c-.078 0-.152.031-.207.087-.055.056-.086.131-.086.21V24.7c0 .164.131.298.293.298h3.048c.161 0 .293.133.293.297v.984c0 .079-.031.155-.086.21-.055.056-.13.088-.207.088h-4.799c-.077 0-.152-.032-.207-.088-.054-.056-.085-.131-.085-.21v-8.555c0-.164.131-.298.292-.298h4.799c.161 0 .293.134.293.298v.984c0 .079-.031.154-.086.21-.055.056-.13.087-.207.087h-3.048c-.039 0-.077.008-.112.023-.036.015-.068.037-.095.064-.028.028-.049.061-.064.097-.015.036-.022.075-.022.114zm8.535 1.686c0 .165.131.297.294.297h1.362c.839 0 1.292-.434 1.292-1.167 0-.721-.453-1.191-1.292-1.191h-1.362c-.039 0-.077.008-.113.023-.035.014-.067.036-.095.064-.027.027-.049.06-.063.096-.015.036-.023.075-.023.114v1.764zm1.295 1.721h-1.001c-.039 0-.077.008-.113.023-.035.015-.068.037-.095.064-.027.028-.049.06-.064.097-.014.036-.022.075-.022.114v3.271c0 .04-.007.078-.022.114-.015.036-.037.069-.064.096-.027.028-.059.05-.095.065-.035.015-.074.023-.112.023h-1.163c-.078 0-.152-.032-.207-.088-.055-.055-.086-.131-.086-.21v-8.555c0-.164.131-.298.293-.298h3.23c1.855 0 2.871 1.216 2.871 2.71 0 1.002-.508 1.805-1.287 2.235-.035.018-.065.044-.089.075-.025.031-.043.067-.053.106-.011.038-.013.078-.008.118.005.039.018.077.038.111l1.953 3.346c.026.046.041.097.041.15 0 .052-.013.104-.038.15-.026.045-.063.083-.108.11-.044.026-.095.04-.147.04h-1.215c-.052 0-.104-.015-.149-.042-.045-.027-.082-.066-.107-.112l-1.924-3.558c-.025-.047-.063-.086-.108-.114-.045-.027-.097-.04-.149-.04zm15.326-4.986v8.555c0 .079-.031.154-.086.21-.055.056-.129.087-.207.088h-1.222c-.044 0-.087-.01-.127-.03-.04-.02-.075-.048-.102-.083l-4.532-5.775c-.174-.22-.523-.096-.523.186v5.404c0 .079-.031.155-.086.21-.055.056-.129.088-.207.088h-1.139c-.078 0-.153-.032-.208-.088-.055-.055-.086-.131-.086-.21v-8.555c0-.164.131-.298.294-.298h1.209c.089 0 .173.042.229.113l4.533 5.753c.173.22.522.096.522-.185v-5.382c0-.165.132-.298.293-.298h1.152c.162 0 .293.133.293.298zm13.415 0v8.555c0 .079-.031.155-.086.21-.055.056-.129.088-.207.088h-1.164c-.078 0-.152-.032-.207-.088-.055-.055-.086-.131-.086-.21v-4.962c0-.326-.443-.415-.565-.112l-2.09 5.186c-.022.055-.06.102-.108.135-.048.033-.105.05-.163.05h-.517c-.058 0-.115-.017-.163-.05-.049-.034-.086-.08-.108-.136l-2.08-5.188c-.121-.303-.565-.215-.565.112v4.965c0 .079-.031.155-.086.21-.055.056-.129.088-.207.088h-1.163c-.078 0-.152-.032-.207-.088-.055-.055-.086-.131-.086-.21v-8.555c0-.164.131-.298.293-.298h1.883c.119 0 .226.073.271.184l2.203 5.414c.022.054.06.1.108.134.048.032.105.05.163.05.058 0 .114-.017.163-.05.048-.032.086-.079.108-.133l2.225-5.416c.022-.054.06-.1.108-.132.048-.033.105-.05.162-.05h1.878c.161 0 .293.133.293.297zm5.313 1.579v1.626c0 .165.131.298.293.298h2.613c.162 0 .293.133.293.298v.965c.001.039-.007.078-.022.114-.014.036-.036.069-.063.097-.027.027-.06.05-.095.064-.036.015-.074.023-.113.023h-2.613c-.078 0-.153.031-.207.087-.055.056-.086.131-.086.21V24.7c0 .164.131.298.293.298h3.047c.163 0 .294.133.294.297v.984c0 .079-.031.155-.086.21-.055.056-.13.088-.208.088h-4.797c-.078 0-.153-.032-.208-.088-.054-.055-.085-.131-.085-.21v-8.555c0-.164.131-.298.293-.298h4.797c.163 0 .294.134.294.298v.984c0 .079-.031.154-.086.21-.055.056-.13.087-.208.087h-3.047c-.039 0-.077.008-.113.023-.035.015-.067.037-.095.064-.027.028-.048.061-.063.097-.015.036-.022.075-.022.114zm15.311-1.579v8.555c0 .04-.008.078-.023.114-.014.036-.036.069-.063.096-.027.028-.06.05-.095.065-.036.015-.074.023-.112.023h-1.221c-.044 0-.088-.01-.128-.03-.039-.02-.074-.048-.102-.083l-4.532-5.775c-.174-.22-.523-.096-.523.186v5.404c0 .079-.031.155-.086.21-.055.056-.13.088-.208.088h-1.139c-.078 0-.153-.032-.208-.088-.054-.055-.085-.131-.086-.21v-8.555c0-.164.131-.298.294-.298h1.209c.09 0 .174.042.229.113l4.533 5.753c.173.22.523.096.523-.185v-5.382c0-.165.131-.298.294-.298h1.151c.161 0 .293.133.293.298" clip-rule="evenodd"/>
    <mask id="prefix__a" width="7" height="10" x="163" y="17" maskUnits="userSpaceOnUse">
        <path fill="#fff" d="M163.302 17.425h6.388v9.15h-6.388v-9.15z"/>
    </mask>
    <g mask="url(#prefix__a)">
        <path fill="#fff" fill-rule="evenodd" d="M169.397 19.004h-1.733c-.077 0-.152.031-.207.087-.055.056-.086.132-.086.21v6.977c0 .079-.031.155-.086.21-.055.056-.13.088-.208.088h-1.156c-.078 0-.153-.032-.208-.088-.055-.055-.086-.131-.086-.21v-6.976c0-.04-.007-.078-.022-.114-.015-.036-.036-.069-.064-.097-.027-.027-.059-.05-.095-.064-.035-.015-.073-.023-.112-.023h-1.739c-.077 0-.152-.031-.207-.087-.055-.056-.085-.131-.086-.21v-.984c0-.164.131-.298.293-.298h5.802c.162 0 .293.134.293.298v.984c0 .079-.031.154-.086.21-.055.056-.129.087-.207.087z" clip-rule="evenodd"/>
    </g>
    <path fill="#fff" fill-rule="evenodd" d="M71.337 36.115c0-.84-.528-1.424-1.538-1.424h-1.55c-.078 0-.153.032-.208.087-.055.056-.086.132-.086.211v2.235c0 .164.132.297.294.297h1.55c1.01 0 1.538-.53 1.538-1.406zm1.697.018c0 1.644-1.163 2.89-2.971 2.89h-1.814c-.039 0-.077.007-.113.022-.035.015-.068.037-.095.065-.027.027-.049.06-.064.096-.014.036-.022.075-.022.114v2.729c0 .039-.008.078-.022.114-.015.036-.037.069-.064.096-.027.028-.06.05-.095.065s-.073.023-.112.023H66.5c-.078 0-.153-.032-.208-.087-.055-.056-.086-.132-.086-.211v-8.555c0-.164.131-.298.294-.298h3.564c1.808 0 2.97 1.317 2.97 2.937h.001zm4.584.626c0 .164.131.297.294.297h1.361c.84 0 1.292-.435 1.292-1.167 0-.721-.452-1.191-1.291-1.191h-1.362c-.039 0-.077.007-.113.022-.035.015-.068.037-.095.065-.027.027-.049.06-.064.096-.014.036-.022.075-.022.114v1.764zm1.294 1.72h-1c-.039 0-.077.008-.113.023-.035.015-.068.037-.095.065-.027.028-.049.06-.064.097-.014.036-.022.074-.022.114v3.271c0 .079-.03.155-.086.21-.055.056-.13.088-.207.088H76.16c-.038 0-.076-.008-.112-.023-.036-.015-.068-.037-.095-.064-.027-.028-.049-.06-.064-.097-.014-.036-.022-.075-.022-.114v-8.555c0-.164.132-.298.293-.298h3.23c1.856 0 2.871 1.215 2.871 2.71 0 1.002-.506 1.805-1.287 2.234-.034.02-.064.045-.089.076-.024.031-.042.067-.053.105-.01.039-.013.079-.008.118.006.04.019.078.039.112l1.952 3.347c.026.045.04.096.04.149.001.052-.012.104-.038.15-.025.045-.062.083-.107.109-.044.026-.095.04-.147.04H81.35c-.052 0-.104-.014-.149-.041-.045-.027-.082-.067-.107-.114l-1.924-3.557c-.025-.047-.062-.086-.108-.112-.045-.028-.096-.042-.149-.042zm13.707-.708c0-1.721-1.31-3.05-3.006-3.05-1.691 0-3.007 1.329-3.007 3.05 0 1.722 1.316 3.05 3.007 3.05 1.696 0 3.005-1.328 3.005-3.05zm-7.769 0c0-2.675 2.056-4.694 4.763-4.694 2.706 0 4.761 2.02 4.761 4.694 0 2.675-2.055 4.695-4.761 4.695-2.707 0-4.762-2.02-4.762-4.695zm15.476 2.997c1.915 0 2.843-1.06 2.843-2.997 0-1.936-.928-2.996-2.843-2.996h-.974c-.078 0-.153.031-.208.087-.055.056-.086.131-.086.21v5.398c0 .164.131.298.294.298h.974zm-3.011-7.274c0-.164.13-.298.293-.298h2.795c2.995 0 4.579 1.805 4.579 4.576 0 2.77-1.584 4.574-4.579 4.574h-2.795c-.078 0-.153-.03-.208-.087-.055-.056-.085-.131-.085-.21v-8.555zm10.479 5.684v-5.684c0-.164.132-.297.293-.297h1.164c.161 0 .293.133.293.297v5.409c0 1.46.828 1.99 1.914 1.99 1.092 0 1.919-.53 1.919-1.99v-5.409c0-.164.132-.297.294-.297h1.169c.162 0 .294.133.294.297v5.684c0 2.185-1.586 3.288-3.676 3.288-2.079 0-3.664-1.103-3.664-3.288zm10.098-1.407c0-2.675 2.048-4.694 4.761-4.694 1.22 0 2.38.46 3.216 1.208.032.028.057.061.074.1.018.037.027.078.028.12.001.042-.007.084-.023.122-.016.039-.039.074-.069.103l-.806.766c-.053.051-.123.08-.196.08-.073.002-.144-.026-.198-.076-.532-.491-1.258-.779-2.026-.779-1.697 0-3.006 1.323-3.006 3.05 0 1.728 1.309 3.05 3.006 3.05.768 0 1.494-.288 2.026-.779.054-.05.124-.077.197-.076.074 0 .144.03.197.08l.806.767c.029.03.053.064.069.102.016.039.024.08.023.122-.001.042-.01.083-.028.12-.017.039-.042.073-.073.1-.837.749-1.997 1.209-3.217 1.209-2.713 0-4.761-2.02-4.761-4.695zm16.18-2.996h-1.732c-.078 0-.153.031-.208.087-.055.056-.086.131-.086.21v6.977c0 .079-.031.155-.086.21-.055.056-.13.088-.207.088h-1.157c-.039 0-.077-.008-.113-.023-.035-.015-.068-.037-.095-.064-.027-.028-.049-.06-.063-.097-.015-.036-.023-.075-.023-.114v-6.977c0-.039-.007-.078-.022-.114-.015-.036-.036-.069-.064-.096-.027-.028-.059-.05-.095-.065-.035-.014-.074-.022-.112-.022h-1.738c-.078 0-.153-.032-.208-.087-.054-.056-.085-.132-.086-.21v-.984c0-.164.132-.298.294-.298h5.801c.162 0 .293.134.293.298v.983c0 .08-.03.155-.085.21-.055.056-.13.088-.208.088zm2.415 6.02l.634-.804c.025-.032.056-.059.092-.078.036-.019.075-.03.116-.033.04-.003.081.003.119.017.038.014.073.036.102.065.606.594 1.441.996 2.175.996.705 0 1.216-.368 1.216-1.018 0-.817-.805-1.12-1.832-1.58-1.18-.523-2.425-1.119-2.425-2.733 0-1.62 1.245-2.55 2.783-2.55 1.017 0 1.976.385 2.761 1.023.058.049.095.118.103.193.009.075-.011.15-.056.211l-.568.783c-.023.032-.052.06-.086.08-.034.02-.072.033-.111.039-.039.005-.078.002-.116-.009-.038-.01-.074-.029-.104-.054-.606-.51-1.29-.76-1.864-.76-.569 0-1.021.293-1.021.865 0 .745.775 1.036 1.813 1.49 1.186.53 2.472 1.184 2.472 2.888 0 1.751-1.361 2.633-2.97 2.633-1.161 0-2.351-.472-3.197-1.253-.056-.05-.091-.121-.098-.198-.007-.076.015-.152.062-.213zm-121.138-1.46c.141-.246.184-.539.12-.817-.065-.278-.232-.52-.467-.678C9.917 34.46 6.556 28.63 6.556 22c0-6.63 3.36-12.458 8.446-15.84.235-.156.402-.399.467-.677.064-.278.022-.571-.12-.818L13.178.85c-.076-.133-.178-.248-.3-.34-.12-.09-.258-.156-.405-.192-.147-.036-.3-.04-.448-.015-.149.026-.291.082-.418.166C4.627 5.017 0 12.959 0 22c0 9.042 4.627 16.984 11.608 21.532.126.084.268.14.417.166.149.026.301.02.448-.015.147-.036.285-.101.406-.193.121-.091.223-.206.299-.339l2.17-3.815zM37.249.85l-2.17 3.815c-.142.247-.185.54-.12.818.064.278.23.52.466.678 5.085 3.38 8.447 9.21 8.447 15.84 0 6.629-3.362 12.458-8.447 15.839-.235.157-.402.4-.466.678-.065.278-.022.57.12.818l2.17 3.815c.076.132.178.248.299.34.121.09.26.156.406.192.147.035.3.04.448.014.149-.025.291-.082.418-.165C45.8 38.984 50.428 31.042 50.428 22S45.8 5.018 38.82.47c-.127-.084-.269-.14-.418-.166-.149-.026-.301-.021-.448.015-.147.035-.285.1-.406.192-.121.092-.223.207-.299.34z" clip-rule="evenodd"/>
</svg>
