<svg xmlns="http://www.w3.org/2000/svg" width="170" height="44" viewBox="0 0 170 44">
	<path d="M34.18.773l-1.988 3.47a1.02 1.02 0 0 0 .316 1.359c4.668 3.07 7.75 8.37 7.75 14.398s-3.082 11.324-7.75 14.398a1.02 1.02 0 0 0-.316 1.359l1.988 3.47a1 1 0 0 0 .277.309c.11.082.234.145.37.176s.277.035.4.012.266-.074.383-.148C42.023 35.438 46.273 28.22 46.273 20S42.027 4.563 35.62.426c-.234-.152-.52-.203-.793-.137a1.01 1.01 0 0 0-.645.484zM14.086 35.762c.27-.47.13-1.066-.32-1.363-4.664-3.07-7.75-8.37-7.75-14.398s3.086-11.324 7.75-14.398a1.02 1.02 0 0 0 .43-.617c.06-.254.02-.52-.11-.746L12.094.773a1.02 1.02 0 0 0-.648-.484c-.27-.066-.56-.016-.793.137C4.246 4.563 0 11.78 0 20s4.246 15.438 10.652 19.574c.234.152.523.203.793.137a1.02 1.02 0 0 0 .648-.484zm53.2-30.098c0-1.566-1.203-2.773-2.758-2.773-.738-.012-1.445.277-1.965.8a2.75 2.75 0 0 0-.797 1.973c0 1.563 1.207 2.77 2.762 2.77a2.72 2.72 0 0 0 2.758-2.77zm-7.13 0c0-2.434 1.887-4.27 4.37-4.27s4.367 1.84 4.367 4.27-1.887 4.266-4.367 4.266-4.37-1.836-4.37-4.266zM76.3 4.156c0-.762-.484-1.293-1.4-1.293H73.47c-.07 0-.14.027-.19.078s-.078.12-.078.19v2.035a.27.27 0 0 0 .27.27h1.422c.926 0 1.4-.484 1.4-1.277zm1.56.016c0 1.496-1.066 2.63-2.727 2.63H73.47c-.07 0-.14.027-.19.078s-.078.12-.078.19v2.48c0 .04-.008.074-.02.105s-.035.063-.06.086a.27.27 0 0 1-.086.063c-.035.012-.07.02-.105.02h-1.066c-.035 0-.07-.008-.105-.02s-.062-.035-.086-.06-.043-.055-.06-.1-.02-.066-.02-.102v-7.78a.27.27 0 0 1 .27-.27h3.27c1.66 0 2.727 1.195 2.727 2.668zm4.207-.96v1.477a.27.27 0 0 0 .27.27h2.398a.27.27 0 0 1 .27.273v.875c0 .074-.027.14-.082.195s-.117.078-.187.078h-2.398c-.035 0-.07.008-.105.02s-.062.035-.086.06a.2.2 0 0 0-.059.09c-.012.03-.02.066-.02.102v1.47c0 .148.117.27.27.27h2.797a.27.27 0 0 1 .27.27v.895a.27.27 0 0 1-.082.191c-.05.05-.117.082-.187.082H80.73c-.035 0-.07-.008-.105-.023s-.062-.03-.086-.06-.043-.055-.06-.086-.02-.07-.02-.105V1.773a.27.27 0 0 1 .27-.27h4.402a.27.27 0 0 1 .27.27v.895c0 .07-.027.14-.078.19s-.12.078-.19.078h-2.797c-.07 0-.14.03-.19.082s-.078.117-.078.19zm14.05-1.437V9.55c0 .07-.027.14-.078.19s-.12.078-.19.078h-1.12c-.082.004-.16-.035-.21-.102l-4.16-5.25c-.07-.086-.19-.12-.297-.082s-.18.137-.18.254v4.9c0 .07-.03.14-.082.19s-.117.078-.19.078h-1.043c-.07 0-.14-.027-.19-.078s-.078-.12-.078-.19V1.773a.27.27 0 0 1 .27-.27h1.11c.082 0 .16.04.21.102l4.16 5.234c.074.1.19.12.297.086s.18-.14.184-.254V1.773c0-.148.117-.27.27-.27h1.055a.27.27 0 0 1 .27.27zM68.895 19.988c0 2.44-1.88 4.277-4.37 4.277-2.484 0-4.367-1.84-4.367-4.266s1.883-4.27 4.367-4.27c1.434 0 2.664.613 3.445 1.6a.3.3 0 0 1 .055.105.39.39 0 0 1 .004.117.28.28 0 0 1-.137.188l-.922.512c-.055.03-.117.04-.176.03s-.12-.04-.156-.086c-.5-.6-1.254-.96-2.117-.96-1.547 0-2.754 1.188-2.754 2.81 0 1.523 1.074 2.738 2.78 2.738 1.215 0 2.117-.613 2.512-1.582a.26.26 0 0 0-.027-.25c-.05-.074-.137-.117-.223-.117h-1.512c-.04 0-.07-.008-.105-.02a.27.27 0 0 1-.086-.062c-.027-.023-.047-.055-.06-.086s-.02-.066-.02-.105v-.79c0-.148.117-.27.266-.27h3.324c.14 0 .258.11.266.25.008.082.012.164.012.246zm9.16.012c0-1.566-1.203-2.773-2.762-2.773a2.7 2.7 0 0 0-1.961.801c-.52.523-.805 1.234-.797 1.973-.008.738.277 1.45.797 1.973a2.71 2.71 0 0 0 1.965.801c1.555 0 2.758-1.207 2.758-2.773zm-7.13 0c0-2.434 1.887-4.27 4.367-4.27s4.37 1.84 4.37 4.27-1.887 4.27-4.37 4.27-4.367-1.844-4.367-4.27zm17.93-3.793l-2.93 7.777a.28.28 0 0 1-.098.125c-.047.03-.098.05-.152.05h-1.29c-.055 0-.11-.02-.152-.05s-.082-.074-.102-.125l-2.926-7.777c-.016-.043-.02-.086-.016-.13s.023-.086.047-.12a.26.26 0 0 1 .098-.086.27.27 0 0 1 .125-.031h1.113c.113 0 .215.074.254.18l1.95 5.48a.27.27 0 0 0 .254.18c.113 0 .21-.07.254-.176l1.95-5.484c.02-.05.055-.098.098-.13s.102-.05.156-.05h1.117c.188 0 .32.19.254.367zm4.164 1.34v1.477a.27.27 0 0 0 .27.273h2.398a.27.27 0 0 1 .27.27v.88c0 .07-.03.14-.082.19s-.117.078-.187.078H93.29c-.07 0-.14.027-.19.078s-.078.12-.078.19v1.47a.27.27 0 0 0 .27.27h2.797a.27.27 0 0 1 .27.27v.895c0 .04-.008.07-.02.105s-.035.063-.06.086-.055.047-.1.063-.066.02-.102.02h-4.402c-.04 0-.07-.008-.105-.02-.066-.03-.117-.082-.145-.148-.016-.03-.02-.066-.02-.105v-7.773a.27.27 0 0 1 .27-.273h4.402a.27.27 0 0 1 .27.273v.895c0 .035-.008.07-.023.102s-.03.063-.055.1-.055.043-.1.06-.066.02-.102.02H93.29a.27.27 0 0 0-.27.27zm7.832 1.53c0 .148.12.27.27.273h1.25c.773 0 1.188-.402 1.188-1.062s-.414-1.082-1.187-1.082h-1.25c-.07 0-.137.027-.187.078s-.082.12-.082.19zm1.188 1.566h-.918c-.07 0-.14.027-.19.078s-.078.12-.078.19v2.973c0 .04-.008.07-.02.105s-.035.063-.06.086a.27.27 0 0 1-.086.063c-.035.012-.07.02-.105.02h-1.066c-.035 0-.07-.008-.105-.02s-.06-.035-.086-.062-.047-.055-.06-.086-.02-.066-.02-.105v-7.773a.27.27 0 0 1 .27-.273h2.96c1.703 0 2.637 1.105 2.637 2.465 0 .9-.465 1.64-1.18 2.03-.03.02-.062.04-.082.07s-.04.06-.05.094c-.02.07-.008.148.027.21l1.793 3.04a.29.29 0 0 1 .039.137c0 .05-.012.094-.035.137s-.06.082-.102.102a.26.26 0 0 1-.133.035h-1.113a.27.27 0 0 1-.238-.141l-1.762-3.234c-.023-.043-.06-.078-.102-.102s-.1-.04-.137-.04zm14.066-4.535v7.777c0 .074-.027.14-.078.19s-.12.082-.19.082h-1.12c-.04 0-.082-.012-.117-.027s-.07-.043-.094-.074l-4.16-5.25c-.07-.1-.19-.125-.297-.086s-.18.14-.18.254v4.9a.27.27 0 0 1-.082.191c-.05.05-.117.082-.187.082h-1.047a.27.27 0 0 1-.191-.082c-.05-.05-.078-.117-.078-.19v-7.773a.27.27 0 0 1 .27-.273h1.113c.082 0 .16.04.21.102l4.16 5.23c.07.1.19.125.297.086s.18-.14.184-.254v-4.89c0-.152.117-.273.266-.273h1.06c.148.004.27.12.27.273zm12.31 0v7.777c0 .074-.027.14-.078.19s-.12.082-.19.082h-1.066c-.07 0-.14-.03-.19-.082s-.078-.117-.078-.19V19.38c-.004-.13-.094-.238-.22-.262s-.25.043-.3.156l-1.918 4.723c-.02.047-.055.1-.098.12s-.098.047-.148.047h-.48c-.11 0-.207-.066-.25-.168l-1.906-4.72c-.05-.117-.176-.184-.3-.156s-.215.13-.22.258v4.516a.28.28 0 0 1-.078.191c-.05.05-.12.078-.19.078h-1.066c-.07 0-.14-.027-.19-.078a.28.28 0 0 1-.078-.191v-7.78c0-.152.12-.27.27-.273h1.727c.11 0 .207.066.25.168l2.02 4.922c.023.05.055.094.102.12s.098.047.148.047a.27.27 0 0 0 .152-.047.25.25 0 0 0 .098-.121l2.043-4.922c.04-.102.137-.168.246-.168h1.723a.27.27 0 0 1 .27.273zm4.875 1.438v1.477a.27.27 0 0 0 .27.273h2.398a.27.27 0 0 1 .27.27v.88c0 .07-.027.14-.078.19s-.12.078-.19.078h-2.402c-.07 0-.14.027-.19.078s-.078.12-.078.19v1.47a.27.27 0 0 0 .27.27h2.797a.27.27 0 0 1 .27.273v.89c0 .04-.008.074-.02.105s-.035.063-.06.1-.055.043-.086.06-.07.02-.105.02h-4.402c-.035 0-.07-.008-.105-.02a.42.42 0 0 1-.086-.059c-.023-.027-.043-.06-.06-.1s-.02-.066-.02-.105v-7.773a.27.27 0 0 1 .27-.273h4.402a.27.27 0 0 1 .27.273v.895c0 .035-.008.07-.02.102s-.035.063-.06.1-.055.043-.1.06-.066.02-.102.02h-2.797c-.07 0-.14.027-.19.078s-.078.12-.078.19zm14.05-1.437v7.777c0 .04-.008.074-.02.105s-.035.063-.06.1-.055.043-.1.06-.066.02-.102.02h-1.12a.32.32 0 0 1-.117-.027c-.035-.02-.066-.043-.094-.074l-4.156-5.25a.27.27 0 0 0-.301-.086c-.105.04-.18.14-.18.254v4.9c0 .074-.027.14-.078.19s-.12.082-.19.082h-1.047a.26.26 0 0 1-.187-.082.27.27 0 0 1-.082-.191v-7.773a.27.27 0 0 1 .27-.273h1.11c.082 0 .16.04.21.102l4.16 5.23a.27.27 0 0 0 .301.086.28.28 0 0 0 .18-.254v-4.89c0-.152.117-.273.27-.273h1.055a.27.27 0 0 1 .27.273zm6.492 1.164h1.6c.07 0 .14-.027.19-.078s.078-.12.078-.19v-.89a.27.27 0 0 0-.27-.273h-5.324a.27.27 0 0 0-.27.273v.895a.27.27 0 0 0 .27.27h1.594c.04 0 .074.004.105.02s.063.03.086.06.047.055.06.086.02.07.02.105v6.344c0 .07.03.137.082.19s.117.078.188.078h1.063c.074 0 .14-.027.19-.078s.078-.12.078-.19v-6.344c0-.035.008-.07.02-.105s.035-.062.06-.086.055-.047.1-.06.066-.02.102-.02zM64.023 31.54c.93 0 1.414.53 1.414 1.293 0 .797-.484 1.277-1.414 1.277h-1.422a.27.27 0 0 1-.27-.27v-2.03c0-.074.027-.14.078-.19a.26.26 0 0 1 .191-.082h1.422zm.246 3.934c1.66 0 2.727-1.13 2.727-2.625 0-1.473-1.066-2.668-2.727-2.668h-3.273a.27.27 0 0 0-.27.27v7.777c0 .035.008.07.02.102s.035.066.06.1.055.047.1.06.066.02.102.02h1.07c.035 0 .07-.008.102-.02s.063-.035.086-.06.047-.055.06-.1.02-.066.02-.102v-2.48a.27.27 0 0 1 .082-.191c.05-.055.117-.082.19-.082zm7.2-1.785c-.148 0-.266-.12-.266-.27v-1.605c0-.035.004-.07.02-.105s.03-.062.06-.086.055-.047.086-.06.066-.02.102-.02h1.25c.773 0 1.188.426 1.188 1.082 0 .664-.414 1.063-1.187 1.063zm0 1.293h.922a.29.29 0 0 1 .137.039c.04.023.078.06.098.102l1.766 3.234c.023.043.06.078.098.102s.1.04.137.04h1.117a.26.26 0 0 0 .133-.035.27.27 0 0 0 .098-.102c.023-.043.043-.1.04-.137s-.016-.094-.04-.137l-1.793-3.043c-.016-.03-.027-.062-.035-.098-.008-.074.012-.148.06-.203.02-.027.047-.055.082-.07.715-.39 1.18-1.12 1.18-2.03 0-1.36-.934-2.465-2.637-2.465h-2.96a.27.27 0 0 0-.27.273v7.777c0 .035.008.07.02.102s.03.063.06.1.055.043.086.06.07.02.105.02h1.066c.035 0 .07-.008.102-.02s.063-.035.1-.06.043-.055.06-.1.02-.066.02-.102v-2.973c0-.074.027-.14.078-.19a.26.26 0 0 1 .191-.082zm10.738-3.414c1.56 0 2.758 1.207 2.758 2.77a2.72 2.72 0 0 1-2.758 2.773c-1.55 0-2.758-1.207-2.758-2.773a2.74 2.74 0 0 1 .797-1.973c.52-.523 1.227-.81 1.96-.8zm0-1.496c-2.484 0-4.367 1.836-4.367 4.266s1.883 4.27 4.367 4.27 4.37-1.836 4.37-4.27-1.887-4.266-4.37-4.266zm12.44 4.266c0 1.762-.852 2.723-2.61 2.723h-.895a.27.27 0 0 1-.27-.273V31.88c0-.07.027-.14.078-.19s.117-.078.19-.078h.895c1.758 0 2.61.965 2.61 2.723zm-5.105-4.156a.27.27 0 0 0-.27.27v7.777c0 .035.008.07.023.102s.03.063.055.1.055.043.1.06.066.02.102.02h2.566c2.75 0 4.203-1.64 4.203-4.16S94.86 30.18 92.11 30.18zm9.348.27v5.164c0 1.988 1.457 2.992 3.363 2.992 1.918 0 3.375-1.004 3.375-2.992V30.45c0-.152-.12-.27-.27-.27h-1.074c-.148 0-.27.117-.27.27v4.918c0 1.324-.758 1.81-1.762 1.81-.996 0-1.754-.484-1.754-1.81V30.45c0-.152-.12-.27-.27-.27h-1.07c-.148 0-.27.117-.27.27zm13.637-.38c-2.488 0-4.37 1.836-4.37 4.266s1.883 4.27 4.37 4.27c1.12 0 2.188-.418 2.953-1.098.027-.027.05-.055.066-.1s.023-.074.027-.11a.28.28 0 0 0-.023-.113c-.016-.035-.035-.066-.062-.094l-.738-.695c-.102-.098-.262-.098-.363-.004-.488.445-1.152.707-1.86.707a2.72 2.72 0 0 1-2.758-2.773c0-1.57 1.203-2.77 2.758-2.77.707 0 1.37.262 1.86.707a.27.27 0 0 0 .363-.004l.738-.695c.027-.027.05-.06.063-.094a.28.28 0 0 0 .023-.113c-.004-.074-.035-.148-.094-.2-.766-.68-1.832-1.098-2.953-1.098zm8.89 1.543h1.6c.07 0 .137-.027.188-.078s.078-.12.082-.19v-.895c0-.152-.12-.27-.27-.27h-5.324c-.148 0-.27.117-.27.27v.895a.27.27 0 0 0 .27.27h1.6c.035 0 .07.008.102.02s.063.035.1.06.043.055.06.1.02.066.02.105v6.34c0 .035.008.07.02.105s.035.063.06.086.055.047.086.06.07.02.105.02h1.063c.07 0 .14-.027.188-.078s.082-.12.082-.19V31.88c0-.035.004-.07.02-.102s.03-.062.06-.1.055-.043.086-.06.066-.02.105-.02zm4.387 4.742l-.582.73a.27.27 0 0 0 .035.375c.805.723 1.848 1.13 2.93 1.137 1.473 0 2.727-.8 2.727-2.39 0-1.55-1.18-2.145-2.266-2.63l-.156-.066h-.004c-.875-.375-1.508-.645-1.508-1.285 0-.52.414-.785.938-.785s1.156.227 1.71.688c.06.047.13.07.203.06.04-.004.07-.016.102-.035s.06-.043.078-.074l.52-.71c.082-.113.066-.277-.043-.363-.723-.582-1.602-.934-2.535-.934-1.414 0-2.555.844-2.555 2.32 0 1.465 1.14 2.008 2.23 2.484l.164.074c.863.38 1.516.664 1.516 1.36 0 .594-.47.926-1.113.926-.676 0-1.44-.363-2-.902-.023-.027-.06-.047-.1-.06a.27.27 0 0 0-.109-.02c-.04.004-.074.016-.11.03s-.06.043-.082.07zm0 0"
		fill-rule="evenodd" fill="rgb(6.27451%,4.705882%,33.333333%)" />
</svg>